%TF.GenerationSoftware,KiCad,Pcbnew,(6.0.2)*%
%TF.CreationDate,2022-05-16T11:26:32+02:00*%
%TF.ProjectId,Pir_movement_sensor,5069725f-6d6f-4766-956d-656e745f7365,rev?*%
%TF.SameCoordinates,PX55d4a80PY7bfa480*%
%TF.FileFunction,Legend,Top*%
%TF.FilePolarity,Positive*%
%FSLAX46Y46*%
G04 Gerber Fmt 4.6, Leading zero omitted, Abs format (unit mm)*
G04 Created by KiCad (PCBNEW (6.0.2)) date 2022-05-16 11:26:32*
%MOMM*%
%LPD*%
G01*
G04 APERTURE LIST*
%ADD10C,0.150000*%
%ADD11C,0.010000*%
%ADD12C,0.200000*%
%ADD13C,0.120000*%
%ADD14C,0.060000*%
G04 APERTURE END LIST*
D10*
%TO.C,*%
D11*
X11470000Y380000D02*
X11470000Y60000D01*
X11470000Y60000D02*
X11490000Y0D01*
X11490000Y0D02*
X13000000Y0D01*
X13000000Y0D02*
X13070000Y10000D01*
X13070000Y10000D02*
X13070000Y6550000D01*
X13070000Y6550000D02*
X13060000Y6630000D01*
X13060000Y6630000D02*
X13050000Y6710000D01*
X13050000Y6710000D02*
X13030000Y6780000D01*
X13030000Y6780000D02*
X13010000Y6860000D01*
X13010000Y6860000D02*
X12980000Y6930000D01*
X12980000Y6930000D02*
X12940000Y7000000D01*
X12940000Y7000000D02*
X12890000Y7060000D01*
X12890000Y7060000D02*
X12840000Y7120000D01*
X12840000Y7120000D02*
X12780000Y7180000D01*
X12780000Y7180000D02*
X12710000Y7230000D01*
X12710000Y7230000D02*
X12640000Y7270000D01*
X12640000Y7270000D02*
X12570000Y7300000D01*
X12570000Y7300000D02*
X12500000Y7330000D01*
X12500000Y7330000D02*
X12420000Y7350000D01*
X12420000Y7350000D02*
X12340000Y7360000D01*
X12340000Y7360000D02*
X12260000Y7360000D01*
X12260000Y7360000D02*
X12180000Y7350000D01*
X12180000Y7350000D02*
X12100000Y7340000D01*
X12100000Y7340000D02*
X12030000Y7320000D01*
X12030000Y7320000D02*
X11950000Y7290000D01*
X11950000Y7290000D02*
X11880000Y7260000D01*
X11880000Y7260000D02*
X11810000Y7220000D01*
X11810000Y7220000D02*
X11750000Y7170000D01*
X11750000Y7170000D02*
X11690000Y7110000D01*
X11690000Y7110000D02*
X11640000Y7050000D01*
X11640000Y7050000D02*
X11600000Y6990000D01*
X11600000Y6990000D02*
X11560000Y6920000D01*
X11560000Y6920000D02*
X11520000Y6840000D01*
X11520000Y6840000D02*
X11500000Y6770000D01*
X11500000Y6770000D02*
X11480000Y6690000D01*
X11480000Y6690000D02*
X11480000Y6610000D01*
X11480000Y6610000D02*
X11470000Y6530000D01*
X11470000Y6530000D02*
X11470000Y400000D01*
X11470000Y400000D02*
X11970000Y2940000D01*
X11970000Y2940000D02*
X11900000Y2960000D01*
X11900000Y2960000D02*
X11830000Y3000000D01*
X11830000Y3000000D02*
X11780000Y3060000D01*
X11780000Y3060000D02*
X11750000Y3130000D01*
X11750000Y3130000D02*
X11730000Y3210000D01*
X11730000Y3210000D02*
X11720000Y3290000D01*
X11720000Y3290000D02*
X11720000Y3380000D01*
X11720000Y3380000D02*
X11740000Y3460000D01*
X11740000Y3460000D02*
X11770000Y3530000D01*
X11770000Y3530000D02*
X11820000Y3580000D01*
X11820000Y3580000D02*
X11890000Y3620000D01*
X11890000Y3620000D02*
X11960000Y3640000D01*
X11960000Y3640000D02*
X12050000Y3640000D01*
X12050000Y3640000D02*
X12060000Y3560000D01*
X12060000Y3560000D02*
X12060000Y3480000D01*
X12060000Y3480000D02*
X12000000Y3440000D01*
X12000000Y3440000D02*
X11930000Y3410000D01*
X11930000Y3410000D02*
X11910000Y3330000D01*
X11910000Y3330000D02*
X11920000Y3250000D01*
X11920000Y3250000D02*
X11980000Y3210000D01*
X11980000Y3210000D02*
X12060000Y3220000D01*
X12060000Y3220000D02*
X12100000Y3270000D01*
X12100000Y3270000D02*
X12130000Y3350000D01*
X12130000Y3350000D02*
X12150000Y3440000D01*
X12150000Y3440000D02*
X12180000Y3520000D01*
X12180000Y3520000D02*
X12220000Y3590000D01*
X12220000Y3590000D02*
X12270000Y3640000D01*
X12270000Y3640000D02*
X12340000Y3680000D01*
X12340000Y3680000D02*
X12410000Y3700000D01*
X12410000Y3700000D02*
X12370000Y3930000D01*
X12370000Y3930000D02*
X12260000Y3930000D01*
X12260000Y3930000D02*
X12150000Y3930000D01*
X12150000Y3930000D02*
X12060000Y3940000D01*
X12060000Y3940000D02*
X11990000Y3950000D01*
X11990000Y3950000D02*
X11930000Y3960000D01*
X11930000Y3960000D02*
X11870000Y3990000D01*
X11870000Y3990000D02*
X11810000Y4040000D01*
X11810000Y4040000D02*
X11760000Y4100000D01*
X11760000Y4100000D02*
X11730000Y4170000D01*
X11730000Y4170000D02*
X11720000Y4250000D01*
X11720000Y4250000D02*
X11720000Y4340000D01*
X11720000Y4340000D02*
X11740000Y4420000D01*
X11740000Y4420000D02*
X11780000Y4480000D01*
X11780000Y4480000D02*
X11830000Y4540000D01*
X11830000Y4540000D02*
X11900000Y4580000D01*
X11900000Y4580000D02*
X11950000Y4600000D01*
X11950000Y4600000D02*
X12020000Y4620000D01*
X12020000Y4620000D02*
X12100000Y4630000D01*
X12100000Y4630000D02*
X12200000Y4630000D01*
X12200000Y4630000D02*
X12310000Y4630000D01*
X12310000Y4630000D02*
X12400000Y4620000D01*
X12400000Y4620000D02*
X12420000Y4870000D01*
X12420000Y4870000D02*
X11780000Y4870000D01*
X11780000Y4870000D02*
X11720000Y4900000D01*
X11720000Y4900000D02*
X11720000Y4980000D01*
X11720000Y4980000D02*
X11720000Y5060000D01*
X11720000Y5060000D02*
X11800000Y5070000D01*
X11800000Y5070000D02*
X12440000Y5070000D01*
X12440000Y5070000D02*
X12520000Y5080000D01*
X12520000Y5080000D02*
X12570000Y5130000D01*
X12570000Y5130000D02*
X12590000Y5210000D01*
X12590000Y5210000D02*
X12580000Y5290000D01*
X12580000Y5290000D02*
X12530000Y5360000D01*
X12530000Y5360000D02*
X12460000Y5380000D01*
X12460000Y5380000D02*
X11740000Y5380000D01*
X11740000Y5380000D02*
X11720000Y5450000D01*
X11720000Y5450000D02*
X11720000Y5530000D01*
X11720000Y5530000D02*
X11760000Y5570000D01*
X11760000Y5570000D02*
X11790000Y5810000D01*
X11790000Y5810000D02*
X11720000Y5820000D01*
X11720000Y5820000D02*
X11720000Y5900000D01*
X11720000Y5900000D02*
X11720000Y6380000D01*
X11720000Y6380000D02*
X11750000Y6440000D01*
X11750000Y6440000D02*
X11830000Y6440000D01*
X11830000Y6440000D02*
X11900000Y6440000D01*
X11900000Y6440000D02*
X11910000Y6360000D01*
X11910000Y6360000D02*
X11910000Y6280000D01*
X11910000Y6280000D02*
X11940000Y6220000D01*
X11940000Y6220000D02*
X12740000Y6220000D01*
X12740000Y6220000D02*
X12790000Y6200000D01*
X12790000Y6200000D02*
X12790000Y6120000D01*
X12790000Y6120000D02*
X12780000Y6040000D01*
X12780000Y6040000D02*
X12710000Y6020000D01*
X12710000Y6020000D02*
X11990000Y6020000D01*
X11990000Y6020000D02*
X11910000Y6020000D01*
X11910000Y6020000D02*
X11910000Y5860000D01*
X11910000Y5860000D02*
X11870000Y5810000D01*
X11870000Y5810000D02*
X11790000Y5810000D01*
X11790000Y5810000D02*
X11770000Y5570000D01*
X11770000Y5570000D02*
X12400000Y5570000D01*
X12400000Y5570000D02*
X12480000Y5570000D01*
X12480000Y5570000D02*
X12560000Y5550000D01*
X12560000Y5550000D02*
X12630000Y5520000D01*
X12630000Y5520000D02*
X12690000Y5460000D01*
X12690000Y5460000D02*
X12740000Y5400000D01*
X12740000Y5400000D02*
X12770000Y5330000D01*
X12770000Y5330000D02*
X12790000Y5250000D01*
X12790000Y5250000D02*
X12790000Y5200000D01*
X12790000Y5200000D02*
X12780000Y5120000D01*
X12780000Y5120000D02*
X12750000Y5050000D01*
X12750000Y5050000D02*
X12700000Y4980000D01*
X12700000Y4980000D02*
X12640000Y4930000D01*
X12640000Y4930000D02*
X12570000Y4890000D01*
X12570000Y4890000D02*
X12500000Y4870000D01*
X12500000Y4870000D02*
X12420000Y4870000D01*
X12420000Y4870000D02*
X12410000Y4620000D01*
X12410000Y4620000D02*
X12490000Y4620000D01*
X12490000Y4620000D02*
X12550000Y4600000D01*
X12550000Y4600000D02*
X12610000Y4580000D01*
X12610000Y4580000D02*
X12670000Y4540000D01*
X12670000Y4540000D02*
X12730000Y4480000D01*
X12730000Y4480000D02*
X12770000Y4420000D01*
X12770000Y4420000D02*
X12790000Y4350000D01*
X12790000Y4350000D02*
X12790000Y4270000D01*
X12790000Y4270000D02*
X12780000Y4190000D01*
X12780000Y4190000D02*
X12750000Y4110000D01*
X12750000Y4110000D02*
X12710000Y4050000D01*
X12710000Y4050000D02*
X12650000Y4000000D01*
X12650000Y4000000D02*
X12580000Y3970000D01*
X12580000Y3970000D02*
X12530000Y3950000D01*
X12530000Y3950000D02*
X12450000Y3940000D01*
X12450000Y3940000D02*
X12370000Y3930000D01*
X12370000Y3930000D02*
X12420000Y3700000D01*
X12420000Y3700000D02*
X12500000Y3700000D01*
X12500000Y3700000D02*
X12580000Y3680000D01*
X12580000Y3680000D02*
X12650000Y3640000D01*
X12650000Y3640000D02*
X12700000Y3590000D01*
X12700000Y3590000D02*
X12740000Y3530000D01*
X12740000Y3530000D02*
X12770000Y3450000D01*
X12770000Y3450000D02*
X12780000Y3370000D01*
X12780000Y3370000D02*
X12790000Y3290000D01*
X12790000Y3290000D02*
X12780000Y3210000D01*
X12780000Y3210000D02*
X12760000Y3130000D01*
X12760000Y3130000D02*
X12730000Y3060000D01*
X12730000Y3060000D02*
X12680000Y3000000D01*
X12680000Y3000000D02*
X12620000Y2950000D01*
X12620000Y2950000D02*
X12550000Y2920000D01*
X12550000Y2920000D02*
X12470000Y2910000D01*
X12470000Y2910000D02*
X12410000Y2940000D01*
X12410000Y2940000D02*
X12410000Y3100000D01*
X12410000Y3100000D02*
X12460000Y3140000D01*
X12460000Y3140000D02*
X12540000Y3160000D01*
X12540000Y3160000D02*
X12580000Y3220000D01*
X12580000Y3220000D02*
X12590000Y3300000D01*
X12590000Y3300000D02*
X12560000Y3380000D01*
X12560000Y3380000D02*
X12500000Y3420000D01*
X12500000Y3420000D02*
X12420000Y3400000D01*
X12420000Y3400000D02*
X12380000Y3360000D01*
X12380000Y3360000D02*
X12350000Y3280000D01*
X12350000Y3280000D02*
X12320000Y3190000D01*
X12320000Y3190000D02*
X12290000Y3100000D01*
X12290000Y3100000D02*
X12250000Y3040000D01*
X12250000Y3040000D02*
X12200000Y2990000D01*
X12200000Y2990000D02*
X12130000Y2950000D01*
X12130000Y2950000D02*
X12060000Y2940000D01*
X12060000Y2940000D02*
X11970000Y2940000D01*
X11970000Y2940000D02*
X11470000Y390000D01*
X11470000Y390000D02*
X11470000Y380000D01*
X11470000Y380000D02*
X11470000Y380000D01*
G36*
X12420000Y7350000D02*
G01*
X12500000Y7330000D01*
X12640000Y7270000D01*
X12710000Y7230000D01*
X12780000Y7180000D01*
X12840000Y7120000D01*
X12940000Y7000000D01*
X12980000Y6930000D01*
X13010000Y6860000D01*
X13030000Y6780000D01*
X13050000Y6710000D01*
X13070000Y6550000D01*
X13070000Y10000D01*
X13000000Y0D01*
X11490000Y0D01*
X11470000Y60000D01*
X11470000Y390000D01*
X11970000Y2940000D01*
X12060000Y2940000D01*
X12130000Y2950000D01*
X12200000Y2990000D01*
X12250000Y3040000D01*
X12290000Y3100000D01*
X12350000Y3280000D01*
X12380000Y3360000D01*
X12420000Y3400000D01*
X12500000Y3420000D01*
X12560000Y3380000D01*
X12590000Y3300000D01*
X12580000Y3220000D01*
X12540000Y3160000D01*
X12460000Y3140000D01*
X12410000Y3100000D01*
X12410000Y2940000D01*
X12470000Y2910000D01*
X12550000Y2920000D01*
X12620000Y2950000D01*
X12680000Y3000000D01*
X12730000Y3060000D01*
X12760000Y3130000D01*
X12780000Y3210000D01*
X12790000Y3290000D01*
X12770000Y3450000D01*
X12740000Y3530000D01*
X12700000Y3590000D01*
X12650000Y3640000D01*
X12580000Y3680000D01*
X12500000Y3700000D01*
X12420000Y3700000D01*
X12370000Y3930000D01*
X12530000Y3950000D01*
X12580000Y3970000D01*
X12650000Y4000000D01*
X12710000Y4050000D01*
X12750000Y4110000D01*
X12780000Y4190000D01*
X12790000Y4270000D01*
X12790000Y4350000D01*
X12770000Y4420000D01*
X12730000Y4480000D01*
X12670000Y4540000D01*
X12610000Y4580000D01*
X12490000Y4620000D01*
X12410000Y4620000D01*
X12420000Y4870000D01*
X12500000Y4870000D01*
X12570000Y4890000D01*
X12640000Y4930000D01*
X12700000Y4980000D01*
X12750000Y5050000D01*
X12780000Y5120000D01*
X12790000Y5200000D01*
X12790000Y5250000D01*
X12770000Y5330000D01*
X12740000Y5400000D01*
X12690000Y5460000D01*
X12630000Y5520000D01*
X12560000Y5550000D01*
X12480000Y5570000D01*
X11770000Y5570000D01*
X11790000Y5810000D01*
X11870000Y5810000D01*
X11910000Y5860000D01*
X11910000Y6020000D01*
X12710000Y6020000D01*
X12780000Y6040000D01*
X12790000Y6120000D01*
X12790000Y6200000D01*
X12740000Y6220000D01*
X11940000Y6220000D01*
X11910000Y6280000D01*
X11910000Y6360000D01*
X11900000Y6440000D01*
X11750000Y6440000D01*
X11720000Y6380000D01*
X11720000Y5820000D01*
X11790000Y5810000D01*
X11760000Y5570000D01*
X11720000Y5530000D01*
X11720000Y5450000D01*
X11740000Y5380000D01*
X12460000Y5380000D01*
X12530000Y5360000D01*
X12580000Y5290000D01*
X12590000Y5210000D01*
X12570000Y5130000D01*
X12520000Y5080000D01*
X12440000Y5070000D01*
X11800000Y5070000D01*
X11720000Y5060000D01*
X11720000Y4900000D01*
X11780000Y4870000D01*
X12420000Y4870000D01*
X12400000Y4620000D01*
X12310000Y4630000D01*
X12100000Y4630000D01*
X12020000Y4620000D01*
X11950000Y4600000D01*
X11900000Y4580000D01*
X11830000Y4540000D01*
X11780000Y4480000D01*
X11740000Y4420000D01*
X11720000Y4340000D01*
X11720000Y4250000D01*
X11730000Y4170000D01*
X11760000Y4100000D01*
X11810000Y4040000D01*
X11870000Y3990000D01*
X11930000Y3960000D01*
X11990000Y3950000D01*
X12060000Y3940000D01*
X12150000Y3930000D01*
X12370000Y3930000D01*
X12410000Y3700000D01*
X12340000Y3680000D01*
X12270000Y3640000D01*
X12220000Y3590000D01*
X12180000Y3520000D01*
X12150000Y3440000D01*
X12130000Y3350000D01*
X12100000Y3270000D01*
X12060000Y3220000D01*
X11980000Y3210000D01*
X11920000Y3250000D01*
X11910000Y3330000D01*
X11930000Y3410000D01*
X12000000Y3440000D01*
X12060000Y3480000D01*
X12060000Y3560000D01*
X12050000Y3640000D01*
X11960000Y3640000D01*
X11890000Y3620000D01*
X11820000Y3580000D01*
X11770000Y3530000D01*
X11740000Y3460000D01*
X11720000Y3380000D01*
X11720000Y3290000D01*
X11730000Y3210000D01*
X11750000Y3130000D01*
X11780000Y3060000D01*
X11830000Y3000000D01*
X11900000Y2960000D01*
X11970000Y2940000D01*
X11470000Y400000D01*
X11470000Y6530000D01*
X11480000Y6610000D01*
X11480000Y6690000D01*
X11500000Y6770000D01*
X11520000Y6840000D01*
X11560000Y6920000D01*
X11600000Y6990000D01*
X11640000Y7050000D01*
X11690000Y7110000D01*
X11750000Y7170000D01*
X11810000Y7220000D01*
X11880000Y7260000D01*
X11950000Y7290000D01*
X12030000Y7320000D01*
X12100000Y7340000D01*
X12260000Y7360000D01*
X12340000Y7360000D01*
X12420000Y7350000D01*
G37*
X12420000Y7350000D02*
X12500000Y7330000D01*
X12640000Y7270000D01*
X12710000Y7230000D01*
X12780000Y7180000D01*
X12840000Y7120000D01*
X12940000Y7000000D01*
X12980000Y6930000D01*
X13010000Y6860000D01*
X13030000Y6780000D01*
X13050000Y6710000D01*
X13070000Y6550000D01*
X13070000Y10000D01*
X13000000Y0D01*
X11490000Y0D01*
X11470000Y60000D01*
X11470000Y390000D01*
X11970000Y2940000D01*
X12060000Y2940000D01*
X12130000Y2950000D01*
X12200000Y2990000D01*
X12250000Y3040000D01*
X12290000Y3100000D01*
X12350000Y3280000D01*
X12380000Y3360000D01*
X12420000Y3400000D01*
X12500000Y3420000D01*
X12560000Y3380000D01*
X12590000Y3300000D01*
X12580000Y3220000D01*
X12540000Y3160000D01*
X12460000Y3140000D01*
X12410000Y3100000D01*
X12410000Y2940000D01*
X12470000Y2910000D01*
X12550000Y2920000D01*
X12620000Y2950000D01*
X12680000Y3000000D01*
X12730000Y3060000D01*
X12760000Y3130000D01*
X12780000Y3210000D01*
X12790000Y3290000D01*
X12770000Y3450000D01*
X12740000Y3530000D01*
X12700000Y3590000D01*
X12650000Y3640000D01*
X12580000Y3680000D01*
X12500000Y3700000D01*
X12420000Y3700000D01*
X12370000Y3930000D01*
X12530000Y3950000D01*
X12580000Y3970000D01*
X12650000Y4000000D01*
X12710000Y4050000D01*
X12750000Y4110000D01*
X12780000Y4190000D01*
X12790000Y4270000D01*
X12790000Y4350000D01*
X12770000Y4420000D01*
X12730000Y4480000D01*
X12670000Y4540000D01*
X12610000Y4580000D01*
X12490000Y4620000D01*
X12410000Y4620000D01*
X12420000Y4870000D01*
X12500000Y4870000D01*
X12570000Y4890000D01*
X12640000Y4930000D01*
X12700000Y4980000D01*
X12750000Y5050000D01*
X12780000Y5120000D01*
X12790000Y5200000D01*
X12790000Y5250000D01*
X12770000Y5330000D01*
X12740000Y5400000D01*
X12690000Y5460000D01*
X12630000Y5520000D01*
X12560000Y5550000D01*
X12480000Y5570000D01*
X11770000Y5570000D01*
X11790000Y5810000D01*
X11870000Y5810000D01*
X11910000Y5860000D01*
X11910000Y6020000D01*
X12710000Y6020000D01*
X12780000Y6040000D01*
X12790000Y6120000D01*
X12790000Y6200000D01*
X12740000Y6220000D01*
X11940000Y6220000D01*
X11910000Y6280000D01*
X11910000Y6360000D01*
X11900000Y6440000D01*
X11750000Y6440000D01*
X11720000Y6380000D01*
X11720000Y5820000D01*
X11790000Y5810000D01*
X11760000Y5570000D01*
X11720000Y5530000D01*
X11720000Y5450000D01*
X11740000Y5380000D01*
X12460000Y5380000D01*
X12530000Y5360000D01*
X12580000Y5290000D01*
X12590000Y5210000D01*
X12570000Y5130000D01*
X12520000Y5080000D01*
X12440000Y5070000D01*
X11800000Y5070000D01*
X11720000Y5060000D01*
X11720000Y4900000D01*
X11780000Y4870000D01*
X12420000Y4870000D01*
X12400000Y4620000D01*
X12310000Y4630000D01*
X12100000Y4630000D01*
X12020000Y4620000D01*
X11950000Y4600000D01*
X11900000Y4580000D01*
X11830000Y4540000D01*
X11780000Y4480000D01*
X11740000Y4420000D01*
X11720000Y4340000D01*
X11720000Y4250000D01*
X11730000Y4170000D01*
X11760000Y4100000D01*
X11810000Y4040000D01*
X11870000Y3990000D01*
X11930000Y3960000D01*
X11990000Y3950000D01*
X12060000Y3940000D01*
X12150000Y3930000D01*
X12370000Y3930000D01*
X12410000Y3700000D01*
X12340000Y3680000D01*
X12270000Y3640000D01*
X12220000Y3590000D01*
X12180000Y3520000D01*
X12150000Y3440000D01*
X12130000Y3350000D01*
X12100000Y3270000D01*
X12060000Y3220000D01*
X11980000Y3210000D01*
X11920000Y3250000D01*
X11910000Y3330000D01*
X11930000Y3410000D01*
X12000000Y3440000D01*
X12060000Y3480000D01*
X12060000Y3560000D01*
X12050000Y3640000D01*
X11960000Y3640000D01*
X11890000Y3620000D01*
X11820000Y3580000D01*
X11770000Y3530000D01*
X11740000Y3460000D01*
X11720000Y3380000D01*
X11720000Y3290000D01*
X11730000Y3210000D01*
X11750000Y3130000D01*
X11780000Y3060000D01*
X11830000Y3000000D01*
X11900000Y2960000D01*
X11970000Y2940000D01*
X11470000Y400000D01*
X11470000Y6530000D01*
X11480000Y6610000D01*
X11480000Y6690000D01*
X11500000Y6770000D01*
X11520000Y6840000D01*
X11560000Y6920000D01*
X11600000Y6990000D01*
X11640000Y7050000D01*
X11690000Y7110000D01*
X11750000Y7170000D01*
X11810000Y7220000D01*
X11880000Y7260000D01*
X11950000Y7290000D01*
X12030000Y7320000D01*
X12100000Y7340000D01*
X12260000Y7360000D01*
X12340000Y7360000D01*
X12420000Y7350000D01*
X12590000Y4240000D02*
X12580000Y4330000D01*
X12580000Y4330000D02*
X12550000Y4390000D01*
X12550000Y4390000D02*
X12500000Y4420000D01*
X12500000Y4420000D02*
X12440000Y4430000D01*
X12440000Y4430000D02*
X12360000Y4440000D01*
X12360000Y4440000D02*
X12240000Y4440000D01*
X12240000Y4440000D02*
X12130000Y4440000D01*
X12130000Y4440000D02*
X12050000Y4430000D01*
X12050000Y4430000D02*
X11990000Y4420000D01*
X11990000Y4420000D02*
X11940000Y4390000D01*
X11940000Y4390000D02*
X11920000Y4310000D01*
X11920000Y4310000D02*
X11930000Y4220000D01*
X11930000Y4220000D02*
X11970000Y4160000D01*
X11970000Y4160000D02*
X12020000Y4140000D01*
X12020000Y4140000D02*
X12080000Y4130000D01*
X12080000Y4130000D02*
X12180000Y4130000D01*
X12180000Y4130000D02*
X12300000Y4130000D01*
X12300000Y4130000D02*
X12410000Y4130000D01*
X12410000Y4130000D02*
X12480000Y4140000D01*
X12480000Y4140000D02*
X12520000Y4150000D01*
X12520000Y4150000D02*
X12590000Y4240000D01*
X12590000Y4240000D02*
X12590000Y4240000D01*
G36*
X12440000Y4430000D02*
G01*
X12500000Y4420000D01*
X12550000Y4390000D01*
X12580000Y4330000D01*
X12590000Y4240000D01*
X12520000Y4150000D01*
X12480000Y4140000D01*
X12410000Y4130000D01*
X12080000Y4130000D01*
X12020000Y4140000D01*
X11970000Y4160000D01*
X11930000Y4220000D01*
X11920000Y4310000D01*
X11940000Y4390000D01*
X11990000Y4420000D01*
X12050000Y4430000D01*
X12130000Y4440000D01*
X12360000Y4440000D01*
X12440000Y4430000D01*
G37*
X12440000Y4430000D02*
X12500000Y4420000D01*
X12550000Y4390000D01*
X12580000Y4330000D01*
X12590000Y4240000D01*
X12520000Y4150000D01*
X12480000Y4140000D01*
X12410000Y4130000D01*
X12080000Y4130000D01*
X12020000Y4140000D01*
X11970000Y4160000D01*
X11930000Y4220000D01*
X11920000Y4310000D01*
X11940000Y4390000D01*
X11990000Y4420000D01*
X12050000Y4430000D01*
X12130000Y4440000D01*
X12360000Y4440000D01*
X12440000Y4430000D01*
X14010000Y340000D02*
X14010000Y20000D01*
X14010000Y20000D02*
X14070000Y0D01*
X14070000Y0D02*
X15580000Y0D01*
X15580000Y0D02*
X15610000Y60000D01*
X15610000Y60000D02*
X15610000Y6020000D01*
X15610000Y6020000D02*
X15060000Y3660000D01*
X15060000Y3660000D02*
X15130000Y3630000D01*
X15130000Y3630000D02*
X15200000Y3600000D01*
X15200000Y3600000D02*
X15250000Y3540000D01*
X15250000Y3540000D02*
X15290000Y3480000D01*
X15290000Y3480000D02*
X15320000Y3410000D01*
X15320000Y3410000D02*
X15330000Y3320000D01*
X15330000Y3320000D02*
X15320000Y3220000D01*
X15320000Y3220000D02*
X15300000Y3140000D01*
X15300000Y3140000D02*
X15270000Y3080000D01*
X15270000Y3080000D02*
X15230000Y3020000D01*
X15230000Y3020000D02*
X15160000Y2970000D01*
X15160000Y2970000D02*
X15090000Y2930000D01*
X15090000Y2930000D02*
X15020000Y2910000D01*
X15020000Y2910000D02*
X14950000Y2910000D01*
X14950000Y2910000D02*
X14870000Y2900000D01*
X14870000Y2900000D02*
X14770000Y2900000D01*
X14770000Y2900000D02*
X14680000Y2900000D01*
X14680000Y2900000D02*
X14610000Y2910000D01*
X14610000Y2910000D02*
X14540000Y2920000D01*
X14540000Y2920000D02*
X14460000Y2950000D01*
X14460000Y2950000D02*
X14400000Y2980000D01*
X14400000Y2980000D02*
X14340000Y3040000D01*
X14340000Y3040000D02*
X14300000Y3100000D01*
X14300000Y3100000D02*
X14270000Y3170000D01*
X14270000Y3170000D02*
X14260000Y3250000D01*
X14260000Y3250000D02*
X14260000Y3340000D01*
X14260000Y3340000D02*
X14270000Y3420000D01*
X14270000Y3420000D02*
X14300000Y3500000D01*
X14300000Y3500000D02*
X14340000Y3560000D01*
X14340000Y3560000D02*
X14400000Y3620000D01*
X14400000Y3620000D02*
X14460000Y3650000D01*
X14460000Y3650000D02*
X14320000Y3910000D01*
X14320000Y3910000D02*
X14260000Y3940000D01*
X14260000Y3940000D02*
X14260000Y4100000D01*
X14260000Y4100000D02*
X14270000Y4170000D01*
X14270000Y4170000D02*
X14790000Y4380000D01*
X14790000Y4380000D02*
X14860000Y4410000D01*
X14860000Y4410000D02*
X14780000Y4410000D01*
X14780000Y4410000D02*
X14300000Y4410000D01*
X14300000Y4410000D02*
X14260000Y4460000D01*
X14260000Y4460000D02*
X14260000Y4540000D01*
X14260000Y4540000D02*
X14280000Y4610000D01*
X14280000Y4610000D02*
X15240000Y4610000D01*
X15240000Y4610000D02*
X15250000Y4840000D01*
X15250000Y4840000D02*
X14300000Y4840000D01*
X14300000Y4840000D02*
X14260000Y4900000D01*
X14260000Y4900000D02*
X14260000Y5140000D01*
X14260000Y5140000D02*
X14260000Y5220000D01*
X14260000Y5220000D02*
X14280000Y5300000D01*
X14280000Y5300000D02*
X14310000Y5370000D01*
X14310000Y5370000D02*
X14350000Y5430000D01*
X14350000Y5430000D02*
X14410000Y5490000D01*
X14410000Y5490000D02*
X14470000Y5520000D01*
X14470000Y5520000D02*
X14530000Y5530000D01*
X14530000Y5530000D02*
X14610000Y5540000D01*
X14610000Y5540000D02*
X14700000Y5550000D01*
X14700000Y5550000D02*
X14800000Y5550000D01*
X14800000Y5550000D02*
X14900000Y5550000D01*
X14900000Y5550000D02*
X14990000Y5540000D01*
X14990000Y5540000D02*
X15060000Y5530000D01*
X15060000Y5530000D02*
X15120000Y5520000D01*
X15120000Y5520000D02*
X15180000Y5480000D01*
X15180000Y5480000D02*
X15240000Y5420000D01*
X15240000Y5420000D02*
X15280000Y5360000D01*
X15280000Y5360000D02*
X15310000Y5290000D01*
X15310000Y5290000D02*
X15330000Y5210000D01*
X15330000Y5210000D02*
X15330000Y5180000D01*
X15330000Y5180000D02*
X15330000Y4940000D01*
X15330000Y4940000D02*
X15320000Y4860000D01*
X15320000Y4860000D02*
X15250000Y4850000D01*
X15250000Y4850000D02*
X15240000Y4610000D01*
X15240000Y4610000D02*
X15310000Y4600000D01*
X15310000Y4600000D02*
X15330000Y4520000D01*
X15330000Y4520000D02*
X15330000Y4440000D01*
X15330000Y4440000D02*
X15320000Y4360000D01*
X15320000Y4360000D02*
X15270000Y4320000D01*
X15270000Y4320000D02*
X14820000Y4140000D01*
X14820000Y4140000D02*
X14780000Y4100000D01*
X14780000Y4100000D02*
X15250000Y4100000D01*
X15250000Y4100000D02*
X15330000Y4090000D01*
X15330000Y4090000D02*
X15330000Y4020000D01*
X15330000Y4020000D02*
X15330000Y3940000D01*
X15330000Y3940000D02*
X15270000Y3910000D01*
X15270000Y3910000D02*
X14320000Y3910000D01*
X14320000Y3910000D02*
X14460000Y3650000D01*
X14460000Y3650000D02*
X14540000Y3670000D01*
X14540000Y3670000D02*
X14590000Y3620000D01*
X14590000Y3620000D02*
X14590000Y3460000D01*
X14590000Y3460000D02*
X14520000Y3420000D01*
X14520000Y3420000D02*
X14470000Y3370000D01*
X14470000Y3370000D02*
X14460000Y3280000D01*
X14460000Y3280000D02*
X14470000Y3190000D01*
X14470000Y3190000D02*
X14510000Y3140000D01*
X14510000Y3140000D02*
X14560000Y3120000D01*
X14560000Y3120000D02*
X14620000Y3110000D01*
X14620000Y3110000D02*
X14720000Y3100000D01*
X14720000Y3100000D02*
X14840000Y3100000D01*
X14840000Y3100000D02*
X14940000Y3110000D01*
X14940000Y3110000D02*
X15020000Y3110000D01*
X15020000Y3110000D02*
X15060000Y3130000D01*
X15060000Y3130000D02*
X15110000Y3180000D01*
X15110000Y3180000D02*
X15130000Y3260000D01*
X15130000Y3260000D02*
X15120000Y3340000D01*
X15120000Y3340000D02*
X15070000Y3390000D01*
X15070000Y3390000D02*
X14990000Y3410000D01*
X14990000Y3410000D02*
X14900000Y3410000D01*
X14900000Y3410000D02*
X14890000Y3340000D01*
X14890000Y3340000D02*
X14860000Y3280000D01*
X14860000Y3280000D02*
X14780000Y3280000D01*
X14780000Y3280000D02*
X14700000Y3290000D01*
X14700000Y3290000D02*
X14700000Y3370000D01*
X14700000Y3370000D02*
X14700000Y3610000D01*
X14700000Y3610000D02*
X14730000Y3670000D01*
X14730000Y3670000D02*
X14970000Y3670000D01*
X14970000Y3670000D02*
X15060000Y3660000D01*
X15060000Y3660000D02*
X15610000Y6020000D01*
X15610000Y6020000D02*
X15580000Y6070000D01*
X15580000Y6070000D02*
X14070000Y6070000D01*
X14070000Y6070000D02*
X14010000Y6040000D01*
X14010000Y6040000D02*
X14010000Y400000D01*
X14010000Y400000D02*
X14010000Y340000D01*
X14010000Y340000D02*
X14010000Y340000D01*
G36*
X15610000Y6020000D02*
G01*
X15610000Y60000D01*
X15580000Y0D01*
X14070000Y0D01*
X14010000Y20000D01*
X14010000Y3250000D01*
X14260000Y3250000D01*
X14270000Y3170000D01*
X14300000Y3100000D01*
X14340000Y3040000D01*
X14400000Y2980000D01*
X14460000Y2950000D01*
X14540000Y2920000D01*
X14680000Y2900000D01*
X14870000Y2900000D01*
X14950000Y2910000D01*
X15020000Y2910000D01*
X15090000Y2930000D01*
X15160000Y2970000D01*
X15230000Y3020000D01*
X15270000Y3080000D01*
X15300000Y3140000D01*
X15320000Y3220000D01*
X15330000Y3320000D01*
X15320000Y3410000D01*
X15290000Y3480000D01*
X15250000Y3540000D01*
X15200000Y3600000D01*
X15060000Y3660000D01*
X14970000Y3670000D01*
X14730000Y3670000D01*
X14700000Y3610000D01*
X14700000Y3290000D01*
X14780000Y3280000D01*
X14860000Y3280000D01*
X14890000Y3340000D01*
X14900000Y3410000D01*
X14990000Y3410000D01*
X15070000Y3390000D01*
X15120000Y3340000D01*
X15130000Y3260000D01*
X15110000Y3180000D01*
X15060000Y3130000D01*
X15020000Y3110000D01*
X14940000Y3110000D01*
X14840000Y3100000D01*
X14720000Y3100000D01*
X14620000Y3110000D01*
X14560000Y3120000D01*
X14510000Y3140000D01*
X14470000Y3190000D01*
X14460000Y3280000D01*
X14470000Y3370000D01*
X14520000Y3420000D01*
X14590000Y3460000D01*
X14590000Y3620000D01*
X14540000Y3670000D01*
X14460000Y3650000D01*
X14400000Y3620000D01*
X14340000Y3560000D01*
X14300000Y3500000D01*
X14270000Y3420000D01*
X14260000Y3340000D01*
X14260000Y3250000D01*
X14010000Y3250000D01*
X14010000Y3940000D01*
X14260000Y3940000D01*
X14320000Y3910000D01*
X15118263Y3910000D01*
X15270000Y3910000D01*
X15330000Y3940000D01*
X15330000Y4090000D01*
X15250000Y4100000D01*
X15162542Y4100000D01*
X15118263Y3910000D01*
X15162542Y4100000D01*
X14780000Y4100000D01*
X14820000Y4140000D01*
X15208037Y4295215D01*
X15270000Y4320000D01*
X15320000Y4360000D01*
X15330000Y4440000D01*
X15330000Y4520000D01*
X15310000Y4600000D01*
X15280064Y4604277D01*
X15208037Y4295215D01*
X15280064Y4604277D01*
X15240000Y4610000D01*
X14280000Y4610000D01*
X14260000Y4540000D01*
X14260000Y4460000D01*
X14300000Y4410000D01*
X14860000Y4410000D01*
X14790000Y4380000D01*
X14270000Y4170000D01*
X14260000Y4100000D01*
X14260000Y3940000D01*
X14010000Y3940000D01*
X14010000Y4900000D01*
X14260000Y4900000D01*
X14300000Y4840000D01*
X15249583Y4840000D01*
X15250000Y4850000D01*
X15320000Y4860000D01*
X15330000Y4940000D01*
X15330000Y5210000D01*
X15310000Y5290000D01*
X15280000Y5360000D01*
X15240000Y5420000D01*
X15180000Y5480000D01*
X15120000Y5520000D01*
X15060000Y5530000D01*
X14990000Y5540000D01*
X14900000Y5550000D01*
X14700000Y5550000D01*
X14610000Y5540000D01*
X14530000Y5530000D01*
X14470000Y5520000D01*
X14410000Y5490000D01*
X14350000Y5430000D01*
X14310000Y5370000D01*
X14280000Y5300000D01*
X14260000Y5220000D01*
X14260000Y4900000D01*
X14010000Y4900000D01*
X14010000Y6040000D01*
X14070000Y6070000D01*
X15580000Y6070000D01*
X15610000Y6020000D01*
G37*
X15610000Y6020000D02*
X15610000Y60000D01*
X15580000Y0D01*
X14070000Y0D01*
X14010000Y20000D01*
X14010000Y3250000D01*
X14260000Y3250000D01*
X14270000Y3170000D01*
X14300000Y3100000D01*
X14340000Y3040000D01*
X14400000Y2980000D01*
X14460000Y2950000D01*
X14540000Y2920000D01*
X14680000Y2900000D01*
X14870000Y2900000D01*
X14950000Y2910000D01*
X15020000Y2910000D01*
X15090000Y2930000D01*
X15160000Y2970000D01*
X15230000Y3020000D01*
X15270000Y3080000D01*
X15300000Y3140000D01*
X15320000Y3220000D01*
X15330000Y3320000D01*
X15320000Y3410000D01*
X15290000Y3480000D01*
X15250000Y3540000D01*
X15200000Y3600000D01*
X15060000Y3660000D01*
X14970000Y3670000D01*
X14730000Y3670000D01*
X14700000Y3610000D01*
X14700000Y3290000D01*
X14780000Y3280000D01*
X14860000Y3280000D01*
X14890000Y3340000D01*
X14900000Y3410000D01*
X14990000Y3410000D01*
X15070000Y3390000D01*
X15120000Y3340000D01*
X15130000Y3260000D01*
X15110000Y3180000D01*
X15060000Y3130000D01*
X15020000Y3110000D01*
X14940000Y3110000D01*
X14840000Y3100000D01*
X14720000Y3100000D01*
X14620000Y3110000D01*
X14560000Y3120000D01*
X14510000Y3140000D01*
X14470000Y3190000D01*
X14460000Y3280000D01*
X14470000Y3370000D01*
X14520000Y3420000D01*
X14590000Y3460000D01*
X14590000Y3620000D01*
X14540000Y3670000D01*
X14460000Y3650000D01*
X14400000Y3620000D01*
X14340000Y3560000D01*
X14300000Y3500000D01*
X14270000Y3420000D01*
X14260000Y3340000D01*
X14260000Y3250000D01*
X14010000Y3250000D01*
X14010000Y3940000D01*
X14260000Y3940000D01*
X14320000Y3910000D01*
X15118263Y3910000D01*
X15270000Y3910000D01*
X15330000Y3940000D01*
X15330000Y4090000D01*
X15250000Y4100000D01*
X15162542Y4100000D01*
X15118263Y3910000D01*
X15162542Y4100000D01*
X14780000Y4100000D01*
X14820000Y4140000D01*
X15208037Y4295215D01*
X15270000Y4320000D01*
X15320000Y4360000D01*
X15330000Y4440000D01*
X15330000Y4520000D01*
X15310000Y4600000D01*
X15280064Y4604277D01*
X15208037Y4295215D01*
X15280064Y4604277D01*
X15240000Y4610000D01*
X14280000Y4610000D01*
X14260000Y4540000D01*
X14260000Y4460000D01*
X14300000Y4410000D01*
X14860000Y4410000D01*
X14790000Y4380000D01*
X14270000Y4170000D01*
X14260000Y4100000D01*
X14260000Y3940000D01*
X14010000Y3940000D01*
X14010000Y4900000D01*
X14260000Y4900000D01*
X14300000Y4840000D01*
X15249583Y4840000D01*
X15250000Y4850000D01*
X15320000Y4860000D01*
X15330000Y4940000D01*
X15330000Y5210000D01*
X15310000Y5290000D01*
X15280000Y5360000D01*
X15240000Y5420000D01*
X15180000Y5480000D01*
X15120000Y5520000D01*
X15060000Y5530000D01*
X14990000Y5540000D01*
X14900000Y5550000D01*
X14700000Y5550000D01*
X14610000Y5540000D01*
X14530000Y5530000D01*
X14470000Y5520000D01*
X14410000Y5490000D01*
X14350000Y5430000D01*
X14310000Y5370000D01*
X14280000Y5300000D01*
X14260000Y5220000D01*
X14260000Y4900000D01*
X14010000Y4900000D01*
X14010000Y6040000D01*
X14070000Y6070000D01*
X15580000Y6070000D01*
X15610000Y6020000D01*
X15130000Y5110000D02*
X15130000Y5190000D01*
X15130000Y5190000D02*
X15110000Y5270000D01*
X15110000Y5270000D02*
X15060000Y5330000D01*
X15060000Y5330000D02*
X15020000Y5340000D01*
X15020000Y5340000D02*
X14940000Y5340000D01*
X14940000Y5340000D02*
X14840000Y5350000D01*
X14840000Y5350000D02*
X14720000Y5350000D01*
X14720000Y5350000D02*
X14630000Y5340000D01*
X14630000Y5340000D02*
X14560000Y5340000D01*
X14560000Y5340000D02*
X14510000Y5320000D01*
X14510000Y5320000D02*
X14470000Y5260000D01*
X14470000Y5260000D02*
X14450000Y5180000D01*
X14450000Y5180000D02*
X14450000Y5100000D01*
X14450000Y5100000D02*
X14480000Y5040000D01*
X14480000Y5040000D02*
X15120000Y5040000D01*
X15120000Y5040000D02*
X15130000Y5110000D01*
X15130000Y5110000D02*
X15130000Y5110000D01*
G36*
X14940000Y5340000D02*
G01*
X15020000Y5340000D01*
X15060000Y5330000D01*
X15110000Y5270000D01*
X15130000Y5190000D01*
X15130000Y5110000D01*
X15120000Y5040000D01*
X14480000Y5040000D01*
X14450000Y5100000D01*
X14450000Y5180000D01*
X14470000Y5260000D01*
X14510000Y5320000D01*
X14560000Y5340000D01*
X14630000Y5340000D01*
X14720000Y5350000D01*
X14840000Y5350000D01*
X14940000Y5340000D01*
G37*
X14940000Y5340000D02*
X15020000Y5340000D01*
X15060000Y5330000D01*
X15110000Y5270000D01*
X15130000Y5190000D01*
X15130000Y5110000D01*
X15120000Y5040000D01*
X14480000Y5040000D01*
X14450000Y5100000D01*
X14450000Y5180000D01*
X14470000Y5260000D01*
X14510000Y5320000D01*
X14560000Y5340000D01*
X14630000Y5340000D01*
X14720000Y5350000D01*
X14840000Y5350000D01*
X14940000Y5340000D01*
D12*
%TO.C,R2*%
X16550000Y12450000D02*
X16550000Y12750000D01*
X15850000Y12450000D02*
X15850000Y12750000D01*
%TO.C,C2*%
X19200000Y22800000D02*
X18800000Y22800000D01*
X19200000Y23600000D02*
X18800000Y23600000D01*
%TO.C,C3*%
X10800000Y7600000D02*
X11200000Y7600000D01*
X10800000Y8400000D02*
X11200000Y8400000D01*
%TO.C,Q2*%
X14900000Y24700000D02*
X13900000Y24700000D01*
X13900000Y24700000D02*
X13900000Y25600000D01*
X13900000Y26800000D02*
X13900000Y27700000D01*
X13900000Y27700000D02*
X14900000Y27700000D01*
D13*
%TO.C,C5*%
X850000Y27150000D02*
X9150000Y27150000D01*
X7550000Y18850000D02*
X2450000Y18850000D01*
X7550000Y18850000D02*
X9150000Y20450000D01*
X3500000Y19200000D02*
X3500000Y20000000D01*
X9150000Y27150000D02*
X9150000Y20450000D01*
X2450000Y18850000D02*
X850000Y20450000D01*
X850000Y20450000D02*
X850000Y27150000D01*
X3900000Y19600000D02*
X3100000Y19600000D01*
D12*
%TO.C,C1*%
X19200000Y16400000D02*
X18800000Y16400000D01*
X19200000Y17200000D02*
X18800000Y17200000D01*
D13*
%TO.C,U3*%
X13610000Y9500000D02*
X8400000Y9500000D01*
X8400000Y9500000D02*
X8400000Y14500000D01*
X8400000Y14500000D02*
X13610000Y14500000D01*
X13610000Y14500000D02*
X13610000Y9500000D01*
D14*
X12350000Y10095000D02*
G75*
G03*
X12350000Y10095000I-350000J0D01*
G01*
D12*
%TO.C,R4*%
X11250000Y24550000D02*
X10950000Y24550000D01*
X11250000Y25250000D02*
X10950000Y25250000D01*
%TO.C,REF\u002A\u002A*%
G36*
X15061819Y35146815D02*
G01*
X15122614Y35244782D01*
X15205168Y35323729D01*
X15308218Y35386040D01*
X15368629Y35414154D01*
X15417989Y35431145D01*
X15469245Y35439688D01*
X15535341Y35442459D01*
X15581418Y35442499D01*
X15710355Y35433868D01*
X15815587Y35407404D01*
X15904915Y35359976D01*
X15986142Y35288454D01*
X15998260Y35275287D01*
X16052077Y35205728D01*
X16090723Y35130262D01*
X16117045Y35040658D01*
X16133892Y34928682D01*
X16139206Y34867922D01*
X16144743Y34799031D01*
X16147577Y34745256D01*
X16144020Y34704690D01*
X16130386Y34675424D01*
X16102989Y34655549D01*
X16058140Y34643158D01*
X15992154Y34636341D01*
X15901344Y34633190D01*
X15782022Y34631797D01*
X15681241Y34630864D01*
X15251403Y34626215D01*
X15256441Y34547981D01*
X15277080Y34437482D01*
X15322600Y34350988D01*
X15392003Y34289456D01*
X15484294Y34253845D01*
X15571907Y34244675D01*
X15675111Y34253661D01*
X15754775Y34284495D01*
X15816535Y34340116D01*
X15848571Y34388810D01*
X15889407Y34462565D01*
X16005039Y34457463D01*
X16120671Y34452362D01*
X16115877Y34393042D01*
X16098595Y34323371D01*
X16061416Y34244692D01*
X16011564Y34169753D01*
X15956267Y34111301D01*
X15956095Y34111159D01*
X15853187Y34047165D01*
X15730292Y34005185D01*
X15595931Y33987322D01*
X15477413Y33992894D01*
X15410360Y34005784D01*
X15345483Y34024296D01*
X15326341Y34031535D01*
X15252287Y34074973D01*
X15175528Y34140165D01*
X15106719Y34216762D01*
X15057311Y34292831D01*
X15023397Y34384760D01*
X14999867Y34501831D01*
X14987609Y34635737D01*
X14987509Y34778173D01*
X14993699Y34860133D01*
X15260096Y34860133D01*
X15577379Y34864872D01*
X15894662Y34869610D01*
X15890628Y34936593D01*
X15868784Y35024745D01*
X15818069Y35101366D01*
X15744264Y35157796D01*
X15742295Y35158810D01*
X15656920Y35186183D01*
X15560637Y35191648D01*
X15466031Y35176118D01*
X15385690Y35140508D01*
X15373684Y35132014D01*
X15307262Y35061937D01*
X15268522Y34977364D01*
X15260096Y34913240D01*
X15260096Y34860133D01*
X14993699Y34860133D01*
X14994946Y34876650D01*
X15001138Y34913240D01*
X15020143Y35025535D01*
X15061819Y35146815D01*
G37*
G36*
X6728418Y33963875D02*
G01*
X6735048Y33974742D01*
X6759014Y34005010D01*
X6800953Y34052461D01*
X6854218Y34109723D01*
X6894111Y34151113D01*
X7024629Y34284498D01*
X6933729Y34385815D01*
X6784242Y34576882D01*
X6665888Y34780637D01*
X6579054Y34994383D01*
X6524127Y35215426D01*
X6501494Y35441068D01*
X6504338Y35505471D01*
X6777085Y35505471D01*
X6780933Y35364695D01*
X6795719Y35235911D01*
X6808372Y35175312D01*
X6835606Y35076344D01*
X6865856Y34987613D01*
X6901956Y34904975D01*
X6946736Y34824288D01*
X7003031Y34741407D01*
X7073672Y34652191D01*
X7161493Y34552494D01*
X7269327Y34438175D01*
X7400004Y34305089D01*
X7410605Y34294437D01*
X7527519Y34177819D01*
X7624188Y34083568D01*
X7704224Y34008758D01*
X7771241Y33950465D01*
X7828852Y33905763D01*
X7880670Y33871726D01*
X7930308Y33845429D01*
X7981381Y33823946D01*
X8000250Y33817027D01*
X8087514Y33796204D01*
X8193946Y33785864D01*
X8305483Y33786260D01*
X8408061Y33797643D01*
X8456209Y33808869D01*
X8586518Y33864465D01*
X8708062Y33948318D01*
X8813915Y34053959D01*
X8897153Y34174924D01*
X8934702Y34255661D01*
X8971712Y34399172D01*
X8979521Y34551137D01*
X8958829Y34702489D01*
X8910339Y34844164D01*
X8885403Y34892473D01*
X8860674Y34926676D01*
X8815004Y34981064D01*
X8752225Y35051422D01*
X8676169Y35133535D01*
X8590667Y35223189D01*
X8507073Y35308590D01*
X8407885Y35408420D01*
X8329771Y35486173D01*
X8269460Y35544596D01*
X8223683Y35586440D01*
X8189168Y35614451D01*
X8162646Y35631381D01*
X8140847Y35639976D01*
X8120499Y35642987D01*
X8108905Y35643258D01*
X8052748Y35634960D01*
X8005042Y35604938D01*
X7989538Y35590296D01*
X7955605Y35550975D01*
X7943652Y35516012D01*
X7946773Y35474488D01*
X7953143Y35452244D01*
X7967161Y35425681D01*
X7991467Y35391738D01*
X8028699Y35347354D01*
X8081496Y35289471D01*
X8152497Y35215026D01*
X8244341Y35120960D01*
X8302083Y35062393D01*
X8408009Y34954574D01*
X8491585Y34867881D01*
X8555459Y34799270D01*
X8602277Y34745694D01*
X8634686Y34704108D01*
X8655333Y34671469D01*
X8666862Y34644730D01*
X8667814Y34641583D01*
X8686647Y34530476D01*
X8674718Y34428504D01*
X8630760Y34330858D01*
X8562679Y34242609D01*
X8463649Y34153946D01*
X8360018Y34099057D01*
X8252830Y34078219D01*
X8143127Y34091706D01*
X8079989Y34114806D01*
X8044542Y34137799D01*
X7989446Y34182116D01*
X7918861Y34243740D01*
X7836946Y34318656D01*
X7747861Y34402845D01*
X7655767Y34492292D01*
X7564823Y34582981D01*
X7479189Y34670895D01*
X7403025Y34752017D01*
X7340491Y34822332D01*
X7313378Y34854987D01*
X7208591Y35012153D01*
X7136202Y35180988D01*
X7096832Y35359745D01*
X7089237Y35486096D01*
X7105810Y35670490D01*
X7152930Y35843480D01*
X7227816Y36002249D01*
X7327687Y36143979D01*
X7449761Y36265852D01*
X7591255Y36365050D01*
X7749390Y36438756D01*
X7921382Y36484151D01*
X8088638Y36498486D01*
X8234903Y36491853D01*
X8365550Y36469036D01*
X8486827Y36427208D01*
X8604983Y36363542D01*
X8726266Y36275211D01*
X8856923Y36159386D01*
X8873876Y36143171D01*
X8962111Y36060716D01*
X9031448Y36001372D01*
X9080532Y35966231D01*
X9105894Y35956195D01*
X9157480Y35969890D01*
X9209299Y36005239D01*
X9253788Y36053639D01*
X9283384Y36106486D01*
X9290527Y36155176D01*
X9288503Y36163951D01*
X9270428Y36191787D01*
X9230794Y36236994D01*
X9174791Y36294729D01*
X9107609Y36360150D01*
X9034440Y36428414D01*
X8960472Y36494678D01*
X8890896Y36554099D01*
X8830903Y36601833D01*
X8785935Y36632890D01*
X8618311Y36715087D01*
X8434704Y36774900D01*
X8244588Y36810306D01*
X8057441Y36819285D01*
X7950341Y36811123D01*
X7732378Y36766619D01*
X7531560Y36692323D01*
X7349460Y36589530D01*
X7187650Y36459537D01*
X7047703Y36303638D01*
X6931191Y36123131D01*
X6839688Y35919310D01*
X6828036Y35886278D01*
X6800951Y35777609D01*
X6783862Y35646891D01*
X6777085Y35505471D01*
X6504338Y35505471D01*
X6511541Y35668616D01*
X6554655Y35895371D01*
X6631223Y36118639D01*
X6672246Y36208282D01*
X6784150Y36397619D01*
X6922172Y36567956D01*
X7082598Y36717422D01*
X7261716Y36844140D01*
X7455811Y36946239D01*
X7661172Y37021843D01*
X7874084Y37069079D01*
X8090835Y37086073D01*
X8307712Y37070952D01*
X8363146Y37061626D01*
X8528058Y37024559D01*
X8676153Y36977437D01*
X8813602Y36916805D01*
X8946576Y36839212D01*
X9081247Y36741205D01*
X9223787Y36619330D01*
X9326966Y36522407D01*
X9405449Y36445342D01*
X9476438Y36373418D01*
X9535614Y36311188D01*
X9578658Y36263205D01*
X9601251Y36234025D01*
X9602350Y36232066D01*
X9619656Y36180477D01*
X9627228Y36122016D01*
X9627242Y36119877D01*
X9624891Y36090732D01*
X9615182Y36062698D01*
X9594131Y36030083D01*
X9557756Y35987194D01*
X9502072Y35928339D01*
X9470774Y35896270D01*
X9411931Y35835010D01*
X9363193Y35781876D01*
X9329189Y35742091D01*
X9314547Y35720879D01*
X9314306Y35719685D01*
X9325921Y35699542D01*
X9356209Y35663890D01*
X9393893Y35625146D01*
X9464701Y35546243D01*
X9540006Y35445689D01*
X9612496Y35334537D01*
X9674856Y35223839D01*
X9711976Y35144400D01*
X9755583Y35032285D01*
X9786919Y34933401D01*
X9807830Y34837598D01*
X9820160Y34734725D01*
X9825752Y34614633D01*
X9826643Y34513210D01*
X9823383Y34361575D01*
X9812481Y34234142D01*
X9791685Y34120764D01*
X9758739Y34011292D01*
X9711392Y33895578D01*
X9670291Y33809104D01*
X9553842Y33611471D01*
X9410659Y33432646D01*
X9244363Y33275605D01*
X9058573Y33143330D01*
X8856910Y33038797D01*
X8644970Y32965506D01*
X8522148Y32941175D01*
X8379446Y32925826D01*
X8229886Y32919945D01*
X8086489Y32924019D01*
X7962278Y32938534D01*
X7955626Y32939765D01*
X7722467Y33001015D01*
X7505149Y33093189D01*
X7303832Y33216217D01*
X7287508Y33228062D01*
X7234917Y33270068D01*
X7166794Y33329323D01*
X7088988Y33400218D01*
X7007346Y33477147D01*
X6927718Y33554502D01*
X6855951Y33626675D01*
X6797895Y33688059D01*
X6759398Y33733048D01*
X6755825Y33737824D01*
X6716654Y33814786D01*
X6709698Y33872669D01*
X7053203Y33872669D01*
X7069154Y33831605D01*
X7106024Y33781203D01*
X7165568Y33716978D01*
X7249541Y33634443D01*
X7250790Y33633241D01*
X7362590Y33529523D01*
X7460682Y33448132D01*
X7552562Y33383838D01*
X7645727Y33331411D01*
X7747674Y33285623D01*
X7751128Y33284223D01*
X7863413Y33243530D01*
X7969024Y33216715D01*
X8079368Y33201966D01*
X8205848Y33197467D01*
X8288570Y33198767D01*
X8389836Y33202849D01*
X8467819Y33209565D01*
X8533997Y33220726D01*
X8599846Y33238144D01*
X8657658Y33256995D01*
X8857722Y33343196D01*
X9037740Y33456975D01*
X9195654Y33596154D01*
X9329405Y33758551D01*
X9436933Y33941989D01*
X9516179Y34144287D01*
X9525234Y34175180D01*
X9545385Y34258590D01*
X9557539Y34342116D01*
X9563198Y34438811D01*
X9564103Y34513210D01*
X9558698Y34667040D01*
X9540360Y34800720D01*
X9506048Y34927436D01*
X9452720Y35060373D01*
X9423691Y35121698D01*
X9400538Y35168052D01*
X9378536Y35208591D01*
X9354663Y35246895D01*
X9325896Y35286545D01*
X9289212Y35331124D01*
X9241590Y35384211D01*
X9180007Y35449388D01*
X9101439Y35530237D01*
X9002864Y35630338D01*
X8944980Y35688879D01*
X8822385Y35812086D01*
X8720275Y35912667D01*
X8635268Y35993283D01*
X8563983Y36056595D01*
X8503037Y36105262D01*
X8449051Y36141946D01*
X8398641Y36169306D01*
X8348426Y36190004D01*
X8295026Y36206700D01*
X8282482Y36210109D01*
X8132860Y36232545D01*
X7981712Y36222884D01*
X7835186Y36182945D01*
X7699431Y36114545D01*
X7580595Y36019500D01*
X7558075Y35996009D01*
X7459742Y35864654D01*
X7394056Y35722929D01*
X7361387Y35573391D01*
X7362103Y35418596D01*
X7396574Y35261103D01*
X7437245Y35158516D01*
X7456883Y35120085D01*
X7480905Y35081452D01*
X7512532Y35038880D01*
X7554984Y34988634D01*
X7611481Y34926978D01*
X7685243Y34850174D01*
X7779492Y34754489D01*
X7824601Y34709135D01*
X7923843Y34609679D01*
X8001904Y34532154D01*
X8062114Y34473829D01*
X8107801Y34431972D01*
X8142295Y34403853D01*
X8168926Y34386741D01*
X8191023Y34377903D01*
X8211916Y34374609D01*
X8232986Y34374128D01*
X8307920Y34387773D01*
X8361196Y34426537D01*
X8389330Y34487160D01*
X8392882Y34523742D01*
X8391549Y34543945D01*
X8385777Y34564557D01*
X8372905Y34588768D01*
X8350271Y34619766D01*
X8315214Y34660742D01*
X8265074Y34714885D01*
X8197189Y34785385D01*
X8108898Y34875430D01*
X8047720Y34937434D01*
X7938665Y35048398D01*
X7851903Y35138659D01*
X7784921Y35211879D01*
X7735202Y35271716D01*
X7700232Y35321833D01*
X7677496Y35365888D01*
X7664478Y35407541D01*
X7658664Y35450454D01*
X7657539Y35498286D01*
X7657607Y35505178D01*
X7673188Y35599938D01*
X7718811Y35691781D01*
X7796379Y35784186D01*
X7825308Y35811757D01*
X7927545Y35886933D01*
X8031640Y35927829D01*
X8136570Y35934327D01*
X8241310Y35906305D01*
X8310404Y35868466D01*
X8343174Y35842432D01*
X8396010Y35795235D01*
X8464848Y35730743D01*
X8545620Y35652826D01*
X8634261Y35565354D01*
X8725179Y35473749D01*
X8832160Y35364081D01*
X8917335Y35274821D01*
X8983919Y35202233D01*
X9035130Y35142582D01*
X9074182Y35092133D01*
X9104293Y35047151D01*
X9127018Y35007090D01*
X9188332Y34872602D01*
X9226449Y34742474D01*
X9244795Y34602698D01*
X9247717Y34513210D01*
X9232376Y34332367D01*
X9186521Y34163087D01*
X9113193Y34007818D01*
X9015433Y33869008D01*
X8896282Y33749105D01*
X8758780Y33650557D01*
X8605969Y33575811D01*
X8440888Y33527316D01*
X8266580Y33507518D01*
X8086084Y33518867D01*
X8026065Y33529783D01*
X7914721Y33559365D01*
X7813385Y33600571D01*
X7715082Y33657558D01*
X7612838Y33734484D01*
X7499679Y33835504D01*
X7477254Y33856913D01*
X7390725Y33938378D01*
X7323242Y33995960D01*
X7270212Y34031272D01*
X7227040Y34045928D01*
X7189131Y34041540D01*
X7151890Y34019722D01*
X7113320Y33984696D01*
X7077041Y33944729D01*
X7056417Y33908882D01*
X7053203Y33872669D01*
X6709698Y33872669D01*
X6707300Y33892618D01*
X6728418Y33963875D01*
G37*
G36*
X12017970Y34832546D02*
G01*
X12019182Y34914929D01*
X12022089Y34975423D01*
X12027420Y35020468D01*
X12035900Y35056506D01*
X12048258Y35089977D01*
X12062949Y35122491D01*
X12129743Y35237661D01*
X12211728Y35326286D01*
X12307736Y35391366D01*
X12360681Y35417380D01*
X12411187Y35433686D01*
X12471541Y35443109D01*
X12554028Y35448471D01*
X12556674Y35448586D01*
X12643275Y35450410D01*
X12708243Y35446124D01*
X12764411Y35434220D01*
X12810141Y35418759D01*
X12927915Y35358496D01*
X13022891Y35273844D01*
X13098448Y35161672D01*
X13107929Y35143065D01*
X13165161Y35026809D01*
X13165161Y34730893D01*
X13164955Y34622373D01*
X13163779Y34541893D01*
X13160799Y34482723D01*
X13155181Y34438131D01*
X13146089Y34401387D01*
X13132690Y34365762D01*
X13114997Y34326362D01*
X13046788Y34214514D01*
X12956135Y34119615D01*
X12850992Y34049694D01*
X12832110Y34040807D01*
X12757263Y34017857D01*
X12662989Y34003093D01*
X12563915Y33997681D01*
X12474668Y34002789D01*
X12439053Y34009461D01*
X12311003Y34059154D01*
X12200225Y34138151D01*
X12109466Y34244162D01*
X12065266Y34320795D01*
X12048103Y34357034D01*
X12035663Y34389484D01*
X12027185Y34424546D01*
X12021912Y34468622D01*
X12019084Y34528116D01*
X12017942Y34609430D01*
X12017728Y34718966D01*
X12017728Y34719348D01*
X12258384Y34719348D01*
X12263537Y34602501D01*
X12277419Y34500076D01*
X12299146Y34419161D01*
X12321315Y34375049D01*
X12386790Y34311338D01*
X12471817Y34269731D01*
X12567973Y34251684D01*
X12666836Y34258651D01*
X12759981Y34292090D01*
X12769714Y34297562D01*
X12820421Y34332272D01*
X12857852Y34372212D01*
X12883895Y34423028D01*
X12900438Y34490360D01*
X12909367Y34579852D01*
X12912571Y34697148D01*
X12912692Y34725049D01*
X12911501Y34816877D01*
X12907974Y34899968D01*
X12902624Y34966186D01*
X12895967Y35007397D01*
X12894530Y35011907D01*
X12846962Y35091476D01*
X12775894Y35152329D01*
X12688828Y35191501D01*
X12593262Y35206025D01*
X12496695Y35192937D01*
X12465080Y35181717D01*
X12388014Y35141236D01*
X12332754Y35090203D01*
X12295590Y35022417D01*
X12272815Y34931675D01*
X12262845Y34843532D01*
X12258384Y34719348D01*
X12017728Y34719348D01*
X12017728Y34721835D01*
X12017970Y34832546D01*
G37*
G36*
X13546706Y35997006D02*
G01*
X13558829Y35987520D01*
X13561531Y35966318D01*
X13564077Y35913594D01*
X13566418Y35832596D01*
X13568505Y35726573D01*
X13570290Y35598772D01*
X13571722Y35452443D01*
X13572755Y35290833D01*
X13573338Y35117192D01*
X13573451Y35014281D01*
X13573421Y34806158D01*
X13573157Y34630081D01*
X13572582Y34483324D01*
X13571621Y34363163D01*
X13570199Y34266874D01*
X13568240Y34191730D01*
X13565669Y34135008D01*
X13562411Y34093983D01*
X13558389Y34065930D01*
X13553530Y34048123D01*
X13547757Y34037839D01*
X13546397Y34036355D01*
X13508512Y34017729D01*
X13452595Y34009731D01*
X13393855Y34012777D01*
X13347496Y34027282D01*
X13342145Y34030767D01*
X13335791Y34037438D01*
X13330442Y34049161D01*
X13326030Y34068655D01*
X13322486Y34098640D01*
X13319741Y34141835D01*
X13317727Y34200960D01*
X13316377Y34278734D01*
X13315620Y34377877D01*
X13315390Y34501109D01*
X13315616Y34651148D01*
X13316232Y34830714D01*
X13317091Y35026078D01*
X13321629Y35999658D01*
X13433051Y36004906D01*
X13505085Y36005092D01*
X13546706Y35997006D01*
G37*
G36*
X16410256Y35435062D02*
G01*
X16432901Y35434634D01*
X16483063Y35427339D01*
X16514410Y35400762D01*
X16534293Y35347863D01*
X16537293Y35334668D01*
X16553347Y35293111D01*
X16580092Y35280446D01*
X16621425Y35296233D01*
X16657366Y35321091D01*
X16747473Y35376451D01*
X16849579Y35411274D01*
X16949589Y35427286D01*
X17028607Y35430349D01*
X17079994Y35417912D01*
X17108714Y35386581D01*
X17119731Y35332963D01*
X17120329Y35310552D01*
X17115225Y35241301D01*
X17096062Y35199580D01*
X17057060Y35179145D01*
X16993673Y35173757D01*
X16877647Y35163790D01*
X16783565Y35132606D01*
X16708569Y35081781D01*
X16671479Y35047264D01*
X16642423Y35013347D01*
X16620421Y34975351D01*
X16604495Y34928593D01*
X16593667Y34868393D01*
X16586956Y34790071D01*
X16583385Y34688944D01*
X16581975Y34560333D01*
X16581765Y34475335D01*
X16581454Y34336060D01*
X16580105Y34227688D01*
X16576658Y34146354D01*
X16570052Y34088189D01*
X16559229Y34049327D01*
X16543127Y34025902D01*
X16520687Y34014046D01*
X16490850Y34009893D01*
X16454097Y34009564D01*
X16400487Y34014037D01*
X16358016Y34024483D01*
X16351027Y34027813D01*
X16343340Y34034343D01*
X16337063Y34046277D01*
X16332052Y34066873D01*
X16328168Y34099391D01*
X16325269Y34147088D01*
X16323214Y34213224D01*
X16321861Y34301057D01*
X16321069Y34413847D01*
X16320696Y34554852D01*
X16320603Y34727330D01*
X16320603Y34729531D01*
X16320512Y34904864D01*
X16320573Y35048561D01*
X16321284Y35163754D01*
X16323145Y35253575D01*
X16326653Y35321158D01*
X16332309Y35369634D01*
X16340611Y35402137D01*
X16352057Y35421798D01*
X16367148Y35431751D01*
X16386381Y35435128D01*
X16410256Y35435062D01*
G37*
G36*
X11398268Y35997928D02*
G01*
X11508090Y35969832D01*
X11552089Y35950687D01*
X11669930Y35873120D01*
X11758571Y35776727D01*
X11817893Y35661680D01*
X11847778Y35528147D01*
X11847966Y35526344D01*
X11849239Y35455551D01*
X11832372Y35411470D01*
X11792939Y35388859D01*
X11726508Y35382478D01*
X11726404Y35382478D01*
X11659168Y35388122D01*
X11617817Y35409522D01*
X11594665Y35453378D01*
X11584461Y35506238D01*
X11556725Y35595262D01*
X11502085Y35665923D01*
X11424662Y35715553D01*
X11328581Y35741483D01*
X11221149Y35741429D01*
X11118242Y35716243D01*
X11041174Y35668842D01*
X10991149Y35600585D01*
X10969371Y35512829D01*
X10969785Y35457735D01*
X10983140Y35386325D01*
X11012693Y35328113D01*
X11062325Y35280125D01*
X11135918Y35239390D01*
X11237356Y35202934D01*
X11338354Y35175545D01*
X11502187Y35125793D01*
X11635078Y35064308D01*
X11739367Y34989418D01*
X11817396Y34899452D01*
X11870462Y34795525D01*
X11896476Y34690101D01*
X11903446Y34571998D01*
X11891831Y34454629D01*
X11862087Y34351408D01*
X11854787Y34335250D01*
X11780843Y34221181D01*
X11681462Y34127654D01*
X11561073Y34057399D01*
X11424099Y34013144D01*
X11308572Y33998429D01*
X11214909Y33998088D01*
X11131675Y34005212D01*
X11086383Y34014303D01*
X10950838Y34069411D01*
X10835829Y34150247D01*
X10744333Y34253345D01*
X10679325Y34375237D01*
X10643779Y34512458D01*
X10641296Y34532952D01*
X10637787Y34606535D01*
X10648949Y34652734D01*
X10679332Y34677426D01*
X10733487Y34686492D01*
X10760562Y34687064D01*
X10835824Y34682471D01*
X10882760Y34666197D01*
X10906896Y34634496D01*
X10913758Y34583626D01*
X10913758Y34583272D01*
X10927866Y34482221D01*
X10971096Y34398722D01*
X11044811Y34330657D01*
X11095605Y34300680D01*
X11172189Y34275505D01*
X11264905Y34265242D01*
X11358261Y34270348D01*
X11435319Y34290652D01*
X11522202Y34345204D01*
X11586752Y34421002D01*
X11625392Y34511280D01*
X11634544Y34609272D01*
X11627904Y34654915D01*
X11608478Y34718998D01*
X11579149Y34770867D01*
X11535316Y34813681D01*
X11472377Y34850600D01*
X11385734Y34884781D01*
X11270785Y34919385D01*
X11224789Y34931716D01*
X11100001Y34967945D01*
X11002623Y35005072D01*
X10925394Y35046661D01*
X10861055Y35096277D01*
X10832068Y35124564D01*
X10762878Y35220599D01*
X10718091Y35334423D01*
X10699050Y35457809D01*
X10707095Y35582523D01*
X10739668Y35691580D01*
X10797071Y35786101D01*
X10880206Y35872302D01*
X10980034Y35941930D01*
X11049335Y35974294D01*
X11156142Y36000758D01*
X11276703Y36008437D01*
X11398268Y35997928D01*
G37*
G36*
X17142881Y35045496D02*
G01*
X17173551Y35129519D01*
X17217212Y35206404D01*
X17222761Y35214584D01*
X17308160Y35309812D01*
X17412907Y35380810D01*
X17531121Y35427191D01*
X17656923Y35448566D01*
X17784431Y35444548D01*
X17907765Y35414749D01*
X18021045Y35358780D01*
X18118390Y35276253D01*
X18120588Y35273824D01*
X18175562Y35203108D01*
X18213435Y35128717D01*
X18236374Y35042920D01*
X18246545Y34937983D01*
X18246662Y34823873D01*
X18241684Y34643600D01*
X17807050Y34634908D01*
X17372416Y34626215D01*
X17376686Y34543092D01*
X17396501Y34435428D01*
X17442403Y34349705D01*
X17512255Y34287992D01*
X17603919Y34252363D01*
X17685312Y34244005D01*
X17796079Y34256463D01*
X17884205Y34294862D01*
X17950851Y34359794D01*
X17969584Y34389377D01*
X18010420Y34462565D01*
X18126052Y34457463D01*
X18241684Y34452362D01*
X18236890Y34393042D01*
X18219608Y34323371D01*
X18182429Y34244692D01*
X18132577Y34169753D01*
X18077280Y34111301D01*
X18077108Y34111159D01*
X17973315Y34046650D01*
X17849432Y34004735D01*
X17713331Y33987343D01*
X17595040Y33993131D01*
X17465486Y34027104D01*
X17349391Y34091369D01*
X17251415Y34182578D01*
X17178894Y34292058D01*
X17146040Y34380508D01*
X17122458Y34494346D01*
X17109242Y34625167D01*
X17107487Y34764564D01*
X17110164Y34819717D01*
X17114171Y34860115D01*
X17376497Y34860115D01*
X17696086Y34864863D01*
X18015675Y34869610D01*
X18011641Y34936593D01*
X17989797Y35024745D01*
X17939082Y35101366D01*
X17865277Y35157796D01*
X17863308Y35158810D01*
X17792458Y35181924D01*
X17707743Y35190616D01*
X17621713Y35185332D01*
X17546915Y35166521D01*
X17508783Y35146165D01*
X17437441Y35076963D01*
X17396765Y34996489D01*
X17385584Y34940736D01*
X17376497Y34860115D01*
X17114171Y34860115D01*
X17122615Y34945255D01*
X17142881Y35045496D01*
G37*
G36*
X13731709Y34908740D02*
G01*
X13751622Y35030057D01*
X13782084Y35129567D01*
X13790718Y35148687D01*
X13863534Y35261822D01*
X13956588Y35350034D01*
X14065180Y35411373D01*
X14184611Y35443890D01*
X14310181Y35445636D01*
X14434446Y35415698D01*
X14490797Y35397657D01*
X14536431Y35388456D01*
X14556795Y35389074D01*
X14566484Y35398590D01*
X14573454Y35421665D01*
X14578114Y35462967D01*
X14580871Y35527164D01*
X14582131Y35618924D01*
X14582334Y35681830D01*
X14583271Y35778759D01*
X14585690Y35864255D01*
X14589285Y35931916D01*
X14593750Y35975345D01*
X14596956Y35987520D01*
X14621307Y36001030D01*
X14673898Y36005965D01*
X14722733Y36004906D01*
X14834155Y35999658D01*
X14838694Y35026078D01*
X14839609Y34816687D01*
X14840198Y34639346D01*
X14840394Y34491336D01*
X14840128Y34369937D01*
X14839331Y34272429D01*
X14837934Y34196094D01*
X14835870Y34138212D01*
X14833070Y34096063D01*
X14829465Y34066927D01*
X14824988Y34048086D01*
X14819568Y34036819D01*
X14813639Y34030767D01*
X14759500Y34010792D01*
X14697298Y34017340D01*
X14646865Y34043806D01*
X14606607Y34069622D01*
X14568549Y34076005D01*
X14521586Y34062688D01*
X14473944Y34039669D01*
X14393159Y34011370D01*
X14294488Y33997118D01*
X14192169Y33997646D01*
X14100437Y34013686D01*
X14082666Y34019525D01*
X14002163Y34062284D01*
X13920203Y34128241D01*
X13846932Y34207813D01*
X13792494Y34291419D01*
X13790462Y34295506D01*
X13757593Y34388521D01*
X13735286Y34505508D01*
X13723538Y34637310D01*
X13722878Y34713456D01*
X13956577Y34713456D01*
X13961266Y34605568D01*
X13974225Y34506996D01*
X13995461Y34426333D01*
X14019871Y34378475D01*
X14097327Y34300824D01*
X14188776Y34254484D01*
X14291008Y34240554D01*
X14382136Y34254500D01*
X14460230Y34282388D01*
X14519660Y34320188D01*
X14562661Y34372363D01*
X14591469Y34443379D01*
X14608318Y34537701D01*
X14615443Y34659794D01*
X14616074Y34721835D01*
X14615189Y34824469D01*
X14612018Y34899657D01*
X14605790Y34954692D01*
X14595733Y34996864D01*
X14583711Y35027798D01*
X14530953Y35105882D01*
X14458296Y35161038D01*
X14372376Y35192814D01*
X14279826Y35200757D01*
X14187281Y35184413D01*
X14101373Y35143330D01*
X14028737Y35077055D01*
X14020395Y35066268D01*
X13992068Y35007064D01*
X13971985Y34922798D01*
X13960152Y34822064D01*
X13956577Y34713456D01*
X13722878Y34713456D01*
X13722347Y34774773D01*
X13731709Y34908740D01*
G37*
G36*
X18399225Y34862818D02*
G01*
X18407589Y34966033D01*
X18420751Y35049031D01*
X18430092Y35082937D01*
X18487532Y35202046D01*
X18567023Y35300731D01*
X18663730Y35376621D01*
X18772817Y35427344D01*
X18889449Y35450526D01*
X19008791Y35443795D01*
X19105377Y35414250D01*
X19153520Y35394648D01*
X19189591Y35385446D01*
X19215512Y35390298D01*
X19233205Y35412861D01*
X19244591Y35456789D01*
X19251592Y35525738D01*
X19256129Y35623363D01*
X19258727Y35705964D01*
X19267420Y35999658D01*
X19384771Y36004799D01*
X19502122Y36009939D01*
X19502122Y35020040D01*
X19502046Y34808049D01*
X19501771Y34628198D01*
X19501223Y34477859D01*
X19500331Y34354402D01*
X19499022Y34255197D01*
X19497225Y34177614D01*
X19494866Y34119025D01*
X19491873Y34076799D01*
X19488175Y34048307D01*
X19483699Y34030919D01*
X19478372Y34022007D01*
X19474622Y34019588D01*
X19403878Y34009813D01*
X19335314Y34030645D01*
X19315627Y34043806D01*
X19282325Y34066989D01*
X19252506Y34075797D01*
X19216079Y34069756D01*
X19162953Y34048391D01*
X19134410Y34035283D01*
X19030573Y34002511D01*
X18916510Y33992049D01*
X18807019Y34004694D01*
X18769891Y34015652D01*
X18646622Y34077449D01*
X18544430Y34165965D01*
X18466139Y34278324D01*
X18429580Y34362275D01*
X18413864Y34429951D01*
X18402976Y34522952D01*
X18396912Y34632169D01*
X18395938Y34722977D01*
X18633236Y34722977D01*
X18636023Y34592187D01*
X18646485Y34490672D01*
X18667057Y34413332D01*
X18700173Y34355070D01*
X18748266Y34310787D01*
X18813771Y34275383D01*
X18854676Y34259101D01*
X18932429Y34244519D01*
X19020886Y34248786D01*
X19102409Y34270609D01*
X19119415Y34278539D01*
X19183973Y34326594D01*
X19240966Y34394866D01*
X19259401Y34426113D01*
X19271211Y34466514D01*
X19280915Y34532657D01*
X19288012Y34615554D01*
X19292001Y34706212D01*
X19292381Y34795642D01*
X19288652Y34874852D01*
X19285899Y34901648D01*
X19257480Y35007210D01*
X19203891Y35093221D01*
X19129803Y35156435D01*
X19039888Y35193609D01*
X18938821Y35201496D01*
X18870980Y35189820D01*
X18791906Y35162289D01*
X18731684Y35124798D01*
X18688048Y35072899D01*
X18658733Y35002144D01*
X18641474Y34908083D01*
X18634005Y34786270D01*
X18633236Y34722977D01*
X18395938Y34722977D01*
X18395664Y34748493D01*
X18399225Y34862818D01*
G37*
%TO.C,R3*%
X6050000Y11950000D02*
X6050000Y11650000D01*
X6750000Y11950000D02*
X6750000Y11650000D01*
D11*
%TO.C,*%
X15740000Y16110000D02*
X15740000Y16250000D01*
X15740000Y16250000D02*
X15720000Y16310000D01*
X15720000Y16310000D02*
X15660000Y16350000D01*
X15660000Y16350000D02*
X15590000Y16390000D01*
X15590000Y16390000D02*
X15530000Y16400000D01*
X15530000Y16400000D02*
X15470000Y16410000D01*
X15470000Y16410000D02*
X14860000Y16410000D01*
X14860000Y16410000D02*
X14830000Y16360000D01*
X14830000Y16360000D02*
X14850000Y16300000D01*
X14850000Y16300000D02*
X14910000Y16300000D01*
X14910000Y16300000D02*
X15460000Y16300000D01*
X15460000Y16300000D02*
X15530000Y16290000D01*
X15530000Y16290000D02*
X15590000Y16270000D01*
X15590000Y16270000D02*
X15640000Y16220000D01*
X15640000Y16220000D02*
X15640000Y16150000D01*
X15640000Y16150000D02*
X15590000Y16100000D01*
X15590000Y16100000D02*
X15530000Y16070000D01*
X15530000Y16070000D02*
X15470000Y16070000D01*
X15470000Y16070000D02*
X15440000Y16020000D01*
X15440000Y16020000D02*
X15460000Y15960000D01*
X15460000Y15960000D02*
X15530000Y15960000D01*
X15530000Y15960000D02*
X15600000Y15970000D01*
X15600000Y15970000D02*
X15650000Y16000000D01*
X15650000Y16000000D02*
X15690000Y16040000D01*
X15690000Y16040000D02*
X15740000Y16110000D01*
X15740000Y16110000D02*
X15740000Y16110000D01*
G36*
X15590000Y16390000D02*
G01*
X15660000Y16350000D01*
X15720000Y16310000D01*
X15740000Y16250000D01*
X15740000Y16110000D01*
X15690000Y16040000D01*
X15650000Y16000000D01*
X15600000Y15970000D01*
X15530000Y15960000D01*
X15460000Y15960000D01*
X15440000Y16020000D01*
X15470000Y16070000D01*
X15530000Y16070000D01*
X15590000Y16100000D01*
X15640000Y16150000D01*
X15640000Y16220000D01*
X15590000Y16270000D01*
X15530000Y16290000D01*
X15460000Y16300000D01*
X14850000Y16300000D01*
X14830000Y16360000D01*
X14860000Y16410000D01*
X15470000Y16410000D01*
X15590000Y16390000D01*
G37*
X15590000Y16390000D02*
X15660000Y16350000D01*
X15720000Y16310000D01*
X15740000Y16250000D01*
X15740000Y16110000D01*
X15690000Y16040000D01*
X15650000Y16000000D01*
X15600000Y15970000D01*
X15530000Y15960000D01*
X15460000Y15960000D01*
X15440000Y16020000D01*
X15470000Y16070000D01*
X15530000Y16070000D01*
X15590000Y16100000D01*
X15640000Y16150000D01*
X15640000Y16220000D01*
X15590000Y16270000D01*
X15530000Y16290000D01*
X15460000Y16300000D01*
X14850000Y16300000D01*
X14830000Y16360000D01*
X14860000Y16410000D01*
X15470000Y16410000D01*
X15590000Y16390000D01*
X15740000Y17540000D02*
X15740000Y17610000D01*
X15740000Y17610000D02*
X15680000Y17630000D01*
X15680000Y17630000D02*
X14870000Y17630000D01*
X14870000Y17630000D02*
X14830000Y17590000D01*
X14830000Y17590000D02*
X14830000Y17520000D01*
X14830000Y17520000D02*
X14880000Y17470000D01*
X14880000Y17470000D02*
X15020000Y17330000D01*
X15020000Y17330000D02*
X15080000Y17310000D01*
X15080000Y17310000D02*
X15100000Y17350000D01*
X15100000Y17350000D02*
X15030000Y17460000D01*
X15030000Y17460000D02*
X15010000Y17510000D01*
X15010000Y17510000D02*
X15690000Y17510000D01*
X15690000Y17510000D02*
X15740000Y17540000D01*
X15740000Y17540000D02*
X15740000Y17540000D01*
G36*
X15740000Y17610000D02*
G01*
X15740000Y17540000D01*
X15690000Y17510000D01*
X15010000Y17510000D01*
X15030000Y17460000D01*
X15100000Y17350000D01*
X15080000Y17310000D01*
X15020000Y17330000D01*
X14830000Y17520000D01*
X14830000Y17590000D01*
X14870000Y17630000D01*
X15680000Y17630000D01*
X15740000Y17610000D01*
G37*
X15740000Y17610000D02*
X15740000Y17540000D01*
X15690000Y17510000D01*
X15010000Y17510000D01*
X15030000Y17460000D01*
X15100000Y17350000D01*
X15080000Y17310000D01*
X15020000Y17330000D01*
X14830000Y17520000D01*
X14830000Y17590000D01*
X14870000Y17630000D01*
X15680000Y17630000D01*
X15740000Y17610000D01*
X15740000Y16670000D02*
X15730000Y16740000D01*
X15730000Y16740000D02*
X15670000Y16740000D01*
X15670000Y16740000D02*
X15400000Y16740000D01*
X15400000Y16740000D02*
X15340000Y16750000D01*
X15340000Y16750000D02*
X15340000Y16890000D01*
X15340000Y16890000D02*
X15330000Y16960000D01*
X15330000Y16960000D02*
X15290000Y17020000D01*
X15290000Y17020000D02*
X15250000Y17070000D01*
X15250000Y17070000D02*
X15200000Y17100000D01*
X15200000Y17100000D02*
X15140000Y17120000D01*
X15140000Y17120000D02*
X15070000Y17120000D01*
X15070000Y17120000D02*
X15000000Y17110000D01*
X15000000Y17110000D02*
X14940000Y17090000D01*
X14940000Y17090000D02*
X14900000Y17050000D01*
X14900000Y17050000D02*
X14860000Y16990000D01*
X14860000Y16990000D02*
X14950000Y16940000D01*
X14950000Y16940000D02*
X15010000Y16980000D01*
X15010000Y16980000D02*
X15070000Y17000000D01*
X15070000Y17000000D02*
X15120000Y17000000D01*
X15120000Y17000000D02*
X15180000Y16970000D01*
X15180000Y16970000D02*
X15230000Y16920000D01*
X15230000Y16920000D02*
X15230000Y16870000D01*
X15230000Y16870000D02*
X15230000Y16800000D01*
X15230000Y16800000D02*
X15220000Y16740000D01*
X15220000Y16740000D02*
X14950000Y16740000D01*
X14950000Y16740000D02*
X14940000Y16800000D01*
X14940000Y16800000D02*
X14940000Y16870000D01*
X14940000Y16870000D02*
X14950000Y16930000D01*
X14950000Y16930000D02*
X14860000Y16990000D01*
X14860000Y16990000D02*
X14830000Y16920000D01*
X14830000Y16920000D02*
X14830000Y16650000D01*
X14830000Y16650000D02*
X14880000Y16630000D01*
X14880000Y16630000D02*
X15690000Y16630000D01*
X15690000Y16630000D02*
X15740000Y16650000D01*
X15740000Y16650000D02*
X15740000Y16670000D01*
X15740000Y16670000D02*
X15740000Y16670000D01*
G36*
X15200000Y17100000D02*
G01*
X15250000Y17070000D01*
X15290000Y17020000D01*
X15330000Y16960000D01*
X15340000Y16890000D01*
X15340000Y16750000D01*
X15400000Y16740000D01*
X15730000Y16740000D01*
X15740000Y16670000D01*
X15740000Y16650000D01*
X15690000Y16630000D01*
X14880000Y16630000D01*
X14830000Y16650000D01*
X14830000Y16920000D01*
X14860000Y16990000D01*
X14950000Y16930000D01*
X14940000Y16870000D01*
X14940000Y16800000D01*
X14950000Y16740000D01*
X15220000Y16740000D01*
X15230000Y16800000D01*
X15230000Y16920000D01*
X15180000Y16970000D01*
X15120000Y17000000D01*
X15070000Y17000000D01*
X15010000Y16980000D01*
X14950000Y16940000D01*
X14860000Y16990000D01*
X14900000Y17050000D01*
X14940000Y17090000D01*
X15000000Y17110000D01*
X15070000Y17120000D01*
X15140000Y17120000D01*
X15200000Y17100000D01*
G37*
X15200000Y17100000D02*
X15250000Y17070000D01*
X15290000Y17020000D01*
X15330000Y16960000D01*
X15340000Y16890000D01*
X15340000Y16750000D01*
X15400000Y16740000D01*
X15730000Y16740000D01*
X15740000Y16670000D01*
X15740000Y16650000D01*
X15690000Y16630000D01*
X14880000Y16630000D01*
X14830000Y16650000D01*
X14830000Y16920000D01*
X14860000Y16990000D01*
X14950000Y16930000D01*
X14940000Y16870000D01*
X14940000Y16800000D01*
X14950000Y16740000D01*
X15220000Y16740000D01*
X15230000Y16800000D01*
X15230000Y16920000D01*
X15180000Y16970000D01*
X15120000Y17000000D01*
X15070000Y17000000D01*
X15010000Y16980000D01*
X14950000Y16940000D01*
X14860000Y16990000D01*
X14900000Y17050000D01*
X14940000Y17090000D01*
X15000000Y17110000D01*
X15070000Y17120000D01*
X15140000Y17120000D01*
X15200000Y17100000D01*
X15740000Y23660000D02*
X15740000Y24070000D01*
X15740000Y24070000D02*
X15710000Y24120000D01*
X15710000Y24120000D02*
X15650000Y24120000D01*
X15650000Y24120000D02*
X15640000Y24060000D01*
X15640000Y24060000D02*
X15640000Y23790000D01*
X15640000Y23790000D02*
X15590000Y23800000D01*
X15590000Y23800000D02*
X15320000Y24020000D01*
X15320000Y24020000D02*
X15260000Y24060000D01*
X15260000Y24060000D02*
X15210000Y24090000D01*
X15210000Y24090000D02*
X15140000Y24100000D01*
X15140000Y24100000D02*
X15070000Y24110000D01*
X15070000Y24110000D02*
X15000000Y24100000D01*
X15000000Y24100000D02*
X14940000Y24080000D01*
X14940000Y24080000D02*
X14900000Y24040000D01*
X14900000Y24040000D02*
X14860000Y23990000D01*
X14860000Y23990000D02*
X14830000Y23910000D01*
X14830000Y23910000D02*
X14830000Y23850000D01*
X14830000Y23850000D02*
X14850000Y23770000D01*
X14850000Y23770000D02*
X14900000Y23710000D01*
X14900000Y23710000D02*
X14940000Y23680000D01*
X14940000Y23680000D02*
X15000000Y23660000D01*
X15000000Y23660000D02*
X15060000Y23650000D01*
X15060000Y23650000D02*
X15130000Y23660000D01*
X15130000Y23660000D02*
X15130000Y23730000D01*
X15130000Y23730000D02*
X15080000Y23760000D01*
X15080000Y23760000D02*
X15020000Y23770000D01*
X15020000Y23770000D02*
X14960000Y23800000D01*
X14960000Y23800000D02*
X14930000Y23870000D01*
X14930000Y23870000D02*
X14940000Y23930000D01*
X14940000Y23930000D02*
X15000000Y23980000D01*
X15000000Y23980000D02*
X15060000Y23990000D01*
X15060000Y23990000D02*
X15130000Y23990000D01*
X15130000Y23990000D02*
X15190000Y23970000D01*
X15190000Y23970000D02*
X15250000Y23930000D01*
X15250000Y23930000D02*
X15570000Y23670000D01*
X15570000Y23670000D02*
X15620000Y23630000D01*
X15620000Y23630000D02*
X15690000Y23630000D01*
X15690000Y23630000D02*
X15740000Y23660000D01*
X15740000Y23660000D02*
X15740000Y23660000D01*
G36*
X15740000Y24070000D02*
G01*
X15740000Y23660000D01*
X15690000Y23630000D01*
X15620000Y23630000D01*
X15570000Y23670000D01*
X15250000Y23930000D01*
X15190000Y23970000D01*
X15130000Y23990000D01*
X15060000Y23990000D01*
X15000000Y23980000D01*
X14940000Y23930000D01*
X14930000Y23870000D01*
X14960000Y23800000D01*
X15020000Y23770000D01*
X15080000Y23760000D01*
X15130000Y23730000D01*
X15130000Y23660000D01*
X15060000Y23650000D01*
X15000000Y23660000D01*
X14940000Y23680000D01*
X14900000Y23710000D01*
X14850000Y23770000D01*
X14830000Y23850000D01*
X14830000Y23910000D01*
X14860000Y23990000D01*
X14900000Y24040000D01*
X14940000Y24080000D01*
X15000000Y24100000D01*
X15070000Y24110000D01*
X15210000Y24090000D01*
X15260000Y24060000D01*
X15320000Y24020000D01*
X15590000Y23800000D01*
X15640000Y23790000D01*
X15640000Y24060000D01*
X15650000Y24120000D01*
X15710000Y24120000D01*
X15740000Y24070000D01*
G37*
X15740000Y24070000D02*
X15740000Y23660000D01*
X15690000Y23630000D01*
X15620000Y23630000D01*
X15570000Y23670000D01*
X15250000Y23930000D01*
X15190000Y23970000D01*
X15130000Y23990000D01*
X15060000Y23990000D01*
X15000000Y23980000D01*
X14940000Y23930000D01*
X14930000Y23870000D01*
X14960000Y23800000D01*
X15020000Y23770000D01*
X15080000Y23760000D01*
X15130000Y23730000D01*
X15130000Y23660000D01*
X15060000Y23650000D01*
X15000000Y23660000D01*
X14940000Y23680000D01*
X14900000Y23710000D01*
X14850000Y23770000D01*
X14830000Y23850000D01*
X14830000Y23910000D01*
X14860000Y23990000D01*
X14900000Y24040000D01*
X14940000Y24080000D01*
X15000000Y24100000D01*
X15070000Y24110000D01*
X15210000Y24090000D01*
X15260000Y24060000D01*
X15320000Y24020000D01*
X15590000Y23800000D01*
X15640000Y23790000D01*
X15640000Y24060000D01*
X15650000Y24120000D01*
X15710000Y24120000D01*
X15740000Y24070000D01*
X15740000Y22430000D02*
X15740000Y22560000D01*
X15740000Y22560000D02*
X15720000Y22630000D01*
X15720000Y22630000D02*
X15660000Y22670000D01*
X15660000Y22670000D02*
X15590000Y22700000D01*
X15590000Y22700000D02*
X15530000Y22720000D01*
X15530000Y22720000D02*
X15470000Y22730000D01*
X15470000Y22730000D02*
X14860000Y22730000D01*
X14860000Y22730000D02*
X14830000Y22670000D01*
X14830000Y22670000D02*
X14850000Y22610000D01*
X14850000Y22610000D02*
X14910000Y22610000D01*
X14910000Y22610000D02*
X15460000Y22610000D01*
X15460000Y22610000D02*
X15530000Y22610000D01*
X15530000Y22610000D02*
X15590000Y22580000D01*
X15590000Y22580000D02*
X15640000Y22540000D01*
X15640000Y22540000D02*
X15640000Y22470000D01*
X15640000Y22470000D02*
X15590000Y22410000D01*
X15590000Y22410000D02*
X15530000Y22380000D01*
X15530000Y22380000D02*
X15470000Y22380000D01*
X15470000Y22380000D02*
X15440000Y22330000D01*
X15440000Y22330000D02*
X15460000Y22270000D01*
X15460000Y22270000D02*
X15530000Y22270000D01*
X15530000Y22270000D02*
X15600000Y22290000D01*
X15600000Y22290000D02*
X15650000Y22310000D01*
X15650000Y22310000D02*
X15690000Y22360000D01*
X15690000Y22360000D02*
X15740000Y22430000D01*
X15740000Y22430000D02*
X15740000Y22430000D01*
G36*
X15530000Y22720000D02*
G01*
X15590000Y22700000D01*
X15660000Y22670000D01*
X15720000Y22630000D01*
X15740000Y22560000D01*
X15740000Y22430000D01*
X15690000Y22360000D01*
X15650000Y22310000D01*
X15600000Y22290000D01*
X15530000Y22270000D01*
X15460000Y22270000D01*
X15440000Y22330000D01*
X15470000Y22380000D01*
X15530000Y22380000D01*
X15590000Y22410000D01*
X15640000Y22470000D01*
X15640000Y22540000D01*
X15590000Y22580000D01*
X15530000Y22610000D01*
X14850000Y22610000D01*
X14830000Y22670000D01*
X14860000Y22730000D01*
X15470000Y22730000D01*
X15530000Y22720000D01*
G37*
X15530000Y22720000D02*
X15590000Y22700000D01*
X15660000Y22670000D01*
X15720000Y22630000D01*
X15740000Y22560000D01*
X15740000Y22430000D01*
X15690000Y22360000D01*
X15650000Y22310000D01*
X15600000Y22290000D01*
X15530000Y22270000D01*
X15460000Y22270000D01*
X15440000Y22330000D01*
X15470000Y22380000D01*
X15530000Y22380000D01*
X15590000Y22410000D01*
X15640000Y22470000D01*
X15640000Y22540000D01*
X15590000Y22580000D01*
X15530000Y22610000D01*
X14850000Y22610000D01*
X14830000Y22670000D01*
X14860000Y22730000D01*
X15470000Y22730000D01*
X15530000Y22720000D01*
X15740000Y22990000D02*
X15730000Y23050000D01*
X15730000Y23050000D02*
X15670000Y23060000D01*
X15670000Y23060000D02*
X15400000Y23060000D01*
X15400000Y23060000D02*
X15340000Y23070000D01*
X15340000Y23070000D02*
X15340000Y23200000D01*
X15340000Y23200000D02*
X15330000Y23270000D01*
X15330000Y23270000D02*
X15290000Y23340000D01*
X15290000Y23340000D02*
X15250000Y23390000D01*
X15250000Y23390000D02*
X15200000Y23410000D01*
X15200000Y23410000D02*
X15140000Y23430000D01*
X15140000Y23430000D02*
X15070000Y23440000D01*
X15070000Y23440000D02*
X15000000Y23420000D01*
X15000000Y23420000D02*
X14940000Y23400000D01*
X14940000Y23400000D02*
X14900000Y23360000D01*
X14900000Y23360000D02*
X14860000Y23310000D01*
X14860000Y23310000D02*
X14950000Y23250000D01*
X14950000Y23250000D02*
X15010000Y23300000D01*
X15010000Y23300000D02*
X15070000Y23320000D01*
X15070000Y23320000D02*
X15120000Y23320000D01*
X15120000Y23320000D02*
X15180000Y23290000D01*
X15180000Y23290000D02*
X15230000Y23240000D01*
X15230000Y23240000D02*
X15230000Y23190000D01*
X15230000Y23190000D02*
X15230000Y23120000D01*
X15230000Y23120000D02*
X15220000Y23060000D01*
X15220000Y23060000D02*
X14950000Y23060000D01*
X14950000Y23060000D02*
X14940000Y23120000D01*
X14940000Y23120000D02*
X14940000Y23180000D01*
X14940000Y23180000D02*
X14950000Y23250000D01*
X14950000Y23250000D02*
X14860000Y23310000D01*
X14860000Y23310000D02*
X14830000Y23240000D01*
X14830000Y23240000D02*
X14830000Y22970000D01*
X14830000Y22970000D02*
X14880000Y22940000D01*
X14880000Y22940000D02*
X15690000Y22940000D01*
X15690000Y22940000D02*
X15740000Y22970000D01*
X15740000Y22970000D02*
X15740000Y22990000D01*
X15740000Y22990000D02*
X15740000Y22990000D01*
G36*
X14940000Y23400000D02*
G01*
X15000000Y23420000D01*
X15070000Y23440000D01*
X15140000Y23430000D01*
X15200000Y23410000D01*
X15250000Y23390000D01*
X15290000Y23340000D01*
X15330000Y23270000D01*
X15340000Y23200000D01*
X15340000Y23070000D01*
X15400000Y23060000D01*
X15670000Y23060000D01*
X15730000Y23050000D01*
X15740000Y22990000D01*
X15740000Y22970000D01*
X15690000Y22940000D01*
X14880000Y22940000D01*
X14830000Y22970000D01*
X14830000Y23120000D01*
X14940000Y23120000D01*
X14950000Y23060000D01*
X15220000Y23060000D01*
X15230000Y23120000D01*
X15230000Y23240000D01*
X15180000Y23290000D01*
X15120000Y23320000D01*
X15070000Y23320000D01*
X15010000Y23300000D01*
X14950000Y23250000D01*
X14940000Y23180000D01*
X14940000Y23120000D01*
X14830000Y23120000D01*
X14830000Y23240000D01*
X14860000Y23310000D01*
X14900000Y23360000D01*
X14940000Y23400000D01*
G37*
X14940000Y23400000D02*
X15000000Y23420000D01*
X15070000Y23440000D01*
X15140000Y23430000D01*
X15200000Y23410000D01*
X15250000Y23390000D01*
X15290000Y23340000D01*
X15330000Y23270000D01*
X15340000Y23200000D01*
X15340000Y23070000D01*
X15400000Y23060000D01*
X15670000Y23060000D01*
X15730000Y23050000D01*
X15740000Y22990000D01*
X15740000Y22970000D01*
X15690000Y22940000D01*
X14880000Y22940000D01*
X14830000Y22970000D01*
X14830000Y23120000D01*
X14940000Y23120000D01*
X14950000Y23060000D01*
X15220000Y23060000D01*
X15230000Y23120000D01*
X15230000Y23240000D01*
X15180000Y23290000D01*
X15120000Y23320000D01*
X15070000Y23320000D01*
X15010000Y23300000D01*
X14950000Y23250000D01*
X14940000Y23180000D01*
X14940000Y23120000D01*
X14830000Y23120000D01*
X14830000Y23240000D01*
X14860000Y23310000D01*
X14900000Y23360000D01*
X14940000Y23400000D01*
X17010000Y31390000D02*
X16670000Y32340000D01*
X16670000Y32340000D02*
X16610000Y32410000D01*
X16610000Y32410000D02*
X16510000Y32410000D01*
X16510000Y32410000D02*
X16440000Y32360000D01*
X16440000Y32360000D02*
X16440000Y31150000D01*
X16440000Y31150000D02*
X16450000Y31050000D01*
X16450000Y31050000D02*
X16550000Y31040000D01*
X16550000Y31040000D02*
X16610000Y31100000D01*
X16610000Y31100000D02*
X16610000Y32010000D01*
X16610000Y32010000D02*
X16630000Y32060000D01*
X16630000Y32060000D02*
X16960000Y31100000D01*
X16960000Y31100000D02*
X17030000Y31040000D01*
X17030000Y31040000D02*
X17130000Y31040000D01*
X17130000Y31040000D02*
X17200000Y31090000D01*
X17200000Y31090000D02*
X17200000Y32300000D01*
X17200000Y32300000D02*
X17180000Y32400000D01*
X17180000Y32400000D02*
X17080000Y32410000D01*
X17080000Y32410000D02*
X17040000Y32340000D01*
X17040000Y32340000D02*
X17040000Y31430000D01*
X17040000Y31430000D02*
X17010000Y31390000D01*
X17010000Y31390000D02*
X17010000Y31390000D01*
G36*
X16670000Y32340000D02*
G01*
X17010000Y31390000D01*
X17040000Y31430000D01*
X17040000Y32340000D01*
X17080000Y32410000D01*
X17180000Y32400000D01*
X17200000Y32300000D01*
X17200000Y31090000D01*
X17130000Y31040000D01*
X17030000Y31040000D01*
X16960000Y31100000D01*
X16630000Y32060000D01*
X16610000Y32010000D01*
X16610000Y31100000D01*
X16550000Y31040000D01*
X16450000Y31050000D01*
X16440000Y31150000D01*
X16440000Y32360000D01*
X16510000Y32410000D01*
X16610000Y32410000D01*
X16670000Y32340000D01*
G37*
X16670000Y32340000D02*
X17010000Y31390000D01*
X17040000Y31430000D01*
X17040000Y32340000D01*
X17080000Y32410000D01*
X17180000Y32400000D01*
X17200000Y32300000D01*
X17200000Y31090000D01*
X17130000Y31040000D01*
X17030000Y31040000D01*
X16960000Y31100000D01*
X16630000Y32060000D01*
X16610000Y32010000D01*
X16610000Y31100000D01*
X16550000Y31040000D01*
X16450000Y31050000D01*
X16440000Y31150000D01*
X16440000Y32360000D01*
X16510000Y32410000D01*
X16610000Y32410000D01*
X16670000Y32340000D01*
X12200000Y31390000D02*
X11850000Y32340000D01*
X11850000Y32340000D02*
X11800000Y32410000D01*
X11800000Y32410000D02*
X11690000Y32410000D01*
X11690000Y32410000D02*
X11620000Y32360000D01*
X11620000Y32360000D02*
X11620000Y31150000D01*
X11620000Y31150000D02*
X11630000Y31050000D01*
X11630000Y31050000D02*
X11730000Y31040000D01*
X11730000Y31040000D02*
X11790000Y31100000D01*
X11790000Y31100000D02*
X11790000Y32010000D01*
X11790000Y32010000D02*
X11810000Y32060000D01*
X11810000Y32060000D02*
X12150000Y31100000D01*
X12150000Y31100000D02*
X12210000Y31040000D01*
X12210000Y31040000D02*
X12310000Y31040000D01*
X12310000Y31040000D02*
X12380000Y31090000D01*
X12380000Y31090000D02*
X12380000Y32300000D01*
X12380000Y32300000D02*
X12370000Y32400000D01*
X12370000Y32400000D02*
X12270000Y32410000D01*
X12270000Y32410000D02*
X12220000Y32340000D01*
X12220000Y32340000D02*
X12220000Y31430000D01*
X12220000Y31430000D02*
X12200000Y31390000D01*
X12200000Y31390000D02*
X12200000Y31390000D01*
G36*
X11850000Y32340000D02*
G01*
X12200000Y31390000D01*
X12220000Y31430000D01*
X12220000Y32340000D01*
X12270000Y32410000D01*
X12370000Y32400000D01*
X12380000Y32300000D01*
X12380000Y31090000D01*
X12310000Y31040000D01*
X12210000Y31040000D01*
X12150000Y31100000D01*
X11810000Y32060000D01*
X11790000Y32010000D01*
X11790000Y31100000D01*
X11730000Y31040000D01*
X11630000Y31050000D01*
X11620000Y31150000D01*
X11620000Y32360000D01*
X11690000Y32410000D01*
X11800000Y32410000D01*
X11850000Y32340000D01*
G37*
X11850000Y32340000D02*
X12200000Y31390000D01*
X12220000Y31430000D01*
X12220000Y32340000D01*
X12270000Y32410000D01*
X12370000Y32400000D01*
X12380000Y32300000D01*
X12380000Y31090000D01*
X12310000Y31040000D01*
X12210000Y31040000D01*
X12150000Y31100000D01*
X11810000Y32060000D01*
X11790000Y32010000D01*
X11790000Y31100000D01*
X11730000Y31040000D01*
X11630000Y31050000D01*
X11620000Y31150000D01*
X11620000Y32360000D01*
X11690000Y32410000D01*
X11800000Y32410000D01*
X11850000Y32340000D01*
X18930000Y31040000D02*
X19130000Y31040000D01*
X19130000Y31040000D02*
X19240000Y31080000D01*
X19240000Y31080000D02*
X19320000Y31160000D01*
X19320000Y31160000D02*
X19390000Y31220000D01*
X19390000Y31220000D02*
X19420000Y31290000D01*
X19420000Y31290000D02*
X19450000Y31390000D01*
X19450000Y31390000D02*
X19460000Y31490000D01*
X19460000Y31490000D02*
X19460000Y31590000D01*
X19460000Y31590000D02*
X19460000Y31700000D01*
X19460000Y31700000D02*
X19460000Y31820000D01*
X19460000Y31820000D02*
X19460000Y31920000D01*
X19460000Y31920000D02*
X19450000Y32010000D01*
X19450000Y32010000D02*
X19430000Y32110000D01*
X19430000Y32110000D02*
X19400000Y32190000D01*
X19400000Y32190000D02*
X19350000Y32260000D01*
X19350000Y32260000D02*
X19280000Y32330000D01*
X19280000Y32330000D02*
X19170000Y32410000D01*
X19170000Y32410000D02*
X18970000Y32410000D01*
X18970000Y32410000D02*
X18990000Y32250000D01*
X18990000Y32250000D02*
X19090000Y32250000D01*
X19090000Y32250000D02*
X19180000Y32200000D01*
X19180000Y32200000D02*
X19240000Y32130000D01*
X19240000Y32130000D02*
X19280000Y32050000D01*
X19280000Y32050000D02*
X19290000Y31940000D01*
X19290000Y31940000D02*
X19290000Y31730000D01*
X19290000Y31730000D02*
X19290000Y31520000D01*
X19290000Y31520000D02*
X19280000Y31420000D01*
X19280000Y31420000D02*
X19250000Y31330000D01*
X19250000Y31330000D02*
X19200000Y31260000D01*
X19200000Y31260000D02*
X19120000Y31200000D01*
X19120000Y31200000D02*
X19020000Y31200000D01*
X19020000Y31200000D02*
X18920000Y31240000D01*
X18920000Y31240000D02*
X18850000Y31310000D01*
X18850000Y31310000D02*
X18830000Y31390000D01*
X18830000Y31390000D02*
X18810000Y31500000D01*
X18810000Y31500000D02*
X18810000Y31590000D01*
X18810000Y31590000D02*
X18800000Y31700000D01*
X18800000Y31700000D02*
X18800000Y31820000D01*
X18800000Y31820000D02*
X18810000Y31920000D01*
X18810000Y31920000D02*
X18820000Y32020000D01*
X18820000Y32020000D02*
X18840000Y32110000D01*
X18840000Y32110000D02*
X18890000Y32180000D01*
X18890000Y32180000D02*
X18980000Y32250000D01*
X18980000Y32250000D02*
X18970000Y32400000D01*
X18970000Y32400000D02*
X18870000Y32370000D01*
X18870000Y32370000D02*
X18780000Y32290000D01*
X18780000Y32290000D02*
X18720000Y32220000D01*
X18720000Y32220000D02*
X18680000Y32150000D01*
X18680000Y32150000D02*
X18650000Y32060000D01*
X18650000Y32060000D02*
X18640000Y31960000D01*
X18640000Y31960000D02*
X18630000Y31870000D01*
X18630000Y31870000D02*
X18630000Y31760000D01*
X18630000Y31760000D02*
X18630000Y31640000D01*
X18630000Y31640000D02*
X18630000Y31530000D01*
X18630000Y31530000D02*
X18640000Y31440000D01*
X18640000Y31440000D02*
X18660000Y31340000D01*
X18660000Y31340000D02*
X18700000Y31260000D01*
X18700000Y31260000D02*
X18740000Y31190000D01*
X18740000Y31190000D02*
X18810000Y31120000D01*
X18810000Y31120000D02*
X18910000Y31040000D01*
X18910000Y31040000D02*
X18930000Y31040000D01*
X18930000Y31040000D02*
X18930000Y31040000D01*
G36*
X19280000Y32330000D02*
G01*
X19350000Y32260000D01*
X19400000Y32190000D01*
X19430000Y32110000D01*
X19450000Y32010000D01*
X19460000Y31920000D01*
X19460000Y31490000D01*
X19450000Y31390000D01*
X19420000Y31290000D01*
X19390000Y31220000D01*
X19320000Y31160000D01*
X19240000Y31080000D01*
X19130000Y31040000D01*
X18910000Y31040000D01*
X18810000Y31120000D01*
X18740000Y31190000D01*
X18700000Y31260000D01*
X18660000Y31340000D01*
X18640000Y31440000D01*
X18630000Y31530000D01*
X18630000Y31870000D01*
X18640000Y31960000D01*
X18650000Y32060000D01*
X18680000Y32150000D01*
X18720000Y32220000D01*
X18780000Y32290000D01*
X18870000Y32370000D01*
X18970000Y32400000D01*
X18980000Y32250000D01*
X18890000Y32180000D01*
X18840000Y32110000D01*
X18820000Y32020000D01*
X18800000Y31820000D01*
X18800000Y31700000D01*
X18810000Y31590000D01*
X18810000Y31500000D01*
X18830000Y31390000D01*
X18850000Y31310000D01*
X18920000Y31240000D01*
X19020000Y31200000D01*
X19120000Y31200000D01*
X19200000Y31260000D01*
X19250000Y31330000D01*
X19280000Y31420000D01*
X19290000Y31520000D01*
X19290000Y31940000D01*
X19280000Y32050000D01*
X19240000Y32130000D01*
X19180000Y32200000D01*
X19090000Y32250000D01*
X18990000Y32250000D01*
X18970000Y32410000D01*
X19170000Y32410000D01*
X19280000Y32330000D01*
G37*
X19280000Y32330000D02*
X19350000Y32260000D01*
X19400000Y32190000D01*
X19430000Y32110000D01*
X19450000Y32010000D01*
X19460000Y31920000D01*
X19460000Y31490000D01*
X19450000Y31390000D01*
X19420000Y31290000D01*
X19390000Y31220000D01*
X19320000Y31160000D01*
X19240000Y31080000D01*
X19130000Y31040000D01*
X18910000Y31040000D01*
X18810000Y31120000D01*
X18740000Y31190000D01*
X18700000Y31260000D01*
X18660000Y31340000D01*
X18640000Y31440000D01*
X18630000Y31530000D01*
X18630000Y31870000D01*
X18640000Y31960000D01*
X18650000Y32060000D01*
X18680000Y32150000D01*
X18720000Y32220000D01*
X18780000Y32290000D01*
X18870000Y32370000D01*
X18970000Y32400000D01*
X18980000Y32250000D01*
X18890000Y32180000D01*
X18840000Y32110000D01*
X18820000Y32020000D01*
X18800000Y31820000D01*
X18800000Y31700000D01*
X18810000Y31590000D01*
X18810000Y31500000D01*
X18830000Y31390000D01*
X18850000Y31310000D01*
X18920000Y31240000D01*
X19020000Y31200000D01*
X19120000Y31200000D01*
X19200000Y31260000D01*
X19250000Y31330000D01*
X19280000Y31420000D01*
X19290000Y31520000D01*
X19290000Y31940000D01*
X19280000Y32050000D01*
X19240000Y32130000D01*
X19180000Y32200000D01*
X19090000Y32250000D01*
X18990000Y32250000D01*
X18970000Y32410000D01*
X19170000Y32410000D01*
X19280000Y32330000D01*
X4720000Y31040000D02*
X4820000Y31040000D01*
X4820000Y31040000D02*
X4850000Y31130000D01*
X4850000Y31130000D02*
X4850000Y31640000D01*
X4850000Y31640000D02*
X4870000Y31700000D01*
X4870000Y31700000D02*
X5100000Y31130000D01*
X5100000Y31130000D02*
X5130000Y31040000D01*
X5130000Y31040000D02*
X5230000Y31040000D01*
X5230000Y31040000D02*
X5290000Y31100000D01*
X5290000Y31100000D02*
X5520000Y31990000D01*
X5520000Y31990000D02*
X5550000Y32040000D01*
X5550000Y32040000D02*
X5550000Y31120000D01*
X5550000Y31120000D02*
X5590000Y31040000D01*
X5590000Y31040000D02*
X5690000Y31040000D01*
X5690000Y31040000D02*
X5720000Y31130000D01*
X5720000Y31130000D02*
X5720000Y32350000D01*
X5720000Y32350000D02*
X5650000Y32410000D01*
X5650000Y32410000D02*
X5550000Y32410000D01*
X5550000Y32410000D02*
X5460000Y32390000D01*
X5460000Y32390000D02*
X5430000Y32290000D01*
X5430000Y32290000D02*
X5240000Y31820000D01*
X5240000Y31820000D02*
X5200000Y31740000D01*
X5200000Y31740000D02*
X5150000Y31830000D01*
X5150000Y31830000D02*
X4970000Y32310000D01*
X4970000Y32310000D02*
X4940000Y32400000D01*
X4940000Y32400000D02*
X4730000Y32410000D01*
X4730000Y32410000D02*
X4680000Y32340000D01*
X4680000Y32340000D02*
X4680000Y31120000D01*
X4680000Y31120000D02*
X4720000Y31040000D01*
X4720000Y31040000D02*
X4720000Y31040000D01*
G36*
X5720000Y32350000D02*
G01*
X5720000Y31130000D01*
X5690000Y31040000D01*
X5590000Y31040000D01*
X5550000Y31120000D01*
X5550000Y32040000D01*
X5520000Y31990000D01*
X5290000Y31100000D01*
X5230000Y31040000D01*
X5130000Y31040000D01*
X5100000Y31130000D01*
X4870000Y31700000D01*
X4850000Y31640000D01*
X4850000Y31130000D01*
X4820000Y31040000D01*
X4720000Y31040000D01*
X4680000Y31120000D01*
X4680000Y32340000D01*
X4730000Y32410000D01*
X4940000Y32400000D01*
X4970000Y32310000D01*
X5150000Y31830000D01*
X5200000Y31740000D01*
X5240000Y31820000D01*
X5430000Y32290000D01*
X5460000Y32390000D01*
X5550000Y32410000D01*
X5650000Y32410000D01*
X5720000Y32350000D01*
G37*
X5720000Y32350000D02*
X5720000Y31130000D01*
X5690000Y31040000D01*
X5590000Y31040000D01*
X5550000Y31120000D01*
X5550000Y32040000D01*
X5520000Y31990000D01*
X5290000Y31100000D01*
X5230000Y31040000D01*
X5130000Y31040000D01*
X5100000Y31130000D01*
X4870000Y31700000D01*
X4850000Y31640000D01*
X4850000Y31130000D01*
X4820000Y31040000D01*
X4720000Y31040000D01*
X4680000Y31120000D01*
X4680000Y32340000D01*
X4730000Y32410000D01*
X4940000Y32400000D01*
X4970000Y32310000D01*
X5150000Y31830000D01*
X5200000Y31740000D01*
X5240000Y31820000D01*
X5430000Y32290000D01*
X5460000Y32390000D01*
X5550000Y32410000D01*
X5650000Y32410000D01*
X5720000Y32350000D01*
X9350000Y31040000D02*
X9460000Y31040000D01*
X9460000Y31040000D02*
X9490000Y31130000D01*
X9490000Y31130000D02*
X9490000Y31640000D01*
X9490000Y31640000D02*
X9500000Y31700000D01*
X9500000Y31700000D02*
X9730000Y31130000D01*
X9730000Y31130000D02*
X9760000Y31040000D01*
X9760000Y31040000D02*
X9860000Y31040000D01*
X9860000Y31040000D02*
X9920000Y31100000D01*
X9920000Y31100000D02*
X10150000Y31990000D01*
X10150000Y31990000D02*
X10190000Y32040000D01*
X10190000Y32040000D02*
X10190000Y31120000D01*
X10190000Y31120000D02*
X10220000Y31040000D01*
X10220000Y31040000D02*
X10330000Y31040000D01*
X10330000Y31040000D02*
X10350000Y31130000D01*
X10350000Y31130000D02*
X10350000Y32350000D01*
X10350000Y32350000D02*
X10280000Y32410000D01*
X10280000Y32410000D02*
X10180000Y32410000D01*
X10180000Y32410000D02*
X10100000Y32390000D01*
X10100000Y32390000D02*
X10060000Y32290000D01*
X10060000Y32290000D02*
X9870000Y31820000D01*
X9870000Y31820000D02*
X9830000Y31740000D01*
X9830000Y31740000D02*
X9790000Y31830000D01*
X9790000Y31830000D02*
X9610000Y32310000D01*
X9610000Y32310000D02*
X9570000Y32400000D01*
X9570000Y32400000D02*
X9370000Y32410000D01*
X9370000Y32410000D02*
X9310000Y32340000D01*
X9310000Y32340000D02*
X9310000Y31120000D01*
X9310000Y31120000D02*
X9350000Y31040000D01*
X9350000Y31040000D02*
X9350000Y31040000D01*
G36*
X10350000Y32350000D02*
G01*
X10350000Y31130000D01*
X10330000Y31040000D01*
X10220000Y31040000D01*
X10190000Y31120000D01*
X10190000Y32040000D01*
X10150000Y31990000D01*
X9920000Y31100000D01*
X9860000Y31040000D01*
X9760000Y31040000D01*
X9730000Y31130000D01*
X9500000Y31700000D01*
X9490000Y31640000D01*
X9490000Y31130000D01*
X9460000Y31040000D01*
X9350000Y31040000D01*
X9310000Y31120000D01*
X9310000Y32340000D01*
X9370000Y32410000D01*
X9570000Y32400000D01*
X9610000Y32310000D01*
X9790000Y31830000D01*
X9830000Y31740000D01*
X9870000Y31820000D01*
X10060000Y32290000D01*
X10100000Y32390000D01*
X10180000Y32410000D01*
X10280000Y32410000D01*
X10350000Y32350000D01*
G37*
X10350000Y32350000D02*
X10350000Y31130000D01*
X10330000Y31040000D01*
X10220000Y31040000D01*
X10190000Y31120000D01*
X10190000Y32040000D01*
X10150000Y31990000D01*
X9920000Y31100000D01*
X9860000Y31040000D01*
X9760000Y31040000D01*
X9730000Y31130000D01*
X9500000Y31700000D01*
X9490000Y31640000D01*
X9490000Y31130000D01*
X9460000Y31040000D01*
X9350000Y31040000D01*
X9310000Y31120000D01*
X9310000Y32340000D01*
X9370000Y32410000D01*
X9570000Y32400000D01*
X9610000Y32310000D01*
X9790000Y31830000D01*
X9830000Y31740000D01*
X9870000Y31820000D01*
X10060000Y32290000D01*
X10100000Y32390000D01*
X10180000Y32410000D01*
X10280000Y32410000D01*
X10350000Y32350000D01*
X7530000Y31040000D02*
X7630000Y31040000D01*
X7630000Y31040000D02*
X7710000Y31070000D01*
X7710000Y31070000D02*
X8040000Y32350000D01*
X8040000Y32350000D02*
X7990000Y32410000D01*
X7990000Y32410000D02*
X7890000Y32410000D01*
X7890000Y32410000D02*
X7850000Y32320000D01*
X7850000Y32320000D02*
X7620000Y31330000D01*
X7620000Y31330000D02*
X7570000Y31390000D01*
X7570000Y31390000D02*
X7330000Y32370000D01*
X7330000Y32370000D02*
X7260000Y32410000D01*
X7260000Y32410000D02*
X7160000Y32400000D01*
X7160000Y32400000D02*
X7170000Y32300000D01*
X7170000Y32300000D02*
X7480000Y31120000D01*
X7480000Y31120000D02*
X7530000Y31040000D01*
X7530000Y31040000D02*
X7530000Y31040000D01*
G36*
X8040000Y32350000D02*
G01*
X7710000Y31070000D01*
X7630000Y31040000D01*
X7530000Y31040000D01*
X7480000Y31120000D01*
X7170000Y32300000D01*
X7160000Y32400000D01*
X7260000Y32410000D01*
X7330000Y32370000D01*
X7570000Y31390000D01*
X7620000Y31330000D01*
X7850000Y32320000D01*
X7890000Y32410000D01*
X7990000Y32410000D01*
X8040000Y32350000D01*
G37*
X8040000Y32350000D02*
X7710000Y31070000D01*
X7630000Y31040000D01*
X7530000Y31040000D01*
X7480000Y31120000D01*
X7170000Y32300000D01*
X7160000Y32400000D01*
X7260000Y32410000D01*
X7330000Y32370000D01*
X7570000Y31390000D01*
X7620000Y31330000D01*
X7850000Y32320000D01*
X7890000Y32410000D01*
X7990000Y32410000D01*
X8040000Y32350000D01*
X1580000Y31040000D02*
X1670000Y31060000D01*
X1670000Y31060000D02*
X1680000Y31150000D01*
X1680000Y31150000D02*
X1680000Y31550000D01*
X1680000Y31550000D02*
X1700000Y31640000D01*
X1700000Y31640000D02*
X1900000Y31640000D01*
X1900000Y31640000D02*
X2010000Y31650000D01*
X2010000Y31650000D02*
X2110000Y31720000D01*
X2110000Y31720000D02*
X2180000Y31780000D01*
X2180000Y31780000D02*
X2220000Y31850000D01*
X2220000Y31850000D02*
X2250000Y31950000D01*
X2250000Y31950000D02*
X2250000Y32050000D01*
X2250000Y32050000D02*
X2230000Y32150000D01*
X2230000Y32150000D02*
X2200000Y32230000D01*
X2200000Y32230000D02*
X2140000Y32300000D01*
X2140000Y32300000D02*
X2060000Y32360000D01*
X2060000Y32360000D02*
X1970000Y32230000D01*
X1970000Y32230000D02*
X2040000Y32140000D01*
X2040000Y32140000D02*
X2080000Y32050000D01*
X2080000Y32050000D02*
X2070000Y31970000D01*
X2070000Y31970000D02*
X2030000Y31890000D01*
X2030000Y31890000D02*
X1950000Y31810000D01*
X1950000Y31810000D02*
X1880000Y31810000D01*
X1880000Y31810000D02*
X1780000Y31810000D01*
X1780000Y31810000D02*
X1680000Y31820000D01*
X1680000Y31820000D02*
X1680000Y32220000D01*
X1680000Y32220000D02*
X1770000Y32230000D01*
X1770000Y32230000D02*
X1870000Y32230000D01*
X1870000Y32230000D02*
X1970000Y32230000D01*
X1970000Y32230000D02*
X2060000Y32360000D01*
X2060000Y32360000D02*
X1950000Y32410000D01*
X1950000Y32410000D02*
X1550000Y32410000D01*
X1550000Y32410000D02*
X1510000Y32330000D01*
X1510000Y32330000D02*
X1510000Y31120000D01*
X1510000Y31120000D02*
X1550000Y31040000D01*
X1550000Y31040000D02*
X1580000Y31040000D01*
X1580000Y31040000D02*
X1580000Y31040000D01*
G36*
X2060000Y32360000D02*
G01*
X2140000Y32300000D01*
X2200000Y32230000D01*
X2230000Y32150000D01*
X2250000Y32050000D01*
X2250000Y31950000D01*
X2220000Y31850000D01*
X2180000Y31780000D01*
X2110000Y31720000D01*
X2010000Y31650000D01*
X1900000Y31640000D01*
X1700000Y31640000D01*
X1680000Y31550000D01*
X1680000Y31150000D01*
X1670000Y31060000D01*
X1580000Y31040000D01*
X1550000Y31040000D01*
X1510000Y31120000D01*
X1510000Y31820000D01*
X1680000Y31820000D01*
X1780000Y31810000D01*
X1950000Y31810000D01*
X2030000Y31890000D01*
X2070000Y31970000D01*
X2080000Y32050000D01*
X2040000Y32140000D01*
X1970000Y32230000D01*
X1770000Y32230000D01*
X1680000Y32220000D01*
X1680000Y31820000D01*
X1510000Y31820000D01*
X1510000Y32330000D01*
X1550000Y32410000D01*
X1950000Y32410000D01*
X2060000Y32360000D01*
G37*
X2060000Y32360000D02*
X2140000Y32300000D01*
X2200000Y32230000D01*
X2230000Y32150000D01*
X2250000Y32050000D01*
X2250000Y31950000D01*
X2220000Y31850000D01*
X2180000Y31780000D01*
X2110000Y31720000D01*
X2010000Y31650000D01*
X1900000Y31640000D01*
X1700000Y31640000D01*
X1680000Y31550000D01*
X1680000Y31150000D01*
X1670000Y31060000D01*
X1580000Y31040000D01*
X1550000Y31040000D01*
X1510000Y31120000D01*
X1510000Y31820000D01*
X1680000Y31820000D01*
X1780000Y31810000D01*
X1950000Y31810000D01*
X2030000Y31890000D01*
X2070000Y31970000D01*
X2080000Y32050000D01*
X2040000Y32140000D01*
X1970000Y32230000D01*
X1770000Y32230000D01*
X1680000Y32220000D01*
X1680000Y31820000D01*
X1510000Y31820000D01*
X1510000Y32330000D01*
X1550000Y32410000D01*
X1950000Y32410000D01*
X2060000Y32360000D01*
X19850000Y31040000D02*
X19940000Y31070000D01*
X19940000Y31070000D02*
X19940000Y31580000D01*
X19940000Y31580000D02*
X19980000Y31640000D01*
X19980000Y31640000D02*
X20090000Y31640000D01*
X20090000Y31640000D02*
X20130000Y31550000D01*
X20130000Y31550000D02*
X20320000Y31080000D01*
X20320000Y31080000D02*
X20400000Y31040000D01*
X20400000Y31040000D02*
X20500000Y31040000D01*
X20500000Y31040000D02*
X20500000Y31140000D01*
X20500000Y31140000D02*
X20300000Y31600000D01*
X20300000Y31600000D02*
X20320000Y31690000D01*
X20320000Y31690000D02*
X20410000Y31750000D01*
X20410000Y31750000D02*
X20460000Y31830000D01*
X20460000Y31830000D02*
X20500000Y31920000D01*
X20500000Y31920000D02*
X20510000Y32030000D01*
X20510000Y32030000D02*
X20500000Y32130000D01*
X20500000Y32130000D02*
X20460000Y32220000D01*
X20460000Y32220000D02*
X20410000Y32280000D01*
X20410000Y32280000D02*
X20330000Y32350000D01*
X20330000Y32350000D02*
X20240000Y32210000D01*
X20240000Y32210000D02*
X20310000Y32130000D01*
X20310000Y32130000D02*
X20340000Y32040000D01*
X20340000Y32040000D02*
X20330000Y31960000D01*
X20330000Y31960000D02*
X20280000Y31880000D01*
X20280000Y31880000D02*
X20190000Y31810000D01*
X20190000Y31810000D02*
X20130000Y31810000D01*
X20130000Y31810000D02*
X20030000Y31810000D01*
X20030000Y31810000D02*
X19940000Y31820000D01*
X19940000Y31820000D02*
X19940000Y32230000D01*
X19940000Y32230000D02*
X20030000Y32230000D01*
X20030000Y32230000D02*
X20130000Y32230000D01*
X20130000Y32230000D02*
X20230000Y32220000D01*
X20230000Y32220000D02*
X20330000Y32350000D01*
X20330000Y32350000D02*
X20220000Y32410000D01*
X20220000Y32410000D02*
X19820000Y32410000D01*
X19820000Y32410000D02*
X19770000Y32340000D01*
X19770000Y32340000D02*
X19770000Y31120000D01*
X19770000Y31120000D02*
X19810000Y31040000D01*
X19810000Y31040000D02*
X19850000Y31040000D01*
X19850000Y31040000D02*
X19850000Y31040000D01*
G36*
X20330000Y32350000D02*
G01*
X20230000Y32220000D01*
X20130000Y32230000D01*
X19940000Y32230000D01*
X19940000Y31820000D01*
X20030000Y31810000D01*
X20190000Y31810000D01*
X20280000Y31880000D01*
X20330000Y31960000D01*
X20340000Y32040000D01*
X20310000Y32130000D01*
X20240000Y32210000D01*
X20330000Y32350000D01*
X20410000Y32280000D01*
X20460000Y32220000D01*
X20500000Y32130000D01*
X20510000Y32030000D01*
X20500000Y31920000D01*
X20460000Y31830000D01*
X20410000Y31750000D01*
X20320000Y31690000D01*
X20300000Y31600000D01*
X20500000Y31140000D01*
X20500000Y31040000D01*
X20400000Y31040000D01*
X20320000Y31080000D01*
X20130000Y31550000D01*
X20090000Y31640000D01*
X19980000Y31640000D01*
X19940000Y31580000D01*
X19940000Y31070000D01*
X19850000Y31040000D01*
X19810000Y31040000D01*
X19770000Y31120000D01*
X19770000Y32340000D01*
X19820000Y32410000D01*
X20220000Y32410000D01*
X20330000Y32350000D01*
G37*
X20330000Y32350000D02*
X20230000Y32220000D01*
X20130000Y32230000D01*
X19940000Y32230000D01*
X19940000Y31820000D01*
X20030000Y31810000D01*
X20190000Y31810000D01*
X20280000Y31880000D01*
X20330000Y31960000D01*
X20340000Y32040000D01*
X20310000Y32130000D01*
X20240000Y32210000D01*
X20330000Y32350000D01*
X20410000Y32280000D01*
X20460000Y32220000D01*
X20500000Y32130000D01*
X20510000Y32030000D01*
X20500000Y31920000D01*
X20460000Y31830000D01*
X20410000Y31750000D01*
X20320000Y31690000D01*
X20300000Y31600000D01*
X20500000Y31140000D01*
X20500000Y31040000D01*
X20400000Y31040000D01*
X20320000Y31080000D01*
X20130000Y31550000D01*
X20090000Y31640000D01*
X19980000Y31640000D01*
X19940000Y31580000D01*
X19940000Y31070000D01*
X19850000Y31040000D01*
X19810000Y31040000D01*
X19770000Y31120000D01*
X19770000Y32340000D01*
X19820000Y32410000D01*
X20220000Y32410000D01*
X20330000Y32350000D01*
X15520000Y31040000D02*
X16030000Y31040000D01*
X16030000Y31040000D02*
X16130000Y31040000D01*
X16130000Y31040000D02*
X16140000Y31140000D01*
X16140000Y31140000D02*
X16090000Y31200000D01*
X16090000Y31200000D02*
X15690000Y31200000D01*
X15690000Y31200000D02*
X15650000Y31270000D01*
X15650000Y31270000D02*
X15650000Y31570000D01*
X15650000Y31570000D02*
X15680000Y31640000D01*
X15680000Y31640000D02*
X16090000Y31640000D01*
X16090000Y31640000D02*
X16120000Y31720000D01*
X16120000Y31720000D02*
X16090000Y31810000D01*
X16090000Y31810000D02*
X15680000Y31810000D01*
X15680000Y31810000D02*
X15650000Y31880000D01*
X15650000Y31880000D02*
X15650000Y32180000D01*
X15650000Y32180000D02*
X15690000Y32240000D01*
X15690000Y32240000D02*
X16100000Y32240000D01*
X16100000Y32240000D02*
X16140000Y32310000D01*
X16140000Y32310000D02*
X16120000Y32400000D01*
X16120000Y32400000D02*
X16020000Y32410000D01*
X16020000Y32410000D02*
X15510000Y32410000D01*
X15510000Y32410000D02*
X15480000Y32320000D01*
X15480000Y32320000D02*
X15480000Y31120000D01*
X15480000Y31120000D02*
X15520000Y31040000D01*
X15520000Y31040000D02*
X15520000Y31040000D01*
G36*
X16120000Y32400000D02*
G01*
X16140000Y32310000D01*
X16100000Y32240000D01*
X15690000Y32240000D01*
X15650000Y32180000D01*
X15650000Y31880000D01*
X15680000Y31810000D01*
X16090000Y31810000D01*
X16120000Y31720000D01*
X16090000Y31640000D01*
X15680000Y31640000D01*
X15650000Y31570000D01*
X15650000Y31270000D01*
X15690000Y31200000D01*
X16090000Y31200000D01*
X16140000Y31140000D01*
X16130000Y31040000D01*
X15520000Y31040000D01*
X15480000Y31120000D01*
X15480000Y32320000D01*
X15510000Y32410000D01*
X16020000Y32410000D01*
X16120000Y32400000D01*
G37*
X16120000Y32400000D02*
X16140000Y32310000D01*
X16100000Y32240000D01*
X15690000Y32240000D01*
X15650000Y32180000D01*
X15650000Y31880000D01*
X15680000Y31810000D01*
X16090000Y31810000D01*
X16120000Y31720000D01*
X16090000Y31640000D01*
X15680000Y31640000D01*
X15650000Y31570000D01*
X15650000Y31270000D01*
X15690000Y31200000D01*
X16090000Y31200000D01*
X16140000Y31140000D01*
X16130000Y31040000D01*
X15520000Y31040000D01*
X15480000Y31120000D01*
X15480000Y32320000D01*
X15510000Y32410000D01*
X16020000Y32410000D01*
X16120000Y32400000D01*
X10710000Y31040000D02*
X11210000Y31040000D01*
X11210000Y31040000D02*
X11310000Y31040000D01*
X11310000Y31040000D02*
X11330000Y31140000D01*
X11330000Y31140000D02*
X11270000Y31200000D01*
X11270000Y31200000D02*
X10870000Y31200000D01*
X10870000Y31200000D02*
X10840000Y31270000D01*
X10840000Y31270000D02*
X10840000Y31570000D01*
X10840000Y31570000D02*
X10870000Y31640000D01*
X10870000Y31640000D02*
X11270000Y31640000D01*
X11270000Y31640000D02*
X11300000Y31720000D01*
X11300000Y31720000D02*
X11270000Y31810000D01*
X11270000Y31810000D02*
X10870000Y31810000D01*
X10870000Y31810000D02*
X10840000Y31880000D01*
X10840000Y31880000D02*
X10840000Y32180000D01*
X10840000Y32180000D02*
X10880000Y32240000D01*
X10880000Y32240000D02*
X11280000Y32240000D01*
X11280000Y32240000D02*
X11330000Y32310000D01*
X11330000Y32310000D02*
X11300000Y32400000D01*
X11300000Y32400000D02*
X11200000Y32410000D01*
X11200000Y32410000D02*
X10700000Y32410000D01*
X10700000Y32410000D02*
X10660000Y32320000D01*
X10660000Y32320000D02*
X10660000Y31120000D01*
X10660000Y31120000D02*
X10710000Y31040000D01*
X10710000Y31040000D02*
X10710000Y31040000D01*
G36*
X11300000Y32400000D02*
G01*
X11330000Y32310000D01*
X11280000Y32240000D01*
X10880000Y32240000D01*
X10840000Y32180000D01*
X10840000Y31880000D01*
X10870000Y31810000D01*
X11270000Y31810000D01*
X11300000Y31720000D01*
X11270000Y31640000D01*
X10870000Y31640000D01*
X10840000Y31570000D01*
X10840000Y31270000D01*
X10870000Y31200000D01*
X11270000Y31200000D01*
X11330000Y31140000D01*
X11310000Y31040000D01*
X10710000Y31040000D01*
X10660000Y31120000D01*
X10660000Y32320000D01*
X10700000Y32410000D01*
X11200000Y32410000D01*
X11300000Y32400000D01*
G37*
X11300000Y32400000D02*
X11330000Y32310000D01*
X11280000Y32240000D01*
X10880000Y32240000D01*
X10840000Y32180000D01*
X10840000Y31880000D01*
X10870000Y31810000D01*
X11270000Y31810000D01*
X11300000Y31720000D01*
X11270000Y31640000D01*
X10870000Y31640000D01*
X10840000Y31570000D01*
X10840000Y31270000D01*
X10870000Y31200000D01*
X11270000Y31200000D01*
X11330000Y31140000D01*
X11310000Y31040000D01*
X10710000Y31040000D01*
X10660000Y31120000D01*
X10660000Y32320000D01*
X10700000Y32410000D01*
X11200000Y32410000D01*
X11300000Y32400000D01*
X17810000Y31040000D02*
X18010000Y31040000D01*
X18010000Y31040000D02*
X18120000Y31090000D01*
X18120000Y31090000D02*
X18210000Y31150000D01*
X18210000Y31150000D02*
X18260000Y31210000D01*
X18260000Y31210000D02*
X18300000Y31290000D01*
X18300000Y31290000D02*
X18320000Y31390000D01*
X18320000Y31390000D02*
X18320000Y31500000D01*
X18320000Y31500000D02*
X18300000Y31590000D01*
X18300000Y31590000D02*
X18250000Y31680000D01*
X18250000Y31680000D02*
X18190000Y31750000D01*
X18190000Y31750000D02*
X18100000Y31810000D01*
X18100000Y31810000D02*
X17890000Y31870000D01*
X17890000Y31870000D02*
X17810000Y31910000D01*
X17810000Y31910000D02*
X17740000Y31980000D01*
X17740000Y31980000D02*
X17730000Y32080000D01*
X17730000Y32080000D02*
X17760000Y32160000D01*
X17760000Y32160000D02*
X17840000Y32250000D01*
X17840000Y32250000D02*
X17940000Y32250000D01*
X17940000Y32250000D02*
X18040000Y32240000D01*
X18040000Y32240000D02*
X18110000Y32150000D01*
X18110000Y32150000D02*
X18140000Y32070000D01*
X18140000Y32070000D02*
X18180000Y32000000D01*
X18180000Y32000000D02*
X18290000Y32000000D01*
X18290000Y32000000D02*
X18310000Y32080000D01*
X18310000Y32080000D02*
X18290000Y32160000D01*
X18290000Y32160000D02*
X18250000Y32250000D01*
X18250000Y32250000D02*
X18180000Y32340000D01*
X18180000Y32340000D02*
X18090000Y32410000D01*
X18090000Y32410000D02*
X17890000Y32410000D01*
X17890000Y32410000D02*
X17780000Y32380000D01*
X17780000Y32380000D02*
X17680000Y32320000D01*
X17680000Y32320000D02*
X17620000Y32260000D01*
X17620000Y32260000D02*
X17580000Y32180000D01*
X17580000Y32180000D02*
X17560000Y32080000D01*
X17560000Y32080000D02*
X17560000Y31980000D01*
X17560000Y31980000D02*
X17580000Y31880000D01*
X17580000Y31880000D02*
X17630000Y31790000D01*
X17630000Y31790000D02*
X17700000Y31730000D01*
X17700000Y31730000D02*
X17790000Y31680000D01*
X17790000Y31680000D02*
X17890000Y31650000D01*
X17890000Y31650000D02*
X18000000Y31610000D01*
X18000000Y31610000D02*
X18080000Y31570000D01*
X18080000Y31570000D02*
X18140000Y31490000D01*
X18140000Y31490000D02*
X18150000Y31390000D01*
X18150000Y31390000D02*
X18130000Y31310000D01*
X18130000Y31310000D02*
X18060000Y31220000D01*
X18060000Y31220000D02*
X17960000Y31200000D01*
X17960000Y31200000D02*
X17860000Y31200000D01*
X17860000Y31200000D02*
X17760000Y31250000D01*
X17760000Y31250000D02*
X17710000Y31340000D01*
X17710000Y31340000D02*
X17690000Y31420000D01*
X17690000Y31420000D02*
X17650000Y31490000D01*
X17650000Y31490000D02*
X17540000Y31490000D01*
X17540000Y31490000D02*
X17510000Y31410000D01*
X17510000Y31410000D02*
X17530000Y31310000D01*
X17530000Y31310000D02*
X17560000Y31220000D01*
X17560000Y31220000D02*
X17610000Y31160000D01*
X17610000Y31160000D02*
X17690000Y31100000D01*
X17690000Y31100000D02*
X17810000Y31040000D01*
X17810000Y31040000D02*
X17810000Y31040000D01*
G36*
X18180000Y32340000D02*
G01*
X18250000Y32250000D01*
X18290000Y32160000D01*
X18310000Y32080000D01*
X18290000Y32000000D01*
X18180000Y32000000D01*
X18140000Y32070000D01*
X18110000Y32150000D01*
X18040000Y32240000D01*
X17940000Y32250000D01*
X17840000Y32250000D01*
X17760000Y32160000D01*
X17730000Y32080000D01*
X17740000Y31980000D01*
X17810000Y31910000D01*
X17890000Y31870000D01*
X18100000Y31810000D01*
X18190000Y31750000D01*
X18250000Y31680000D01*
X18300000Y31590000D01*
X18320000Y31500000D01*
X18320000Y31390000D01*
X18300000Y31290000D01*
X18260000Y31210000D01*
X18210000Y31150000D01*
X18120000Y31090000D01*
X18010000Y31040000D01*
X17810000Y31040000D01*
X17690000Y31100000D01*
X17610000Y31160000D01*
X17560000Y31220000D01*
X17530000Y31310000D01*
X17510000Y31410000D01*
X17540000Y31490000D01*
X17650000Y31490000D01*
X17690000Y31420000D01*
X17710000Y31340000D01*
X17760000Y31250000D01*
X17860000Y31200000D01*
X17960000Y31200000D01*
X18060000Y31220000D01*
X18130000Y31310000D01*
X18150000Y31390000D01*
X18140000Y31490000D01*
X18080000Y31570000D01*
X18000000Y31610000D01*
X17890000Y31650000D01*
X17790000Y31680000D01*
X17700000Y31730000D01*
X17630000Y31790000D01*
X17580000Y31880000D01*
X17560000Y31980000D01*
X17560000Y32080000D01*
X17580000Y32180000D01*
X17620000Y32260000D01*
X17680000Y32320000D01*
X17780000Y32380000D01*
X17890000Y32410000D01*
X18090000Y32410000D01*
X18180000Y32340000D01*
G37*
X18180000Y32340000D02*
X18250000Y32250000D01*
X18290000Y32160000D01*
X18310000Y32080000D01*
X18290000Y32000000D01*
X18180000Y32000000D01*
X18140000Y32070000D01*
X18110000Y32150000D01*
X18040000Y32240000D01*
X17940000Y32250000D01*
X17840000Y32250000D01*
X17760000Y32160000D01*
X17730000Y32080000D01*
X17740000Y31980000D01*
X17810000Y31910000D01*
X17890000Y31870000D01*
X18100000Y31810000D01*
X18190000Y31750000D01*
X18250000Y31680000D01*
X18300000Y31590000D01*
X18320000Y31500000D01*
X18320000Y31390000D01*
X18300000Y31290000D01*
X18260000Y31210000D01*
X18210000Y31150000D01*
X18120000Y31090000D01*
X18010000Y31040000D01*
X17810000Y31040000D01*
X17690000Y31100000D01*
X17610000Y31160000D01*
X17560000Y31220000D01*
X17530000Y31310000D01*
X17510000Y31410000D01*
X17540000Y31490000D01*
X17650000Y31490000D01*
X17690000Y31420000D01*
X17710000Y31340000D01*
X17760000Y31250000D01*
X17860000Y31200000D01*
X17960000Y31200000D01*
X18060000Y31220000D01*
X18130000Y31310000D01*
X18150000Y31390000D01*
X18140000Y31490000D01*
X18080000Y31570000D01*
X18000000Y31610000D01*
X17890000Y31650000D01*
X17790000Y31680000D01*
X17700000Y31730000D01*
X17630000Y31790000D01*
X17580000Y31880000D01*
X17560000Y31980000D01*
X17560000Y32080000D01*
X17580000Y32180000D01*
X17620000Y32260000D01*
X17680000Y32320000D01*
X17780000Y32380000D01*
X17890000Y32410000D01*
X18090000Y32410000D01*
X18180000Y32340000D01*
X2590000Y31040000D02*
X2690000Y31040000D01*
X2690000Y31040000D02*
X2720000Y31120000D01*
X2720000Y31120000D02*
X2720000Y32330000D01*
X2720000Y32330000D02*
X2680000Y32410000D01*
X2680000Y32410000D02*
X2580000Y32410000D01*
X2580000Y32410000D02*
X2550000Y32320000D01*
X2550000Y32320000D02*
X2550000Y31110000D01*
X2550000Y31110000D02*
X2590000Y31040000D01*
X2590000Y31040000D02*
X2590000Y31040000D01*
G36*
X2720000Y32330000D02*
G01*
X2720000Y31120000D01*
X2690000Y31040000D01*
X2590000Y31040000D01*
X2550000Y31110000D01*
X2550000Y32320000D01*
X2580000Y32410000D01*
X2680000Y32410000D01*
X2720000Y32330000D01*
G37*
X2720000Y32330000D02*
X2720000Y31120000D01*
X2690000Y31040000D01*
X2590000Y31040000D01*
X2550000Y31110000D01*
X2550000Y32320000D01*
X2580000Y32410000D01*
X2680000Y32410000D01*
X2720000Y32330000D01*
X14660000Y31040000D02*
X14860000Y31040000D01*
X14860000Y31040000D02*
X14970000Y31090000D01*
X14970000Y31090000D02*
X15060000Y31150000D01*
X15060000Y31150000D02*
X15110000Y31210000D01*
X15110000Y31210000D02*
X15150000Y31290000D01*
X15150000Y31290000D02*
X15170000Y31390000D01*
X15170000Y31390000D02*
X15170000Y31500000D01*
X15170000Y31500000D02*
X15150000Y31590000D01*
X15150000Y31590000D02*
X15100000Y31680000D01*
X15100000Y31680000D02*
X15040000Y31750000D01*
X15040000Y31750000D02*
X14950000Y31810000D01*
X14950000Y31810000D02*
X14740000Y31870000D01*
X14740000Y31870000D02*
X14660000Y31910000D01*
X14660000Y31910000D02*
X14600000Y31980000D01*
X14600000Y31980000D02*
X14580000Y32080000D01*
X14580000Y32080000D02*
X14610000Y32160000D01*
X14610000Y32160000D02*
X14690000Y32250000D01*
X14690000Y32250000D02*
X14790000Y32250000D01*
X14790000Y32250000D02*
X14890000Y32240000D01*
X14890000Y32240000D02*
X14960000Y32150000D01*
X14960000Y32150000D02*
X14990000Y32070000D01*
X14990000Y32070000D02*
X15030000Y32000000D01*
X15030000Y32000000D02*
X15140000Y32000000D01*
X15140000Y32000000D02*
X15160000Y32080000D01*
X15160000Y32080000D02*
X15140000Y32160000D01*
X15140000Y32160000D02*
X15100000Y32250000D01*
X15100000Y32250000D02*
X15030000Y32340000D01*
X15030000Y32340000D02*
X14940000Y32410000D01*
X14940000Y32410000D02*
X14740000Y32410000D01*
X14740000Y32410000D02*
X14630000Y32380000D01*
X14630000Y32380000D02*
X14530000Y32320000D01*
X14530000Y32320000D02*
X14470000Y32260000D01*
X14470000Y32260000D02*
X14430000Y32180000D01*
X14430000Y32180000D02*
X14410000Y32080000D01*
X14410000Y32080000D02*
X14410000Y31980000D01*
X14410000Y31980000D02*
X14430000Y31880000D01*
X14430000Y31880000D02*
X14480000Y31790000D01*
X14480000Y31790000D02*
X14550000Y31730000D01*
X14550000Y31730000D02*
X14640000Y31680000D01*
X14640000Y31680000D02*
X14750000Y31650000D01*
X14750000Y31650000D02*
X14850000Y31610000D01*
X14850000Y31610000D02*
X14930000Y31570000D01*
X14930000Y31570000D02*
X14990000Y31490000D01*
X14990000Y31490000D02*
X15000000Y31390000D01*
X15000000Y31390000D02*
X14980000Y31310000D01*
X14980000Y31310000D02*
X14910000Y31220000D01*
X14910000Y31220000D02*
X14810000Y31200000D01*
X14810000Y31200000D02*
X14710000Y31200000D01*
X14710000Y31200000D02*
X14610000Y31250000D01*
X14610000Y31250000D02*
X14560000Y31340000D01*
X14560000Y31340000D02*
X14540000Y31420000D01*
X14540000Y31420000D02*
X14500000Y31490000D01*
X14500000Y31490000D02*
X14390000Y31490000D01*
X14390000Y31490000D02*
X14360000Y31410000D01*
X14360000Y31410000D02*
X14380000Y31310000D01*
X14380000Y31310000D02*
X14410000Y31220000D01*
X14410000Y31220000D02*
X14460000Y31160000D01*
X14460000Y31160000D02*
X14550000Y31100000D01*
X14550000Y31100000D02*
X14660000Y31040000D01*
X14660000Y31040000D02*
X14660000Y31040000D01*
G36*
X15030000Y32340000D02*
G01*
X15100000Y32250000D01*
X15140000Y32160000D01*
X15160000Y32080000D01*
X15140000Y32000000D01*
X15030000Y32000000D01*
X14990000Y32070000D01*
X14960000Y32150000D01*
X14890000Y32240000D01*
X14790000Y32250000D01*
X14690000Y32250000D01*
X14610000Y32160000D01*
X14580000Y32080000D01*
X14600000Y31980000D01*
X14660000Y31910000D01*
X14740000Y31870000D01*
X14950000Y31810000D01*
X15040000Y31750000D01*
X15100000Y31680000D01*
X15150000Y31590000D01*
X15170000Y31500000D01*
X15170000Y31390000D01*
X15150000Y31290000D01*
X15110000Y31210000D01*
X15060000Y31150000D01*
X14970000Y31090000D01*
X14860000Y31040000D01*
X14660000Y31040000D01*
X14550000Y31100000D01*
X14460000Y31160000D01*
X14410000Y31220000D01*
X14380000Y31310000D01*
X14360000Y31410000D01*
X14390000Y31490000D01*
X14500000Y31490000D01*
X14540000Y31420000D01*
X14560000Y31340000D01*
X14610000Y31250000D01*
X14710000Y31200000D01*
X14810000Y31200000D01*
X14910000Y31220000D01*
X14980000Y31310000D01*
X15000000Y31390000D01*
X14990000Y31490000D01*
X14930000Y31570000D01*
X14850000Y31610000D01*
X14750000Y31650000D01*
X14640000Y31680000D01*
X14550000Y31730000D01*
X14480000Y31790000D01*
X14430000Y31880000D01*
X14410000Y31980000D01*
X14410000Y32080000D01*
X14430000Y32180000D01*
X14470000Y32260000D01*
X14530000Y32320000D01*
X14630000Y32380000D01*
X14740000Y32410000D01*
X14940000Y32410000D01*
X15030000Y32340000D01*
G37*
X15030000Y32340000D02*
X15100000Y32250000D01*
X15140000Y32160000D01*
X15160000Y32080000D01*
X15140000Y32000000D01*
X15030000Y32000000D01*
X14990000Y32070000D01*
X14960000Y32150000D01*
X14890000Y32240000D01*
X14790000Y32250000D01*
X14690000Y32250000D01*
X14610000Y32160000D01*
X14580000Y32080000D01*
X14600000Y31980000D01*
X14660000Y31910000D01*
X14740000Y31870000D01*
X14950000Y31810000D01*
X15040000Y31750000D01*
X15100000Y31680000D01*
X15150000Y31590000D01*
X15170000Y31500000D01*
X15170000Y31390000D01*
X15150000Y31290000D01*
X15110000Y31210000D01*
X15060000Y31150000D01*
X14970000Y31090000D01*
X14860000Y31040000D01*
X14660000Y31040000D01*
X14550000Y31100000D01*
X14460000Y31160000D01*
X14410000Y31220000D01*
X14380000Y31310000D01*
X14360000Y31410000D01*
X14390000Y31490000D01*
X14500000Y31490000D01*
X14540000Y31420000D01*
X14560000Y31340000D01*
X14610000Y31250000D01*
X14710000Y31200000D01*
X14810000Y31200000D01*
X14910000Y31220000D01*
X14980000Y31310000D01*
X15000000Y31390000D01*
X14990000Y31490000D01*
X14930000Y31570000D01*
X14850000Y31610000D01*
X14750000Y31650000D01*
X14640000Y31680000D01*
X14550000Y31730000D01*
X14480000Y31790000D01*
X14430000Y31880000D01*
X14410000Y31980000D01*
X14410000Y32080000D01*
X14430000Y32180000D01*
X14470000Y32260000D01*
X14530000Y32320000D01*
X14630000Y32380000D01*
X14740000Y32410000D01*
X14940000Y32410000D01*
X15030000Y32340000D01*
X13010000Y31040000D02*
X13110000Y31040000D01*
X13110000Y31040000D02*
X13150000Y31120000D01*
X13150000Y31120000D02*
X13150000Y32230000D01*
X13150000Y32230000D02*
X13250000Y32230000D01*
X13250000Y32230000D02*
X13350000Y32230000D01*
X13350000Y32230000D02*
X13440000Y32270000D01*
X13440000Y32270000D02*
X13440000Y32360000D01*
X13440000Y32360000D02*
X13360000Y32410000D01*
X13360000Y32410000D02*
X12760000Y32410000D01*
X12760000Y32410000D02*
X12690000Y32360000D01*
X12690000Y32360000D02*
X12690000Y32260000D01*
X12690000Y32260000D02*
X12780000Y32230000D01*
X12780000Y32230000D02*
X12980000Y32230000D01*
X12980000Y32230000D02*
X12980000Y32140000D01*
X12980000Y32140000D02*
X12980000Y31130000D01*
X12980000Y31130000D02*
X13010000Y31040000D01*
X13010000Y31040000D02*
X13010000Y31040000D01*
G36*
X13440000Y32360000D02*
G01*
X13440000Y32270000D01*
X13350000Y32230000D01*
X13150000Y32230000D01*
X13150000Y31120000D01*
X13110000Y31040000D01*
X13010000Y31040000D01*
X12980000Y31130000D01*
X12980000Y32230000D01*
X12780000Y32230000D01*
X12690000Y32260000D01*
X12690000Y32360000D01*
X12760000Y32410000D01*
X13360000Y32410000D01*
X13440000Y32360000D01*
G37*
X13440000Y32360000D02*
X13440000Y32270000D01*
X13350000Y32230000D01*
X13150000Y32230000D01*
X13150000Y31120000D01*
X13110000Y31040000D01*
X13010000Y31040000D01*
X12980000Y31130000D01*
X12980000Y32230000D01*
X12780000Y32230000D01*
X12690000Y32260000D01*
X12690000Y32360000D01*
X12760000Y32410000D01*
X13360000Y32410000D01*
X13440000Y32360000D01*
X3120000Y31040000D02*
X3210000Y31070000D01*
X3210000Y31070000D02*
X3210000Y31580000D01*
X3210000Y31580000D02*
X3250000Y31640000D01*
X3250000Y31640000D02*
X3350000Y31640000D01*
X3350000Y31640000D02*
X3390000Y31550000D01*
X3390000Y31550000D02*
X3590000Y31080000D01*
X3590000Y31080000D02*
X3660000Y31040000D01*
X3660000Y31040000D02*
X3760000Y31040000D01*
X3760000Y31040000D02*
X3770000Y31140000D01*
X3770000Y31140000D02*
X3560000Y31600000D01*
X3560000Y31600000D02*
X3590000Y31690000D01*
X3590000Y31690000D02*
X3670000Y31750000D01*
X3670000Y31750000D02*
X3730000Y31830000D01*
X3730000Y31830000D02*
X3770000Y31920000D01*
X3770000Y31920000D02*
X3780000Y32030000D01*
X3780000Y32030000D02*
X3760000Y32130000D01*
X3760000Y32130000D02*
X3730000Y32220000D01*
X3730000Y32220000D02*
X3680000Y32280000D01*
X3680000Y32280000D02*
X3600000Y32350000D01*
X3600000Y32350000D02*
X3500000Y32210000D01*
X3500000Y32210000D02*
X3570000Y32130000D01*
X3570000Y32130000D02*
X3600000Y32040000D01*
X3600000Y32040000D02*
X3590000Y31960000D01*
X3590000Y31960000D02*
X3540000Y31880000D01*
X3540000Y31880000D02*
X3460000Y31810000D01*
X3460000Y31810000D02*
X3400000Y31810000D01*
X3400000Y31810000D02*
X3300000Y31810000D01*
X3300000Y31810000D02*
X3210000Y31820000D01*
X3210000Y31820000D02*
X3210000Y32230000D01*
X3210000Y32230000D02*
X3300000Y32230000D01*
X3300000Y32230000D02*
X3400000Y32230000D01*
X3400000Y32230000D02*
X3500000Y32220000D01*
X3500000Y32220000D02*
X3590000Y32350000D01*
X3590000Y32350000D02*
X3490000Y32410000D01*
X3490000Y32410000D02*
X3080000Y32410000D01*
X3080000Y32410000D02*
X3030000Y32340000D01*
X3030000Y32340000D02*
X3030000Y31120000D01*
X3030000Y31120000D02*
X3080000Y31040000D01*
X3080000Y31040000D02*
X3120000Y31040000D01*
X3120000Y31040000D02*
X3120000Y31040000D01*
G36*
X3590000Y32350000D02*
G01*
X3500000Y32220000D01*
X3400000Y32230000D01*
X3210000Y32230000D01*
X3210000Y31820000D01*
X3300000Y31810000D01*
X3460000Y31810000D01*
X3540000Y31880000D01*
X3590000Y31960000D01*
X3600000Y32040000D01*
X3570000Y32130000D01*
X3500000Y32210000D01*
X3600000Y32350000D01*
X3680000Y32280000D01*
X3730000Y32220000D01*
X3760000Y32130000D01*
X3780000Y32030000D01*
X3770000Y31920000D01*
X3730000Y31830000D01*
X3670000Y31750000D01*
X3590000Y31690000D01*
X3560000Y31600000D01*
X3770000Y31140000D01*
X3760000Y31040000D01*
X3660000Y31040000D01*
X3590000Y31080000D01*
X3390000Y31550000D01*
X3350000Y31640000D01*
X3250000Y31640000D01*
X3210000Y31580000D01*
X3210000Y31070000D01*
X3120000Y31040000D01*
X3080000Y31040000D01*
X3030000Y31120000D01*
X3030000Y32340000D01*
X3080000Y32410000D01*
X3490000Y32410000D01*
X3590000Y32350000D01*
G37*
X3590000Y32350000D02*
X3500000Y32220000D01*
X3400000Y32230000D01*
X3210000Y32230000D01*
X3210000Y31820000D01*
X3300000Y31810000D01*
X3460000Y31810000D01*
X3540000Y31880000D01*
X3590000Y31960000D01*
X3600000Y32040000D01*
X3570000Y32130000D01*
X3500000Y32210000D01*
X3600000Y32350000D01*
X3680000Y32280000D01*
X3730000Y32220000D01*
X3760000Y32130000D01*
X3780000Y32030000D01*
X3770000Y31920000D01*
X3730000Y31830000D01*
X3670000Y31750000D01*
X3590000Y31690000D01*
X3560000Y31600000D01*
X3770000Y31140000D01*
X3760000Y31040000D01*
X3660000Y31040000D01*
X3590000Y31080000D01*
X3390000Y31550000D01*
X3350000Y31640000D01*
X3250000Y31640000D01*
X3210000Y31580000D01*
X3210000Y31070000D01*
X3120000Y31040000D01*
X3080000Y31040000D01*
X3030000Y31120000D01*
X3030000Y32340000D01*
X3080000Y32410000D01*
X3490000Y32410000D01*
X3590000Y32350000D01*
X8400000Y31040000D02*
X8900000Y31040000D01*
X8900000Y31040000D02*
X9000000Y31040000D01*
X9000000Y31040000D02*
X9020000Y31140000D01*
X9020000Y31140000D02*
X8970000Y31200000D01*
X8970000Y31200000D02*
X8560000Y31200000D01*
X8560000Y31200000D02*
X8530000Y31270000D01*
X8530000Y31270000D02*
X8530000Y31570000D01*
X8530000Y31570000D02*
X8560000Y31640000D01*
X8560000Y31640000D02*
X8960000Y31640000D01*
X8960000Y31640000D02*
X9000000Y31720000D01*
X9000000Y31720000D02*
X8970000Y31810000D01*
X8970000Y31810000D02*
X8560000Y31810000D01*
X8560000Y31810000D02*
X8530000Y31880000D01*
X8530000Y31880000D02*
X8530000Y32180000D01*
X8530000Y32180000D02*
X8570000Y32240000D01*
X8570000Y32240000D02*
X8970000Y32240000D01*
X8970000Y32240000D02*
X9020000Y32310000D01*
X9020000Y32310000D02*
X9000000Y32400000D01*
X9000000Y32400000D02*
X8900000Y32410000D01*
X8900000Y32410000D02*
X8390000Y32410000D01*
X8390000Y32410000D02*
X8360000Y32320000D01*
X8360000Y32320000D02*
X8360000Y31120000D01*
X8360000Y31120000D02*
X8400000Y31040000D01*
X8400000Y31040000D02*
X8400000Y31040000D01*
G36*
X9000000Y32400000D02*
G01*
X9020000Y32310000D01*
X8970000Y32240000D01*
X8570000Y32240000D01*
X8530000Y32180000D01*
X8530000Y31880000D01*
X8560000Y31810000D01*
X8970000Y31810000D01*
X9000000Y31720000D01*
X8960000Y31640000D01*
X8560000Y31640000D01*
X8530000Y31570000D01*
X8530000Y31270000D01*
X8560000Y31200000D01*
X8970000Y31200000D01*
X9020000Y31140000D01*
X9000000Y31040000D01*
X8400000Y31040000D01*
X8360000Y31120000D01*
X8360000Y32320000D01*
X8390000Y32410000D01*
X8900000Y32410000D01*
X9000000Y32400000D01*
G37*
X9000000Y32400000D02*
X9020000Y32310000D01*
X8970000Y32240000D01*
X8570000Y32240000D01*
X8530000Y32180000D01*
X8530000Y31880000D01*
X8560000Y31810000D01*
X8970000Y31810000D01*
X9000000Y31720000D01*
X8960000Y31640000D01*
X8560000Y31640000D01*
X8530000Y31570000D01*
X8530000Y31270000D01*
X8560000Y31200000D01*
X8970000Y31200000D01*
X9020000Y31140000D01*
X9000000Y31040000D01*
X8400000Y31040000D01*
X8360000Y31120000D01*
X8360000Y32320000D01*
X8390000Y32410000D01*
X8900000Y32410000D01*
X9000000Y32400000D01*
X6330000Y31040000D02*
X6530000Y31040000D01*
X6530000Y31040000D02*
X6640000Y31080000D01*
X6640000Y31080000D02*
X6730000Y31160000D01*
X6730000Y31160000D02*
X6790000Y31220000D01*
X6790000Y31220000D02*
X6820000Y31290000D01*
X6820000Y31290000D02*
X6850000Y31390000D01*
X6850000Y31390000D02*
X6860000Y31490000D01*
X6860000Y31490000D02*
X6860000Y31590000D01*
X6860000Y31590000D02*
X6860000Y31700000D01*
X6860000Y31700000D02*
X6860000Y31820000D01*
X6860000Y31820000D02*
X6860000Y31920000D01*
X6860000Y31920000D02*
X6850000Y32010000D01*
X6850000Y32010000D02*
X6830000Y32110000D01*
X6830000Y32110000D02*
X6800000Y32190000D01*
X6800000Y32190000D02*
X6750000Y32260000D01*
X6750000Y32260000D02*
X6680000Y32330000D01*
X6680000Y32330000D02*
X6580000Y32410000D01*
X6580000Y32410000D02*
X6370000Y32410000D01*
X6370000Y32410000D02*
X6390000Y32250000D01*
X6390000Y32250000D02*
X6490000Y32250000D01*
X6490000Y32250000D02*
X6580000Y32200000D01*
X6580000Y32200000D02*
X6640000Y32130000D01*
X6640000Y32130000D02*
X6680000Y32050000D01*
X6680000Y32050000D02*
X6690000Y31940000D01*
X6690000Y31940000D02*
X6690000Y31730000D01*
X6690000Y31730000D02*
X6690000Y31520000D01*
X6690000Y31520000D02*
X6680000Y31420000D01*
X6680000Y31420000D02*
X6650000Y31330000D01*
X6650000Y31330000D02*
X6600000Y31260000D01*
X6600000Y31260000D02*
X6520000Y31200000D01*
X6520000Y31200000D02*
X6420000Y31200000D01*
X6420000Y31200000D02*
X6320000Y31240000D01*
X6320000Y31240000D02*
X6260000Y31310000D01*
X6260000Y31310000D02*
X6230000Y31390000D01*
X6230000Y31390000D02*
X6210000Y31500000D01*
X6210000Y31500000D02*
X6210000Y31590000D01*
X6210000Y31590000D02*
X6200000Y31700000D01*
X6200000Y31700000D02*
X6210000Y31820000D01*
X6210000Y31820000D02*
X6210000Y31920000D01*
X6210000Y31920000D02*
X6220000Y32020000D01*
X6220000Y32020000D02*
X6240000Y32110000D01*
X6240000Y32110000D02*
X6300000Y32180000D01*
X6300000Y32180000D02*
X6390000Y32250000D01*
X6390000Y32250000D02*
X6370000Y32400000D01*
X6370000Y32400000D02*
X6270000Y32370000D01*
X6270000Y32370000D02*
X6180000Y32290000D01*
X6180000Y32290000D02*
X6120000Y32220000D01*
X6120000Y32220000D02*
X6080000Y32150000D01*
X6080000Y32150000D02*
X6050000Y32060000D01*
X6050000Y32060000D02*
X6040000Y31960000D01*
X6040000Y31960000D02*
X6030000Y31870000D01*
X6030000Y31870000D02*
X6030000Y31760000D01*
X6030000Y31760000D02*
X6030000Y31640000D01*
X6030000Y31640000D02*
X6040000Y31530000D01*
X6040000Y31530000D02*
X6040000Y31440000D01*
X6040000Y31440000D02*
X6060000Y31340000D01*
X6060000Y31340000D02*
X6100000Y31260000D01*
X6100000Y31260000D02*
X6140000Y31190000D01*
X6140000Y31190000D02*
X6220000Y31120000D01*
X6220000Y31120000D02*
X6320000Y31040000D01*
X6320000Y31040000D02*
X6330000Y31040000D01*
X6330000Y31040000D02*
X6330000Y31040000D01*
G36*
X6680000Y32330000D02*
G01*
X6750000Y32260000D01*
X6800000Y32190000D01*
X6830000Y32110000D01*
X6850000Y32010000D01*
X6860000Y31920000D01*
X6860000Y31490000D01*
X6850000Y31390000D01*
X6820000Y31290000D01*
X6790000Y31220000D01*
X6730000Y31160000D01*
X6640000Y31080000D01*
X6530000Y31040000D01*
X6320000Y31040000D01*
X6220000Y31120000D01*
X6140000Y31190000D01*
X6100000Y31260000D01*
X6060000Y31340000D01*
X6040000Y31440000D01*
X6040000Y31530000D01*
X6030000Y31640000D01*
X6030000Y31870000D01*
X6040000Y31960000D01*
X6050000Y32060000D01*
X6080000Y32150000D01*
X6120000Y32220000D01*
X6180000Y32290000D01*
X6270000Y32370000D01*
X6370000Y32400000D01*
X6390000Y32250000D01*
X6300000Y32180000D01*
X6240000Y32110000D01*
X6220000Y32020000D01*
X6210000Y31920000D01*
X6210000Y31820000D01*
X6200000Y31700000D01*
X6210000Y31590000D01*
X6210000Y31500000D01*
X6230000Y31390000D01*
X6260000Y31310000D01*
X6320000Y31240000D01*
X6420000Y31200000D01*
X6520000Y31200000D01*
X6600000Y31260000D01*
X6650000Y31330000D01*
X6680000Y31420000D01*
X6690000Y31520000D01*
X6690000Y31940000D01*
X6680000Y32050000D01*
X6640000Y32130000D01*
X6580000Y32200000D01*
X6490000Y32250000D01*
X6390000Y32250000D01*
X6370000Y32410000D01*
X6580000Y32410000D01*
X6680000Y32330000D01*
G37*
X6680000Y32330000D02*
X6750000Y32260000D01*
X6800000Y32190000D01*
X6830000Y32110000D01*
X6850000Y32010000D01*
X6860000Y31920000D01*
X6860000Y31490000D01*
X6850000Y31390000D01*
X6820000Y31290000D01*
X6790000Y31220000D01*
X6730000Y31160000D01*
X6640000Y31080000D01*
X6530000Y31040000D01*
X6320000Y31040000D01*
X6220000Y31120000D01*
X6140000Y31190000D01*
X6100000Y31260000D01*
X6060000Y31340000D01*
X6040000Y31440000D01*
X6040000Y31530000D01*
X6030000Y31640000D01*
X6030000Y31870000D01*
X6040000Y31960000D01*
X6050000Y32060000D01*
X6080000Y32150000D01*
X6120000Y32220000D01*
X6180000Y32290000D01*
X6270000Y32370000D01*
X6370000Y32400000D01*
X6390000Y32250000D01*
X6300000Y32180000D01*
X6240000Y32110000D01*
X6220000Y32020000D01*
X6210000Y31920000D01*
X6210000Y31820000D01*
X6200000Y31700000D01*
X6210000Y31590000D01*
X6210000Y31500000D01*
X6230000Y31390000D01*
X6260000Y31310000D01*
X6320000Y31240000D01*
X6420000Y31200000D01*
X6520000Y31200000D01*
X6600000Y31260000D01*
X6650000Y31330000D01*
X6680000Y31420000D01*
X6690000Y31520000D01*
X6690000Y31940000D01*
X6680000Y32050000D01*
X6640000Y32130000D01*
X6580000Y32200000D01*
X6490000Y32250000D01*
X6390000Y32250000D01*
X6370000Y32410000D01*
X6580000Y32410000D01*
X6680000Y32330000D01*
D13*
%TO.C,U2*%
X17550000Y19190000D02*
X20450000Y19190000D01*
X20450000Y19190000D02*
X20450000Y20810000D01*
X20450000Y20810000D02*
X17550000Y20810000D01*
X17550000Y20810000D02*
X17550000Y19190000D01*
X18300000Y19600000D02*
G75*
G03*
X18300000Y19600000I-200000J0D01*
G01*
%TO.C,G\u002A\u002A\u002A*%
G36*
X11004636Y29744535D02*
G01*
X11016193Y29729952D01*
X11033451Y29707634D01*
X11055188Y29679205D01*
X11080183Y29646288D01*
X11107215Y29610510D01*
X11135062Y29573494D01*
X11162503Y29536865D01*
X11188316Y29502248D01*
X11211280Y29471267D01*
X11230174Y29445547D01*
X11243777Y29426712D01*
X11250866Y29416388D01*
X11251563Y29415139D01*
X11246384Y29412212D01*
X11230874Y29409365D01*
X11208368Y29407205D01*
X11207910Y29407176D01*
X11181952Y29404782D01*
X11165299Y29400661D01*
X11153581Y29393279D01*
X11146078Y29385467D01*
X11129906Y29366667D01*
X11129906Y28895666D01*
X10870094Y28895666D01*
X10870094Y29366667D01*
X10853923Y29385467D01*
X10843064Y29395999D01*
X10830288Y29402210D01*
X10811227Y29405634D01*
X10792090Y29407176D01*
X10769486Y29409317D01*
X10753818Y29412157D01*
X10748419Y29415088D01*
X10748437Y29415139D01*
X10753157Y29422361D01*
X10764785Y29438619D01*
X10782100Y29462289D01*
X10803881Y29491745D01*
X10828906Y29525363D01*
X10855954Y29561519D01*
X10883803Y29598587D01*
X10911232Y29634944D01*
X10937020Y29668964D01*
X10959945Y29699024D01*
X10978787Y29723497D01*
X10992323Y29740761D01*
X10999332Y29749190D01*
X11000000Y29749756D01*
X11004636Y29744535D01*
G37*
G36*
X9771839Y29234962D02*
G01*
X9790435Y29232992D01*
X9818526Y29229611D01*
X9854091Y29225096D01*
X9895111Y29219722D01*
X9939568Y29213767D01*
X9985442Y29207507D01*
X10030714Y29201218D01*
X10073365Y29195176D01*
X10111374Y29189659D01*
X10142724Y29184943D01*
X10165394Y29181304D01*
X10177366Y29179018D01*
X10178676Y29178574D01*
X10175889Y29172874D01*
X10166094Y29159979D01*
X10153036Y29144556D01*
X10136348Y29123769D01*
X10127743Y29107011D01*
X10124919Y29089420D01*
X10124845Y29085016D01*
X10125139Y29077354D01*
X10126654Y29069910D01*
X10130343Y29061571D01*
X10137159Y29051219D01*
X10148053Y29037741D01*
X10163978Y29020019D01*
X10185886Y28996939D01*
X10214729Y28967384D01*
X10251460Y28930241D01*
X10290442Y28891014D01*
X10456039Y28724526D01*
X10367458Y28635749D01*
X10339172Y28607587D01*
X10314236Y28583116D01*
X10294230Y28563856D01*
X10280734Y28551331D01*
X10275361Y28547053D01*
X10269861Y28551723D01*
X10255835Y28564955D01*
X10234425Y28585633D01*
X10206770Y28612647D01*
X10174011Y28644883D01*
X10137288Y28681229D01*
X10107199Y28711144D01*
X10062857Y28755267D01*
X10027058Y28790675D01*
X9998679Y28818325D01*
X9976598Y28839177D01*
X9959693Y28854188D01*
X9946841Y28864315D01*
X9936919Y28870517D01*
X9928805Y28873752D01*
X9921377Y28874977D01*
X9915013Y28875155D01*
X9896590Y28873287D01*
X9880074Y28866148D01*
X9860595Y28851433D01*
X9855444Y28846964D01*
X9838554Y28832724D01*
X9826222Y28823506D01*
X9821426Y28821324D01*
X9819705Y28828871D01*
X9816530Y28847857D01*
X9812176Y28876261D01*
X9806920Y28912065D01*
X9801039Y28953250D01*
X9794809Y28997795D01*
X9788506Y29043683D01*
X9782407Y29088894D01*
X9776788Y29131408D01*
X9771926Y29169206D01*
X9768097Y29200269D01*
X9765578Y29222578D01*
X9764646Y29234113D01*
X9764756Y29235244D01*
X9771839Y29234962D01*
G37*
G36*
X12235245Y29235244D02*
G01*
X12234962Y29228161D01*
X12232992Y29209565D01*
X12229611Y29181474D01*
X12225096Y29145909D01*
X12219722Y29104889D01*
X12213767Y29060432D01*
X12207507Y29014558D01*
X12201218Y28969286D01*
X12195176Y28926635D01*
X12189659Y28888626D01*
X12184943Y28857276D01*
X12181304Y28834606D01*
X12179018Y28822634D01*
X12178574Y28821324D01*
X12172874Y28824111D01*
X12159979Y28833906D01*
X12144557Y28846964D01*
X12123769Y28863652D01*
X12107012Y28872257D01*
X12089420Y28875081D01*
X12085016Y28875155D01*
X12077321Y28874859D01*
X12069851Y28873335D01*
X12061483Y28869624D01*
X12051095Y28862772D01*
X12037566Y28851821D01*
X12019773Y28835814D01*
X11996594Y28813795D01*
X11966906Y28784808D01*
X11929588Y28747895D01*
X11892528Y28711063D01*
X11853499Y28672334D01*
X11817578Y28636863D01*
X11785902Y28605759D01*
X11759611Y28580134D01*
X11739840Y28561097D01*
X11727728Y28549758D01*
X11724337Y28546972D01*
X11718722Y28551577D01*
X11705061Y28564380D01*
X11684928Y28583857D01*
X11659899Y28608487D01*
X11632542Y28635749D01*
X11543962Y28724526D01*
X11709558Y28891014D01*
X11753901Y28935644D01*
X11789530Y28971717D01*
X11817399Y29000349D01*
X11838458Y29022654D01*
X11853661Y29039749D01*
X11863959Y29052748D01*
X11870305Y29062769D01*
X11873651Y29070925D01*
X11874950Y29078333D01*
X11875155Y29085016D01*
X11873282Y29103431D01*
X11866128Y29119957D01*
X11851389Y29139456D01*
X11846964Y29144556D01*
X11832725Y29161446D01*
X11823506Y29173778D01*
X11821324Y29178574D01*
X11828871Y29180295D01*
X11847857Y29183470D01*
X11876261Y29187824D01*
X11912065Y29193080D01*
X11953250Y29198961D01*
X11997795Y29205191D01*
X12043683Y29211494D01*
X12088894Y29217593D01*
X12131408Y29223212D01*
X12169206Y29228074D01*
X12200269Y29231903D01*
X12222578Y29234422D01*
X12234114Y29235354D01*
X12235245Y29235244D01*
G37*
G36*
X11890981Y27290475D02*
G01*
X11935616Y27246127D01*
X11971694Y27210493D01*
X12000330Y27182620D01*
X12022639Y27161557D01*
X12039737Y27146350D01*
X12052739Y27136048D01*
X12062761Y27129699D01*
X12070918Y27126351D01*
X12078326Y27125051D01*
X12085016Y27124845D01*
X12103432Y27126718D01*
X12119957Y27133872D01*
X12139456Y27148611D01*
X12144557Y27153036D01*
X12161450Y27167276D01*
X12173789Y27176495D01*
X12178595Y27178676D01*
X12180034Y27171502D01*
X12183081Y27152552D01*
X12187471Y27123595D01*
X12192942Y27086398D01*
X12199230Y27042732D01*
X12206071Y26994365D01*
X12206469Y26991521D01*
X12213466Y26941673D01*
X12220006Y26895269D01*
X12225800Y26854334D01*
X12230562Y26820895D01*
X12234003Y26796977D01*
X12235822Y26784697D01*
X12237169Y26777722D01*
X12237910Y26772186D01*
X12236719Y26768133D01*
X12232270Y26765605D01*
X12223237Y26764642D01*
X12208292Y26765289D01*
X12186110Y26767586D01*
X12155364Y26771576D01*
X12114727Y26777301D01*
X12062872Y26784802D01*
X12015316Y26791693D01*
X11965828Y26798900D01*
X11920911Y26805549D01*
X11882298Y26811376D01*
X11851725Y26816114D01*
X11830926Y26819499D01*
X11821635Y26821265D01*
X11821324Y26821385D01*
X11824112Y26827107D01*
X11833908Y26840019D01*
X11846964Y26855443D01*
X11863652Y26876231D01*
X11872257Y26892988D01*
X11875081Y26910580D01*
X11875155Y26914984D01*
X11874861Y26922646D01*
X11873346Y26930088D01*
X11869657Y26938427D01*
X11862842Y26948778D01*
X11851950Y26962255D01*
X11836026Y26979975D01*
X11814121Y27003054D01*
X11785281Y27032605D01*
X11748555Y27069745D01*
X11709525Y27109019D01*
X11543896Y27275540D01*
X11724460Y27456104D01*
X11890981Y27290475D01*
G37*
G36*
X11072112Y28376862D02*
G01*
X11138338Y28358610D01*
X11199390Y28327827D01*
X11255985Y28284216D01*
X11270398Y28270398D01*
X11317476Y28214871D01*
X11351647Y28155076D01*
X11373208Y28090298D01*
X11382456Y28019823D01*
X11382880Y28000000D01*
X11379476Y27943469D01*
X11368328Y27891751D01*
X11348031Y27838725D01*
X11343811Y27829648D01*
X11311047Y27775480D01*
X11267599Y27726211D01*
X11216078Y27683897D01*
X11159099Y27650596D01*
X11099273Y27628365D01*
X11083419Y27624620D01*
X11044801Y27619523D01*
X10999646Y27617971D01*
X10954070Y27619882D01*
X10914186Y27625178D01*
X10906141Y27626944D01*
X10844281Y27648653D01*
X10786393Y27681900D01*
X10734265Y27724846D01*
X10689687Y27775650D01*
X10654447Y27832471D01*
X10630333Y27893470D01*
X10624620Y27916581D01*
X10616162Y27989479D01*
X10620939Y28060547D01*
X10638589Y28128569D01*
X10668751Y28192324D01*
X10711063Y28250595D01*
X10729602Y28270398D01*
X10785129Y28317476D01*
X10844924Y28351647D01*
X10909702Y28373208D01*
X10980177Y28382456D01*
X11000000Y28382880D01*
X11072112Y28376862D01*
G37*
G36*
X12415139Y28251563D02*
G01*
X12422361Y28246843D01*
X12438619Y28235215D01*
X12462289Y28217900D01*
X12491745Y28196119D01*
X12525363Y28171094D01*
X12561519Y28144046D01*
X12598587Y28116197D01*
X12634944Y28088768D01*
X12668964Y28062980D01*
X12699024Y28040055D01*
X12723498Y28021213D01*
X12740761Y28007677D01*
X12749190Y28000668D01*
X12749757Y28000000D01*
X12744535Y27995364D01*
X12729953Y27983807D01*
X12707634Y27966549D01*
X12679205Y27944812D01*
X12646289Y27919817D01*
X12610510Y27892785D01*
X12573494Y27864938D01*
X12536865Y27837497D01*
X12502248Y27811684D01*
X12471267Y27788720D01*
X12445547Y27769826D01*
X12426713Y27756223D01*
X12416388Y27749134D01*
X12415139Y27748437D01*
X12412212Y27753616D01*
X12409365Y27769126D01*
X12407205Y27791632D01*
X12407176Y27792090D01*
X12404782Y27818048D01*
X12400661Y27834701D01*
X12393279Y27846419D01*
X12385468Y27853922D01*
X12366667Y27870094D01*
X11895666Y27870094D01*
X11895666Y28129906D01*
X12366667Y28129906D01*
X12385468Y28146077D01*
X12395999Y28156936D01*
X12402210Y28169712D01*
X12405634Y28188773D01*
X12407176Y28207910D01*
X12409317Y28230514D01*
X12412157Y28246182D01*
X12415088Y28251581D01*
X12415139Y28251563D01*
G37*
G36*
X11129906Y26633333D02*
G01*
X11146078Y26614532D01*
X11156937Y26604001D01*
X11169712Y26597790D01*
X11188773Y26594366D01*
X11207910Y26592824D01*
X11230514Y26590683D01*
X11246182Y26587843D01*
X11251581Y26584912D01*
X11251563Y26584861D01*
X11246843Y26577639D01*
X11235215Y26561381D01*
X11217900Y26537711D01*
X11196119Y26508255D01*
X11171094Y26474637D01*
X11144047Y26438481D01*
X11116197Y26401413D01*
X11088768Y26365056D01*
X11062980Y26331036D01*
X11040055Y26300976D01*
X11021213Y26276502D01*
X11007677Y26259239D01*
X11000668Y26250810D01*
X11000000Y26250243D01*
X10995211Y26255510D01*
X10983301Y26270415D01*
X10965301Y26293617D01*
X10942240Y26323774D01*
X10915149Y26359545D01*
X10885057Y26399587D01*
X10873513Y26415024D01*
X10842574Y26456525D01*
X10814354Y26494525D01*
X10789876Y26527634D01*
X10770163Y26554463D01*
X10756240Y26573621D01*
X10749129Y26583719D01*
X10748437Y26584861D01*
X10753616Y26587788D01*
X10769126Y26590635D01*
X10791632Y26592795D01*
X10792090Y26592824D01*
X10818048Y26595218D01*
X10834701Y26599339D01*
X10846419Y26606721D01*
X10853923Y26614532D01*
X10870094Y26633333D01*
X10870094Y27104334D01*
X11129906Y27104334D01*
X11129906Y26633333D01*
G37*
G36*
X9587788Y28246384D02*
G01*
X9590635Y28230874D01*
X9592795Y28208368D01*
X9592824Y28207910D01*
X9595218Y28181952D01*
X9599339Y28165299D01*
X9606721Y28153581D01*
X9614533Y28146077D01*
X9633333Y28129906D01*
X10104334Y28129906D01*
X10104334Y27870094D01*
X9633333Y27870094D01*
X9614533Y27853922D01*
X9603965Y27843012D01*
X9597749Y27830161D01*
X9594334Y27810975D01*
X9592843Y27792388D01*
X9590793Y27769589D01*
X9588197Y27753462D01*
X9585623Y27747506D01*
X9579275Y27751581D01*
X9563386Y27762885D01*
X9539328Y27780409D01*
X9508477Y27803144D01*
X9472205Y27830080D01*
X9431885Y27860209D01*
X9415789Y27872284D01*
X9374465Y27903428D01*
X9336909Y27931940D01*
X9304457Y27956788D01*
X9278443Y27976945D01*
X9260202Y27991379D01*
X9251070Y27999060D01*
X9250265Y28000000D01*
X9255482Y28004634D01*
X9270060Y28016191D01*
X9292373Y28033448D01*
X9320798Y28055184D01*
X9353711Y28080179D01*
X9389486Y28107210D01*
X9426499Y28135057D01*
X9463126Y28162498D01*
X9497742Y28188311D01*
X9528723Y28211276D01*
X9554445Y28230171D01*
X9573282Y28243775D01*
X9583611Y28250866D01*
X9584861Y28251563D01*
X9587788Y28246384D01*
G37*
G36*
X10456104Y27275540D02*
G01*
X10290475Y27109019D01*
X10246127Y27064384D01*
X10210493Y27028306D01*
X10182620Y26999670D01*
X10161557Y26977361D01*
X10146350Y26960263D01*
X10136048Y26947261D01*
X10129699Y26937239D01*
X10126351Y26929082D01*
X10125051Y26921674D01*
X10124845Y26914984D01*
X10126718Y26896568D01*
X10133872Y26880043D01*
X10148611Y26860544D01*
X10153036Y26855443D01*
X10167276Y26838550D01*
X10176495Y26826211D01*
X10178676Y26821405D01*
X10171502Y26819966D01*
X10152552Y26816919D01*
X10123595Y26812529D01*
X10086398Y26807058D01*
X10042732Y26800770D01*
X9994365Y26793929D01*
X9991521Y26793531D01*
X9941603Y26786523D01*
X9895064Y26779962D01*
X9853944Y26774138D01*
X9820285Y26769341D01*
X9796127Y26765860D01*
X9783629Y26764004D01*
X9768083Y26762272D01*
X9762505Y26766260D01*
X9763362Y26779498D01*
X9764005Y26783629D01*
X9765912Y26796485D01*
X9769421Y26820844D01*
X9774240Y26854664D01*
X9780081Y26895906D01*
X9786653Y26942529D01*
X9793531Y26991521D01*
X9800395Y27040101D01*
X9806721Y27084081D01*
X9812245Y27121691D01*
X9816704Y27151163D01*
X9819834Y27170727D01*
X9821371Y27178615D01*
X9821405Y27178676D01*
X9827117Y27175888D01*
X9840020Y27166093D01*
X9855444Y27153036D01*
X9876231Y27136348D01*
X9892989Y27127743D01*
X9910580Y27124919D01*
X9914984Y27124845D01*
X9922646Y27125139D01*
X9930088Y27126654D01*
X9938427Y27130343D01*
X9948778Y27137158D01*
X9962255Y27148050D01*
X9979976Y27163974D01*
X10003054Y27185879D01*
X10032605Y27214719D01*
X10069745Y27251445D01*
X10109019Y27290475D01*
X10275540Y27456104D01*
X10456104Y27275540D01*
G37*
D11*
%TO.C,*%
X8930000Y350000D02*
X8930000Y30000D01*
X8930000Y30000D02*
X8980000Y0D01*
X8980000Y0D02*
X10490000Y0D01*
X10490000Y0D02*
X10530000Y40000D01*
X10530000Y40000D02*
X10530000Y6480000D01*
X10530000Y6480000D02*
X10520000Y6560000D01*
X10520000Y6560000D02*
X10510000Y6640000D01*
X10510000Y6640000D02*
X10490000Y6720000D01*
X10490000Y6720000D02*
X10460000Y6790000D01*
X10460000Y6790000D02*
X10430000Y6860000D01*
X10430000Y6860000D02*
X10390000Y6930000D01*
X10390000Y6930000D02*
X10340000Y7000000D01*
X10340000Y7000000D02*
X10290000Y7050000D01*
X10290000Y7050000D02*
X10230000Y7110000D01*
X10230000Y7110000D02*
X10160000Y7150000D01*
X10160000Y7150000D02*
X10090000Y7190000D01*
X10090000Y7190000D02*
X10020000Y7230000D01*
X10020000Y7230000D02*
X9940000Y7250000D01*
X9940000Y7250000D02*
X9870000Y7270000D01*
X9870000Y7270000D02*
X9790000Y7280000D01*
X9790000Y7280000D02*
X9710000Y7280000D01*
X9710000Y7280000D02*
X9630000Y7270000D01*
X9630000Y7270000D02*
X9550000Y7260000D01*
X9550000Y7260000D02*
X9470000Y7240000D01*
X9470000Y7240000D02*
X9400000Y7210000D01*
X9400000Y7210000D02*
X9330000Y7170000D01*
X9330000Y7170000D02*
X9260000Y7130000D01*
X9260000Y7130000D02*
X9200000Y7080000D01*
X9200000Y7080000D02*
X9140000Y7020000D01*
X9140000Y7020000D02*
X9090000Y6960000D01*
X9090000Y6960000D02*
X9050000Y6900000D01*
X9050000Y6900000D02*
X9010000Y6830000D01*
X9010000Y6830000D02*
X8980000Y6750000D01*
X8980000Y6750000D02*
X8960000Y6680000D01*
X8960000Y6680000D02*
X8940000Y6600000D01*
X8940000Y6600000D02*
X8930000Y6520000D01*
X8930000Y6520000D02*
X8930000Y6440000D01*
X8930000Y6440000D02*
X8930000Y400000D01*
X8930000Y400000D02*
X9230000Y2900000D01*
X9230000Y2900000D02*
X9180000Y2940000D01*
X9180000Y2940000D02*
X9180000Y3270000D01*
X9180000Y3270000D02*
X9190000Y3350000D01*
X9190000Y3350000D02*
X9220000Y3420000D01*
X9220000Y3420000D02*
X9260000Y3480000D01*
X9260000Y3480000D02*
X9320000Y3530000D01*
X9320000Y3530000D02*
X9390000Y3570000D01*
X9390000Y3570000D02*
X9440000Y3590000D01*
X9440000Y3590000D02*
X9510000Y3600000D01*
X9510000Y3600000D02*
X9600000Y3610000D01*
X9600000Y3610000D02*
X9700000Y3610000D01*
X9700000Y3610000D02*
X9740000Y3850000D01*
X9740000Y3850000D02*
X9630000Y3850000D01*
X9630000Y3850000D02*
X9540000Y3860000D01*
X9540000Y3860000D02*
X9460000Y3870000D01*
X9460000Y3870000D02*
X9400000Y3880000D01*
X9400000Y3880000D02*
X9340000Y3900000D01*
X9340000Y3900000D02*
X9280000Y3950000D01*
X9280000Y3950000D02*
X9230000Y4010000D01*
X9230000Y4010000D02*
X9200000Y4080000D01*
X9200000Y4080000D02*
X9180000Y4160000D01*
X9180000Y4160000D02*
X9180000Y4250000D01*
X9180000Y4250000D02*
X9200000Y4320000D01*
X9200000Y4320000D02*
X9230000Y4390000D01*
X9230000Y4390000D02*
X9280000Y4450000D01*
X9280000Y4450000D02*
X9340000Y4500000D01*
X9340000Y4500000D02*
X9400000Y4520000D01*
X9400000Y4520000D02*
X9460000Y4530000D01*
X9460000Y4530000D02*
X9540000Y4540000D01*
X9540000Y4540000D02*
X9630000Y4550000D01*
X9630000Y4550000D02*
X9740000Y4550000D01*
X9740000Y4550000D02*
X9840000Y4550000D01*
X9840000Y4550000D02*
X9880000Y4790000D01*
X9880000Y4790000D02*
X9250000Y4790000D01*
X9250000Y4790000D02*
X9180000Y4810000D01*
X9180000Y4810000D02*
X9180000Y4890000D01*
X9180000Y4890000D02*
X9180000Y4970000D01*
X9180000Y4970000D02*
X9250000Y4990000D01*
X9250000Y4990000D02*
X9890000Y4990000D01*
X9890000Y4990000D02*
X9970000Y5000000D01*
X9970000Y5000000D02*
X10020000Y5040000D01*
X10020000Y5040000D02*
X10050000Y5120000D01*
X10050000Y5120000D02*
X10040000Y5200000D01*
X10040000Y5200000D02*
X10000000Y5270000D01*
X10000000Y5270000D02*
X9930000Y5300000D01*
X9930000Y5300000D02*
X9210000Y5300000D01*
X9210000Y5300000D02*
X9180000Y5350000D01*
X9180000Y5350000D02*
X9180000Y5430000D01*
X9180000Y5430000D02*
X9210000Y5490000D01*
X9210000Y5490000D02*
X9250000Y5730000D01*
X9250000Y5730000D02*
X9180000Y5740000D01*
X9180000Y5740000D02*
X9180000Y5820000D01*
X9180000Y5820000D02*
X9180000Y6300000D01*
X9180000Y6300000D02*
X9200000Y6360000D01*
X9200000Y6360000D02*
X9280000Y6360000D01*
X9280000Y6360000D02*
X9360000Y6360000D01*
X9360000Y6360000D02*
X9370000Y6280000D01*
X9370000Y6280000D02*
X9370000Y6200000D01*
X9370000Y6200000D02*
X9390000Y6140000D01*
X9390000Y6140000D02*
X10190000Y6140000D01*
X10190000Y6140000D02*
X10250000Y6120000D01*
X10250000Y6120000D02*
X10250000Y6040000D01*
X10250000Y6040000D02*
X10240000Y5960000D01*
X10240000Y5960000D02*
X10170000Y5940000D01*
X10170000Y5940000D02*
X9450000Y5940000D01*
X9450000Y5940000D02*
X9370000Y5940000D01*
X9370000Y5940000D02*
X9370000Y5780000D01*
X9370000Y5780000D02*
X9340000Y5730000D01*
X9340000Y5730000D02*
X9260000Y5730000D01*
X9260000Y5730000D02*
X9220000Y5490000D01*
X9220000Y5490000D02*
X9930000Y5490000D01*
X9930000Y5490000D02*
X10010000Y5480000D01*
X10010000Y5480000D02*
X10080000Y5440000D01*
X10080000Y5440000D02*
X10140000Y5390000D01*
X10140000Y5390000D02*
X10190000Y5330000D01*
X10190000Y5330000D02*
X10230000Y5260000D01*
X10230000Y5260000D02*
X10240000Y5190000D01*
X10240000Y5190000D02*
X10250000Y5130000D01*
X10250000Y5130000D02*
X10240000Y5050000D01*
X10240000Y5050000D02*
X10210000Y4980000D01*
X10210000Y4980000D02*
X10170000Y4910000D01*
X10170000Y4910000D02*
X10110000Y4850000D01*
X10110000Y4850000D02*
X10040000Y4810000D01*
X10040000Y4810000D02*
X9960000Y4790000D01*
X9960000Y4790000D02*
X9880000Y4790000D01*
X9880000Y4790000D02*
X9850000Y4550000D01*
X9850000Y4550000D02*
X9930000Y4540000D01*
X9930000Y4540000D02*
X10000000Y4530000D01*
X10000000Y4530000D02*
X10050000Y4510000D01*
X10050000Y4510000D02*
X10120000Y4470000D01*
X10120000Y4470000D02*
X10180000Y4420000D01*
X10180000Y4420000D02*
X10220000Y4350000D01*
X10220000Y4350000D02*
X10250000Y4280000D01*
X10250000Y4280000D02*
X10250000Y4200000D01*
X10250000Y4200000D02*
X10240000Y4120000D01*
X10240000Y4120000D02*
X10220000Y4050000D01*
X10220000Y4050000D02*
X10180000Y3980000D01*
X10180000Y3980000D02*
X10120000Y3930000D01*
X10120000Y3930000D02*
X10050000Y3890000D01*
X10050000Y3890000D02*
X10000000Y3870000D01*
X10000000Y3870000D02*
X9930000Y3860000D01*
X9930000Y3860000D02*
X9840000Y3850000D01*
X9840000Y3850000D02*
X9740000Y3850000D01*
X9740000Y3850000D02*
X9700000Y3610000D01*
X9700000Y3610000D02*
X9810000Y3610000D01*
X9810000Y3610000D02*
X9890000Y3600000D01*
X9890000Y3600000D02*
X9970000Y3590000D01*
X9970000Y3590000D02*
X10030000Y3580000D01*
X10030000Y3580000D02*
X10090000Y3540000D01*
X10090000Y3540000D02*
X10150000Y3490000D01*
X10150000Y3490000D02*
X10200000Y3430000D01*
X10200000Y3430000D02*
X10230000Y3360000D01*
X10230000Y3360000D02*
X10250000Y3280000D01*
X10250000Y3280000D02*
X10250000Y3170000D01*
X10250000Y3170000D02*
X10250000Y2930000D01*
X10250000Y2930000D02*
X10180000Y2900000D01*
X10180000Y2900000D02*
X9230000Y2900000D01*
X9230000Y2900000D02*
X8930000Y390000D01*
X8930000Y390000D02*
X8930000Y350000D01*
X8930000Y350000D02*
X8930000Y350000D01*
G36*
X9510000Y3600000D02*
G01*
X9440000Y3590000D01*
X9390000Y3570000D01*
X9320000Y3530000D01*
X9260000Y3480000D01*
X9220000Y3420000D01*
X9190000Y3350000D01*
X9180000Y3270000D01*
X9180000Y2940000D01*
X9230000Y2900000D01*
X8930000Y400000D01*
X8930000Y4160000D01*
X9180000Y4160000D01*
X9200000Y4080000D01*
X9230000Y4010000D01*
X9280000Y3950000D01*
X9340000Y3900000D01*
X9400000Y3880000D01*
X9460000Y3870000D01*
X9540000Y3860000D01*
X9630000Y3850000D01*
X9840000Y3850000D01*
X9930000Y3860000D01*
X10000000Y3870000D01*
X10050000Y3890000D01*
X10120000Y3930000D01*
X10180000Y3980000D01*
X10220000Y4050000D01*
X10240000Y4120000D01*
X10250000Y4200000D01*
X10250000Y4280000D01*
X10220000Y4350000D01*
X10180000Y4420000D01*
X10120000Y4470000D01*
X10050000Y4510000D01*
X10000000Y4530000D01*
X9930000Y4540000D01*
X9850000Y4550000D01*
X9880000Y4790000D01*
X9960000Y4790000D01*
X10040000Y4810000D01*
X10110000Y4850000D01*
X10170000Y4910000D01*
X10210000Y4980000D01*
X10240000Y5050000D01*
X10250000Y5130000D01*
X10240000Y5190000D01*
X10230000Y5260000D01*
X10190000Y5330000D01*
X10140000Y5390000D01*
X10080000Y5440000D01*
X10010000Y5480000D01*
X9930000Y5490000D01*
X9220000Y5490000D01*
X9260000Y5730000D01*
X9340000Y5730000D01*
X9370000Y5780000D01*
X9370000Y5940000D01*
X10170000Y5940000D01*
X10240000Y5960000D01*
X10250000Y6040000D01*
X10250000Y6120000D01*
X10190000Y6140000D01*
X9390000Y6140000D01*
X9370000Y6200000D01*
X9370000Y6280000D01*
X9360000Y6360000D01*
X9200000Y6360000D01*
X9180000Y6300000D01*
X9180000Y5740000D01*
X9250000Y5730000D01*
X9210000Y5490000D01*
X9180000Y5430000D01*
X9180000Y5350000D01*
X9210000Y5300000D01*
X9930000Y5300000D01*
X10000000Y5270000D01*
X10040000Y5200000D01*
X10050000Y5120000D01*
X10020000Y5040000D01*
X9970000Y5000000D01*
X9890000Y4990000D01*
X9250000Y4990000D01*
X9180000Y4970000D01*
X9180000Y4810000D01*
X9250000Y4790000D01*
X9880000Y4790000D01*
X9840000Y4550000D01*
X9630000Y4550000D01*
X9540000Y4540000D01*
X9460000Y4530000D01*
X9400000Y4520000D01*
X9340000Y4500000D01*
X9280000Y4450000D01*
X9230000Y4390000D01*
X9200000Y4320000D01*
X9180000Y4250000D01*
X9180000Y4160000D01*
X8930000Y4160000D01*
X8930000Y6520000D01*
X8940000Y6600000D01*
X8960000Y6680000D01*
X8980000Y6750000D01*
X9010000Y6830000D01*
X9050000Y6900000D01*
X9090000Y6960000D01*
X9140000Y7020000D01*
X9200000Y7080000D01*
X9260000Y7130000D01*
X9400000Y7210000D01*
X9470000Y7240000D01*
X9550000Y7260000D01*
X9710000Y7280000D01*
X9790000Y7280000D01*
X9870000Y7270000D01*
X9940000Y7250000D01*
X10020000Y7230000D01*
X10230000Y7110000D01*
X10340000Y7000000D01*
X10390000Y6930000D01*
X10430000Y6860000D01*
X10490000Y6720000D01*
X10510000Y6640000D01*
X10530000Y6480000D01*
X10530000Y40000D01*
X10490000Y0D01*
X8980000Y0D01*
X8930000Y30000D01*
X8930000Y390000D01*
X9230000Y2900000D01*
X10180000Y2900000D01*
X10250000Y2930000D01*
X10250000Y3280000D01*
X10230000Y3360000D01*
X10200000Y3430000D01*
X10150000Y3490000D01*
X10090000Y3540000D01*
X10030000Y3580000D01*
X9970000Y3590000D01*
X9810000Y3610000D01*
X9600000Y3610000D01*
X9510000Y3600000D01*
G37*
X9510000Y3600000D02*
X9440000Y3590000D01*
X9390000Y3570000D01*
X9320000Y3530000D01*
X9260000Y3480000D01*
X9220000Y3420000D01*
X9190000Y3350000D01*
X9180000Y3270000D01*
X9180000Y2940000D01*
X9230000Y2900000D01*
X8930000Y400000D01*
X8930000Y4160000D01*
X9180000Y4160000D01*
X9200000Y4080000D01*
X9230000Y4010000D01*
X9280000Y3950000D01*
X9340000Y3900000D01*
X9400000Y3880000D01*
X9460000Y3870000D01*
X9540000Y3860000D01*
X9630000Y3850000D01*
X9840000Y3850000D01*
X9930000Y3860000D01*
X10000000Y3870000D01*
X10050000Y3890000D01*
X10120000Y3930000D01*
X10180000Y3980000D01*
X10220000Y4050000D01*
X10240000Y4120000D01*
X10250000Y4200000D01*
X10250000Y4280000D01*
X10220000Y4350000D01*
X10180000Y4420000D01*
X10120000Y4470000D01*
X10050000Y4510000D01*
X10000000Y4530000D01*
X9930000Y4540000D01*
X9850000Y4550000D01*
X9880000Y4790000D01*
X9960000Y4790000D01*
X10040000Y4810000D01*
X10110000Y4850000D01*
X10170000Y4910000D01*
X10210000Y4980000D01*
X10240000Y5050000D01*
X10250000Y5130000D01*
X10240000Y5190000D01*
X10230000Y5260000D01*
X10190000Y5330000D01*
X10140000Y5390000D01*
X10080000Y5440000D01*
X10010000Y5480000D01*
X9930000Y5490000D01*
X9220000Y5490000D01*
X9260000Y5730000D01*
X9340000Y5730000D01*
X9370000Y5780000D01*
X9370000Y5940000D01*
X10170000Y5940000D01*
X10240000Y5960000D01*
X10250000Y6040000D01*
X10250000Y6120000D01*
X10190000Y6140000D01*
X9390000Y6140000D01*
X9370000Y6200000D01*
X9370000Y6280000D01*
X9360000Y6360000D01*
X9200000Y6360000D01*
X9180000Y6300000D01*
X9180000Y5740000D01*
X9250000Y5730000D01*
X9210000Y5490000D01*
X9180000Y5430000D01*
X9180000Y5350000D01*
X9210000Y5300000D01*
X9930000Y5300000D01*
X10000000Y5270000D01*
X10040000Y5200000D01*
X10050000Y5120000D01*
X10020000Y5040000D01*
X9970000Y5000000D01*
X9890000Y4990000D01*
X9250000Y4990000D01*
X9180000Y4970000D01*
X9180000Y4810000D01*
X9250000Y4790000D01*
X9880000Y4790000D01*
X9840000Y4550000D01*
X9630000Y4550000D01*
X9540000Y4540000D01*
X9460000Y4530000D01*
X9400000Y4520000D01*
X9340000Y4500000D01*
X9280000Y4450000D01*
X9230000Y4390000D01*
X9200000Y4320000D01*
X9180000Y4250000D01*
X9180000Y4160000D01*
X8930000Y4160000D01*
X8930000Y6520000D01*
X8940000Y6600000D01*
X8960000Y6680000D01*
X8980000Y6750000D01*
X9010000Y6830000D01*
X9050000Y6900000D01*
X9090000Y6960000D01*
X9140000Y7020000D01*
X9200000Y7080000D01*
X9260000Y7130000D01*
X9400000Y7210000D01*
X9470000Y7240000D01*
X9550000Y7260000D01*
X9710000Y7280000D01*
X9790000Y7280000D01*
X9870000Y7270000D01*
X9940000Y7250000D01*
X10020000Y7230000D01*
X10230000Y7110000D01*
X10340000Y7000000D01*
X10390000Y6930000D01*
X10430000Y6860000D01*
X10490000Y6720000D01*
X10510000Y6640000D01*
X10530000Y6480000D01*
X10530000Y40000D01*
X10490000Y0D01*
X8980000Y0D01*
X8930000Y30000D01*
X8930000Y390000D01*
X9230000Y2900000D01*
X10180000Y2900000D01*
X10250000Y2930000D01*
X10250000Y3280000D01*
X10230000Y3360000D01*
X10200000Y3430000D01*
X10150000Y3490000D01*
X10090000Y3540000D01*
X10030000Y3580000D01*
X9970000Y3590000D01*
X9810000Y3610000D01*
X9600000Y3610000D01*
X9510000Y3600000D01*
X10050000Y4140000D02*
X10050000Y4230000D01*
X10050000Y4230000D02*
X10020000Y4300000D01*
X10020000Y4300000D02*
X9970000Y4340000D01*
X9970000Y4340000D02*
X9920000Y4350000D01*
X9920000Y4350000D02*
X9840000Y4360000D01*
X9840000Y4360000D02*
X9730000Y4360000D01*
X9730000Y4360000D02*
X9610000Y4360000D01*
X9610000Y4360000D02*
X9520000Y4350000D01*
X9520000Y4350000D02*
X9460000Y4340000D01*
X9460000Y4340000D02*
X9420000Y4320000D01*
X9420000Y4320000D02*
X9380000Y4250000D01*
X9380000Y4250000D02*
X9380000Y4160000D01*
X9380000Y4160000D02*
X9420000Y4090000D01*
X9420000Y4090000D02*
X9460000Y4070000D01*
X9460000Y4070000D02*
X9520000Y4060000D01*
X9520000Y4060000D02*
X9610000Y4050000D01*
X9610000Y4050000D02*
X9730000Y4050000D01*
X9730000Y4050000D02*
X9840000Y4050000D01*
X9840000Y4050000D02*
X9920000Y4060000D01*
X9920000Y4060000D02*
X9970000Y4070000D01*
X9970000Y4070000D02*
X10030000Y4100000D01*
X10030000Y4100000D02*
X10050000Y4140000D01*
X10050000Y4140000D02*
X10050000Y4140000D01*
G36*
X9920000Y4350000D02*
G01*
X9970000Y4340000D01*
X10020000Y4300000D01*
X10050000Y4230000D01*
X10050000Y4140000D01*
X10030000Y4100000D01*
X9970000Y4070000D01*
X9920000Y4060000D01*
X9840000Y4050000D01*
X9610000Y4050000D01*
X9520000Y4060000D01*
X9460000Y4070000D01*
X9420000Y4090000D01*
X9380000Y4160000D01*
X9380000Y4250000D01*
X9420000Y4320000D01*
X9460000Y4340000D01*
X9520000Y4350000D01*
X9610000Y4360000D01*
X9840000Y4360000D01*
X9920000Y4350000D01*
G37*
X9920000Y4350000D02*
X9970000Y4340000D01*
X10020000Y4300000D01*
X10050000Y4230000D01*
X10050000Y4140000D01*
X10030000Y4100000D01*
X9970000Y4070000D01*
X9920000Y4060000D01*
X9840000Y4050000D01*
X9610000Y4050000D01*
X9520000Y4060000D01*
X9460000Y4070000D01*
X9420000Y4090000D01*
X9380000Y4160000D01*
X9380000Y4250000D01*
X9420000Y4320000D01*
X9460000Y4340000D01*
X9520000Y4350000D01*
X9610000Y4360000D01*
X9840000Y4360000D01*
X9920000Y4350000D01*
X10050000Y3160000D02*
X10050000Y3240000D01*
X10050000Y3240000D02*
X10040000Y3320000D01*
X10040000Y3320000D02*
X9990000Y3380000D01*
X9990000Y3380000D02*
X9950000Y3390000D01*
X9950000Y3390000D02*
X9880000Y3400000D01*
X9880000Y3400000D02*
X9780000Y3400000D01*
X9780000Y3400000D02*
X9660000Y3400000D01*
X9660000Y3400000D02*
X9560000Y3400000D01*
X9560000Y3400000D02*
X9490000Y3400000D01*
X9490000Y3400000D02*
X9440000Y3380000D01*
X9440000Y3380000D02*
X9390000Y3330000D01*
X9390000Y3330000D02*
X9370000Y3250000D01*
X9370000Y3250000D02*
X9370000Y3170000D01*
X9370000Y3170000D02*
X9390000Y3100000D01*
X9390000Y3100000D02*
X10030000Y3100000D01*
X10030000Y3100000D02*
X10050000Y3160000D01*
X10050000Y3160000D02*
X10050000Y3160000D01*
G36*
X9950000Y3390000D02*
G01*
X9990000Y3380000D01*
X10040000Y3320000D01*
X10050000Y3240000D01*
X10050000Y3160000D01*
X10030000Y3100000D01*
X9390000Y3100000D01*
X9370000Y3170000D01*
X9370000Y3250000D01*
X9390000Y3330000D01*
X9440000Y3380000D01*
X9490000Y3400000D01*
X9880000Y3400000D01*
X9950000Y3390000D01*
G37*
X9950000Y3390000D02*
X9990000Y3380000D01*
X10040000Y3320000D01*
X10050000Y3240000D01*
X10050000Y3160000D01*
X10030000Y3100000D01*
X9390000Y3100000D01*
X9370000Y3170000D01*
X9370000Y3250000D01*
X9390000Y3330000D01*
X9440000Y3380000D01*
X9490000Y3400000D01*
X9880000Y3400000D01*
X9950000Y3390000D01*
D12*
%TO.C,C4*%
X6800000Y14800000D02*
X6800000Y15200000D01*
X6000000Y14800000D02*
X6000000Y15200000D01*
D13*
%TO.C,R1*%
X5350000Y10600000D02*
X1650000Y10600000D01*
X1650000Y10600000D02*
X1650000Y14400000D01*
X1650000Y14400000D02*
X5350000Y14400000D01*
X5350000Y14400000D02*
X5350000Y10600000D01*
D11*
%TO.C,*%
X6390000Y340000D02*
X6390000Y20000D01*
X6390000Y20000D02*
X6450000Y0D01*
X6450000Y0D02*
X7960000Y0D01*
X7960000Y0D02*
X7990000Y50000D01*
X7990000Y50000D02*
X7990000Y4900000D01*
X7990000Y4900000D02*
X7950000Y4960000D01*
X7950000Y4960000D02*
X7240000Y5310000D01*
X7240000Y5310000D02*
X7170000Y5330000D01*
X7170000Y5330000D02*
X6450000Y4970000D01*
X6450000Y4970000D02*
X6400000Y4930000D01*
X6400000Y4930000D02*
X6690000Y3410000D01*
X6690000Y3410000D02*
X6660000Y3680000D01*
X6660000Y3680000D02*
X6640000Y3730000D01*
X6640000Y3730000D02*
X6640000Y3810000D01*
X6640000Y3810000D02*
X6650000Y3870000D01*
X6650000Y3870000D02*
X7430000Y4040000D01*
X7430000Y4040000D02*
X7380000Y4070000D01*
X7380000Y4070000D02*
X6680000Y4210000D01*
X6680000Y4210000D02*
X6640000Y4260000D01*
X6640000Y4260000D02*
X6640000Y4340000D01*
X6640000Y4340000D02*
X6650000Y4420000D01*
X6650000Y4420000D02*
X6720000Y4410000D01*
X6720000Y4410000D02*
X7650000Y4180000D01*
X7650000Y4180000D02*
X7710000Y4140000D01*
X7710000Y4140000D02*
X7710000Y3980000D01*
X7710000Y3980000D02*
X7670000Y3930000D01*
X7670000Y3930000D02*
X6740000Y3690000D01*
X6740000Y3690000D02*
X6660000Y3680000D01*
X6660000Y3680000D02*
X6690000Y3410000D01*
X6690000Y3410000D02*
X6770000Y3410000D01*
X6770000Y3410000D02*
X6830000Y3380000D01*
X6830000Y3380000D02*
X6830000Y3060000D01*
X6830000Y3060000D02*
X6880000Y3030000D01*
X6880000Y3030000D02*
X7040000Y3030000D01*
X7040000Y3030000D02*
X7110000Y3040000D01*
X7110000Y3040000D02*
X7090000Y3110000D01*
X7090000Y3110000D02*
X7090000Y3200000D01*
X7090000Y3200000D02*
X7110000Y3280000D01*
X7110000Y3280000D02*
X7150000Y3340000D01*
X7150000Y3340000D02*
X7200000Y3390000D01*
X7200000Y3390000D02*
X7270000Y3430000D01*
X7270000Y3430000D02*
X7350000Y3440000D01*
X7350000Y3440000D02*
X7440000Y3440000D01*
X7440000Y3440000D02*
X7520000Y3430000D01*
X7520000Y3430000D02*
X7590000Y3400000D01*
X7590000Y3400000D02*
X7650000Y3350000D01*
X7650000Y3350000D02*
X7690000Y3280000D01*
X7690000Y3280000D02*
X7710000Y3210000D01*
X7710000Y3210000D02*
X7710000Y3170000D01*
X7710000Y3170000D02*
X7690000Y3090000D01*
X7690000Y3090000D02*
X7660000Y3020000D01*
X7660000Y3020000D02*
X7610000Y2970000D01*
X7610000Y2970000D02*
X7540000Y2930000D01*
X7540000Y2930000D02*
X7460000Y2910000D01*
X7460000Y2910000D02*
X7400000Y2940000D01*
X7400000Y2940000D02*
X7400000Y3020000D01*
X7400000Y3020000D02*
X7440000Y3080000D01*
X7440000Y3080000D02*
X7500000Y3130000D01*
X7500000Y3130000D02*
X7510000Y3200000D01*
X7510000Y3200000D02*
X7470000Y3260000D01*
X7470000Y3260000D02*
X7390000Y3280000D01*
X7390000Y3280000D02*
X7310000Y3270000D01*
X7310000Y3270000D02*
X7260000Y3210000D01*
X7260000Y3210000D02*
X7240000Y3140000D01*
X7240000Y3140000D02*
X7200000Y3080000D01*
X7200000Y3080000D02*
X7190000Y3000000D01*
X7190000Y3000000D02*
X7170000Y2930000D01*
X7170000Y2930000D02*
X6690000Y2930000D01*
X6690000Y2930000D02*
X6640000Y2980000D01*
X6640000Y2980000D02*
X6640000Y3370000D01*
X6640000Y3370000D02*
X6690000Y3410000D01*
X6690000Y3410000D02*
X6390000Y4930000D01*
X6390000Y4930000D02*
X6390000Y400000D01*
X6390000Y400000D02*
X6390000Y340000D01*
X6390000Y340000D02*
X6390000Y340000D01*
G36*
X6450000Y4970000D02*
G01*
X7170000Y5330000D01*
X7240000Y5310000D01*
X7950000Y4960000D01*
X7990000Y4900000D01*
X7990000Y50000D01*
X7960000Y0D01*
X6450000Y0D01*
X6390000Y20000D01*
X6390000Y4930000D01*
X6690000Y3410000D01*
X6640000Y3370000D01*
X6640000Y2980000D01*
X6690000Y2930000D01*
X7170000Y2930000D01*
X7190000Y3000000D01*
X7200000Y3080000D01*
X7240000Y3140000D01*
X7260000Y3210000D01*
X7310000Y3270000D01*
X7390000Y3280000D01*
X7470000Y3260000D01*
X7510000Y3200000D01*
X7500000Y3130000D01*
X7440000Y3080000D01*
X7400000Y3020000D01*
X7400000Y2940000D01*
X7460000Y2910000D01*
X7540000Y2930000D01*
X7610000Y2970000D01*
X7660000Y3020000D01*
X7690000Y3090000D01*
X7710000Y3170000D01*
X7710000Y3210000D01*
X7690000Y3280000D01*
X7650000Y3350000D01*
X7590000Y3400000D01*
X7520000Y3430000D01*
X7440000Y3440000D01*
X7350000Y3440000D01*
X7270000Y3430000D01*
X7200000Y3390000D01*
X7150000Y3340000D01*
X7110000Y3280000D01*
X7090000Y3200000D01*
X7090000Y3110000D01*
X7110000Y3040000D01*
X7040000Y3030000D01*
X6880000Y3030000D01*
X6830000Y3060000D01*
X6830000Y3380000D01*
X6770000Y3410000D01*
X6690000Y3410000D01*
X6628947Y3730000D01*
X6640000Y3730000D01*
X6660000Y3680000D01*
X6740000Y3690000D01*
X7670000Y3930000D01*
X7710000Y3980000D01*
X7710000Y4140000D01*
X7650000Y4180000D01*
X6720000Y4410000D01*
X6650000Y4420000D01*
X6640000Y4340000D01*
X6640000Y4260000D01*
X6680000Y4210000D01*
X7380000Y4070000D01*
X7430000Y4040000D01*
X6650000Y3870000D01*
X6640000Y3810000D01*
X6640000Y3730000D01*
X6628947Y3730000D01*
X6400000Y4930000D01*
X6450000Y4970000D01*
G37*
X6450000Y4970000D02*
X7170000Y5330000D01*
X7240000Y5310000D01*
X7950000Y4960000D01*
X7990000Y4900000D01*
X7990000Y50000D01*
X7960000Y0D01*
X6450000Y0D01*
X6390000Y20000D01*
X6390000Y4930000D01*
X6690000Y3410000D01*
X6640000Y3370000D01*
X6640000Y2980000D01*
X6690000Y2930000D01*
X7170000Y2930000D01*
X7190000Y3000000D01*
X7200000Y3080000D01*
X7240000Y3140000D01*
X7260000Y3210000D01*
X7310000Y3270000D01*
X7390000Y3280000D01*
X7470000Y3260000D01*
X7510000Y3200000D01*
X7500000Y3130000D01*
X7440000Y3080000D01*
X7400000Y3020000D01*
X7400000Y2940000D01*
X7460000Y2910000D01*
X7540000Y2930000D01*
X7610000Y2970000D01*
X7660000Y3020000D01*
X7690000Y3090000D01*
X7710000Y3170000D01*
X7710000Y3210000D01*
X7690000Y3280000D01*
X7650000Y3350000D01*
X7590000Y3400000D01*
X7520000Y3430000D01*
X7440000Y3440000D01*
X7350000Y3440000D01*
X7270000Y3430000D01*
X7200000Y3390000D01*
X7150000Y3340000D01*
X7110000Y3280000D01*
X7090000Y3200000D01*
X7090000Y3110000D01*
X7110000Y3040000D01*
X7040000Y3030000D01*
X6880000Y3030000D01*
X6830000Y3060000D01*
X6830000Y3380000D01*
X6770000Y3410000D01*
X6690000Y3410000D01*
X6628947Y3730000D01*
X6640000Y3730000D01*
X6660000Y3680000D01*
X6740000Y3690000D01*
X7670000Y3930000D01*
X7710000Y3980000D01*
X7710000Y4140000D01*
X7650000Y4180000D01*
X6720000Y4410000D01*
X6650000Y4420000D01*
X6640000Y4340000D01*
X6640000Y4260000D01*
X6680000Y4210000D01*
X7380000Y4070000D01*
X7430000Y4040000D01*
X6650000Y3870000D01*
X6640000Y3810000D01*
X6640000Y3730000D01*
X6628947Y3730000D01*
X6400000Y4930000D01*
X6450000Y4970000D01*
D12*
%TO.C,Q1*%
X20300000Y11500000D02*
X19400000Y11500000D01*
X20300000Y12500000D02*
X20300000Y11500000D01*
X17300000Y11500000D02*
X17300000Y12500000D01*
X18200000Y11500000D02*
X17300000Y11500000D01*
D11*
%TO.C,*%
X1320000Y11450000D02*
X1320000Y11840000D01*
X1320000Y11840000D02*
X1310000Y11920000D01*
X1310000Y11920000D02*
X1240000Y11930000D01*
X1240000Y11930000D02*
X1190000Y11890000D01*
X1190000Y11890000D02*
X1190000Y11580000D01*
X1190000Y11580000D02*
X1140000Y11550000D01*
X1140000Y11550000D02*
X900000Y11550000D01*
X900000Y11550000D02*
X840000Y11580000D01*
X840000Y11580000D02*
X840000Y11890000D01*
X840000Y11890000D02*
X780000Y11920000D01*
X780000Y11920000D02*
X720000Y11890000D01*
X720000Y11890000D02*
X720000Y11580000D01*
X720000Y11580000D02*
X660000Y11550000D01*
X660000Y11550000D02*
X420000Y11550000D01*
X420000Y11550000D02*
X380000Y11580000D01*
X380000Y11580000D02*
X380000Y11900000D01*
X380000Y11900000D02*
X320000Y11930000D01*
X320000Y11930000D02*
X250000Y11920000D01*
X250000Y11920000D02*
X250000Y11840000D01*
X250000Y11840000D02*
X250000Y11440000D01*
X250000Y11440000D02*
X310000Y11420000D01*
X310000Y11420000D02*
X1260000Y11420000D01*
X1260000Y11420000D02*
X1320000Y11450000D01*
X1320000Y11450000D02*
X1320000Y11450000D01*
G36*
X1310000Y11920000D02*
G01*
X1320000Y11840000D01*
X1320000Y11450000D01*
X1260000Y11420000D01*
X310000Y11420000D01*
X250000Y11440000D01*
X250000Y11920000D01*
X320000Y11930000D01*
X380000Y11900000D01*
X380000Y11580000D01*
X420000Y11550000D01*
X660000Y11550000D01*
X720000Y11580000D01*
X720000Y11890000D01*
X780000Y11920000D01*
X840000Y11890000D01*
X840000Y11580000D01*
X900000Y11550000D01*
X1140000Y11550000D01*
X1190000Y11580000D01*
X1190000Y11890000D01*
X1240000Y11930000D01*
X1310000Y11920000D01*
G37*
X1310000Y11920000D02*
X1320000Y11840000D01*
X1320000Y11450000D01*
X1260000Y11420000D01*
X310000Y11420000D01*
X250000Y11440000D01*
X250000Y11920000D01*
X320000Y11930000D01*
X380000Y11900000D01*
X380000Y11580000D01*
X420000Y11550000D01*
X660000Y11550000D01*
X720000Y11580000D01*
X720000Y11890000D01*
X780000Y11920000D01*
X840000Y11890000D01*
X840000Y11580000D01*
X900000Y11550000D01*
X1140000Y11550000D01*
X1190000Y11580000D01*
X1190000Y11890000D01*
X1240000Y11930000D01*
X1310000Y11920000D01*
X1320000Y10620000D02*
X1320000Y10940000D01*
X1320000Y10940000D02*
X1270000Y11020000D01*
X1270000Y11020000D02*
X1210000Y11080000D01*
X1210000Y11080000D02*
X1130000Y10980000D01*
X1130000Y10980000D02*
X1180000Y10920000D01*
X1180000Y10920000D02*
X1190000Y10860000D01*
X1190000Y10860000D02*
X1190000Y10700000D01*
X1190000Y10700000D02*
X390000Y10700000D01*
X390000Y10700000D02*
X380000Y10770000D01*
X380000Y10770000D02*
X380000Y10850000D01*
X380000Y10850000D02*
X390000Y10930000D01*
X390000Y10930000D02*
X450000Y10990000D01*
X450000Y10990000D02*
X500000Y11020000D01*
X500000Y11020000D02*
X590000Y11030000D01*
X590000Y11030000D02*
X660000Y11030000D01*
X660000Y11030000D02*
X830000Y11040000D01*
X830000Y11040000D02*
X990000Y11030000D01*
X990000Y11030000D02*
X1070000Y11010000D01*
X1070000Y11010000D02*
X1120000Y10990000D01*
X1120000Y10990000D02*
X1210000Y11080000D01*
X1210000Y11080000D02*
X1160000Y11120000D01*
X1160000Y11120000D02*
X1100000Y11150000D01*
X1100000Y11150000D02*
X1010000Y11170000D01*
X1010000Y11170000D02*
X860000Y11170000D01*
X860000Y11170000D02*
X680000Y11170000D01*
X680000Y11170000D02*
X610000Y11170000D01*
X610000Y11170000D02*
X530000Y11160000D01*
X530000Y11160000D02*
X450000Y11140000D01*
X450000Y11140000D02*
X400000Y11120000D01*
X400000Y11120000D02*
X340000Y11070000D01*
X340000Y11070000D02*
X280000Y11010000D01*
X280000Y11010000D02*
X250000Y10920000D01*
X250000Y10920000D02*
X250000Y10610000D01*
X250000Y10610000D02*
X300000Y10570000D01*
X300000Y10570000D02*
X1260000Y10570000D01*
X1260000Y10570000D02*
X1320000Y10600000D01*
X1320000Y10600000D02*
X1320000Y10620000D01*
X1320000Y10620000D02*
X1320000Y10620000D01*
G36*
X1100000Y11150000D02*
G01*
X1160000Y11120000D01*
X1210000Y11080000D01*
X1120000Y10990000D01*
X1070000Y11010000D01*
X990000Y11030000D01*
X830000Y11040000D01*
X660000Y11030000D01*
X590000Y11030000D01*
X500000Y11020000D01*
X450000Y10990000D01*
X390000Y10930000D01*
X380000Y10850000D01*
X380000Y10770000D01*
X390000Y10700000D01*
X1190000Y10700000D01*
X1190000Y10860000D01*
X1180000Y10920000D01*
X1130000Y10980000D01*
X1210000Y11080000D01*
X1270000Y11020000D01*
X1320000Y10940000D01*
X1320000Y10600000D01*
X1260000Y10570000D01*
X300000Y10570000D01*
X250000Y10610000D01*
X250000Y10920000D01*
X280000Y11010000D01*
X340000Y11070000D01*
X400000Y11120000D01*
X450000Y11140000D01*
X530000Y11160000D01*
X610000Y11170000D01*
X1010000Y11170000D01*
X1100000Y11150000D01*
G37*
X1100000Y11150000D02*
X1160000Y11120000D01*
X1210000Y11080000D01*
X1120000Y10990000D01*
X1070000Y11010000D01*
X990000Y11030000D01*
X830000Y11040000D01*
X660000Y11030000D01*
X590000Y11030000D01*
X500000Y11020000D01*
X450000Y10990000D01*
X390000Y10930000D01*
X380000Y10850000D01*
X380000Y10770000D01*
X390000Y10700000D01*
X1190000Y10700000D01*
X1190000Y10860000D01*
X1180000Y10920000D01*
X1130000Y10980000D01*
X1210000Y11080000D01*
X1270000Y11020000D01*
X1320000Y10940000D01*
X1320000Y10600000D01*
X1260000Y10570000D01*
X300000Y10570000D01*
X250000Y10610000D01*
X250000Y10920000D01*
X280000Y11010000D01*
X340000Y11070000D01*
X400000Y11120000D01*
X450000Y11140000D01*
X530000Y11160000D01*
X610000Y11170000D01*
X1010000Y11170000D01*
X1100000Y11150000D01*
X1320000Y12200000D02*
X1320000Y12590000D01*
X1320000Y12590000D02*
X1290000Y12660000D01*
X1290000Y12660000D02*
X1220000Y12660000D01*
X1220000Y12660000D02*
X1190000Y12600000D01*
X1190000Y12600000D02*
X1190000Y12360000D01*
X1190000Y12360000D02*
X1170000Y12300000D01*
X1170000Y12300000D02*
X310000Y12300000D01*
X310000Y12300000D02*
X250000Y12270000D01*
X250000Y12270000D02*
X250000Y12190000D01*
X250000Y12190000D02*
X310000Y12170000D01*
X310000Y12170000D02*
X1260000Y12170000D01*
X1260000Y12170000D02*
X1320000Y12200000D01*
X1320000Y12200000D02*
X1320000Y12200000D01*
G36*
X1320000Y12590000D02*
G01*
X1320000Y12200000D01*
X1260000Y12170000D01*
X310000Y12170000D01*
X250000Y12190000D01*
X250000Y12270000D01*
X310000Y12300000D01*
X1170000Y12300000D01*
X1190000Y12360000D01*
X1190000Y12600000D01*
X1220000Y12660000D01*
X1290000Y12660000D01*
X1320000Y12590000D01*
G37*
X1320000Y12590000D02*
X1320000Y12200000D01*
X1260000Y12170000D01*
X310000Y12170000D01*
X250000Y12190000D01*
X250000Y12270000D01*
X310000Y12300000D01*
X1170000Y12300000D01*
X1190000Y12360000D01*
X1190000Y12600000D01*
X1220000Y12660000D01*
X1290000Y12660000D01*
X1320000Y12590000D01*
X1320000Y14080000D02*
X1320000Y14160000D01*
X1320000Y14160000D02*
X1250000Y14190000D01*
X1250000Y14190000D02*
X930000Y14190000D01*
X930000Y14190000D02*
X860000Y14210000D01*
X860000Y14210000D02*
X340000Y14410000D01*
X340000Y14410000D02*
X260000Y14430000D01*
X260000Y14430000D02*
X250000Y14350000D01*
X250000Y14350000D02*
X260000Y14290000D01*
X260000Y14290000D02*
X720000Y14140000D01*
X720000Y14140000D02*
X720000Y14100000D01*
X720000Y14100000D02*
X270000Y13950000D01*
X270000Y13950000D02*
X250000Y13890000D01*
X250000Y13890000D02*
X270000Y13820000D01*
X270000Y13820000D02*
X340000Y13830000D01*
X340000Y13830000D02*
X860000Y14030000D01*
X860000Y14030000D02*
X940000Y14050000D01*
X940000Y14050000D02*
X1260000Y14050000D01*
X1260000Y14050000D02*
X1320000Y14080000D01*
X1320000Y14080000D02*
X1320000Y14080000D01*
G36*
X340000Y14410000D02*
G01*
X860000Y14210000D01*
X930000Y14190000D01*
X1250000Y14190000D01*
X1320000Y14160000D01*
X1320000Y14080000D01*
X1260000Y14050000D01*
X940000Y14050000D01*
X860000Y14030000D01*
X340000Y13830000D01*
X270000Y13820000D01*
X250000Y13890000D01*
X270000Y13950000D01*
X720000Y14100000D01*
X720000Y14140000D01*
X260000Y14290000D01*
X250000Y14350000D01*
X260000Y14430000D01*
X340000Y14410000D01*
G37*
X340000Y14410000D02*
X860000Y14210000D01*
X930000Y14190000D01*
X1250000Y14190000D01*
X1320000Y14160000D01*
X1320000Y14080000D01*
X1260000Y14050000D01*
X940000Y14050000D01*
X860000Y14030000D01*
X340000Y13830000D01*
X270000Y13820000D01*
X250000Y13890000D01*
X270000Y13950000D01*
X720000Y14100000D01*
X720000Y14140000D01*
X260000Y14290000D01*
X250000Y14350000D01*
X260000Y14430000D01*
X340000Y14410000D01*
X1320000Y12980000D02*
X1300000Y13040000D01*
X1300000Y13040000D02*
X1230000Y13080000D01*
X1230000Y13080000D02*
X1200000Y13150000D01*
X1200000Y13150000D02*
X1070000Y13170000D01*
X1070000Y13170000D02*
X1020000Y13150000D01*
X1020000Y13150000D02*
X550000Y13230000D01*
X550000Y13230000D02*
X510000Y13250000D01*
X510000Y13250000D02*
X980000Y13330000D01*
X980000Y13330000D02*
X1060000Y13340000D01*
X1060000Y13340000D02*
X1070000Y13330000D01*
X1070000Y13330000D02*
X1070000Y13170000D01*
X1070000Y13170000D02*
X1200000Y13150000D01*
X1200000Y13150000D02*
X1200000Y13310000D01*
X1200000Y13310000D02*
X1210000Y13390000D01*
X1210000Y13390000D02*
X1270000Y13430000D01*
X1270000Y13430000D02*
X1320000Y13480000D01*
X1320000Y13480000D02*
X1320000Y13560000D01*
X1320000Y13560000D02*
X1250000Y13580000D01*
X1250000Y13580000D02*
X260000Y13320000D01*
X260000Y13320000D02*
X250000Y13240000D01*
X250000Y13240000D02*
X260000Y13170000D01*
X260000Y13170000D02*
X1260000Y12910000D01*
X1260000Y12910000D02*
X1320000Y12930000D01*
X1320000Y12930000D02*
X1320000Y12980000D01*
X1320000Y12980000D02*
X1320000Y12980000D01*
G36*
X1230000Y13080000D02*
G01*
X1300000Y13040000D01*
X1320000Y12980000D01*
X1320000Y12930000D01*
X1260000Y12910000D01*
X260000Y13170000D01*
X250000Y13240000D01*
X251250Y13250000D01*
X510000Y13250000D01*
X550000Y13230000D01*
X1020000Y13150000D01*
X1070000Y13170000D01*
X1070000Y13330000D01*
X1060000Y13340000D01*
X980000Y13330000D01*
X510000Y13250000D01*
X251250Y13250000D01*
X260000Y13320000D01*
X1250000Y13580000D01*
X1320000Y13560000D01*
X1320000Y13480000D01*
X1270000Y13430000D01*
X1210000Y13390000D01*
X1200000Y13310000D01*
X1200000Y13150000D01*
X1230000Y13080000D01*
G37*
X1230000Y13080000D02*
X1300000Y13040000D01*
X1320000Y12980000D01*
X1320000Y12930000D01*
X1260000Y12910000D01*
X260000Y13170000D01*
X250000Y13240000D01*
X251250Y13250000D01*
X510000Y13250000D01*
X550000Y13230000D01*
X1020000Y13150000D01*
X1070000Y13170000D01*
X1070000Y13330000D01*
X1060000Y13340000D01*
X980000Y13330000D01*
X510000Y13250000D01*
X251250Y13250000D01*
X260000Y13320000D01*
X1250000Y13580000D01*
X1320000Y13560000D01*
X1320000Y13480000D01*
X1270000Y13430000D01*
X1210000Y13390000D01*
X1200000Y13310000D01*
X1200000Y13150000D01*
X1230000Y13080000D01*
%TO.C,G\u002A\u002A\u002A*%
G36*
X19230864Y3976722D02*
G01*
X19276144Y3976362D01*
X19318969Y3975706D01*
X19357768Y3974754D01*
X19390973Y3973509D01*
X19417014Y3971972D01*
X19434320Y3970145D01*
X19441251Y3968132D01*
X19443754Y3960730D01*
X19448080Y3943013D01*
X19453959Y3916284D01*
X19461121Y3881848D01*
X19469296Y3841008D01*
X19478214Y3795069D01*
X19487606Y3745333D01*
X19489805Y3733493D01*
X19502001Y3668479D01*
X19512454Y3614647D01*
X19521271Y3571520D01*
X19528555Y3538619D01*
X19534411Y3515466D01*
X19538943Y3501584D01*
X19541498Y3497007D01*
X19549106Y3492533D01*
X19565960Y3484439D01*
X19590327Y3473445D01*
X19620473Y3460271D01*
X19654668Y3445639D01*
X19691177Y3430270D01*
X19728269Y3414884D01*
X19764211Y3400202D01*
X19797270Y3386946D01*
X19825713Y3375836D01*
X19847809Y3367593D01*
X19861825Y3362938D01*
X19865569Y3362166D01*
X19872075Y3365406D01*
X19887204Y3374648D01*
X19909872Y3389180D01*
X19938993Y3408288D01*
X19973482Y3431256D01*
X20012254Y3457372D01*
X20054225Y3485922D01*
X20068061Y3495392D01*
X20123801Y3533373D01*
X20170289Y3564554D01*
X20207802Y3589108D01*
X20236613Y3607210D01*
X20256997Y3619034D01*
X20269229Y3624754D01*
X20272907Y3625292D01*
X20279780Y3620322D01*
X20293598Y3608077D01*
X20313262Y3589665D01*
X20337671Y3566195D01*
X20365725Y3538774D01*
X20396323Y3508510D01*
X20428366Y3476513D01*
X20460754Y3443889D01*
X20492386Y3411748D01*
X20522162Y3381196D01*
X20548981Y3353344D01*
X20571745Y3329298D01*
X20589352Y3310167D01*
X20600703Y3297059D01*
X20604696Y3291085D01*
X20601409Y3284450D01*
X20592116Y3269224D01*
X20577544Y3246511D01*
X20558422Y3217415D01*
X20535477Y3183043D01*
X20509437Y3144498D01*
X20481029Y3102887D01*
X20474834Y3093866D01*
X20446010Y3051687D01*
X20419412Y3012275D01*
X20395769Y2976744D01*
X20375807Y2946211D01*
X20360256Y2921790D01*
X20349843Y2904599D01*
X20345296Y2895753D01*
X20345154Y2895070D01*
X20347453Y2886808D01*
X20353866Y2869460D01*
X20363671Y2844711D01*
X20376144Y2814245D01*
X20390561Y2779744D01*
X20406200Y2742893D01*
X20422336Y2705375D01*
X20438246Y2668874D01*
X20453206Y2635073D01*
X20466494Y2605656D01*
X20477386Y2582307D01*
X20485158Y2566710D01*
X20488804Y2560769D01*
X20496373Y2557830D01*
X20514378Y2553090D01*
X20541629Y2546807D01*
X20576938Y2539234D01*
X20619113Y2530628D01*
X20666966Y2521244D01*
X20717049Y2511758D01*
X20766737Y2502370D01*
X20812920Y2493393D01*
X20854273Y2485104D01*
X20889473Y2477780D01*
X20917196Y2471697D01*
X20936117Y2467131D01*
X20944913Y2464358D01*
X20945238Y2464148D01*
X20947336Y2456649D01*
X20949146Y2438916D01*
X20950666Y2412521D01*
X20951895Y2379032D01*
X20952831Y2340019D01*
X20953471Y2297051D01*
X20953815Y2251699D01*
X20953860Y2205531D01*
X20953605Y2160117D01*
X20953048Y2117027D01*
X20952187Y2077830D01*
X20951020Y2044096D01*
X20949547Y2017394D01*
X20947764Y1999295D01*
X20945770Y1991482D01*
X20939564Y1988033D01*
X20925189Y1983499D01*
X20902044Y1977749D01*
X20869528Y1970649D01*
X20827040Y1962068D01*
X20773979Y1951872D01*
X20722937Y1942357D01*
X20673850Y1933193D01*
X20628321Y1924483D01*
X20587682Y1916497D01*
X20553264Y1909506D01*
X20526401Y1903782D01*
X20508425Y1899595D01*
X20500667Y1897216D01*
X20500571Y1897148D01*
X20496724Y1890464D01*
X20489283Y1874389D01*
X20478902Y1850549D01*
X20466235Y1820570D01*
X20451937Y1786075D01*
X20436662Y1748690D01*
X20421063Y1710040D01*
X20405796Y1671750D01*
X20391514Y1635445D01*
X20378872Y1602750D01*
X20368523Y1575289D01*
X20361122Y1554688D01*
X20357324Y1542571D01*
X20356960Y1540448D01*
X20360201Y1533540D01*
X20369423Y1518086D01*
X20383877Y1495239D01*
X20402812Y1466152D01*
X20425479Y1431977D01*
X20451126Y1393866D01*
X20478419Y1353826D01*
X20506367Y1312972D01*
X20532230Y1274968D01*
X20555237Y1240962D01*
X20574615Y1212105D01*
X20589592Y1189548D01*
X20599395Y1174440D01*
X20603234Y1167981D01*
X20600043Y1161736D01*
X20589385Y1148445D01*
X20572349Y1129196D01*
X20550022Y1105080D01*
X20523493Y1077185D01*
X20493849Y1046600D01*
X20462179Y1014415D01*
X20429570Y981720D01*
X20397111Y949603D01*
X20365890Y919154D01*
X20336994Y891463D01*
X20311511Y867618D01*
X20290530Y848708D01*
X20275139Y835824D01*
X20266426Y830054D01*
X20265505Y829848D01*
X20257529Y833098D01*
X20241367Y842232D01*
X20218483Y856329D01*
X20190341Y874471D01*
X20158403Y895738D01*
X20132651Y913315D01*
X20095295Y939027D01*
X20057490Y964952D01*
X20021498Y989547D01*
X19989582Y1011267D01*
X19964004Y1028567D01*
X19954492Y1034949D01*
X19897341Y1073123D01*
X19808612Y1026743D01*
X19775808Y1009748D01*
X19751795Y997799D01*
X19734999Y990289D01*
X19723846Y986611D01*
X19716763Y986159D01*
X19712175Y988326D01*
X19711223Y989217D01*
X19707384Y996244D01*
X19699572Y1013116D01*
X19688239Y1038741D01*
X19673836Y1072025D01*
X19656816Y1111876D01*
X19637631Y1157200D01*
X19616733Y1206905D01*
X19594573Y1259898D01*
X19571605Y1315086D01*
X19548278Y1371376D01*
X19525047Y1427676D01*
X19502362Y1482891D01*
X19480676Y1535930D01*
X19460440Y1585699D01*
X19442107Y1631106D01*
X19426128Y1671058D01*
X19412956Y1704461D01*
X19403042Y1730223D01*
X19396839Y1747251D01*
X19394794Y1754363D01*
X19398444Y1762993D01*
X19410103Y1774442D01*
X19430835Y1789664D01*
X19443493Y1798055D01*
X19467376Y1815175D01*
X19495601Y1837909D01*
X19524507Y1863190D01*
X19548577Y1886085D01*
X19573339Y1911444D01*
X19591737Y1932157D01*
X19606169Y1951496D01*
X19619032Y1972730D01*
X19632721Y1999129D01*
X19635374Y2004509D01*
X19655020Y2046620D01*
X19669031Y2082709D01*
X19678300Y2116587D01*
X19683722Y2152066D01*
X19686192Y2192957D01*
X19686634Y2222915D01*
X19686389Y2259308D01*
X19685116Y2287372D01*
X19682455Y2310561D01*
X19678042Y2332331D01*
X19673362Y2349826D01*
X19646758Y2422019D01*
X19610550Y2487977D01*
X19565500Y2546953D01*
X19512369Y2598196D01*
X19451921Y2640960D01*
X19384917Y2674495D01*
X19321008Y2695811D01*
X19273909Y2704542D01*
X19220752Y2708477D01*
X19166146Y2707620D01*
X19114701Y2701972D01*
X19084894Y2695669D01*
X19015166Y2671504D01*
X18951008Y2637955D01*
X18893127Y2596045D01*
X18842229Y2546801D01*
X18799021Y2491247D01*
X18764210Y2430410D01*
X18738503Y2365313D01*
X18722605Y2296983D01*
X18717224Y2226445D01*
X18721130Y2167857D01*
X18735824Y2094096D01*
X18759801Y2026504D01*
X18793519Y1964353D01*
X18837439Y1906915D01*
X18892020Y1853462D01*
X18946177Y1811297D01*
X18969895Y1794174D01*
X18990097Y1778975D01*
X19004800Y1767237D01*
X19012020Y1760496D01*
X19012292Y1760092D01*
X19013089Y1758599D01*
X19013549Y1756730D01*
X19013391Y1753773D01*
X19012331Y1749017D01*
X19010090Y1741749D01*
X19006383Y1731259D01*
X19000930Y1716835D01*
X18993448Y1697766D01*
X18983655Y1673339D01*
X18971270Y1642845D01*
X18956011Y1605570D01*
X18937595Y1560804D01*
X18915740Y1507835D01*
X18890165Y1445951D01*
X18860588Y1374442D01*
X18833697Y1309444D01*
X18801589Y1232165D01*
X18773692Y1165728D01*
X18749937Y1109975D01*
X18730253Y1064747D01*
X18714571Y1029884D01*
X18702819Y1005226D01*
X18694928Y990616D01*
X18691081Y985929D01*
X18681870Y987439D01*
X18663982Y994389D01*
X18638861Y1006142D01*
X18607953Y1022061D01*
X18602538Y1024968D01*
X18574172Y1039849D01*
X18548641Y1052449D01*
X18528107Y1061761D01*
X18514736Y1066774D01*
X18511623Y1067359D01*
X18503988Y1064123D01*
X18487867Y1054888D01*
X18464449Y1040418D01*
X18434926Y1021475D01*
X18400490Y998823D01*
X18362330Y973224D01*
X18326279Y948635D01*
X18285813Y921057D01*
X18248015Y895744D01*
X18214076Y873461D01*
X18185186Y854970D01*
X18162537Y841034D01*
X18147318Y832417D01*
X18140993Y829840D01*
X18133320Y833824D01*
X18118267Y845853D01*
X18095709Y866042D01*
X18065523Y894505D01*
X18027585Y931357D01*
X17981772Y976715D01*
X17967738Y990732D01*
X17920111Y1038708D01*
X17880713Y1079097D01*
X17849625Y1111813D01*
X17826928Y1136767D01*
X17812704Y1153872D01*
X17807033Y1163042D01*
X17806925Y1163760D01*
X17810173Y1171285D01*
X17819415Y1187322D01*
X17833896Y1210696D01*
X17852862Y1240232D01*
X17875559Y1274754D01*
X17901232Y1313087D01*
X17927934Y1352315D01*
X17955752Y1393196D01*
X17981317Y1431391D01*
X18003875Y1465725D01*
X18022672Y1495023D01*
X18036952Y1518109D01*
X18045962Y1533809D01*
X18048953Y1540838D01*
X18046776Y1549909D01*
X18040684Y1568158D01*
X18031351Y1593900D01*
X18019451Y1625452D01*
X18005658Y1661131D01*
X17990645Y1699256D01*
X17975085Y1738142D01*
X17959652Y1776106D01*
X17945019Y1811466D01*
X17931861Y1842539D01*
X17920849Y1867642D01*
X17912659Y1885092D01*
X17907963Y1893205D01*
X17907926Y1893243D01*
X17900502Y1897042D01*
X17884234Y1902001D01*
X17858588Y1908238D01*
X17823032Y1915873D01*
X17777032Y1925023D01*
X17720057Y1935809D01*
X17700674Y1939394D01*
X17641688Y1950261D01*
X17593250Y1959248D01*
X17554297Y1966617D01*
X17523769Y1972633D01*
X17500602Y1977561D01*
X17483736Y1981663D01*
X17472109Y1985205D01*
X17464659Y1988450D01*
X17460323Y1991662D01*
X17458042Y1995105D01*
X17456751Y1999044D01*
X17456462Y2000127D01*
X17455652Y2008904D01*
X17454903Y2028082D01*
X17454236Y2056256D01*
X17453674Y2092020D01*
X17453238Y2133971D01*
X17452951Y2180702D01*
X17452835Y2230809D01*
X17452834Y2232116D01*
X17452912Y2292706D01*
X17453212Y2342387D01*
X17453763Y2382054D01*
X17454595Y2412602D01*
X17455735Y2434927D01*
X17457212Y2449925D01*
X17459055Y2458489D01*
X17460132Y2460652D01*
X17465454Y2463966D01*
X17477472Y2468101D01*
X17496964Y2473230D01*
X17524712Y2479527D01*
X17561493Y2487165D01*
X17608087Y2496318D01*
X17665275Y2507159D01*
X17688179Y2511430D01*
X17748330Y2522715D01*
X17797750Y2532250D01*
X17837351Y2540241D01*
X17868044Y2546890D01*
X17890740Y2552404D01*
X17906353Y2556987D01*
X17915793Y2560842D01*
X17919277Y2563280D01*
X17924540Y2571765D01*
X17933435Y2589406D01*
X17945225Y2614481D01*
X17959173Y2645266D01*
X17974543Y2680037D01*
X17990598Y2717072D01*
X18006600Y2754647D01*
X18021814Y2791039D01*
X18035501Y2824524D01*
X18046926Y2853379D01*
X18055352Y2875882D01*
X18060041Y2890307D01*
X18060760Y2894181D01*
X18057481Y2902018D01*
X18048113Y2918435D01*
X18033350Y2942349D01*
X18013886Y2972680D01*
X17990415Y3008344D01*
X17963630Y3048259D01*
X17935855Y3088975D01*
X17907446Y3130562D01*
X17881153Y3169542D01*
X17857741Y3204746D01*
X17837974Y3235003D01*
X17822615Y3259143D01*
X17812430Y3275995D01*
X17808181Y3284391D01*
X17808135Y3284582D01*
X17808457Y3289199D01*
X17811489Y3295749D01*
X17817943Y3305020D01*
X17828532Y3317799D01*
X17843970Y3334875D01*
X17864969Y3357034D01*
X17892242Y3385065D01*
X17926502Y3419755D01*
X17968462Y3461892D01*
X17969921Y3463354D01*
X18014265Y3507477D01*
X18052817Y3545241D01*
X18085157Y3576252D01*
X18110867Y3600120D01*
X18129525Y3616450D01*
X18140713Y3624850D01*
X18143634Y3625929D01*
X18150415Y3622160D01*
X18165771Y3612422D01*
X18188570Y3597468D01*
X18217684Y3578052D01*
X18251983Y3554928D01*
X18290336Y3528850D01*
X18331613Y3500573D01*
X18335477Y3497915D01*
X18377245Y3469300D01*
X18416440Y3442677D01*
X18451889Y3418827D01*
X18482416Y3398530D01*
X18506847Y3382568D01*
X18524007Y3371720D01*
X18532721Y3366769D01*
X18532977Y3366666D01*
X18538992Y3365646D01*
X18547934Y3366584D01*
X18561031Y3369901D01*
X18579514Y3376016D01*
X18604611Y3385351D01*
X18637554Y3398326D01*
X18679570Y3415363D01*
X18701208Y3424238D01*
X18741326Y3440729D01*
X18778051Y3455823D01*
X18809915Y3468915D01*
X18835451Y3479402D01*
X18853191Y3486683D01*
X18861667Y3490154D01*
X18862007Y3490293D01*
X18864966Y3492163D01*
X18867823Y3495963D01*
X18870811Y3502716D01*
X18874158Y3513446D01*
X18878096Y3529175D01*
X18882855Y3550927D01*
X18888666Y3579725D01*
X18895759Y3616593D01*
X18904364Y3662553D01*
X18914714Y3718630D01*
X18920251Y3748803D01*
X18931702Y3810419D01*
X18941449Y3860977D01*
X18949625Y3901080D01*
X18956363Y3931334D01*
X18961795Y3952341D01*
X18966055Y3964705D01*
X18968579Y3968685D01*
X18976996Y3970768D01*
X18995516Y3972539D01*
X19022567Y3974001D01*
X19056580Y3975154D01*
X19095986Y3976001D01*
X19139215Y3976543D01*
X19184697Y3976783D01*
X19230864Y3976722D01*
G37*
%TD*%
M02*
