M48
; DRILL file {KiCad (6.0.2)} date Mon May 16 11:26:36 2022
; FORMAT={-:-/ absolute / metric / decimal}
; #@! TF.CreationDate,2022-05-16T11:26:36+02:00
; #@! TF.GenerationSoftware,Kicad,Pcbnew,(6.0.2)
; #@! TF.FileFunction,Plated,1,2,PTH
FMAT,2
METRIC
; #@! TA.AperFunction,Plated,PTH,ViaDrill
T1C0.300
; #@! TA.AperFunction,Plated,PTH,ComponentDrill
T2C0.850
; #@! TA.AperFunction,Plated,PTH,ComponentDrill
T3C1.000
%
G90
G05
T1
X1.0Y15.2
X1.0Y9.6
X1.8Y17.8
X1.9Y20.3
X2.4Y26.0
X2.5Y22.8
X3.51Y12.79
X4.5Y29.7
X4.5Y16.0
X4.5Y7.0
X4.7Y9.2
X5.0Y17.3
X5.1Y23.7
X5.5Y5.7
X5.8Y9.6
X6.6Y17.3
X6.7Y9.9
X6.9Y25.9
X7.2Y8.0
X7.265Y12.635
X7.7Y29.8
X8.1Y20.4
X8.4Y15.3
X8.6Y7.2
X8.6Y4.2
X8.8Y9.0
X10.2Y21.8
X10.3Y15.2
X11.0Y6.7
X11.0Y3.3
X11.1Y10.1
X11.7Y15.2
X12.0Y11.1
X12.1Y23.4
X12.2Y12.6
X12.9Y8.7
X13.5Y24.6
X14.1Y8.4
X14.3Y22.6
X14.3Y6.7
X14.9Y25.2
X15.065Y11.365
X15.3Y21.5
X15.3Y10.1
X15.4Y19.1
X16.0Y8.1
X16.4Y5.4
X16.5Y18.2
X16.8Y14.4
X17.3Y10.1
X17.8Y24.5
X18.0Y12.2
X18.0Y7.1
X18.9Y12.3
X19.0Y19.8
X19.8Y24.5
X20.2Y15.4
X20.8Y23.1
X20.9Y17.8
X20.9Y14.3
X21.0Y9.9
X21.1Y19.9
X21.1Y16.8
T2
X9.204Y17.204
X12.796Y20.796
X12.796Y17.204
T3
X7.19Y1.2
X9.73Y1.2
X12.27Y1.2
X14.81Y1.2
T0
M30
