%TF.GenerationSoftware,KiCad,Pcbnew,(6.0.2)*%
%TF.CreationDate,2022-05-16T11:26:32+02:00*%
%TF.ProjectId,Pir_movement_sensor,5069725f-6d6f-4766-956d-656e745f7365,rev?*%
%TF.SameCoordinates,PX55d4a80PY7bfa480*%
%TF.FileFunction,Copper,L1,Top*%
%TF.FilePolarity,Positive*%
%FSLAX46Y46*%
G04 Gerber Fmt 4.6, Leading zero omitted, Abs format (unit mm)*
G04 Created by KiCad (PCBNEW (6.0.2)) date 2022-05-16 11:26:32*
%MOMM*%
%LPD*%
G01*
G04 APERTURE LIST*
%TA.AperFunction,EtchedComponent*%
%ADD10C,0.200000*%
%TD*%
%TA.AperFunction,EtchedComponent*%
%ADD11C,0.100000*%
%TD*%
%TA.AperFunction,SMDPad,CuDef*%
%ADD12C,1.000000*%
%TD*%
%TA.AperFunction,SMDPad,CuDef*%
%ADD13R,1.000000X0.640000*%
%TD*%
%TA.AperFunction,SMDPad,CuDef*%
%ADD14R,0.660000X1.000000*%
%TD*%
%TA.AperFunction,SMDPad,CuDef*%
%ADD15R,1.000000X0.600000*%
%TD*%
%TA.AperFunction,SMDPad,CuDef*%
%ADD16R,1.200000X3.400000*%
%TD*%
%TA.AperFunction,SMDPad,CuDef*%
%ADD17R,1.550000X0.600000*%
%TD*%
%TA.AperFunction,SMDPad,CuDef*%
%ADD18R,0.640000X1.000000*%
%TD*%
%TA.AperFunction,ComponentPad*%
%ADD19C,1.700000*%
%TD*%
%TA.AperFunction,SMDPad,CuDef*%
%ADD20R,0.600000X1.100000*%
%TD*%
%TA.AperFunction,SMDPad,CuDef*%
%ADD21R,1.000000X0.500000*%
%TD*%
%TA.AperFunction,SMDPad,CuDef*%
%ADD22R,1.000000X0.660000*%
%TD*%
%TA.AperFunction,SMDPad,CuDef*%
%ADD23R,1.200000X1.200000*%
%TD*%
%TA.AperFunction,SMDPad,CuDef*%
%ADD24R,1.600000X1.500000*%
%TD*%
%TA.AperFunction,SMDPad,CuDef*%
%ADD25R,0.600000X1.000000*%
%TD*%
%TA.AperFunction,ComponentPad*%
%ADD26C,1.750000*%
%TD*%
%TA.AperFunction,ViaPad*%
%ADD27C,0.500000*%
%TD*%
%TA.AperFunction,Conductor*%
%ADD28C,0.254000*%
%TD*%
%TA.AperFunction,Conductor*%
%ADD29C,0.300000*%
%TD*%
%TA.AperFunction,Conductor*%
%ADD30C,0.250000*%
%TD*%
G04 APERTURE END LIST*
%TO.C,REF\u002A\u002A*%
G36*
X3001105Y1117826D02*
G01*
X3052917Y1097824D01*
X3095978Y1065736D01*
X3128482Y1022814D01*
X3148901Y971280D01*
X3155708Y913356D01*
X3150151Y853627D01*
X3133483Y798898D01*
X3104034Y745280D01*
X3060140Y688884D01*
X2853448Y453299D01*
X2849003Y444409D01*
X2852336Y437186D01*
X2861226Y434407D01*
X3141261Y434407D01*
X3163486Y412182D01*
X3163486Y357731D01*
X3157930Y341618D01*
X3141261Y335506D01*
X2738989Y335506D01*
X2723431Y342174D01*
X2716764Y357731D01*
X2716764Y429962D01*
X2726765Y457744D01*
X2975685Y745558D01*
X3008189Y787646D01*
X3030136Y827234D01*
X3046805Y910023D01*
X3039999Y958362D01*
X3019579Y994478D01*
X2942348Y1024481D01*
X2894703Y1016147D01*
X2858448Y991144D01*
X2835529Y951417D01*
X2827889Y898910D01*
X2827889Y882241D01*
X2821221Y866684D01*
X2805664Y860016D01*
X2747879Y860016D01*
X2731766Y866128D01*
X2725654Y882241D01*
X2725654Y910023D01*
X2732460Y969752D01*
X2752879Y1022259D01*
X2785661Y1065598D01*
X2829556Y1097824D01*
X2882479Y1117826D01*
X2942348Y1124494D01*
X3001105Y1117826D01*
G37*
G36*
X1532032Y1117826D02*
G01*
X1583844Y1097824D01*
X1626905Y1065736D01*
X1659409Y1022814D01*
X1679829Y971280D01*
X1686635Y913356D01*
X1681079Y853627D01*
X1664410Y798898D01*
X1634962Y745280D01*
X1591067Y688884D01*
X1384375Y453299D01*
X1379930Y444409D01*
X1383264Y437186D01*
X1392154Y434407D01*
X1672189Y434407D01*
X1694414Y412182D01*
X1694414Y357731D01*
X1688857Y341618D01*
X1672189Y335506D01*
X1269916Y335506D01*
X1254359Y342174D01*
X1247691Y357731D01*
X1247691Y429962D01*
X1257692Y457744D01*
X1506612Y745558D01*
X1539117Y787646D01*
X1561064Y827234D01*
X1577732Y910023D01*
X1570926Y958362D01*
X1550507Y994478D01*
X1473275Y1024481D01*
X1425630Y1016147D01*
X1389376Y991144D01*
X1366456Y951417D01*
X1358816Y898910D01*
X1358816Y882241D01*
X1352149Y866684D01*
X1336591Y860016D01*
X1278806Y860016D01*
X1262693Y866128D01*
X1256581Y882241D01*
X1256581Y910023D01*
X1263388Y969752D01*
X1283807Y1022259D01*
X1316589Y1065598D01*
X1360483Y1097824D01*
X1413406Y1117826D01*
X1473275Y1124494D01*
X1532032Y1117826D01*
G37*
G36*
X2315603Y1106714D02*
G01*
X2322270Y1091156D01*
X2322270Y357731D01*
X2315603Y342174D01*
X2300045Y335506D01*
X2241149Y335506D01*
X2225591Y342174D01*
X2218924Y357731D01*
X2218924Y967808D01*
X2215034Y973364D01*
X2208923Y972253D01*
X2052236Y828901D01*
X2041124Y824456D01*
X2031678Y828346D01*
X2027789Y837791D01*
X2027789Y905578D01*
X2040013Y942249D01*
X2208923Y1103380D01*
X2231148Y1113381D01*
X2300045Y1113381D01*
X2315603Y1106714D01*
G37*
G36*
X578719Y874463D02*
G01*
X707624Y504416D01*
X715402Y497749D01*
X723181Y504416D01*
X852086Y874463D01*
X873200Y891131D01*
X942097Y891131D01*
X958211Y886686D01*
X964322Y875574D01*
X959877Y856683D01*
X767631Y352175D01*
X746517Y335506D01*
X685399Y335506D01*
X664285Y352175D01*
X470927Y856683D01*
X466482Y874463D01*
X472594Y886131D01*
X488707Y891131D01*
X557605Y891131D01*
X578719Y874463D01*
G37*
G36*
X1937777Y473301D02*
G01*
X1944445Y457744D01*
X1944445Y357731D01*
X1937777Y342174D01*
X1922220Y335506D01*
X1822207Y335506D01*
X1806650Y342174D01*
X1799982Y357731D01*
X1799982Y457744D01*
X1806650Y473301D01*
X1822207Y479969D01*
X1922220Y479969D01*
X1937777Y473301D01*
G37*
G36*
X3406850Y473301D02*
G01*
X3413518Y457744D01*
X3413518Y357731D01*
X3406850Y342174D01*
X3391293Y335506D01*
X3291280Y335506D01*
X3275723Y342174D01*
X3269055Y357731D01*
X3269055Y457744D01*
X3275723Y473301D01*
X3291280Y479969D01*
X3391293Y479969D01*
X3406850Y473301D01*
G37*
G36*
X2604528Y473301D02*
G01*
X2611195Y457744D01*
X2611195Y357731D01*
X2604528Y342174D01*
X2588970Y335506D01*
X2488958Y335506D01*
X2473400Y342174D01*
X2466733Y357731D01*
X2466733Y457744D01*
X2473400Y473301D01*
X2488958Y479969D01*
X2588970Y479969D01*
X2604528Y473301D01*
G37*
D10*
%TO.C,FD1*%
X19500000Y26800000D02*
G75*
G03*
X19500000Y26800000I-1000000J0D01*
G01*
D11*
%TO.C,JP1*%
X16600000Y16900000D02*
X16600000Y16700000D01*
X16600000Y16700000D02*
X16400000Y16700000D01*
X16400000Y16700000D02*
X16400000Y16900000D01*
X16400000Y16900000D02*
X16600000Y16900000D01*
G36*
X16600000Y16700000D02*
G01*
X16400000Y16700000D01*
X16400000Y16900000D01*
X16600000Y16900000D01*
X16600000Y16700000D01*
G37*
X16600000Y16700000D02*
X16400000Y16700000D01*
X16400000Y16900000D01*
X16600000Y16900000D01*
X16600000Y16700000D01*
%TD*%
D12*
%TO.P,FD1,1*%
%TO.N,N/C*%
X18500000Y26800000D03*
%TD*%
D13*
%TO.P,R2,1*%
%TO.N,TRIG*%
X16200000Y11825000D03*
%TO.P,R2,2*%
%TO.N,5V*%
X16200000Y13375000D03*
%TD*%
D14*
%TO.P,C2,1*%
%TO.N,GND*%
X19730000Y23200000D03*
%TO.P,C2,2*%
%TO.N,3V3*%
X18270000Y23200000D03*
%TD*%
%TO.P,C3,1*%
%TO.N,5V*%
X10270000Y8000000D03*
%TO.P,C3,2*%
%TO.N,GND*%
X11730000Y8000000D03*
%TD*%
D15*
%TO.P,Q2,1,B*%
%TO.N,TRIG*%
X15800000Y25250000D03*
%TO.P,Q2,2,E*%
%TO.N,GND*%
X15800000Y27150000D03*
%TO.P,Q2,3,C*%
%TO.N,Net-(Q2-Pad3)*%
X13400000Y26200000D03*
%TD*%
D16*
%TO.P,C5,1,+*%
%TO.N,Net-(C5-Pad1)*%
X5000000Y19700000D03*
%TO.P,C5,2,-*%
%TO.N,GND*%
X5000000Y26300000D03*
%TD*%
D14*
%TO.P,C1,1*%
%TO.N,GND*%
X19730000Y16800000D03*
%TO.P,C1,2*%
%TO.N,Net-(C1-Pad2)*%
X18270000Y16800000D03*
%TD*%
D17*
%TO.P,U3,1,GND*%
%TO.N,GND*%
X13600000Y10095000D03*
%TO.P,U3,2,TRIG*%
%TO.N,TRIG*%
X13600000Y11365000D03*
%TO.P,U3,3,OUT*%
%TO.N,OUT*%
X13600000Y12635000D03*
%TO.P,U3,4,RESET*%
%TO.N,5V*%
X13600000Y13905000D03*
%TO.P,U3,5,CONT*%
%TO.N,Net-(C4-Pad1)*%
X8400000Y13905000D03*
%TO.P,U3,6,THRESH*%
%TO.N,Net-(C5-Pad1)*%
X8400000Y12635000D03*
%TO.P,U3,7,DISCH*%
X8400000Y11365000D03*
%TO.P,U3,8,Vcc*%
%TO.N,5V*%
X8400000Y10095000D03*
%TD*%
D18*
%TO.P,R4,1*%
%TO.N,Net-(Q2-Pad3)*%
X11875000Y24900000D03*
%TO.P,R4,2*%
%TO.N,Net-(C5-Pad1)*%
X10325000Y24900000D03*
%TD*%
D13*
%TO.P,R3,1*%
%TO.N,Net-(C5-Pad1)*%
X6400000Y12575000D03*
%TO.P,R3,2*%
%TO.N,Net-(R1-Pad1)*%
X6400000Y11025000D03*
%TD*%
D19*
%TO.P,K1,1*%
%TO.N,GND*%
X14810000Y1200000D03*
%TO.P,K1,2*%
%TO.N,REL*%
X12270000Y1200000D03*
%TO.P,K1,3*%
%TO.N,OUT*%
X9730000Y1200000D03*
%TO.P,K1,4*%
%TO.N,5V*%
X7190000Y1200000D03*
%TD*%
D20*
%TO.P,U2,1,VIN*%
%TO.N,Net-(C1-Pad2)*%
X18050000Y18700000D03*
%TO.P,U2,2,GND*%
%TO.N,GND*%
X19000000Y18700000D03*
%TO.P,U2,3,EN*%
%TO.N,Net-(C1-Pad2)*%
X19950000Y18700000D03*
%TO.P,U2,4,NC*%
%TO.N,unconnected-(U2-Pad4)*%
X19950000Y21300000D03*
%TO.P,U2,5,VOUT*%
%TO.N,3V3*%
X18050000Y21300000D03*
%TD*%
D21*
%TO.P,JP2,1*%
%TO.N,5V*%
X16500000Y22850000D03*
%TO.P,JP2,2*%
%TO.N,3V3*%
X16500000Y23550000D03*
%TD*%
D22*
%TO.P,C4,1*%
%TO.N,Net-(C4-Pad1)*%
X6400000Y14270000D03*
%TO.P,C4,2*%
%TO.N,GND*%
X6400000Y15730000D03*
%TD*%
D23*
%TO.P,R1,1*%
%TO.N,Net-(R1-Pad1)*%
X4500000Y14300000D03*
D24*
%TO.P,R1,2*%
%TO.N,5V*%
X3500000Y11050000D03*
D23*
%TO.P,R1,3*%
X2500000Y14300000D03*
%TD*%
D25*
%TO.P,Q1,1,G*%
%TO.N,REL*%
X19750000Y13400000D03*
%TO.P,Q1,2,S*%
%TO.N,GND*%
X17850000Y13400000D03*
%TO.P,Q1,3,D*%
%TO.N,TRIG*%
X18800000Y11000000D03*
%TD*%
D21*
%TO.P,JP1,1*%
%TO.N,Net-(C1-Pad2)*%
X16500000Y16450000D03*
%TO.P,JP1,2*%
%TO.N,5V*%
X16500000Y17150000D03*
%TD*%
D26*
%TO.P,U1,1,VDD*%
%TO.N,3V3*%
X12796051Y20796051D03*
%TO.P,U1,2,REL*%
%TO.N,REL*%
X12796051Y17203949D03*
%TO.P,U1,3,VSS*%
%TO.N,GND*%
X9203949Y17203949D03*
%TD*%
D27*
%TO.N,GND*%
X4500000Y7000000D03*
X10200000Y21800000D03*
X6600000Y17300000D03*
X20800000Y23100000D03*
X4700000Y9200000D03*
X18000000Y7100000D03*
X20900000Y17800000D03*
X2500000Y22800000D03*
X14300000Y6700000D03*
X11000000Y3300000D03*
X11000000Y6700000D03*
X21100000Y19900000D03*
X12900000Y8700000D03*
X21100000Y16800000D03*
X5100000Y23700000D03*
X20200000Y15400000D03*
X8800000Y9000000D03*
X17300000Y10100000D03*
X1000000Y9600000D03*
X16400000Y5400000D03*
X15300000Y21500000D03*
X15300000Y10100000D03*
X4500000Y16000000D03*
X19000000Y19800000D03*
X16800000Y14400000D03*
X21000000Y9900000D03*
X3510000Y12790000D03*
X17800000Y24500000D03*
X1900000Y20300000D03*
X2400000Y26000000D03*
X5800000Y9600000D03*
X8600000Y4200000D03*
X6900000Y25900000D03*
X10300000Y15200000D03*
X11100000Y10100000D03*
X14300000Y22600000D03*
X19800000Y24500000D03*
X15400000Y19100000D03*
X5500000Y5700000D03*
X6700000Y9900000D03*
X8400000Y15300000D03*
X7700000Y29800000D03*
X20900000Y14300000D03*
X12100000Y23400000D03*
X11700000Y15200000D03*
X8600000Y7200000D03*
X8100000Y20400000D03*
X1000000Y15200000D03*
X4500000Y29700000D03*
X1800000Y17800000D03*
X16000000Y8100000D03*
X18900000Y12300000D03*
X12000000Y11100000D03*
X18000000Y12200000D03*
X14100000Y8400000D03*
X13500000Y24600000D03*
%TO.N,Net-(C5-Pad1)*%
X5000000Y17300000D03*
X7265000Y12635000D03*
%TO.N,5V*%
X7200000Y8000000D03*
X16500000Y18200000D03*
%TO.N,TRIG*%
X15065000Y11365000D03*
X14900000Y25200000D03*
%TO.N,OUT*%
X12200000Y12600000D03*
%TD*%
D28*
%TO.N,Net-(C1-Pad2)*%
X19400000Y20500000D02*
X19950000Y19950000D01*
D29*
X16500000Y16450000D02*
X17920000Y16450000D01*
X18270000Y17530000D02*
X18050000Y17750000D01*
X17920000Y16450000D02*
X18270000Y16800000D01*
D28*
X18599511Y20500000D02*
X19400000Y20500000D01*
X18050000Y19950489D02*
X18599511Y20500000D01*
D29*
X18270000Y16800000D02*
X18270000Y17530000D01*
X18050000Y17750000D02*
X18050000Y18700000D01*
D28*
X19950000Y19950000D02*
X19950000Y18700000D01*
X18050000Y18700000D02*
X18050000Y19950489D01*
D29*
%TO.N,3V3*%
X16500000Y23550000D02*
X13950000Y23550000D01*
X12796051Y22396051D02*
X12796051Y20796051D01*
X18300000Y22500000D02*
X18300000Y23170000D01*
X16500000Y23550000D02*
X17920000Y23550000D01*
X18300000Y23170000D02*
X18270000Y23200000D01*
X13950000Y23550000D02*
X12796051Y22396051D01*
X18050000Y21300000D02*
X18050000Y22250000D01*
X17920000Y23550000D02*
X18270000Y23200000D01*
X18050000Y22250000D02*
X18300000Y22500000D01*
%TO.N,Net-(C4-Pad1)*%
X7330000Y14270000D02*
X6400000Y14270000D01*
X8400000Y13905000D02*
X7695000Y13905000D01*
X7695000Y13905000D02*
X7330000Y14270000D01*
%TO.N,REL*%
X12796051Y17203949D02*
X14700000Y15300000D01*
X19750000Y13400000D02*
X20400000Y12750000D01*
X18400000Y15300000D02*
X19750000Y13950000D01*
X14700000Y15300000D02*
X18400000Y15300000D01*
X12270000Y2770000D02*
X12270000Y1200000D01*
X19750000Y13950000D02*
X19750000Y13400000D01*
X20400000Y10900000D02*
X12270000Y2770000D01*
X20400000Y12750000D02*
X20400000Y10900000D01*
%TO.N,Net-(C5-Pad1)*%
X6460000Y12635000D02*
X6400000Y12575000D01*
X7265000Y11935000D02*
X7265000Y12635000D01*
X8400000Y12635000D02*
X7365000Y12635000D01*
X5000000Y17300000D02*
X5000000Y19700000D01*
X7365000Y12635000D02*
X6460000Y12635000D01*
X7835000Y11365000D02*
X7265000Y11935000D01*
X10200000Y24900000D02*
X5000000Y19700000D01*
X10325000Y24900000D02*
X10200000Y24900000D01*
X8400000Y11365000D02*
X7835000Y11365000D01*
X7365000Y12635000D02*
X7265000Y12635000D01*
%TO.N,5V*%
X10270000Y12470000D02*
X11705000Y13905000D01*
D30*
X3500000Y9130000D02*
X4630000Y8000000D01*
D29*
X13600000Y13905000D02*
X15670000Y13905000D01*
D30*
X3500000Y11050000D02*
X3500000Y9130000D01*
D29*
X11705000Y13905000D02*
X13600000Y13905000D01*
X15670000Y13905000D02*
X16200000Y13375000D01*
X10270000Y8000000D02*
X10270000Y9530000D01*
D30*
X2500000Y12050000D02*
X3500000Y11050000D01*
D29*
X10270000Y9530000D02*
X10270000Y12470000D01*
X9705000Y10095000D02*
X8400000Y10095000D01*
D30*
X4630000Y8000000D02*
X7200000Y8000000D01*
D29*
X16500000Y17150000D02*
X16500000Y18200000D01*
X10270000Y9530000D02*
X9705000Y10095000D01*
D30*
X2500000Y14300000D02*
X2500000Y12050000D01*
D29*
X16500000Y18200000D02*
X16500000Y22850000D01*
D30*
%TO.N,Net-(R1-Pad1)*%
X4500000Y14300000D02*
X4500000Y12925000D01*
X4500000Y12925000D02*
X6400000Y11025000D01*
X6400000Y11025000D02*
X6185000Y11025000D01*
D29*
%TO.N,TRIG*%
X17075000Y11825000D02*
X16200000Y11825000D01*
X15525000Y11825000D02*
X15065000Y11365000D01*
X15065000Y11365000D02*
X13600000Y11365000D01*
X18800000Y11000000D02*
X17900000Y11000000D01*
X17900000Y11000000D02*
X17075000Y11825000D01*
X16200000Y11825000D02*
X15525000Y11825000D01*
X14900000Y25200000D02*
X15750000Y25200000D01*
X15750000Y25200000D02*
X15800000Y25250000D01*
%TO.N,OUT*%
X12235000Y12635000D02*
X12200000Y12600000D01*
X13600000Y12635000D02*
X12235000Y12635000D01*
%TO.N,Net-(Q2-Pad3)*%
X13175000Y26200000D02*
X11875000Y24900000D01*
X13400000Y26200000D02*
X13175000Y26200000D01*
%TD*%
%TA.AperFunction,Conductor*%
%TO.N,GND*%
G36*
X20987153Y37743579D02*
G01*
X21000000Y37741024D01*
X21012172Y37743445D01*
X21019754Y37743445D01*
X21032104Y37742838D01*
X21133188Y37732882D01*
X21157408Y37728065D01*
X21273617Y37692813D01*
X21296418Y37683369D01*
X21403517Y37626124D01*
X21424047Y37612406D01*
X21517909Y37535374D01*
X21535374Y37517909D01*
X21612406Y37424047D01*
X21626124Y37403517D01*
X21683369Y37296418D01*
X21692813Y37273617D01*
X21728065Y37157408D01*
X21732882Y37133188D01*
X21742838Y37032104D01*
X21743445Y37019754D01*
X21743445Y37012172D01*
X21741024Y37000000D01*
X21743445Y36987830D01*
X21743579Y36987156D01*
X21746000Y36962575D01*
X21746000Y1037425D01*
X21743579Y1012847D01*
X21741024Y1000000D01*
X21743445Y987828D01*
X21743445Y980246D01*
X21742838Y967896D01*
X21732882Y866812D01*
X21728065Y842592D01*
X21692813Y726383D01*
X21683369Y703582D01*
X21626124Y596483D01*
X21612406Y575953D01*
X21535374Y482091D01*
X21517909Y464626D01*
X21424047Y387594D01*
X21403517Y373876D01*
X21296418Y316631D01*
X21273617Y307187D01*
X21157408Y271935D01*
X21133188Y267118D01*
X21032104Y257162D01*
X21019754Y256555D01*
X21012172Y256555D01*
X21000000Y258976D01*
X20987153Y256421D01*
X20962575Y254000D01*
X15610281Y254000D01*
X15542160Y274002D01*
X15501275Y316805D01*
X15484287Y346108D01*
X14822812Y1007583D01*
X14808868Y1015197D01*
X14807035Y1015066D01*
X14800420Y1010815D01*
X14134480Y344875D01*
X14120686Y319614D01*
X14070483Y269412D01*
X14010099Y254000D01*
X13188575Y254000D01*
X13120454Y274002D01*
X13073961Y327658D01*
X13063857Y397932D01*
X13091701Y460569D01*
X13180449Y567276D01*
X13180456Y567286D01*
X13184147Y571724D01*
X13283334Y748835D01*
X13285190Y754302D01*
X13285192Y754307D01*
X13346728Y935586D01*
X13346729Y935591D01*
X13348584Y941055D01*
X13349412Y946764D01*
X13349413Y946769D01*
X13371156Y1096733D01*
X13377712Y1141947D01*
X13379232Y1200000D01*
X13377095Y1223257D01*
X13702028Y1223257D01*
X13714542Y1032324D01*
X13716343Y1020954D01*
X13763443Y835498D01*
X13767284Y824652D01*
X13847394Y650880D01*
X13853145Y640919D01*
X13933029Y527884D01*
X13943618Y519496D01*
X13956920Y526525D01*
X14617583Y1187188D01*
X14623961Y1198868D01*
X14994803Y1198868D01*
X14994934Y1197035D01*
X14999185Y1190420D01*
X15662729Y526876D01*
X15676038Y519608D01*
X15686073Y526728D01*
X15720042Y567570D01*
X15726554Y577045D01*
X15820056Y744006D01*
X15824730Y754503D01*
X15886238Y935698D01*
X15888926Y946894D01*
X15916678Y1138301D01*
X15917308Y1145682D01*
X15918633Y1196296D01*
X15918390Y1203695D01*
X15900693Y1396293D01*
X15898595Y1407614D01*
X15846658Y1591769D01*
X15842533Y1602516D01*
X15757903Y1774129D01*
X15751893Y1783937D01*
X15686486Y1871527D01*
X15675228Y1879976D01*
X15662809Y1873204D01*
X15002417Y1212812D01*
X14994803Y1198868D01*
X14623961Y1198868D01*
X14625197Y1201132D01*
X14625066Y1202965D01*
X14620815Y1209580D01*
X13957488Y1872907D01*
X13944647Y1879919D01*
X13933958Y1872124D01*
X13883717Y1808394D01*
X13877452Y1798746D01*
X13788360Y1629411D01*
X13783951Y1618768D01*
X13727213Y1436041D01*
X13724819Y1424779D01*
X13702329Y1234759D01*
X13702028Y1223257D01*
X13377095Y1223257D01*
X13365720Y1347050D01*
X13361187Y1396387D01*
X13361186Y1396390D01*
X13360658Y1402141D01*
X13354273Y1424779D01*
X13307125Y1591954D01*
X13307124Y1591956D01*
X13305557Y1597513D01*
X13302073Y1604579D01*
X13218331Y1774391D01*
X13215776Y1779572D01*
X13094320Y1942221D01*
X12961499Y2065000D01*
X14128536Y2065000D01*
X14134370Y2055235D01*
X14797188Y1392417D01*
X14811132Y1384803D01*
X14812965Y1384934D01*
X14819580Y1389185D01*
X15485161Y2054766D01*
X15492775Y2068710D01*
X15492738Y2069227D01*
X15487561Y2076946D01*
X15480062Y2082700D01*
X15318236Y2184805D01*
X15307989Y2190026D01*
X15130260Y2260932D01*
X15119232Y2264199D01*
X14931561Y2301529D01*
X14920115Y2302732D01*
X14728792Y2305236D01*
X14717312Y2304333D01*
X14528737Y2271930D01*
X14517617Y2268950D01*
X14338095Y2202721D01*
X14327717Y2197771D01*
X14163273Y2099937D01*
X14153961Y2093171D01*
X14136932Y2078237D01*
X14128536Y2065000D01*
X12961499Y2065000D01*
X12949503Y2076089D01*
X12945258Y2080013D01*
X12940375Y2083094D01*
X12940371Y2083097D01*
X12781610Y2183267D01*
X12773581Y2188333D01*
X12768221Y2190472D01*
X12768214Y2190475D01*
X12753811Y2196221D01*
X12697951Y2240041D01*
X12674500Y2313251D01*
X12674500Y2550260D01*
X12694502Y2618381D01*
X12711405Y2639355D01*
X18120031Y8047981D01*
X18891801Y8047981D01*
X18892158Y8041164D01*
X18892158Y8041160D01*
X18896473Y7958840D01*
X18901518Y7862576D01*
X18903328Y7856004D01*
X18903329Y7855999D01*
X18944553Y7706338D01*
X18950821Y7683583D01*
X19037410Y7519352D01*
X19157245Y7377546D01*
X19162668Y7373399D01*
X19162670Y7373398D01*
X19299315Y7268925D01*
X19299319Y7268923D01*
X19304736Y7264781D01*
X19310916Y7261899D01*
X19310918Y7261898D01*
X19466823Y7189198D01*
X19466826Y7189197D01*
X19473000Y7186318D01*
X19479648Y7184832D01*
X19479651Y7184831D01*
X19578711Y7162689D01*
X19654188Y7145818D01*
X19659876Y7145500D01*
X19796385Y7145500D01*
X19934573Y7160512D01*
X20055210Y7201111D01*
X20104064Y7217552D01*
X20104066Y7217553D01*
X20110535Y7219730D01*
X20269677Y7315351D01*
X20274634Y7320039D01*
X20274637Y7320041D01*
X20399614Y7438227D01*
X20399616Y7438229D01*
X20404572Y7442916D01*
X20508928Y7596471D01*
X20511463Y7602808D01*
X20575342Y7762516D01*
X20575343Y7762521D01*
X20577876Y7768853D01*
X20578990Y7775580D01*
X20578991Y7775585D01*
X20607084Y7945282D01*
X20607084Y7945285D01*
X20608199Y7952019D01*
X20606589Y7982753D01*
X20598839Y8130611D01*
X20598482Y8137424D01*
X20596672Y8143996D01*
X20596671Y8144001D01*
X20550992Y8309835D01*
X20549179Y8316417D01*
X20462590Y8480648D01*
X20342755Y8622454D01*
X20337330Y8626602D01*
X20200685Y8731075D01*
X20200681Y8731077D01*
X20195264Y8735219D01*
X20189084Y8738101D01*
X20189082Y8738102D01*
X20033177Y8810802D01*
X20033174Y8810803D01*
X20027000Y8813682D01*
X20020352Y8815168D01*
X20020349Y8815169D01*
X19850849Y8853056D01*
X19850850Y8853056D01*
X19845812Y8854182D01*
X19840124Y8854500D01*
X19703615Y8854500D01*
X19565427Y8839488D01*
X19480189Y8810802D01*
X19395936Y8782448D01*
X19395934Y8782447D01*
X19389465Y8780270D01*
X19230323Y8684649D01*
X19225366Y8679961D01*
X19225363Y8679959D01*
X19127198Y8587128D01*
X19095428Y8557084D01*
X18991072Y8403529D01*
X18988539Y8397195D01*
X18988537Y8397192D01*
X18924658Y8237484D01*
X18924657Y8237479D01*
X18922124Y8231147D01*
X18921010Y8224420D01*
X18921009Y8224415D01*
X18892916Y8054718D01*
X18891801Y8047981D01*
X18120031Y8047981D01*
X20708535Y10636485D01*
X20708538Y10636489D01*
X20731326Y10659277D01*
X20741457Y10679160D01*
X20751787Y10696017D01*
X20759076Y10706050D01*
X20764904Y10714071D01*
X20767969Y10723503D01*
X20771801Y10735295D01*
X20779365Y10753557D01*
X20784995Y10764606D01*
X20784996Y10764610D01*
X20789498Y10773445D01*
X20792988Y10795483D01*
X20797605Y10814714D01*
X20801435Y10826501D01*
X20804500Y10835934D01*
X20804500Y12814066D01*
X20797605Y12835287D01*
X20792989Y12854513D01*
X20791049Y12866762D01*
X20789498Y12876555D01*
X20779366Y12896439D01*
X20771801Y12914705D01*
X20767970Y12926496D01*
X20764905Y12935929D01*
X20751784Y12953989D01*
X20741454Y12970846D01*
X20737340Y12978920D01*
X20731326Y12990723D01*
X20708538Y13013511D01*
X20708535Y13013515D01*
X20341404Y13380646D01*
X20307378Y13442958D01*
X20304499Y13469741D01*
X20304499Y13925066D01*
X20295661Y13969501D01*
X20292156Y13987126D01*
X20292155Y13987128D01*
X20289734Y13999301D01*
X20233484Y14083484D01*
X20219976Y14092510D01*
X20159619Y14132840D01*
X20159618Y14132841D01*
X20149301Y14139734D01*
X20137597Y14142062D01*
X20084988Y14183537D01*
X20081326Y14190723D01*
X20058538Y14213511D01*
X20058535Y14213515D01*
X18663515Y15608535D01*
X18663511Y15608538D01*
X18640723Y15631326D01*
X18620844Y15641455D01*
X18603989Y15651784D01*
X18593953Y15659075D01*
X18585929Y15664905D01*
X18564704Y15671801D01*
X18546438Y15679367D01*
X18526555Y15689498D01*
X18504513Y15692989D01*
X18485287Y15697605D01*
X18473500Y15701435D01*
X18473498Y15701435D01*
X18464066Y15704500D01*
X17092773Y15704500D01*
X17024652Y15724502D01*
X16978159Y15778158D01*
X16968055Y15848432D01*
X16997549Y15913012D01*
X17057275Y15951396D01*
X17068194Y15954079D01*
X17087126Y15957844D01*
X17087128Y15957845D01*
X17099301Y15960266D01*
X17109621Y15967161D01*
X17109622Y15967162D01*
X17183484Y16016516D01*
X17184329Y16015251D01*
X17234452Y16042621D01*
X17261235Y16045500D01*
X17984066Y16045500D01*
X18625066Y16045501D01*
X18660818Y16052612D01*
X18687126Y16057844D01*
X18687128Y16057845D01*
X18699301Y16060266D01*
X18709621Y16067161D01*
X18709622Y16067162D01*
X18773168Y16109623D01*
X18783484Y16116516D01*
X18839734Y16200699D01*
X18854500Y16274933D01*
X18854500Y16281172D01*
X19146001Y16281172D01*
X19147209Y16268912D01*
X19158315Y16213069D01*
X19167633Y16190573D01*
X19209983Y16127192D01*
X19227192Y16109983D01*
X19290575Y16067632D01*
X19313066Y16058316D01*
X19368915Y16047207D01*
X19381170Y16046000D01*
X19584885Y16046000D01*
X19600124Y16050475D01*
X19601329Y16051865D01*
X19603000Y16059548D01*
X19603000Y16064116D01*
X19857000Y16064116D01*
X19861475Y16048877D01*
X19862865Y16047672D01*
X19870548Y16046001D01*
X20078828Y16046001D01*
X20091088Y16047209D01*
X20146931Y16058315D01*
X20169427Y16067633D01*
X20232808Y16109983D01*
X20250017Y16127192D01*
X20292368Y16190575D01*
X20301684Y16213066D01*
X20312793Y16268915D01*
X20314000Y16281170D01*
X20314000Y16654885D01*
X20309525Y16670124D01*
X20308135Y16671329D01*
X20300452Y16673000D01*
X19875115Y16673000D01*
X19859876Y16668525D01*
X19858671Y16667135D01*
X19857000Y16659452D01*
X19857000Y16064116D01*
X19603000Y16064116D01*
X19603000Y16654885D01*
X19598525Y16670124D01*
X19597135Y16671329D01*
X19589452Y16673000D01*
X19164116Y16673000D01*
X19148877Y16668525D01*
X19147672Y16667135D01*
X19146001Y16659452D01*
X19146001Y16281172D01*
X18854500Y16281172D01*
X18854499Y16945115D01*
X19146000Y16945115D01*
X19150475Y16929876D01*
X19151865Y16928671D01*
X19159548Y16927000D01*
X19584885Y16927000D01*
X19600124Y16931475D01*
X19601329Y16932865D01*
X19603000Y16940548D01*
X19603000Y16945115D01*
X19857000Y16945115D01*
X19861475Y16929876D01*
X19862865Y16928671D01*
X19870548Y16927000D01*
X20295884Y16927000D01*
X20311123Y16931475D01*
X20312328Y16932865D01*
X20313999Y16940548D01*
X20313999Y17318828D01*
X20312791Y17331088D01*
X20301685Y17386931D01*
X20292367Y17409427D01*
X20250017Y17472808D01*
X20232808Y17490017D01*
X20169425Y17532368D01*
X20146934Y17541684D01*
X20091085Y17552793D01*
X20078830Y17554000D01*
X19875115Y17554000D01*
X19859876Y17549525D01*
X19858671Y17548135D01*
X19857000Y17540452D01*
X19857000Y16945115D01*
X19603000Y16945115D01*
X19603000Y17535884D01*
X19598525Y17551123D01*
X19597135Y17552328D01*
X19589452Y17553999D01*
X19381172Y17553999D01*
X19368912Y17552791D01*
X19313069Y17541685D01*
X19290573Y17532367D01*
X19227192Y17490017D01*
X19209983Y17472808D01*
X19167632Y17409425D01*
X19158316Y17386934D01*
X19147207Y17331085D01*
X19146000Y17318830D01*
X19146000Y16945115D01*
X18854499Y16945115D01*
X18854499Y17325066D01*
X18847388Y17360818D01*
X18842156Y17387126D01*
X18842155Y17387128D01*
X18839734Y17399301D01*
X18828423Y17416230D01*
X18790377Y17473168D01*
X18783484Y17483484D01*
X18773167Y17490378D01*
X18725256Y17522392D01*
X18679729Y17576869D01*
X18674695Y17594129D01*
X18674500Y17594066D01*
X18667605Y17615287D01*
X18662989Y17634513D01*
X18661779Y17642155D01*
X18659498Y17656555D01*
X18649366Y17676439D01*
X18641801Y17694705D01*
X18641428Y17695853D01*
X18634905Y17715929D01*
X18633915Y17717292D01*
X18621656Y17782578D01*
X18648359Y17848362D01*
X18706388Y17889266D01*
X18747027Y17896000D01*
X18854885Y17896000D01*
X18870124Y17900475D01*
X18871329Y17901865D01*
X18873000Y17909548D01*
X18873000Y19485884D01*
X18868525Y19501123D01*
X18867135Y19502328D01*
X18859452Y19503999D01*
X18681172Y19503999D01*
X18668912Y19502791D01*
X18613069Y19491685D01*
X18605716Y19488639D01*
X18535126Y19481051D01*
X18471640Y19512832D01*
X18435413Y19573891D01*
X18431500Y19605049D01*
X18431500Y19740276D01*
X18451502Y19808397D01*
X18468405Y19829372D01*
X18720630Y20081596D01*
X18782942Y20115621D01*
X18809725Y20118500D01*
X19189787Y20118500D01*
X19257908Y20098498D01*
X19278883Y20081595D01*
X19531596Y19828881D01*
X19565621Y19766569D01*
X19568500Y19739786D01*
X19568500Y19605050D01*
X19548498Y19536929D01*
X19494842Y19490436D01*
X19424568Y19480332D01*
X19394285Y19488640D01*
X19386936Y19491684D01*
X19331085Y19502793D01*
X19318830Y19504000D01*
X19145115Y19504000D01*
X19129876Y19499525D01*
X19128671Y19498135D01*
X19127000Y19490452D01*
X19127000Y17914116D01*
X19131475Y17898877D01*
X19132865Y17897672D01*
X19140548Y17896001D01*
X19318828Y17896001D01*
X19331088Y17897209D01*
X19386933Y17908316D01*
X19420892Y17922381D01*
X19421952Y17919822D01*
X19472299Y17935588D01*
X19527827Y17919284D01*
X19528915Y17921910D01*
X19540379Y17917161D01*
X19550699Y17910266D01*
X19624933Y17895500D01*
X19949947Y17895500D01*
X20275066Y17895501D01*
X20310818Y17902612D01*
X20337126Y17907844D01*
X20337128Y17907845D01*
X20349301Y17910266D01*
X20359621Y17917161D01*
X20359622Y17917162D01*
X20423168Y17959623D01*
X20433484Y17966516D01*
X20489734Y18050699D01*
X20504500Y18124933D01*
X20504499Y19275066D01*
X20489734Y19349301D01*
X20433484Y19433484D01*
X20387498Y19464212D01*
X20341970Y19518688D01*
X20331500Y19568976D01*
X20331500Y19895864D01*
X20334085Y19920153D01*
X20334153Y19921600D01*
X20336345Y19931780D01*
X20332373Y19965340D01*
X20332020Y19971321D01*
X20331928Y19971313D01*
X20331500Y19976492D01*
X20331500Y19981692D01*
X20330647Y19986819D01*
X20330646Y19986827D01*
X20328312Y20000849D01*
X20327475Y20006725D01*
X20322641Y20047569D01*
X20322640Y20047571D01*
X20321417Y20057908D01*
X20317433Y20066205D01*
X20315922Y20075283D01*
X20310978Y20084445D01*
X20310977Y20084449D01*
X20291447Y20120644D01*
X20288751Y20125934D01*
X20269871Y20165253D01*
X20269871Y20165254D01*
X20266440Y20172398D01*
X20262830Y20176692D01*
X20260898Y20178624D01*
X20259111Y20180573D01*
X20259082Y20180626D01*
X20259212Y20180745D01*
X20258711Y20181313D01*
X20255612Y20187057D01*
X20215791Y20223867D01*
X20212226Y20227296D01*
X20159116Y20280406D01*
X20125090Y20342718D01*
X20130155Y20413533D01*
X20172702Y20470369D01*
X20239222Y20495180D01*
X20248209Y20495501D01*
X20275066Y20495501D01*
X20310818Y20502612D01*
X20337126Y20507844D01*
X20337128Y20507845D01*
X20349301Y20510266D01*
X20359621Y20517161D01*
X20359622Y20517162D01*
X20423168Y20559623D01*
X20433484Y20566516D01*
X20489734Y20650699D01*
X20504500Y20724933D01*
X20504499Y21875066D01*
X20489734Y21949301D01*
X20433484Y22033484D01*
X20349301Y22089734D01*
X20275067Y22104500D01*
X19950053Y22104500D01*
X19624934Y22104499D01*
X19589182Y22097388D01*
X19562874Y22092156D01*
X19562872Y22092155D01*
X19550699Y22089734D01*
X19540379Y22082839D01*
X19540378Y22082838D01*
X19489502Y22048843D01*
X19466516Y22033484D01*
X19410266Y21949301D01*
X19395500Y21875067D01*
X19395501Y21383562D01*
X19395501Y21007500D01*
X19375499Y20939379D01*
X19321843Y20892886D01*
X19269501Y20881500D01*
X18730500Y20881500D01*
X18662379Y20901502D01*
X18615886Y20955158D01*
X18604500Y21007500D01*
X18604499Y21868877D01*
X18604499Y21875066D01*
X18589734Y21949301D01*
X18539684Y22024205D01*
X18518468Y22091958D01*
X18537250Y22160425D01*
X18555353Y22183303D01*
X18624313Y22252263D01*
X18624316Y22252267D01*
X18631326Y22259277D01*
X18641459Y22279164D01*
X18651791Y22296023D01*
X18659073Y22306045D01*
X18659074Y22306047D01*
X18664904Y22314071D01*
X18667970Y22323507D01*
X18671801Y22335296D01*
X18679367Y22353563D01*
X18681549Y22357844D01*
X18689498Y22373445D01*
X18692990Y22395493D01*
X18697606Y22414719D01*
X18702537Y22429895D01*
X18742611Y22488501D01*
X18752367Y22495724D01*
X18773167Y22509622D01*
X18773168Y22509623D01*
X18783484Y22516516D01*
X18790377Y22526832D01*
X18790379Y22526834D01*
X18832839Y22590380D01*
X18839734Y22600699D01*
X18854500Y22674933D01*
X18854500Y22681172D01*
X19146001Y22681172D01*
X19147209Y22668912D01*
X19158315Y22613069D01*
X19167633Y22590573D01*
X19209983Y22527192D01*
X19227192Y22509983D01*
X19290575Y22467632D01*
X19313066Y22458316D01*
X19368915Y22447207D01*
X19381170Y22446000D01*
X19584885Y22446000D01*
X19600124Y22450475D01*
X19601329Y22451865D01*
X19603000Y22459548D01*
X19603000Y22464116D01*
X19857000Y22464116D01*
X19861475Y22448877D01*
X19862865Y22447672D01*
X19870548Y22446001D01*
X20078828Y22446001D01*
X20091088Y22447209D01*
X20146931Y22458315D01*
X20169427Y22467633D01*
X20232808Y22509983D01*
X20250017Y22527192D01*
X20292368Y22590575D01*
X20301684Y22613066D01*
X20312793Y22668915D01*
X20314000Y22681170D01*
X20314000Y23054885D01*
X20309525Y23070124D01*
X20308135Y23071329D01*
X20300452Y23073000D01*
X19875115Y23073000D01*
X19859876Y23068525D01*
X19858671Y23067135D01*
X19857000Y23059452D01*
X19857000Y22464116D01*
X19603000Y22464116D01*
X19603000Y23054885D01*
X19598525Y23070124D01*
X19597135Y23071329D01*
X19589452Y23073000D01*
X19164116Y23073000D01*
X19148877Y23068525D01*
X19147672Y23067135D01*
X19146001Y23059452D01*
X19146001Y22681172D01*
X18854500Y22681172D01*
X18854499Y23345115D01*
X19146000Y23345115D01*
X19150475Y23329876D01*
X19151865Y23328671D01*
X19159548Y23327000D01*
X19584885Y23327000D01*
X19600124Y23331475D01*
X19601329Y23332865D01*
X19603000Y23340548D01*
X19603000Y23345115D01*
X19857000Y23345115D01*
X19861475Y23329876D01*
X19862865Y23328671D01*
X19870548Y23327000D01*
X20295884Y23327000D01*
X20311123Y23331475D01*
X20312328Y23332865D01*
X20313999Y23340548D01*
X20313999Y23718828D01*
X20312791Y23731088D01*
X20301685Y23786931D01*
X20292367Y23809427D01*
X20250017Y23872808D01*
X20232808Y23890017D01*
X20169425Y23932368D01*
X20146934Y23941684D01*
X20091085Y23952793D01*
X20078830Y23954000D01*
X19875115Y23954000D01*
X19859876Y23949525D01*
X19858671Y23948135D01*
X19857000Y23940452D01*
X19857000Y23345115D01*
X19603000Y23345115D01*
X19603000Y23935884D01*
X19598525Y23951123D01*
X19597135Y23952328D01*
X19589452Y23953999D01*
X19381172Y23953999D01*
X19368912Y23952791D01*
X19313069Y23941685D01*
X19290573Y23932367D01*
X19227192Y23890017D01*
X19209983Y23872808D01*
X19167632Y23809425D01*
X19158316Y23786934D01*
X19147207Y23731085D01*
X19146000Y23718830D01*
X19146000Y23345115D01*
X18854499Y23345115D01*
X18854499Y23725066D01*
X18847388Y23760818D01*
X18842156Y23787126D01*
X18842155Y23787128D01*
X18839734Y23799301D01*
X18783484Y23883484D01*
X18699301Y23939734D01*
X18625067Y23954500D01*
X18618880Y23954500D01*
X17984380Y23954499D01*
X17984068Y23954499D01*
X17984066Y23954500D01*
X17261235Y23954500D01*
X17193114Y23974502D01*
X17185252Y23980838D01*
X17183484Y23983484D01*
X17099301Y24039734D01*
X17025067Y24054500D01*
X16500085Y24054500D01*
X15974934Y24054499D01*
X15939182Y24047388D01*
X15912874Y24042156D01*
X15912872Y24042155D01*
X15900699Y24039734D01*
X15890379Y24032839D01*
X15890378Y24032838D01*
X15816516Y23983484D01*
X15815671Y23984749D01*
X15765548Y23957379D01*
X15738765Y23954500D01*
X13918166Y23954500D01*
X13918162Y23954499D01*
X13885934Y23954499D01*
X13876497Y23951433D01*
X13876498Y23951433D01*
X13864718Y23947606D01*
X13845493Y23942990D01*
X13823445Y23939498D01*
X13803560Y23929366D01*
X13785296Y23921801D01*
X13773507Y23917970D01*
X13773506Y23917969D01*
X13764071Y23914904D01*
X13756047Y23909074D01*
X13756045Y23909073D01*
X13746023Y23901791D01*
X13729164Y23891459D01*
X13709277Y23881326D01*
X13686485Y23858534D01*
X12487516Y22659566D01*
X12487513Y22659562D01*
X12464725Y22636774D01*
X12460222Y22627936D01*
X12454597Y22616897D01*
X12444267Y22600040D01*
X12431146Y22581980D01*
X12428081Y22572547D01*
X12424250Y22560756D01*
X12416685Y22542490D01*
X12406553Y22522606D01*
X12405002Y22512813D01*
X12403062Y22500564D01*
X12398446Y22481338D01*
X12391551Y22460117D01*
X12391551Y21938638D01*
X12371549Y21870517D01*
X12318326Y21824399D01*
X12318338Y21824375D01*
X12318249Y21824333D01*
X12317893Y21824024D01*
X12315756Y21823143D01*
X12313128Y21821890D01*
X12307705Y21819889D01*
X12129303Y21713751D01*
X12124960Y21709942D01*
X11977576Y21580689D01*
X11977573Y21580686D01*
X11973231Y21576878D01*
X11844714Y21413856D01*
X11748058Y21230144D01*
X11686500Y21031893D01*
X11662101Y20825745D01*
X11675678Y20618601D01*
X11726776Y20417401D01*
X11813685Y20228882D01*
X11933493Y20059357D01*
X11988302Y20005964D01*
X12053841Y19942119D01*
X12082188Y19914504D01*
X12086984Y19911299D01*
X12086987Y19911297D01*
X12156419Y19864904D01*
X12254791Y19799174D01*
X12260094Y19796896D01*
X12260099Y19796893D01*
X12440218Y19719509D01*
X12440221Y19719508D01*
X12445521Y19717231D01*
X12451151Y19715957D01*
X12552366Y19693054D01*
X12647990Y19671416D01*
X12653759Y19671189D01*
X12653762Y19671189D01*
X12732504Y19668096D01*
X12855418Y19663267D01*
X12942283Y19675862D01*
X13055143Y19692225D01*
X13055148Y19692226D01*
X13060857Y19693054D01*
X13257428Y19759781D01*
X13438548Y19861213D01*
X13598150Y19993952D01*
X13730889Y20153554D01*
X13832321Y20334674D01*
X13887325Y20496709D01*
X13897192Y20525777D01*
X13897192Y20525778D01*
X13899048Y20531245D01*
X13899876Y20536954D01*
X13899877Y20536959D01*
X13928028Y20731120D01*
X13928835Y20736684D01*
X13930390Y20796051D01*
X13911395Y21002768D01*
X13855048Y21202562D01*
X13844168Y21224626D01*
X13765788Y21383562D01*
X13763234Y21388741D01*
X13639029Y21555072D01*
X13554903Y21632838D01*
X13490838Y21692059D01*
X13486593Y21695983D01*
X13311030Y21806754D01*
X13305670Y21808892D01*
X13305663Y21808896D01*
X13279859Y21819191D01*
X13224001Y21863012D01*
X13200551Y21936220D01*
X13200551Y22176310D01*
X13220553Y22244431D01*
X13237455Y22265405D01*
X14080644Y23108595D01*
X14142957Y23142620D01*
X14169740Y23145500D01*
X15619500Y23145500D01*
X15687621Y23125498D01*
X15734114Y23071842D01*
X15745500Y23019500D01*
X15745501Y22574934D01*
X15748321Y22560756D01*
X15757718Y22513511D01*
X15760266Y22500699D01*
X15767161Y22490380D01*
X15767162Y22490378D01*
X15796815Y22446000D01*
X15816516Y22416516D01*
X15900699Y22360266D01*
X15948894Y22350679D01*
X15968864Y22346707D01*
X15968866Y22346707D01*
X15974933Y22345500D01*
X15981120Y22345500D01*
X15981851Y22345428D01*
X16047683Y22318845D01*
X16088692Y22260891D01*
X16095500Y22220035D01*
X16095500Y18547926D01*
X16075715Y18481773D01*
X16073999Y18479830D01*
X16012583Y18349018D01*
X16011203Y18340154D01*
X16011202Y18340151D01*
X15991995Y18216791D01*
X15990350Y18206227D01*
X15991514Y18197325D01*
X15991514Y18197322D01*
X16004247Y18099957D01*
X16009088Y18062935D01*
X16067289Y17930661D01*
X16073069Y17923785D01*
X16076470Y17918321D01*
X16095500Y17851736D01*
X16095500Y17779964D01*
X16075498Y17711843D01*
X16021842Y17665350D01*
X15981853Y17654571D01*
X15981122Y17654499D01*
X15974934Y17654499D01*
X15957977Y17651126D01*
X15912874Y17642156D01*
X15912872Y17642155D01*
X15900699Y17639734D01*
X15890379Y17632839D01*
X15890378Y17632838D01*
X15856888Y17610460D01*
X15816516Y17583484D01*
X15760266Y17499301D01*
X15745500Y17425067D01*
X15745501Y16874934D01*
X15754226Y16831066D01*
X15755516Y16824581D01*
X15755516Y16775421D01*
X15745500Y16725067D01*
X15745501Y16174934D01*
X15751070Y16146934D01*
X15755566Y16124331D01*
X15760266Y16100699D01*
X15767161Y16090379D01*
X15767162Y16090378D01*
X15796815Y16046000D01*
X15816516Y16016516D01*
X15900699Y15960266D01*
X15929228Y15954591D01*
X15931803Y15954079D01*
X15994713Y15921171D01*
X16029845Y15859476D01*
X16026045Y15788582D01*
X15984519Y15730996D01*
X15918452Y15705001D01*
X15907222Y15704500D01*
X14919739Y15704500D01*
X14851618Y15724502D01*
X14830644Y15741405D01*
X13887003Y16685046D01*
X13852977Y16747358D01*
X13856785Y16814640D01*
X13892563Y16920040D01*
X13897193Y16933678D01*
X13897193Y16933679D01*
X13899048Y16939143D01*
X13899876Y16944852D01*
X13899877Y16944857D01*
X13928302Y17140908D01*
X13928835Y17144582D01*
X13930390Y17203949D01*
X13911395Y17410666D01*
X13909079Y17418880D01*
X13879885Y17522392D01*
X13855048Y17610460D01*
X13848645Y17623445D01*
X13765788Y17791460D01*
X13763234Y17796639D01*
X13639029Y17962970D01*
X13486593Y18103881D01*
X13311030Y18214652D01*
X13286645Y18224381D01*
X13251852Y18238262D01*
X13118221Y18291576D01*
X13112553Y18292703D01*
X13112551Y18292704D01*
X12920289Y18330947D01*
X12920287Y18330947D01*
X12914622Y18332074D01*
X12908847Y18332150D01*
X12908843Y18332150D01*
X12805108Y18333507D01*
X12707052Y18334791D01*
X12701355Y18333812D01*
X12701354Y18333812D01*
X12508152Y18300614D01*
X12508149Y18300613D01*
X12502462Y18299636D01*
X12307705Y18227787D01*
X12129303Y18121649D01*
X12109043Y18103881D01*
X11977576Y17988587D01*
X11977573Y17988584D01*
X11973231Y17984776D01*
X11844714Y17821754D01*
X11842025Y17816643D01*
X11842023Y17816640D01*
X11815991Y17767161D01*
X11748058Y17638042D01*
X11686500Y17439791D01*
X11662101Y17233643D01*
X11675678Y17026499D01*
X11726776Y16825299D01*
X11813685Y16636780D01*
X11933493Y16467255D01*
X12082188Y16322402D01*
X12086984Y16319197D01*
X12086987Y16319195D01*
X12190519Y16250017D01*
X12254791Y16207072D01*
X12260094Y16204794D01*
X12260099Y16204791D01*
X12440218Y16127407D01*
X12440221Y16127406D01*
X12445521Y16125129D01*
X12451151Y16123855D01*
X12640155Y16081087D01*
X12647990Y16079314D01*
X12653759Y16079087D01*
X12653762Y16079087D01*
X12732504Y16075994D01*
X12855418Y16071165D01*
X12942283Y16083760D01*
X13055143Y16100123D01*
X13055148Y16100124D01*
X13060857Y16100952D01*
X13067763Y16103296D01*
X13096340Y16112997D01*
X13185360Y16143215D01*
X13256292Y16146171D01*
X13314954Y16112997D01*
X14459277Y14968674D01*
X14479164Y14958541D01*
X14496022Y14948209D01*
X14514071Y14935096D01*
X14523506Y14932031D01*
X14523507Y14932030D01*
X14535296Y14928199D01*
X14553560Y14920634D01*
X14573445Y14910502D01*
X14594969Y14907093D01*
X14595493Y14907010D01*
X14614718Y14902394D01*
X14624133Y14899335D01*
X14635934Y14895501D01*
X14668162Y14895501D01*
X14668166Y14895500D01*
X18180260Y14895500D01*
X18248381Y14875498D01*
X18269355Y14858595D01*
X19158595Y13969355D01*
X19192621Y13907043D01*
X19195500Y13880260D01*
X19195501Y13380646D01*
X19195501Y12874934D01*
X19202612Y12839182D01*
X19207806Y12813069D01*
X19210266Y12800699D01*
X19217161Y12790379D01*
X19217162Y12790378D01*
X19250723Y12740151D01*
X19266516Y12716516D01*
X19350699Y12660266D01*
X19424933Y12645500D01*
X19470351Y12645500D01*
X19869500Y12645501D01*
X19937621Y12625499D01*
X19984114Y12571844D01*
X19995500Y12519501D01*
X19995500Y11119740D01*
X19975498Y11051619D01*
X19958595Y11030645D01*
X19569595Y10641645D01*
X19507283Y10607619D01*
X19436468Y10612684D01*
X19379632Y10655231D01*
X19354821Y10721751D01*
X19354500Y10730740D01*
X19354499Y11518877D01*
X19354499Y11525066D01*
X19345998Y11567806D01*
X19342156Y11587126D01*
X19342155Y11587128D01*
X19339734Y11599301D01*
X19283484Y11683484D01*
X19199301Y11739734D01*
X19125067Y11754500D01*
X18800053Y11754500D01*
X18474934Y11754499D01*
X18439182Y11747388D01*
X18412874Y11742156D01*
X18412872Y11742155D01*
X18400699Y11739734D01*
X18390379Y11732839D01*
X18390378Y11732838D01*
X18335452Y11696137D01*
X18316516Y11683484D01*
X18260266Y11599301D01*
X18254001Y11567806D01*
X18248948Y11542399D01*
X18245500Y11525067D01*
X18245500Y11518880D01*
X18245428Y11518149D01*
X18218845Y11452317D01*
X18160891Y11411308D01*
X18120035Y11404500D01*
X18119740Y11404500D01*
X18051619Y11424502D01*
X18030645Y11441405D01*
X17338515Y12133535D01*
X17338511Y12133538D01*
X17315723Y12156326D01*
X17295844Y12166455D01*
X17278989Y12176784D01*
X17268953Y12184075D01*
X17260929Y12189905D01*
X17239704Y12196801D01*
X17221438Y12204367D01*
X17201555Y12214498D01*
X17179513Y12217989D01*
X17160287Y12222605D01*
X17148500Y12226435D01*
X17148498Y12226435D01*
X17139066Y12229500D01*
X17016972Y12229500D01*
X16948851Y12249502D01*
X16912208Y12285497D01*
X16890378Y12318167D01*
X16890377Y12318168D01*
X16883484Y12328484D01*
X16799301Y12384734D01*
X16725067Y12399500D01*
X16200085Y12399500D01*
X15674934Y12399499D01*
X15639182Y12392388D01*
X15612874Y12387156D01*
X15612872Y12387155D01*
X15600699Y12384734D01*
X15590379Y12377839D01*
X15590378Y12377838D01*
X15532785Y12339355D01*
X15516516Y12328484D01*
X15509623Y12318168D01*
X15474856Y12266136D01*
X15420379Y12220608D01*
X15409025Y12216304D01*
X15408242Y12216050D01*
X15398445Y12214498D01*
X15385390Y12207846D01*
X15378557Y12204365D01*
X15360295Y12196801D01*
X15348503Y12192969D01*
X15348501Y12192968D01*
X15339071Y12189904D01*
X15321320Y12177007D01*
X15321017Y12176787D01*
X15304160Y12166457D01*
X15284277Y12156326D01*
X15261489Y12133538D01*
X15261485Y12133535D01*
X15021844Y11893894D01*
X14967373Y11861840D01*
X14865510Y11832728D01*
X14865508Y11832727D01*
X14856879Y11830261D01*
X14849288Y11825472D01*
X14849287Y11825471D01*
X14791385Y11788938D01*
X14724150Y11769500D01*
X14678608Y11769500D01*
X14610487Y11789502D01*
X14573845Y11825495D01*
X14558484Y11848484D01*
X14488517Y11895235D01*
X14442989Y11949712D01*
X14434142Y12020156D01*
X14464783Y12084199D01*
X14488517Y12104765D01*
X14548168Y12144623D01*
X14558484Y12151516D01*
X14614734Y12235699D01*
X14629500Y12309933D01*
X14629499Y12960066D01*
X14622006Y12997738D01*
X14617156Y13022126D01*
X14617155Y13022128D01*
X14614734Y13034301D01*
X14607392Y13045290D01*
X14565377Y13108168D01*
X14558484Y13118484D01*
X14488516Y13165236D01*
X14442989Y13219712D01*
X14434142Y13290156D01*
X14464783Y13354199D01*
X14488517Y13374765D01*
X14497319Y13380646D01*
X14558484Y13421516D01*
X14573844Y13444504D01*
X14628321Y13490030D01*
X14678608Y13500500D01*
X15319500Y13500500D01*
X15387621Y13480498D01*
X15434114Y13426842D01*
X15445500Y13374500D01*
X15445501Y13189500D01*
X15445501Y13029934D01*
X15460266Y12955699D01*
X15467161Y12945380D01*
X15467162Y12945378D01*
X15495879Y12902401D01*
X15516516Y12871516D01*
X15600699Y12815266D01*
X15674933Y12800500D01*
X16199915Y12800500D01*
X16725066Y12800501D01*
X16760818Y12807612D01*
X16787126Y12812844D01*
X16787128Y12812845D01*
X16799301Y12815266D01*
X16809621Y12822161D01*
X16809622Y12822162D01*
X16873168Y12864623D01*
X16883484Y12871516D01*
X16889936Y12881172D01*
X17296001Y12881172D01*
X17297209Y12868912D01*
X17308315Y12813069D01*
X17317633Y12790573D01*
X17359983Y12727192D01*
X17377192Y12709983D01*
X17440575Y12667632D01*
X17463066Y12658316D01*
X17518915Y12647207D01*
X17531170Y12646000D01*
X17704885Y12646000D01*
X17720124Y12650475D01*
X17721329Y12651865D01*
X17723000Y12659548D01*
X17723000Y12664116D01*
X17977000Y12664116D01*
X17981475Y12648877D01*
X17982865Y12647672D01*
X17990548Y12646001D01*
X18168828Y12646001D01*
X18181088Y12647209D01*
X18236931Y12658315D01*
X18259427Y12667633D01*
X18322808Y12709983D01*
X18340017Y12727192D01*
X18382368Y12790575D01*
X18391684Y12813066D01*
X18402793Y12868915D01*
X18404000Y12881170D01*
X18404000Y13254885D01*
X18399525Y13270124D01*
X18398135Y13271329D01*
X18390452Y13273000D01*
X17995115Y13273000D01*
X17979876Y13268525D01*
X17978671Y13267135D01*
X17977000Y13259452D01*
X17977000Y12664116D01*
X17723000Y12664116D01*
X17723000Y13254885D01*
X17718525Y13270124D01*
X17717135Y13271329D01*
X17709452Y13273000D01*
X17314116Y13273000D01*
X17298877Y13268525D01*
X17297672Y13267135D01*
X17296001Y13259452D01*
X17296001Y12881172D01*
X16889936Y12881172D01*
X16939734Y12955699D01*
X16954500Y13029933D01*
X16954499Y13545115D01*
X17296000Y13545115D01*
X17300475Y13529876D01*
X17301865Y13528671D01*
X17309548Y13527000D01*
X17704885Y13527000D01*
X17720124Y13531475D01*
X17721329Y13532865D01*
X17723000Y13540548D01*
X17723000Y13545115D01*
X17977000Y13545115D01*
X17981475Y13529876D01*
X17982865Y13528671D01*
X17990548Y13527000D01*
X18385884Y13527000D01*
X18401123Y13531475D01*
X18402328Y13532865D01*
X18403999Y13540548D01*
X18403999Y13918828D01*
X18402791Y13931088D01*
X18391685Y13986931D01*
X18382367Y14009427D01*
X18340017Y14072808D01*
X18322808Y14090017D01*
X18259425Y14132368D01*
X18236934Y14141684D01*
X18181085Y14152793D01*
X18168830Y14154000D01*
X17995115Y14154000D01*
X17979876Y14149525D01*
X17978671Y14148135D01*
X17977000Y14140452D01*
X17977000Y13545115D01*
X17723000Y13545115D01*
X17723000Y14135884D01*
X17718525Y14151123D01*
X17717135Y14152328D01*
X17709452Y14153999D01*
X17531172Y14153999D01*
X17518912Y14152791D01*
X17463069Y14141685D01*
X17440573Y14132367D01*
X17377192Y14090017D01*
X17359983Y14072808D01*
X17317632Y14009425D01*
X17308316Y13986934D01*
X17297207Y13931085D01*
X17296000Y13918830D01*
X17296000Y13545115D01*
X16954499Y13545115D01*
X16954499Y13720066D01*
X16945938Y13763109D01*
X16942156Y13782126D01*
X16942155Y13782128D01*
X16939734Y13794301D01*
X16908732Y13840699D01*
X16890377Y13868168D01*
X16883484Y13878484D01*
X16799301Y13934734D01*
X16725067Y13949500D01*
X16669159Y13949500D01*
X16249741Y13949499D01*
X16181620Y13969501D01*
X16160646Y13986404D01*
X15933516Y14213534D01*
X15933507Y14213542D01*
X15910723Y14236326D01*
X15890844Y14246455D01*
X15873989Y14256784D01*
X15863953Y14264075D01*
X15855929Y14269905D01*
X15834704Y14276801D01*
X15816438Y14284367D01*
X15796555Y14294498D01*
X15774513Y14297989D01*
X15755287Y14302605D01*
X15743500Y14306435D01*
X15743498Y14306435D01*
X15734066Y14309500D01*
X14678608Y14309500D01*
X14610487Y14329502D01*
X14573845Y14365495D01*
X14558484Y14388484D01*
X14474301Y14444734D01*
X14400067Y14459500D01*
X13600130Y14459500D01*
X12799934Y14459499D01*
X12764182Y14452388D01*
X12737874Y14447156D01*
X12737872Y14447155D01*
X12725699Y14444734D01*
X12715379Y14437839D01*
X12715378Y14437838D01*
X12654985Y14397484D01*
X12641516Y14388484D01*
X12626156Y14365496D01*
X12571679Y14319970D01*
X12521392Y14309500D01*
X11673166Y14309500D01*
X11673162Y14309499D01*
X11640934Y14309499D01*
X11631497Y14306433D01*
X11631498Y14306433D01*
X11619718Y14302606D01*
X11600493Y14297990D01*
X11578445Y14294498D01*
X11558560Y14284366D01*
X11540296Y14276801D01*
X11528507Y14272970D01*
X11528506Y14272969D01*
X11519071Y14269904D01*
X11511047Y14264074D01*
X11511045Y14264073D01*
X11501023Y14256791D01*
X11484164Y14246459D01*
X11464277Y14236326D01*
X11441485Y14213534D01*
X9961465Y12733515D01*
X9961462Y12733511D01*
X9938674Y12710723D01*
X9930889Y12695445D01*
X9928546Y12690846D01*
X9918216Y12673989D01*
X9905095Y12655929D01*
X9902030Y12646496D01*
X9898199Y12634705D01*
X9890634Y12616439D01*
X9880502Y12596555D01*
X9878951Y12586762D01*
X9877011Y12574513D01*
X9872395Y12555287D01*
X9865500Y12534066D01*
X9865500Y10625500D01*
X9845498Y10557379D01*
X9791842Y10510886D01*
X9739500Y10499500D01*
X9478608Y10499500D01*
X9410487Y10519502D01*
X9373845Y10555495D01*
X9358484Y10578484D01*
X9288517Y10625235D01*
X9242989Y10679712D01*
X9234142Y10750156D01*
X9264783Y10814199D01*
X9288517Y10834765D01*
X9348168Y10874623D01*
X9358484Y10881516D01*
X9414734Y10965699D01*
X9429500Y11039933D01*
X9429499Y11690066D01*
X9420992Y11732839D01*
X9417156Y11752126D01*
X9417155Y11752128D01*
X9414734Y11764301D01*
X9405859Y11777584D01*
X9365377Y11838168D01*
X9358484Y11848484D01*
X9288517Y11895235D01*
X9242989Y11949712D01*
X9234142Y12020156D01*
X9264783Y12084199D01*
X9288517Y12104765D01*
X9348168Y12144623D01*
X9358484Y12151516D01*
X9414734Y12235699D01*
X9429500Y12309933D01*
X9429499Y12960066D01*
X9422006Y12997738D01*
X9417156Y13022126D01*
X9417155Y13022128D01*
X9414734Y13034301D01*
X9407392Y13045290D01*
X9365377Y13108168D01*
X9358484Y13118484D01*
X9288516Y13165236D01*
X9242989Y13219712D01*
X9234142Y13290156D01*
X9264783Y13354199D01*
X9288517Y13374765D01*
X9297319Y13380646D01*
X9358484Y13421516D01*
X9414734Y13505699D01*
X9429500Y13579933D01*
X9429499Y14230066D01*
X9418699Y14284367D01*
X9417156Y14292126D01*
X9417155Y14292128D01*
X9414734Y14304301D01*
X9404265Y14319970D01*
X9365377Y14378168D01*
X9358484Y14388484D01*
X9274301Y14444734D01*
X9200067Y14459500D01*
X9042415Y14459500D01*
X7764741Y14459499D01*
X7696620Y14479501D01*
X7675646Y14496404D01*
X7593515Y14578535D01*
X7593511Y14578538D01*
X7570723Y14601326D01*
X7550844Y14611455D01*
X7533989Y14621784D01*
X7523953Y14629075D01*
X7515929Y14634905D01*
X7494704Y14641801D01*
X7476438Y14649367D01*
X7456555Y14659498D01*
X7434513Y14662989D01*
X7415287Y14667605D01*
X7403500Y14671435D01*
X7403498Y14671435D01*
X7394066Y14674500D01*
X7223654Y14674500D01*
X7155533Y14694502D01*
X7118890Y14730497D01*
X7090378Y14773167D01*
X7090377Y14773168D01*
X7083484Y14783484D01*
X6999301Y14839734D01*
X6925067Y14854500D01*
X6400085Y14854500D01*
X5874934Y14854499D01*
X5839182Y14847388D01*
X5812874Y14842156D01*
X5812872Y14842155D01*
X5800699Y14839734D01*
X5790379Y14832839D01*
X5790378Y14832838D01*
X5729985Y14792484D01*
X5716516Y14783484D01*
X5660266Y14699301D01*
X5645500Y14625067D01*
X5645501Y13914934D01*
X5652612Y13879182D01*
X5654803Y13868168D01*
X5660266Y13840699D01*
X5667161Y13830379D01*
X5667162Y13830378D01*
X5692761Y13792067D01*
X5716516Y13756516D01*
X5800699Y13700266D01*
X5874933Y13685500D01*
X6399915Y13685500D01*
X6925066Y13685501D01*
X6960818Y13692612D01*
X6987126Y13697844D01*
X6987128Y13697845D01*
X6999301Y13700266D01*
X7009621Y13707161D01*
X7009622Y13707162D01*
X7073168Y13749623D01*
X7083484Y13756516D01*
X7088598Y13764170D01*
X7148968Y13797133D01*
X7219783Y13792067D01*
X7264843Y13763107D01*
X7333596Y13694354D01*
X7367622Y13632042D01*
X7370501Y13605259D01*
X7370501Y13579934D01*
X7377426Y13545115D01*
X7381063Y13526832D01*
X7385266Y13505699D01*
X7392161Y13495380D01*
X7392162Y13495378D01*
X7425490Y13445500D01*
X7441516Y13421516D01*
X7502682Y13380646D01*
X7511483Y13374765D01*
X7557011Y13320288D01*
X7565858Y13249844D01*
X7535217Y13185801D01*
X7511484Y13165236D01*
X7480836Y13144757D01*
X7413084Y13123541D01*
X7374730Y13128804D01*
X7348938Y13136518D01*
X7348936Y13136518D01*
X7340337Y13139090D01*
X7331363Y13139145D01*
X7331361Y13139145D01*
X7268082Y13139531D01*
X7195827Y13139972D01*
X7187196Y13137505D01*
X7187194Y13137505D01*
X7108793Y13115098D01*
X7037798Y13115610D01*
X7021226Y13123431D01*
X7021085Y13123090D01*
X7009619Y13127840D01*
X6999301Y13134734D01*
X6987132Y13137155D01*
X6987131Y13137155D01*
X6931135Y13148293D01*
X6925067Y13149500D01*
X6400085Y13149500D01*
X5874934Y13149499D01*
X5839182Y13142388D01*
X5812874Y13137156D01*
X5812872Y13137155D01*
X5800699Y13134734D01*
X5790379Y13127839D01*
X5790378Y13127838D01*
X5750988Y13101518D01*
X5716516Y13078484D01*
X5660266Y12994301D01*
X5645500Y12920067D01*
X5645500Y12620385D01*
X5625498Y12552264D01*
X5571842Y12505771D01*
X5501568Y12495667D01*
X5436988Y12525161D01*
X5430405Y12531290D01*
X4916405Y13045290D01*
X4882379Y13107602D01*
X4879500Y13134385D01*
X4879500Y13319501D01*
X4899502Y13387622D01*
X4953158Y13434115D01*
X5005500Y13445501D01*
X5125066Y13445501D01*
X5160818Y13452612D01*
X5187126Y13457844D01*
X5187128Y13457845D01*
X5199301Y13460266D01*
X5209621Y13467161D01*
X5209622Y13467162D01*
X5273168Y13509623D01*
X5283484Y13516516D01*
X5325859Y13579934D01*
X5332839Y13590380D01*
X5339734Y13600699D01*
X5354500Y13674933D01*
X5354499Y14925066D01*
X5339734Y14999301D01*
X5283484Y15083484D01*
X5199301Y15139734D01*
X5125067Y15154500D01*
X4500102Y15154500D01*
X3874934Y15154499D01*
X3839182Y15147388D01*
X3812874Y15142156D01*
X3812872Y15142155D01*
X3800699Y15139734D01*
X3790379Y15132839D01*
X3790378Y15132838D01*
X3729985Y15092484D01*
X3716516Y15083484D01*
X3660266Y14999301D01*
X3645500Y14925067D01*
X3645501Y13674934D01*
X3660266Y13600699D01*
X3667161Y13590380D01*
X3667162Y13590378D01*
X3700458Y13540548D01*
X3716516Y13516516D01*
X3800699Y13460266D01*
X3874933Y13445500D01*
X3994500Y13445500D01*
X4062621Y13425498D01*
X4109114Y13371842D01*
X4120500Y13319500D01*
X4120500Y12978920D01*
X4117951Y12954972D01*
X4117872Y12953307D01*
X4115680Y12943124D01*
X4116904Y12932783D01*
X4119627Y12909777D01*
X4119977Y12903846D01*
X4120072Y12903854D01*
X4120500Y12898676D01*
X4120500Y12893476D01*
X4121354Y12888347D01*
X4121354Y12888344D01*
X4123669Y12874435D01*
X4124506Y12868557D01*
X4128444Y12835287D01*
X4130530Y12817659D01*
X4134493Y12809407D01*
X4135996Y12800374D01*
X4140943Y12791205D01*
X4140944Y12791203D01*
X4160334Y12755268D01*
X4163031Y12749975D01*
X4181785Y12710918D01*
X4181788Y12710914D01*
X4185219Y12703768D01*
X4188814Y12699492D01*
X4190737Y12697569D01*
X4192509Y12695637D01*
X4192552Y12695558D01*
X4192428Y12695445D01*
X4192904Y12694905D01*
X4195990Y12689186D01*
X4203635Y12682119D01*
X4235586Y12652584D01*
X4239152Y12649154D01*
X5608595Y11279711D01*
X5642621Y11217399D01*
X5645500Y11190616D01*
X5645501Y10909937D01*
X5645501Y10679934D01*
X5650651Y10654042D01*
X5656328Y10625500D01*
X5660266Y10605699D01*
X5667161Y10595380D01*
X5667162Y10595378D01*
X5680446Y10575498D01*
X5716516Y10521516D01*
X5800699Y10465266D01*
X5874933Y10450500D01*
X6399915Y10450500D01*
X6925066Y10450501D01*
X6960818Y10457612D01*
X6987126Y10462844D01*
X6987128Y10462845D01*
X6999301Y10465266D01*
X7009621Y10472161D01*
X7009622Y10472162D01*
X7073168Y10514623D01*
X7083484Y10521516D01*
X7139734Y10605699D01*
X7154500Y10679933D01*
X7154500Y10895700D01*
X7174502Y10963821D01*
X7228158Y11010314D01*
X7298432Y11020418D01*
X7363012Y10990924D01*
X7381540Y10963209D01*
X7385266Y10965699D01*
X7441516Y10881516D01*
X7451832Y10874623D01*
X7511483Y10834765D01*
X7557011Y10780288D01*
X7565858Y10709844D01*
X7535217Y10645801D01*
X7511483Y10625235D01*
X7441516Y10578484D01*
X7385266Y10494301D01*
X7370500Y10420067D01*
X7370501Y9769934D01*
X7377612Y9734182D01*
X7382806Y9708069D01*
X7385266Y9695699D01*
X7392161Y9685379D01*
X7392162Y9685378D01*
X7402105Y9670498D01*
X7441516Y9611516D01*
X7525699Y9555266D01*
X7599933Y9540500D01*
X8399870Y9540500D01*
X9200066Y9540501D01*
X9235818Y9547612D01*
X9262126Y9552844D01*
X9262128Y9552845D01*
X9274301Y9555266D01*
X9284621Y9562161D01*
X9284622Y9562162D01*
X9348168Y9604623D01*
X9358484Y9611516D01*
X9373844Y9634504D01*
X9428321Y9680030D01*
X9478608Y9690500D01*
X9485259Y9690500D01*
X9553380Y9670498D01*
X9574354Y9653596D01*
X9828595Y9399356D01*
X9862620Y9337043D01*
X9865500Y9310260D01*
X9865500Y8823654D01*
X9845498Y8755533D01*
X9809503Y8718890D01*
X9766833Y8690378D01*
X9756516Y8683484D01*
X9700266Y8599301D01*
X9685500Y8525067D01*
X9685501Y7474934D01*
X9690747Y7448558D01*
X9697806Y7413069D01*
X9700266Y7400699D01*
X9707161Y7390380D01*
X9707162Y7390378D01*
X9718508Y7373398D01*
X9756516Y7316516D01*
X9840699Y7260266D01*
X9914933Y7245500D01*
X10269942Y7245500D01*
X10625066Y7245501D01*
X10660818Y7252612D01*
X10687126Y7257844D01*
X10687128Y7257845D01*
X10699301Y7260266D01*
X10709621Y7267161D01*
X10709622Y7267162D01*
X10773168Y7309623D01*
X10783484Y7316516D01*
X10839734Y7400699D01*
X10854500Y7474933D01*
X10854500Y7481172D01*
X11146001Y7481172D01*
X11147209Y7468912D01*
X11158315Y7413069D01*
X11167633Y7390573D01*
X11209983Y7327192D01*
X11227192Y7309983D01*
X11290575Y7267632D01*
X11313066Y7258316D01*
X11368915Y7247207D01*
X11381170Y7246000D01*
X11584885Y7246000D01*
X11600124Y7250475D01*
X11601329Y7251865D01*
X11603000Y7259548D01*
X11603000Y7264116D01*
X11857000Y7264116D01*
X11861475Y7248877D01*
X11862865Y7247672D01*
X11870548Y7246001D01*
X12078828Y7246001D01*
X12091088Y7247209D01*
X12146931Y7258315D01*
X12169427Y7267633D01*
X12232808Y7309983D01*
X12250017Y7327192D01*
X12292368Y7390575D01*
X12301684Y7413066D01*
X12312793Y7468915D01*
X12314000Y7481170D01*
X12314000Y7854885D01*
X12309525Y7870124D01*
X12308135Y7871329D01*
X12300452Y7873000D01*
X11875115Y7873000D01*
X11859876Y7868525D01*
X11858671Y7867135D01*
X11857000Y7859452D01*
X11857000Y7264116D01*
X11603000Y7264116D01*
X11603000Y7854885D01*
X11598525Y7870124D01*
X11597135Y7871329D01*
X11589452Y7873000D01*
X11164116Y7873000D01*
X11148877Y7868525D01*
X11147672Y7867135D01*
X11146001Y7859452D01*
X11146001Y7481172D01*
X10854500Y7481172D01*
X10854499Y8145115D01*
X11146000Y8145115D01*
X11150475Y8129876D01*
X11151865Y8128671D01*
X11159548Y8127000D01*
X11584885Y8127000D01*
X11600124Y8131475D01*
X11601329Y8132865D01*
X11603000Y8140548D01*
X11603000Y8145115D01*
X11857000Y8145115D01*
X11861475Y8129876D01*
X11862865Y8128671D01*
X11870548Y8127000D01*
X12295884Y8127000D01*
X12311123Y8131475D01*
X12312328Y8132865D01*
X12313999Y8140548D01*
X12313999Y8518828D01*
X12312791Y8531088D01*
X12301685Y8586931D01*
X12292367Y8609427D01*
X12250017Y8672808D01*
X12232808Y8690017D01*
X12169425Y8732368D01*
X12146934Y8741684D01*
X12091085Y8752793D01*
X12078830Y8754000D01*
X11875115Y8754000D01*
X11859876Y8749525D01*
X11858671Y8748135D01*
X11857000Y8740452D01*
X11857000Y8145115D01*
X11603000Y8145115D01*
X11603000Y8735884D01*
X11598525Y8751123D01*
X11597135Y8752328D01*
X11589452Y8753999D01*
X11381172Y8753999D01*
X11368912Y8752791D01*
X11313069Y8741685D01*
X11290573Y8732367D01*
X11227192Y8690017D01*
X11209983Y8672808D01*
X11167632Y8609425D01*
X11158316Y8586934D01*
X11147207Y8531085D01*
X11146000Y8518830D01*
X11146000Y8145115D01*
X10854499Y8145115D01*
X10854499Y8525066D01*
X10847198Y8561773D01*
X10842156Y8587126D01*
X10842155Y8587128D01*
X10839734Y8599301D01*
X10827748Y8617240D01*
X10790377Y8673168D01*
X10783484Y8683484D01*
X10773167Y8690378D01*
X10730497Y8718890D01*
X10684970Y8773367D01*
X10674500Y8823654D01*
X10674500Y9776172D01*
X12571001Y9776172D01*
X12572209Y9763912D01*
X12583315Y9708069D01*
X12592633Y9685573D01*
X12634983Y9622192D01*
X12652192Y9604983D01*
X12715575Y9562632D01*
X12738066Y9553316D01*
X12793915Y9542207D01*
X12806170Y9541000D01*
X13454885Y9541000D01*
X13470124Y9545475D01*
X13471329Y9546865D01*
X13473000Y9554548D01*
X13473000Y9559116D01*
X13727000Y9559116D01*
X13731475Y9543877D01*
X13732865Y9542672D01*
X13740548Y9541001D01*
X14393828Y9541001D01*
X14406088Y9542209D01*
X14461931Y9553315D01*
X14484427Y9562633D01*
X14547808Y9604983D01*
X14565017Y9622192D01*
X14607368Y9685575D01*
X14616684Y9708066D01*
X14627793Y9763915D01*
X14629000Y9776170D01*
X14629000Y9949885D01*
X14624525Y9965124D01*
X14623135Y9966329D01*
X14615452Y9968000D01*
X13745115Y9968000D01*
X13729876Y9963525D01*
X13728671Y9962135D01*
X13727000Y9954452D01*
X13727000Y9559116D01*
X13473000Y9559116D01*
X13473000Y9949885D01*
X13468525Y9965124D01*
X13467135Y9966329D01*
X13459452Y9968000D01*
X12589116Y9968000D01*
X12573877Y9963525D01*
X12572672Y9962135D01*
X12571001Y9954452D01*
X12571001Y9776172D01*
X10674500Y9776172D01*
X10674500Y12250260D01*
X10694502Y12318381D01*
X10711405Y12339355D01*
X11835644Y13463595D01*
X11897956Y13497620D01*
X11924739Y13500500D01*
X12521392Y13500500D01*
X12589513Y13480498D01*
X12626155Y13444505D01*
X12641516Y13421516D01*
X12702682Y13380646D01*
X12711483Y13374765D01*
X12757011Y13320288D01*
X12765858Y13249844D01*
X12735217Y13185801D01*
X12711484Y13165236D01*
X12641516Y13118484D01*
X12626156Y13095496D01*
X12571679Y13049970D01*
X12521392Y13039500D01*
X12486819Y13039500D01*
X12430455Y13056170D01*
X12429469Y13054036D01*
X12421324Y13057800D01*
X12413790Y13062683D01*
X12304070Y13095497D01*
X12283938Y13101518D01*
X12283936Y13101518D01*
X12275337Y13104090D01*
X12266363Y13104145D01*
X12266361Y13104145D01*
X12203082Y13104531D01*
X12130827Y13104972D01*
X12122196Y13102505D01*
X12122194Y13102505D01*
X12000509Y13067728D01*
X12000505Y13067726D01*
X11991879Y13065261D01*
X11984292Y13060474D01*
X11984290Y13060473D01*
X11909860Y13013511D01*
X11869661Y12988147D01*
X11863718Y12981418D01*
X11863717Y12981417D01*
X11831889Y12945378D01*
X11773999Y12879830D01*
X11770185Y12871707D01*
X11770184Y12871705D01*
X11745104Y12818285D01*
X11712583Y12749018D01*
X11711203Y12740154D01*
X11711202Y12740151D01*
X11691940Y12616438D01*
X11690350Y12606227D01*
X11691514Y12597325D01*
X11691514Y12597322D01*
X11699786Y12534066D01*
X11709088Y12462935D01*
X11767289Y12330661D01*
X11773063Y12323792D01*
X11835511Y12249502D01*
X11860276Y12220040D01*
X11867747Y12215067D01*
X11867748Y12215066D01*
X11973101Y12144937D01*
X11973103Y12144936D01*
X11980574Y12139963D01*
X11989138Y12137287D01*
X11989141Y12137286D01*
X12049542Y12118415D01*
X12118510Y12096868D01*
X12262998Y12094220D01*
X12301677Y12104765D01*
X12393763Y12129870D01*
X12393765Y12129871D01*
X12402422Y12132231D01*
X12479905Y12179806D01*
X12548422Y12198404D01*
X12616118Y12177007D01*
X12634703Y12161712D01*
X12641516Y12151516D01*
X12651832Y12144623D01*
X12711483Y12104765D01*
X12757011Y12050288D01*
X12765858Y11979844D01*
X12735217Y11915801D01*
X12711483Y11895235D01*
X12641516Y11848484D01*
X12585266Y11764301D01*
X12570500Y11690067D01*
X12570501Y11039934D01*
X12585266Y10965699D01*
X12592161Y10955380D01*
X12592162Y10955378D01*
X12602847Y10939387D01*
X12641516Y10881516D01*
X12711935Y10834463D01*
X12757461Y10779986D01*
X12766308Y10709543D01*
X12735667Y10645499D01*
X12711932Y10624933D01*
X12652191Y10585016D01*
X12634983Y10567808D01*
X12592632Y10504425D01*
X12583316Y10481934D01*
X12572207Y10426085D01*
X12571000Y10413830D01*
X12571000Y10240115D01*
X12575475Y10224876D01*
X12576865Y10223671D01*
X12584548Y10222000D01*
X14610884Y10222000D01*
X14626123Y10226475D01*
X14627328Y10227865D01*
X14628999Y10235548D01*
X14628999Y10413828D01*
X14627791Y10426088D01*
X14616685Y10481931D01*
X14607367Y10504427D01*
X14565017Y10567808D01*
X14547809Y10585016D01*
X14488068Y10624933D01*
X14442540Y10679410D01*
X14433691Y10749853D01*
X14464332Y10813897D01*
X14488064Y10834462D01*
X14558484Y10881516D01*
X14573844Y10904504D01*
X14628321Y10950030D01*
X14678608Y10960500D01*
X14724041Y10960500D01*
X14793860Y10939387D01*
X14838101Y10909937D01*
X14838103Y10909936D01*
X14845574Y10904963D01*
X14854138Y10902287D01*
X14854141Y10902286D01*
X14887609Y10891830D01*
X14983510Y10861868D01*
X15127998Y10859220D01*
X15147530Y10864545D01*
X15258763Y10894870D01*
X15258765Y10894871D01*
X15267422Y10897231D01*
X15390572Y10972846D01*
X15487551Y11079986D01*
X15536913Y11181870D01*
X15584613Y11234452D01*
X15653172Y11252898D01*
X15662653Y11251812D01*
X15662702Y11252314D01*
X15668865Y11251707D01*
X15674933Y11250500D01*
X16199915Y11250500D01*
X16725066Y11250501D01*
X16760818Y11257612D01*
X16787126Y11262844D01*
X16787128Y11262845D01*
X16799301Y11265266D01*
X16809621Y11272161D01*
X16809622Y11272162D01*
X16871209Y11313314D01*
X16938961Y11334529D01*
X17007428Y11315746D01*
X17030306Y11297644D01*
X17636485Y10691465D01*
X17636489Y10691462D01*
X17659277Y10668674D01*
X17677200Y10659542D01*
X17679160Y10658543D01*
X17696017Y10648213D01*
X17714071Y10635096D01*
X17723501Y10632032D01*
X17723503Y10632031D01*
X17735295Y10628199D01*
X17753557Y10620635D01*
X17764606Y10615005D01*
X17764610Y10615004D01*
X17773445Y10610502D01*
X17783243Y10608950D01*
X17783244Y10608950D01*
X17789363Y10607981D01*
X17795483Y10607012D01*
X17814714Y10602395D01*
X17835934Y10595500D01*
X18120036Y10595500D01*
X18188157Y10575498D01*
X18234650Y10521842D01*
X18245429Y10481853D01*
X18245501Y10481122D01*
X18245501Y10474934D01*
X18246709Y10468861D01*
X18257655Y10413828D01*
X18260266Y10400699D01*
X18316516Y10316516D01*
X18400699Y10260266D01*
X18474933Y10245500D01*
X18490286Y10245500D01*
X18869262Y10245501D01*
X18937381Y10225499D01*
X18983874Y10171844D01*
X18993979Y10101570D01*
X18964486Y10036989D01*
X18958356Y10030406D01*
X11961465Y3033515D01*
X11961462Y3033511D01*
X11938674Y3010723D01*
X11934171Y3001885D01*
X11928546Y2990846D01*
X11918216Y2973989D01*
X11905095Y2955929D01*
X11902030Y2946496D01*
X11898199Y2934705D01*
X11890634Y2916439D01*
X11880502Y2896555D01*
X11878951Y2886762D01*
X11877011Y2874513D01*
X11872395Y2855287D01*
X11865500Y2834066D01*
X11865500Y2314927D01*
X11845498Y2246806D01*
X11794616Y2201970D01*
X11792463Y2201176D01*
X11618010Y2097388D01*
X11613670Y2093582D01*
X11613666Y2093579D01*
X11526790Y2017390D01*
X11465392Y1963545D01*
X11339720Y1804131D01*
X11337031Y1799020D01*
X11337029Y1799017D01*
X11302553Y1733488D01*
X11245203Y1624485D01*
X11185007Y1430622D01*
X11161148Y1229036D01*
X11167007Y1139636D01*
X11173707Y1037425D01*
X11174424Y1026478D01*
X11175845Y1020882D01*
X11175846Y1020877D01*
X11218111Y854462D01*
X11224392Y829731D01*
X11226809Y824488D01*
X11263193Y745564D01*
X11309377Y645384D01*
X11332185Y613111D01*
X11393130Y526876D01*
X11426533Y479611D01*
X11436141Y470252D01*
X11470977Y408391D01*
X11466838Y337515D01*
X11425039Y280128D01*
X11358849Y254449D01*
X11348217Y254000D01*
X10648575Y254000D01*
X10580454Y274002D01*
X10533961Y327658D01*
X10523857Y397932D01*
X10551701Y460569D01*
X10640449Y567276D01*
X10640456Y567286D01*
X10644147Y571724D01*
X10743334Y748835D01*
X10745190Y754302D01*
X10745192Y754307D01*
X10806728Y935586D01*
X10806729Y935591D01*
X10808584Y941055D01*
X10809412Y946764D01*
X10809413Y946769D01*
X10831156Y1096733D01*
X10837712Y1141947D01*
X10839232Y1200000D01*
X10825720Y1347050D01*
X10821187Y1396387D01*
X10821186Y1396390D01*
X10820658Y1402141D01*
X10814273Y1424779D01*
X10767125Y1591954D01*
X10767124Y1591956D01*
X10765557Y1597513D01*
X10762073Y1604579D01*
X10678331Y1774391D01*
X10675776Y1779572D01*
X10554320Y1942221D01*
X10421499Y2065000D01*
X10409503Y2076089D01*
X10405258Y2080013D01*
X10400375Y2083094D01*
X10400371Y2083097D01*
X10241610Y2183267D01*
X10233581Y2188333D01*
X10045039Y2263554D01*
X10039379Y2264680D01*
X10039375Y2264681D01*
X9851613Y2302029D01*
X9851610Y2302029D01*
X9845946Y2303156D01*
X9840171Y2303232D01*
X9840167Y2303232D01*
X9738793Y2304559D01*
X9642971Y2305813D01*
X9637274Y2304834D01*
X9637273Y2304834D01*
X9448607Y2272415D01*
X9442910Y2271436D01*
X9252463Y2201176D01*
X9078010Y2097388D01*
X9073670Y2093582D01*
X9073666Y2093579D01*
X8986790Y2017390D01*
X8925392Y1963545D01*
X8799720Y1804131D01*
X8797031Y1799020D01*
X8797029Y1799017D01*
X8762553Y1733488D01*
X8705203Y1624485D01*
X8645007Y1430622D01*
X8621148Y1229036D01*
X8627007Y1139636D01*
X8633707Y1037425D01*
X8634424Y1026478D01*
X8635845Y1020882D01*
X8635846Y1020877D01*
X8678111Y854462D01*
X8684392Y829731D01*
X8686809Y824488D01*
X8723193Y745564D01*
X8769377Y645384D01*
X8792185Y613111D01*
X8853130Y526876D01*
X8886533Y479611D01*
X8896141Y470252D01*
X8930977Y408391D01*
X8926838Y337515D01*
X8885039Y280128D01*
X8818849Y254449D01*
X8808217Y254000D01*
X8108575Y254000D01*
X8040454Y274002D01*
X7993961Y327658D01*
X7983857Y397932D01*
X8011701Y460569D01*
X8100449Y567276D01*
X8100456Y567286D01*
X8104147Y571724D01*
X8203334Y748835D01*
X8205190Y754302D01*
X8205192Y754307D01*
X8266728Y935586D01*
X8266729Y935591D01*
X8268584Y941055D01*
X8269412Y946764D01*
X8269413Y946769D01*
X8291156Y1096733D01*
X8297712Y1141947D01*
X8299232Y1200000D01*
X8285720Y1347050D01*
X8281187Y1396387D01*
X8281186Y1396390D01*
X8280658Y1402141D01*
X8274273Y1424779D01*
X8227125Y1591954D01*
X8227124Y1591956D01*
X8225557Y1597513D01*
X8222073Y1604579D01*
X8138331Y1774391D01*
X8135776Y1779572D01*
X8014320Y1942221D01*
X7881499Y2065000D01*
X7869503Y2076089D01*
X7865258Y2080013D01*
X7860375Y2083094D01*
X7860371Y2083097D01*
X7701610Y2183267D01*
X7693581Y2188333D01*
X7505039Y2263554D01*
X7499379Y2264680D01*
X7499375Y2264681D01*
X7311613Y2302029D01*
X7311610Y2302029D01*
X7305946Y2303156D01*
X7300171Y2303232D01*
X7300167Y2303232D01*
X7198793Y2304559D01*
X7102971Y2305813D01*
X7097274Y2304834D01*
X7097273Y2304834D01*
X6908607Y2272415D01*
X6902910Y2271436D01*
X6712463Y2201176D01*
X6538010Y2097388D01*
X6533670Y2093582D01*
X6533666Y2093579D01*
X6446790Y2017390D01*
X6385392Y1963545D01*
X6259720Y1804131D01*
X6257031Y1799020D01*
X6257029Y1799017D01*
X6222553Y1733488D01*
X6165203Y1624485D01*
X6105007Y1430622D01*
X6081148Y1229036D01*
X6087007Y1139636D01*
X6093707Y1037425D01*
X6094424Y1026478D01*
X6095845Y1020882D01*
X6095846Y1020877D01*
X6138111Y854462D01*
X6144392Y829731D01*
X6146809Y824488D01*
X6183193Y745564D01*
X6229377Y645384D01*
X6252185Y613111D01*
X6313130Y526876D01*
X6346533Y479611D01*
X6356141Y470252D01*
X6390977Y408391D01*
X6386838Y337515D01*
X6345039Y280128D01*
X6278849Y254449D01*
X6268217Y254000D01*
X3795904Y254000D01*
X3727783Y274002D01*
X3681290Y327658D01*
X3672035Y356927D01*
X3669646Y369752D01*
X3667518Y392813D01*
X3667518Y422662D01*
X3669648Y445731D01*
X3670202Y448708D01*
X3672475Y460911D01*
X3662485Y508110D01*
X3662182Y509587D01*
X3655202Y544679D01*
X3652781Y556850D01*
X3648452Y563328D01*
X3647308Y569473D01*
X3631981Y593030D01*
X3631626Y593622D01*
X3630453Y596359D01*
X3618961Y613111D01*
X3617252Y615669D01*
X3598033Y645208D01*
X3598029Y645211D01*
X3592200Y654171D01*
X3589543Y655994D01*
X3587720Y658651D01*
X3549229Y683694D01*
X3546757Y685346D01*
X3529909Y696904D01*
X3527174Y698077D01*
X3526548Y698452D01*
X3512871Y707350D01*
X3503022Y713758D01*
X3496879Y714902D01*
X3490399Y719232D01*
X3481022Y721097D01*
X3427279Y764406D01*
X3404858Y831769D01*
X3405174Y846253D01*
X3407056Y869925D01*
X3407281Y872433D01*
X3407908Y878725D01*
X3411671Y878350D01*
X3411759Y878812D01*
X3407789Y879128D01*
X3408713Y890746D01*
X3408858Y892428D01*
X3410449Y909528D01*
X3410449Y909533D01*
X3410933Y914736D01*
X3410756Y916441D01*
X3410892Y918155D01*
X3408844Y935586D01*
X3408267Y940494D01*
X3408081Y942174D01*
X3406246Y959830D01*
X3409481Y960166D01*
X3407722Y966698D01*
X3407847Y967278D01*
X3403533Y990866D01*
X3400942Y1005035D01*
X3399748Y1012991D01*
X3398969Y1019621D01*
X3398966Y1019633D01*
X3398245Y1025771D01*
X3396339Y1031654D01*
X3395911Y1033611D01*
X3395368Y1035507D01*
X3394256Y1041586D01*
X3391978Y1047336D01*
X3391181Y1050117D01*
X3391644Y1121112D01*
X3430417Y1180586D01*
X3485140Y1207862D01*
X3492921Y1209580D01*
X3531226Y1218037D01*
X3782900Y1313387D01*
X3812095Y1329603D01*
X4014179Y1441851D01*
X4014180Y1441852D01*
X4018172Y1444069D01*
X4164842Y1556004D01*
X4228491Y1604579D01*
X4228495Y1604583D01*
X4232116Y1607346D01*
X4248871Y1624485D01*
X4417063Y1796538D01*
X4420249Y1799797D01*
X4478568Y1879919D01*
X4575942Y2013696D01*
X4575947Y2013703D01*
X4578630Y2017390D01*
X4703941Y2255567D01*
X4793557Y2509338D01*
X4819183Y2639355D01*
X4844720Y2768917D01*
X4844721Y2768923D01*
X4845601Y2773389D01*
X4851245Y2886762D01*
X4858755Y3037617D01*
X4858755Y3037623D01*
X4858982Y3042186D01*
X4833421Y3310100D01*
X4769453Y3571518D01*
X4668417Y3820963D01*
X4532431Y4053210D01*
X4364342Y4263395D01*
X4167673Y4447113D01*
X3946543Y4600516D01*
X3705584Y4720391D01*
X3701250Y4721812D01*
X3701247Y4721813D01*
X3454177Y4802807D01*
X3454171Y4802808D01*
X3449844Y4804227D01*
X3445352Y4805007D01*
X3188462Y4849611D01*
X3188454Y4849612D01*
X3184681Y4850267D01*
X3174718Y4850763D01*
X3101223Y4854422D01*
X3101215Y4854422D01*
X3099652Y4854500D01*
X2931626Y4854500D01*
X2929358Y4854335D01*
X2929346Y4854335D01*
X2798543Y4844844D01*
X2731575Y4839985D01*
X2727120Y4839001D01*
X2727117Y4839001D01*
X2473230Y4782947D01*
X2473228Y4782946D01*
X2468774Y4781963D01*
X2217100Y4686613D01*
X1981828Y4555931D01*
X1978196Y4553159D01*
X1771509Y4395421D01*
X1771505Y4395417D01*
X1767884Y4392654D01*
X1579751Y4200203D01*
X1577066Y4196514D01*
X1424058Y3986304D01*
X1424053Y3986297D01*
X1421370Y3982610D01*
X1296059Y3744433D01*
X1206443Y3490662D01*
X1205560Y3486180D01*
X1170855Y3310100D01*
X1154399Y3226611D01*
X1154172Y3222058D01*
X1154172Y3222055D01*
X1141324Y2963953D01*
X1141018Y2957814D01*
X1166579Y2689900D01*
X1167664Y2685466D01*
X1167665Y2685460D01*
X1200748Y2550260D01*
X1230547Y2428482D01*
X1331583Y2179037D01*
X1395879Y2069227D01*
X1457759Y1963545D01*
X1467569Y1946790D01*
X1635658Y1736605D01*
X1832327Y1552887D01*
X1836073Y1550289D01*
X1836082Y1550281D01*
X1983190Y1448229D01*
X2027760Y1392966D01*
X2035377Y1322379D01*
X2003623Y1258880D01*
X1998358Y1253548D01*
X1985580Y1241358D01*
X1922484Y1208813D01*
X1851807Y1215546D01*
X1815566Y1240474D01*
X1814283Y1239030D01*
X1811279Y1241699D01*
X1804961Y1247968D01*
X1802887Y1249857D01*
X1798735Y1254458D01*
X1793763Y1258163D01*
X1791776Y1259644D01*
X1783386Y1266475D01*
X1767526Y1280563D01*
X1763001Y1284583D01*
X1762469Y1285339D01*
X1761357Y1286044D01*
X1757816Y1289189D01*
X1754675Y1290278D01*
X1731916Y1304698D01*
X1724083Y1310087D01*
X1722764Y1311070D01*
X1715554Y1316443D01*
X1709964Y1319102D01*
X1706986Y1320897D01*
X1703883Y1322460D01*
X1698659Y1325770D01*
X1692892Y1327997D01*
X1692887Y1327999D01*
X1688732Y1329603D01*
X1679983Y1333367D01*
X1659742Y1342997D01*
X1659737Y1342998D01*
X1658346Y1343660D01*
X1657485Y1344388D01*
X1655445Y1345040D01*
X1647340Y1348896D01*
X1644185Y1349058D01*
X1642848Y1349848D01*
X1642621Y1349139D01*
X1620036Y1356357D01*
X1613044Y1358821D01*
X1600170Y1363791D01*
X1594074Y1364850D01*
X1592764Y1365213D01*
X1591429Y1365499D01*
X1585530Y1367385D01*
X1579375Y1368084D01*
X1579373Y1368084D01*
X1571830Y1368940D01*
X1564468Y1369996D01*
X1525746Y1376726D01*
X1525553Y1376683D01*
X1520181Y1378119D01*
X1519950Y1375426D01*
X1508642Y1376395D01*
X1500181Y1377120D01*
X1496735Y1377463D01*
X1483205Y1378998D01*
X1483201Y1378998D01*
X1477059Y1379695D01*
X1473538Y1379401D01*
X1470022Y1379702D01*
X1463873Y1379017D01*
X1463869Y1379017D01*
X1450367Y1377513D01*
X1446914Y1377176D01*
X1437558Y1376395D01*
X1426660Y1375485D01*
X1426659Y1375485D01*
X1426448Y1378011D01*
X1421503Y1376801D01*
X1421524Y1376675D01*
X1409289Y1374638D01*
X1409287Y1374638D01*
X1402004Y1373425D01*
X1401763Y1374873D01*
X1401477Y1374882D01*
X1401727Y1373379D01*
X1381812Y1370062D01*
X1375089Y1369129D01*
X1366576Y1368181D01*
X1366575Y1368181D01*
X1360427Y1367496D01*
X1354605Y1365649D01*
X1353811Y1365498D01*
X1353032Y1365270D01*
X1347009Y1364267D01*
X1333223Y1359057D01*
X1326821Y1356832D01*
X1303935Y1349570D01*
X1303934Y1349570D01*
X1303729Y1350216D01*
X1302382Y1349501D01*
X1298773Y1349341D01*
X1289361Y1344945D01*
X1288425Y1344648D01*
X1288051Y1344333D01*
X1266012Y1334039D01*
X1257233Y1330336D01*
X1247283Y1326576D01*
X1242033Y1323302D01*
X1238917Y1321760D01*
X1235936Y1319992D01*
X1230330Y1317374D01*
X1225342Y1313712D01*
X1221743Y1311070D01*
X1213870Y1305735D01*
X1188825Y1290113D01*
X1185555Y1288978D01*
X1176282Y1280732D01*
X1176277Y1280729D01*
X1161091Y1267224D01*
X1151931Y1259815D01*
X1151097Y1259203D01*
X1151091Y1259197D01*
X1146105Y1255537D01*
X1141929Y1250973D01*
X1141330Y1250436D01*
X1134284Y1243489D01*
X1133742Y1242902D01*
X1129106Y1238780D01*
X1124754Y1233026D01*
X1117208Y1223964D01*
X1103486Y1208971D01*
X1103485Y1208969D01*
X1095104Y1199812D01*
X1094543Y1198267D01*
X1047642Y1155404D01*
X979387Y1143740D01*
X979345Y1143317D01*
X977801Y1143469D01*
X977660Y1143445D01*
X977016Y1143546D01*
X973188Y1143923D01*
X967114Y1145131D01*
X955929Y1145131D01*
X946763Y1145465D01*
X943787Y1145682D01*
X910183Y1148133D01*
X907423Y1147219D01*
X906908Y1147218D01*
X903466Y1148333D01*
X869742Y1145656D01*
X868104Y1145526D01*
X858134Y1145131D01*
X848183Y1145131D01*
X842114Y1143924D01*
X837038Y1143424D01*
X830900Y1142573D01*
X823016Y1141947D01*
X802735Y1140337D01*
X791679Y1134694D01*
X788914Y1133912D01*
X786264Y1132814D01*
X774094Y1130394D01*
X763775Y1123499D01*
X763620Y1123435D01*
X693030Y1115846D01*
X667183Y1123435D01*
X667032Y1123498D01*
X656711Y1130394D01*
X644537Y1132816D01*
X641876Y1133918D01*
X639120Y1134697D01*
X628069Y1140337D01*
X613491Y1141494D01*
X599908Y1142573D01*
X593777Y1143423D01*
X588694Y1143923D01*
X582622Y1145131D01*
X572671Y1145131D01*
X562700Y1145526D01*
X539712Y1147351D01*
X539711Y1147351D01*
X527339Y1148333D01*
X522843Y1146875D01*
X519805Y1146837D01*
X512451Y1149017D01*
X500109Y1147722D01*
X481973Y1145819D01*
X471073Y1145249D01*
X469875Y1145131D01*
X463690Y1145131D01*
X456270Y1143655D01*
X444857Y1141925D01*
X437323Y1141134D01*
X431413Y1139300D01*
X425343Y1138052D01*
X425318Y1138175D01*
X408760Y1134755D01*
X395353Y1133321D01*
X394923Y1137338D01*
X346579Y1136509D01*
X286204Y1173864D01*
X255608Y1237929D01*
X254000Y1257996D01*
X254000Y8047981D01*
X1391801Y8047981D01*
X1392158Y8041164D01*
X1392158Y8041160D01*
X1396473Y7958840D01*
X1401518Y7862576D01*
X1403328Y7856004D01*
X1403329Y7855999D01*
X1444553Y7706338D01*
X1450821Y7683583D01*
X1537410Y7519352D01*
X1657245Y7377546D01*
X1662668Y7373399D01*
X1662670Y7373398D01*
X1799315Y7268925D01*
X1799319Y7268923D01*
X1804736Y7264781D01*
X1810916Y7261899D01*
X1810918Y7261898D01*
X1966823Y7189198D01*
X1966826Y7189197D01*
X1973000Y7186318D01*
X1979648Y7184832D01*
X1979651Y7184831D01*
X2078711Y7162689D01*
X2154188Y7145818D01*
X2159876Y7145500D01*
X2296385Y7145500D01*
X2434573Y7160512D01*
X2555210Y7201111D01*
X2604064Y7217552D01*
X2604066Y7217553D01*
X2610535Y7219730D01*
X2769677Y7315351D01*
X2774634Y7320039D01*
X2774637Y7320041D01*
X2899614Y7438227D01*
X2899616Y7438229D01*
X2904572Y7442916D01*
X3008928Y7596471D01*
X3011463Y7602808D01*
X3075342Y7762516D01*
X3075343Y7762521D01*
X3077876Y7768853D01*
X3078990Y7775580D01*
X3078991Y7775585D01*
X3107084Y7945282D01*
X3107084Y7945285D01*
X3108199Y7952019D01*
X3106589Y7982753D01*
X3098839Y8130611D01*
X3098482Y8137424D01*
X3096672Y8143996D01*
X3096671Y8144001D01*
X3050992Y8309835D01*
X3049179Y8316417D01*
X2962590Y8480648D01*
X2842755Y8622454D01*
X2837330Y8626602D01*
X2700685Y8731075D01*
X2700681Y8731077D01*
X2695264Y8735219D01*
X2689084Y8738101D01*
X2689082Y8738102D01*
X2533177Y8810802D01*
X2533174Y8810803D01*
X2527000Y8813682D01*
X2520352Y8815168D01*
X2520349Y8815169D01*
X2350849Y8853056D01*
X2350850Y8853056D01*
X2345812Y8854182D01*
X2340124Y8854500D01*
X2203615Y8854500D01*
X2065427Y8839488D01*
X1980189Y8810802D01*
X1895936Y8782448D01*
X1895934Y8782447D01*
X1889465Y8780270D01*
X1730323Y8684649D01*
X1725366Y8679961D01*
X1725363Y8679959D01*
X1627198Y8587128D01*
X1595428Y8557084D01*
X1491072Y8403529D01*
X1488539Y8397195D01*
X1488537Y8397192D01*
X1424658Y8237484D01*
X1424657Y8237479D01*
X1422124Y8231147D01*
X1421010Y8224420D01*
X1421009Y8224415D01*
X1392916Y8054718D01*
X1391801Y8047981D01*
X254000Y8047981D01*
X254000Y14925067D01*
X1645500Y14925067D01*
X1645501Y13674934D01*
X1660266Y13600699D01*
X1667161Y13590380D01*
X1667162Y13590378D01*
X1700458Y13540548D01*
X1716516Y13516516D01*
X1800699Y13460266D01*
X1874933Y13445500D01*
X1994500Y13445500D01*
X2062621Y13425498D01*
X2109114Y13371842D01*
X2120500Y13319500D01*
X2120500Y12103920D01*
X2117951Y12079972D01*
X2117872Y12078307D01*
X2115680Y12068124D01*
X2116904Y12057783D01*
X2119627Y12034777D01*
X2119977Y12028846D01*
X2120072Y12028854D01*
X2120500Y12023676D01*
X2120500Y12018476D01*
X2121354Y12013347D01*
X2121354Y12013344D01*
X2123669Y11999435D01*
X2124506Y11993557D01*
X2126052Y11980499D01*
X2130530Y11942659D01*
X2134493Y11934407D01*
X2135996Y11925374D01*
X2140943Y11916205D01*
X2140944Y11916203D01*
X2160334Y11880268D01*
X2163031Y11874975D01*
X2181785Y11835918D01*
X2181788Y11835914D01*
X2185219Y11828768D01*
X2188814Y11824492D01*
X2190737Y11822569D01*
X2192509Y11820637D01*
X2192552Y11820558D01*
X2192428Y11820445D01*
X2192904Y11819905D01*
X2195990Y11814186D01*
X2203635Y11807119D01*
X2235586Y11777584D01*
X2239152Y11774154D01*
X2408595Y11604711D01*
X2442621Y11542399D01*
X2445500Y11515616D01*
X2445501Y10897231D01*
X2445501Y10274934D01*
X2460266Y10200699D01*
X2467161Y10190380D01*
X2467162Y10190378D01*
X2507516Y10129985D01*
X2516516Y10116516D01*
X2600699Y10060266D01*
X2674933Y10045500D01*
X2994500Y10045500D01*
X3062621Y10025498D01*
X3109114Y9971842D01*
X3120500Y9919500D01*
X3120500Y9183920D01*
X3117951Y9159972D01*
X3117872Y9158307D01*
X3115680Y9148124D01*
X3116904Y9137783D01*
X3119627Y9114777D01*
X3119977Y9108846D01*
X3120072Y9108854D01*
X3120500Y9103676D01*
X3120500Y9098476D01*
X3121354Y9093347D01*
X3121354Y9093344D01*
X3123669Y9079435D01*
X3124506Y9073557D01*
X3130530Y9022659D01*
X3134493Y9014407D01*
X3135996Y9005374D01*
X3140943Y8996205D01*
X3140944Y8996203D01*
X3160334Y8960268D01*
X3163031Y8954975D01*
X3181785Y8915918D01*
X3181788Y8915914D01*
X3185219Y8908768D01*
X3188814Y8904492D01*
X3190737Y8902569D01*
X3192509Y8900637D01*
X3192552Y8900558D01*
X3192428Y8900445D01*
X3192904Y8899905D01*
X3195990Y8894186D01*
X3203635Y8887119D01*
X3235586Y8857584D01*
X3239152Y8854154D01*
X4323522Y7769784D01*
X4338664Y7751036D01*
X4339779Y7749811D01*
X4345429Y7741060D01*
X4353607Y7734613D01*
X4353609Y7734611D01*
X4371800Y7720271D01*
X4376244Y7716322D01*
X4376306Y7716396D01*
X4380263Y7713043D01*
X4383944Y7709362D01*
X4399654Y7698135D01*
X4404380Y7694587D01*
X4444647Y7662844D01*
X4453284Y7659811D01*
X4460734Y7654487D01*
X4470710Y7651503D01*
X4470711Y7651503D01*
X4486046Y7646917D01*
X4509849Y7639798D01*
X4515486Y7637966D01*
X4556367Y7623610D01*
X4563851Y7620982D01*
X4569416Y7620500D01*
X4572124Y7620500D01*
X4574758Y7620386D01*
X4574856Y7620357D01*
X4574849Y7620193D01*
X4575553Y7620149D01*
X4581778Y7618287D01*
X4635635Y7620403D01*
X4640582Y7620500D01*
X6821484Y7620500D01*
X6891302Y7599387D01*
X6904161Y7590828D01*
X6973101Y7544937D01*
X6973103Y7544936D01*
X6980574Y7539963D01*
X6989138Y7537287D01*
X6989141Y7537286D01*
X7049542Y7518416D01*
X7118510Y7496868D01*
X7262998Y7494220D01*
X7282530Y7499545D01*
X7393763Y7529870D01*
X7393765Y7529871D01*
X7402422Y7532231D01*
X7525572Y7607846D01*
X7622551Y7714986D01*
X7685560Y7845038D01*
X7709536Y7987547D01*
X7709688Y8000000D01*
X7689201Y8143052D01*
X7629388Y8274605D01*
X7623530Y8281404D01*
X7623527Y8281408D01*
X7540916Y8377282D01*
X7540913Y8377284D01*
X7535056Y8384082D01*
X7413790Y8462683D01*
X7373920Y8474607D01*
X7283938Y8501518D01*
X7283936Y8501518D01*
X7275337Y8504090D01*
X7266363Y8504145D01*
X7266361Y8504145D01*
X7203082Y8504531D01*
X7130827Y8504972D01*
X7122196Y8502505D01*
X7122194Y8502505D01*
X7000509Y8467728D01*
X7000505Y8467726D01*
X6991879Y8465261D01*
X6914447Y8416405D01*
X6886764Y8398938D01*
X6819528Y8379500D01*
X4839384Y8379500D01*
X4771263Y8399502D01*
X4750289Y8416405D01*
X3916405Y9250289D01*
X3882379Y9312601D01*
X3879500Y9339384D01*
X3879500Y9919501D01*
X3899502Y9987622D01*
X3953158Y10034115D01*
X4005500Y10045501D01*
X4325066Y10045501D01*
X4360818Y10052612D01*
X4387126Y10057844D01*
X4387128Y10057845D01*
X4399301Y10060266D01*
X4409621Y10067161D01*
X4409622Y10067162D01*
X4473168Y10109623D01*
X4483484Y10116516D01*
X4539734Y10200699D01*
X4554500Y10274933D01*
X4554499Y11825066D01*
X4545570Y11869959D01*
X4542156Y11887126D01*
X4542155Y11887128D01*
X4539734Y11899301D01*
X4528441Y11916203D01*
X4490377Y11973168D01*
X4483484Y11983484D01*
X4399301Y12039734D01*
X4325067Y12054500D01*
X4188044Y12054500D01*
X3084385Y12054499D01*
X3016264Y12074501D01*
X2995290Y12091404D01*
X2916405Y12170289D01*
X2882379Y12232601D01*
X2879500Y12259384D01*
X2879500Y13319501D01*
X2899502Y13387622D01*
X2953158Y13434115D01*
X3005500Y13445501D01*
X3125066Y13445501D01*
X3160818Y13452612D01*
X3187126Y13457844D01*
X3187128Y13457845D01*
X3199301Y13460266D01*
X3209621Y13467161D01*
X3209622Y13467162D01*
X3273168Y13509623D01*
X3283484Y13516516D01*
X3325859Y13579934D01*
X3332839Y13590380D01*
X3339734Y13600699D01*
X3354500Y13674933D01*
X3354499Y14925066D01*
X3339734Y14999301D01*
X3283484Y15083484D01*
X3199301Y15139734D01*
X3125067Y15154500D01*
X2500102Y15154500D01*
X1874934Y15154499D01*
X1839182Y15147388D01*
X1812874Y15142156D01*
X1812872Y15142155D01*
X1800699Y15139734D01*
X1790379Y15132839D01*
X1790378Y15132838D01*
X1729985Y15092484D01*
X1716516Y15083484D01*
X1660266Y14999301D01*
X1645500Y14925067D01*
X254000Y14925067D01*
X254000Y15381172D01*
X5646001Y15381172D01*
X5647209Y15368912D01*
X5658315Y15313069D01*
X5667633Y15290573D01*
X5709983Y15227192D01*
X5727192Y15209983D01*
X5790575Y15167632D01*
X5813066Y15158316D01*
X5868915Y15147207D01*
X5881170Y15146000D01*
X6254885Y15146000D01*
X6270124Y15150475D01*
X6271329Y15151865D01*
X6273000Y15159548D01*
X6273000Y15164116D01*
X6527000Y15164116D01*
X6531475Y15148877D01*
X6532865Y15147672D01*
X6540548Y15146001D01*
X6918828Y15146001D01*
X6931088Y15147209D01*
X6986931Y15158315D01*
X7009427Y15167633D01*
X7072808Y15209983D01*
X7090017Y15227192D01*
X7132368Y15290575D01*
X7141684Y15313066D01*
X7152793Y15368915D01*
X7154000Y15381170D01*
X7154000Y15584885D01*
X7149525Y15600124D01*
X7148135Y15601329D01*
X7140452Y15603000D01*
X6545115Y15603000D01*
X6529876Y15598525D01*
X6528671Y15597135D01*
X6527000Y15589452D01*
X6527000Y15164116D01*
X6273000Y15164116D01*
X6273000Y15584885D01*
X6268525Y15600124D01*
X6267135Y15601329D01*
X6259452Y15603000D01*
X5664116Y15603000D01*
X5648877Y15598525D01*
X5647672Y15597135D01*
X5646001Y15589452D01*
X5646001Y15381172D01*
X254000Y15381172D01*
X254000Y15875115D01*
X5646000Y15875115D01*
X5650475Y15859876D01*
X5651865Y15858671D01*
X5659548Y15857000D01*
X6254885Y15857000D01*
X6270124Y15861475D01*
X6271329Y15862865D01*
X6273000Y15870548D01*
X6273000Y15875115D01*
X6527000Y15875115D01*
X6531475Y15859876D01*
X6532865Y15858671D01*
X6540548Y15857000D01*
X7135884Y15857000D01*
X7151123Y15861475D01*
X7152328Y15862865D01*
X7153999Y15870548D01*
X7153999Y16078831D01*
X7152791Y16091088D01*
X7141685Y16146931D01*
X7132367Y16169427D01*
X7090017Y16232808D01*
X7072808Y16250017D01*
X7009425Y16292368D01*
X6986934Y16301684D01*
X6931085Y16312793D01*
X6918830Y16314000D01*
X6545115Y16314000D01*
X6529876Y16309525D01*
X6528671Y16308135D01*
X6527000Y16300452D01*
X6527000Y15875115D01*
X6273000Y15875115D01*
X6273000Y16295884D01*
X6268525Y16311123D01*
X6267135Y16312328D01*
X6259452Y16313999D01*
X5881172Y16313999D01*
X5868912Y16312791D01*
X5813069Y16301685D01*
X5790573Y16292367D01*
X5727192Y16250017D01*
X5709983Y16232808D01*
X5667632Y16169425D01*
X5658316Y16146934D01*
X5647207Y16091085D01*
X5646000Y16078831D01*
X5646000Y15875115D01*
X254000Y15875115D01*
X254000Y16319452D01*
X8504208Y16319452D01*
X8514088Y16306965D01*
X8658128Y16210722D01*
X8668233Y16205235D01*
X8848267Y16127886D01*
X8859210Y16124331D01*
X9050317Y16081087D01*
X9061727Y16079585D01*
X9257521Y16071893D01*
X9269003Y16072495D01*
X9462924Y16100611D01*
X9474107Y16103296D01*
X9659650Y16166279D01*
X9670165Y16170961D01*
X9841122Y16266702D01*
X9850597Y16273213D01*
X9893710Y16309069D01*
X9902163Y16321655D01*
X9895989Y16332304D01*
X9216761Y17011532D01*
X9202817Y17019146D01*
X9200984Y17019015D01*
X9194369Y17014764D01*
X8510404Y16330799D01*
X8504208Y16319452D01*
X254000Y16319452D01*
X254000Y21425067D01*
X4145500Y21425067D01*
X4145501Y17974934D01*
X4150230Y17951157D01*
X4157369Y17915266D01*
X4160266Y17900699D01*
X4216516Y17816516D01*
X4300699Y17760266D01*
X4374933Y17745500D01*
X4453428Y17745500D01*
X4521549Y17725498D01*
X4568042Y17671842D01*
X4578146Y17601568D01*
X4567483Y17565952D01*
X4512583Y17449018D01*
X4511203Y17440154D01*
X4511202Y17440151D01*
X4492320Y17318877D01*
X4490350Y17306227D01*
X4491514Y17297325D01*
X4491514Y17297322D01*
X4503725Y17203949D01*
X4509088Y17162935D01*
X4567289Y17030661D01*
X4573063Y17023792D01*
X4577079Y17019015D01*
X4660276Y16920040D01*
X4667747Y16915067D01*
X4667748Y16915066D01*
X4773101Y16844937D01*
X4773103Y16844936D01*
X4780574Y16839963D01*
X4789138Y16837287D01*
X4789141Y16837286D01*
X4843769Y16820219D01*
X4918510Y16796868D01*
X5062998Y16794220D01*
X5086763Y16800699D01*
X5193763Y16829870D01*
X5193765Y16829871D01*
X5202422Y16832231D01*
X5325572Y16907846D01*
X5422551Y17014986D01*
X5485560Y17145038D01*
X5499495Y17227863D01*
X8070879Y17227863D01*
X8083693Y17032347D01*
X8085494Y17020975D01*
X8133725Y16831066D01*
X8137566Y16820219D01*
X8219599Y16642276D01*
X8225350Y16632315D01*
X8309040Y16513895D01*
X8319630Y16505507D01*
X8332930Y16512535D01*
X9011532Y17191137D01*
X9017910Y17202817D01*
X9388752Y17202817D01*
X9388883Y17200984D01*
X9393134Y17194369D01*
X10074432Y16513071D01*
X10087741Y16505804D01*
X10097776Y16512923D01*
X10134685Y16557301D01*
X10141196Y16566776D01*
X10236937Y16737733D01*
X10241619Y16748248D01*
X10304602Y16933791D01*
X10307287Y16944974D01*
X10335699Y17140935D01*
X10336329Y17148317D01*
X10337689Y17200245D01*
X10337446Y17207644D01*
X10319329Y17404820D01*
X10317232Y17416135D01*
X10264045Y17604721D01*
X10259923Y17615460D01*
X10173259Y17791196D01*
X10167249Y17801004D01*
X10098299Y17893340D01*
X10087041Y17901789D01*
X10074622Y17895017D01*
X9396366Y17216761D01*
X9388752Y17202817D01*
X9017910Y17202817D01*
X9019146Y17205081D01*
X9019015Y17206914D01*
X9014764Y17213529D01*
X8333634Y17894659D01*
X8320793Y17901671D01*
X8310104Y17893876D01*
X8256611Y17826020D01*
X8250340Y17816363D01*
X8159112Y17642967D01*
X8154707Y17632333D01*
X8096602Y17445202D01*
X8094210Y17433951D01*
X8071180Y17239364D01*
X8070879Y17227863D01*
X5499495Y17227863D01*
X5509536Y17287547D01*
X5509688Y17300000D01*
X5490908Y17431135D01*
X5490474Y17434165D01*
X5490473Y17434167D01*
X5489201Y17443052D01*
X5470818Y17483484D01*
X5432687Y17567350D01*
X5422701Y17637641D01*
X5452302Y17702173D01*
X5512092Y17740456D01*
X5547388Y17745501D01*
X5625066Y17745501D01*
X5660818Y17752612D01*
X5687126Y17757844D01*
X5687128Y17757845D01*
X5699301Y17760266D01*
X5709621Y17767161D01*
X5709622Y17767162D01*
X5773168Y17809623D01*
X5783484Y17816516D01*
X5839734Y17900699D01*
X5854500Y17974933D01*
X5854500Y18086666D01*
X8504768Y18086666D01*
X8510602Y18076901D01*
X9191137Y17396366D01*
X9205081Y17388752D01*
X9206914Y17388883D01*
X9213529Y17393134D01*
X9896802Y18076407D01*
X9904416Y18090351D01*
X9904379Y18090868D01*
X9898749Y18099263D01*
X9898430Y18099558D01*
X9889297Y18106566D01*
X9723580Y18211126D01*
X9713337Y18216345D01*
X9531345Y18288952D01*
X9520308Y18292221D01*
X9328133Y18330448D01*
X9316688Y18331651D01*
X9120771Y18334215D01*
X9109291Y18333312D01*
X8916180Y18300129D01*
X8905072Y18297152D01*
X8721239Y18229333D01*
X8710857Y18224381D01*
X8542464Y18124198D01*
X8533152Y18117432D01*
X8513164Y18099903D01*
X8504768Y18086666D01*
X5854500Y18086666D01*
X5854499Y19930260D01*
X5874501Y19998381D01*
X5891404Y20019355D01*
X9980644Y24108595D01*
X10042956Y24142621D01*
X10069739Y24145500D01*
X10600890Y24145501D01*
X10670066Y24145501D01*
X10705818Y24152612D01*
X10732126Y24157844D01*
X10732128Y24157845D01*
X10744301Y24160266D01*
X10754621Y24167161D01*
X10754622Y24167162D01*
X10818168Y24209623D01*
X10828484Y24216516D01*
X10884734Y24300699D01*
X10899500Y24374933D01*
X10899499Y25425066D01*
X10899499Y25425067D01*
X11300500Y25425067D01*
X11300501Y24374934D01*
X11315266Y24300699D01*
X11371516Y24216516D01*
X11455699Y24160266D01*
X11529933Y24145500D01*
X11874944Y24145500D01*
X12220066Y24145501D01*
X12255818Y24152612D01*
X12282126Y24157844D01*
X12282128Y24157845D01*
X12294301Y24160266D01*
X12304621Y24167161D01*
X12304622Y24167162D01*
X12368168Y24209623D01*
X12378484Y24216516D01*
X12434734Y24300699D01*
X12449500Y24374933D01*
X12449499Y24850259D01*
X12469501Y24918380D01*
X12486404Y24939355D01*
X12753276Y25206227D01*
X14390350Y25206227D01*
X14391514Y25197325D01*
X14391514Y25197322D01*
X14407544Y25074739D01*
X14409088Y25062935D01*
X14467289Y24930661D01*
X14560276Y24820040D01*
X14567747Y24815067D01*
X14567748Y24815066D01*
X14673101Y24744937D01*
X14673103Y24744936D01*
X14680574Y24739963D01*
X14689138Y24737287D01*
X14689141Y24737286D01*
X14738357Y24721910D01*
X14818510Y24696868D01*
X14962998Y24694220D01*
X14971661Y24696582D01*
X14971663Y24696582D01*
X15093474Y24729791D01*
X15164457Y24728411D01*
X15178765Y24721552D01*
X15178913Y24721910D01*
X15190383Y24717159D01*
X15200699Y24710266D01*
X15212868Y24707845D01*
X15212869Y24707845D01*
X15254597Y24699545D01*
X15274933Y24695500D01*
X15799915Y24695500D01*
X16325066Y24695501D01*
X16360818Y24702612D01*
X16387126Y24707844D01*
X16387128Y24707845D01*
X16399301Y24710266D01*
X16409621Y24717161D01*
X16409622Y24717162D01*
X16473168Y24759623D01*
X16483484Y24766516D01*
X16519248Y24820040D01*
X16532839Y24840380D01*
X16539734Y24850699D01*
X16554500Y24924933D01*
X16554499Y25575066D01*
X16547388Y25610818D01*
X16542156Y25637126D01*
X16542155Y25637128D01*
X16539734Y25649301D01*
X16532408Y25660266D01*
X16490377Y25723168D01*
X16483484Y25733484D01*
X16399301Y25789734D01*
X16325067Y25804500D01*
X15800085Y25804500D01*
X15274934Y25804499D01*
X15239182Y25797388D01*
X15212874Y25792156D01*
X15212872Y25792155D01*
X15200699Y25789734D01*
X15190379Y25782839D01*
X15190378Y25782838D01*
X15158403Y25761473D01*
X15116516Y25733484D01*
X15113234Y25728572D01*
X15054871Y25696706D01*
X14991989Y25699110D01*
X14991225Y25699339D01*
X14975337Y25704090D01*
X14966361Y25704145D01*
X14966360Y25704145D01*
X14903988Y25704525D01*
X14830827Y25704972D01*
X14822196Y25702505D01*
X14822194Y25702505D01*
X14700509Y25667728D01*
X14700505Y25667726D01*
X14691879Y25665261D01*
X14684292Y25660474D01*
X14684290Y25660473D01*
X14577254Y25592938D01*
X14569661Y25588147D01*
X14473999Y25479830D01*
X14412583Y25349018D01*
X14411203Y25340154D01*
X14411202Y25340151D01*
X14400587Y25271972D01*
X14390350Y25206227D01*
X12753276Y25206227D01*
X13155646Y25608596D01*
X13217958Y25642621D01*
X13244741Y25645500D01*
X13847410Y25645501D01*
X13925066Y25645501D01*
X13960818Y25652612D01*
X13987126Y25657844D01*
X13987128Y25657845D01*
X13999301Y25660266D01*
X14009621Y25667161D01*
X14009622Y25667162D01*
X14073168Y25709623D01*
X14083484Y25716516D01*
X14139734Y25800699D01*
X14154500Y25874933D01*
X14154499Y26525066D01*
X14139734Y26599301D01*
X14127486Y26617632D01*
X14090377Y26673168D01*
X14083484Y26683484D01*
X13999301Y26739734D01*
X13925067Y26754500D01*
X13400085Y26754500D01*
X12874934Y26754499D01*
X12839182Y26747388D01*
X12812874Y26742156D01*
X12812872Y26742155D01*
X12800699Y26739734D01*
X12790379Y26732839D01*
X12790378Y26732838D01*
X12729985Y26692484D01*
X12716516Y26683484D01*
X12660266Y26599301D01*
X12645500Y26525067D01*
X12645500Y26294740D01*
X12625498Y26226619D01*
X12608595Y26205645D01*
X12094355Y25691405D01*
X12032043Y25657379D01*
X12005260Y25654500D01*
X11585858Y25654499D01*
X11529934Y25654499D01*
X11503800Y25649301D01*
X11467874Y25642156D01*
X11467872Y25642155D01*
X11455699Y25639734D01*
X11445379Y25632839D01*
X11445378Y25632838D01*
X11409098Y25608596D01*
X11371516Y25583484D01*
X11315266Y25499301D01*
X11300500Y25425067D01*
X10899499Y25425067D01*
X10884734Y25499301D01*
X10828484Y25583484D01*
X10744301Y25639734D01*
X10670067Y25654500D01*
X10325056Y25654500D01*
X9979934Y25654499D01*
X9953800Y25649301D01*
X9917874Y25642156D01*
X9917872Y25642155D01*
X9905699Y25639734D01*
X9895379Y25632839D01*
X9895378Y25632838D01*
X9859098Y25608596D01*
X9821516Y25583484D01*
X9765266Y25499301D01*
X9750500Y25425067D01*
X9750500Y25074739D01*
X9730498Y25006618D01*
X9713595Y24985644D01*
X6069085Y21341135D01*
X6006773Y21307109D01*
X5935957Y21312174D01*
X5879122Y21354721D01*
X5854597Y21417881D01*
X5854499Y21418880D01*
X5854499Y21425066D01*
X5839734Y21499301D01*
X5783484Y21583484D01*
X5699301Y21639734D01*
X5625067Y21654500D01*
X5000102Y21654500D01*
X4374934Y21654499D01*
X4339182Y21647388D01*
X4312874Y21642156D01*
X4312872Y21642155D01*
X4300699Y21639734D01*
X4290379Y21632839D01*
X4290378Y21632838D01*
X4229985Y21592484D01*
X4216516Y21583484D01*
X4160266Y21499301D01*
X4145500Y21425067D01*
X254000Y21425067D01*
X254000Y24581172D01*
X4146001Y24581172D01*
X4147209Y24568912D01*
X4158315Y24513069D01*
X4167633Y24490573D01*
X4209983Y24427192D01*
X4227192Y24409983D01*
X4290575Y24367632D01*
X4313066Y24358316D01*
X4368915Y24347207D01*
X4381170Y24346000D01*
X4854885Y24346000D01*
X4870124Y24350475D01*
X4871329Y24351865D01*
X4873000Y24359548D01*
X4873000Y24364116D01*
X5127000Y24364116D01*
X5131475Y24348877D01*
X5132865Y24347672D01*
X5140548Y24346001D01*
X5618828Y24346001D01*
X5631088Y24347209D01*
X5686931Y24358315D01*
X5709427Y24367633D01*
X5772808Y24409983D01*
X5790017Y24427192D01*
X5832368Y24490575D01*
X5841684Y24513066D01*
X5852793Y24568915D01*
X5854000Y24581170D01*
X5854000Y26154885D01*
X5849525Y26170124D01*
X5848135Y26171329D01*
X5840452Y26173000D01*
X5145115Y26173000D01*
X5129876Y26168525D01*
X5128671Y26167135D01*
X5127000Y26159452D01*
X5127000Y24364116D01*
X4873000Y24364116D01*
X4873000Y26154885D01*
X4868525Y26170124D01*
X4867135Y26171329D01*
X4859452Y26173000D01*
X4164116Y26173000D01*
X4148877Y26168525D01*
X4147672Y26167135D01*
X4146001Y26159452D01*
X4146001Y24581172D01*
X254000Y24581172D01*
X254000Y26445115D01*
X4146000Y26445115D01*
X4150475Y26429876D01*
X4151865Y26428671D01*
X4159548Y26427000D01*
X4854885Y26427000D01*
X4870124Y26431475D01*
X4871329Y26432865D01*
X4873000Y26440548D01*
X4873000Y26445115D01*
X5127000Y26445115D01*
X5131475Y26429876D01*
X5132865Y26428671D01*
X5140548Y26427000D01*
X5835884Y26427000D01*
X5851123Y26431475D01*
X5852328Y26432865D01*
X5853999Y26440548D01*
X5853999Y26831172D01*
X15046001Y26831172D01*
X15047209Y26818912D01*
X15058315Y26763069D01*
X15067633Y26740573D01*
X15109983Y26677192D01*
X15127192Y26659983D01*
X15190575Y26617632D01*
X15213066Y26608316D01*
X15268915Y26597207D01*
X15281170Y26596000D01*
X15654885Y26596000D01*
X15670124Y26600475D01*
X15671329Y26601865D01*
X15673000Y26609548D01*
X15673000Y26614116D01*
X15927000Y26614116D01*
X15931475Y26598877D01*
X15932865Y26597672D01*
X15940548Y26596001D01*
X16318828Y26596001D01*
X16331088Y26597209D01*
X16386931Y26608315D01*
X16409427Y26617633D01*
X16472808Y26659983D01*
X16490017Y26677192D01*
X16532368Y26740575D01*
X16541684Y26763066D01*
X16549031Y26800000D01*
X16894551Y26800000D01*
X16914317Y26548852D01*
X16915471Y26544045D01*
X16915472Y26544039D01*
X16942880Y26429876D01*
X16973127Y26303889D01*
X16975020Y26299318D01*
X16975021Y26299316D01*
X17032955Y26159452D01*
X17069534Y26071141D01*
X17201164Y25856341D01*
X17204376Y25852581D01*
X17204379Y25852576D01*
X17320586Y25716516D01*
X17364776Y25664776D01*
X17368538Y25661563D01*
X17552576Y25504379D01*
X17552581Y25504376D01*
X17556341Y25501164D01*
X17771141Y25369534D01*
X17775711Y25367641D01*
X17775715Y25367639D01*
X17999316Y25275021D01*
X18003889Y25273127D01*
X18088289Y25252865D01*
X18244039Y25215472D01*
X18244045Y25215471D01*
X18248852Y25214317D01*
X18500000Y25194551D01*
X18751148Y25214317D01*
X18755955Y25215471D01*
X18755961Y25215472D01*
X18911711Y25252865D01*
X18996111Y25273127D01*
X19000684Y25275021D01*
X19224285Y25367639D01*
X19224289Y25367641D01*
X19228859Y25369534D01*
X19443659Y25501164D01*
X19447419Y25504376D01*
X19447424Y25504379D01*
X19631462Y25661563D01*
X19635224Y25664776D01*
X19679414Y25716516D01*
X19795621Y25852576D01*
X19795624Y25852581D01*
X19798836Y25856341D01*
X19930466Y26071141D01*
X19967046Y26159452D01*
X20024979Y26299316D01*
X20024980Y26299318D01*
X20026873Y26303889D01*
X20057120Y26429876D01*
X20084528Y26544039D01*
X20084529Y26544045D01*
X20085683Y26548852D01*
X20105449Y26800000D01*
X20085683Y27051148D01*
X20026873Y27296111D01*
X19950255Y27481085D01*
X19932361Y27524285D01*
X19932359Y27524289D01*
X19930466Y27528859D01*
X19798836Y27743659D01*
X19795624Y27747419D01*
X19795621Y27747424D01*
X19638437Y27931462D01*
X19635224Y27935224D01*
X19617052Y27950744D01*
X19447424Y28095621D01*
X19447419Y28095624D01*
X19443659Y28098836D01*
X19228859Y28230466D01*
X19224289Y28232359D01*
X19224285Y28232361D01*
X19000684Y28324979D01*
X19000682Y28324980D01*
X18996111Y28326873D01*
X18911711Y28347135D01*
X18755961Y28384528D01*
X18755955Y28384529D01*
X18751148Y28385683D01*
X18500000Y28405449D01*
X18248852Y28385683D01*
X18244045Y28384529D01*
X18244039Y28384528D01*
X18088289Y28347135D01*
X18003889Y28326873D01*
X17999318Y28324980D01*
X17999316Y28324979D01*
X17775715Y28232361D01*
X17775711Y28232359D01*
X17771141Y28230466D01*
X17556341Y28098836D01*
X17552581Y28095624D01*
X17552576Y28095621D01*
X17382948Y27950744D01*
X17364776Y27935224D01*
X17361563Y27931462D01*
X17204379Y27747424D01*
X17204376Y27747419D01*
X17201164Y27743659D01*
X17069534Y27528859D01*
X17067641Y27524289D01*
X17067639Y27524285D01*
X17049745Y27481085D01*
X16973127Y27296111D01*
X16914317Y27051148D01*
X16894551Y26800000D01*
X16549031Y26800000D01*
X16552793Y26818915D01*
X16554000Y26831170D01*
X16554000Y27004885D01*
X16549525Y27020124D01*
X16548135Y27021329D01*
X16540452Y27023000D01*
X15945115Y27023000D01*
X15929876Y27018525D01*
X15928671Y27017135D01*
X15927000Y27009452D01*
X15927000Y26614116D01*
X15673000Y26614116D01*
X15673000Y27004885D01*
X15668525Y27020124D01*
X15667135Y27021329D01*
X15659452Y27023000D01*
X15064116Y27023000D01*
X15048877Y27018525D01*
X15047672Y27017135D01*
X15046001Y27009452D01*
X15046001Y26831172D01*
X5853999Y26831172D01*
X5853999Y27295115D01*
X15046000Y27295115D01*
X15050475Y27279876D01*
X15051865Y27278671D01*
X15059548Y27277000D01*
X15654885Y27277000D01*
X15670124Y27281475D01*
X15671329Y27282865D01*
X15673000Y27290548D01*
X15673000Y27295115D01*
X15927000Y27295115D01*
X15931475Y27279876D01*
X15932865Y27278671D01*
X15940548Y27277000D01*
X16535884Y27277000D01*
X16551123Y27281475D01*
X16552328Y27282865D01*
X16553999Y27290548D01*
X16553999Y27468828D01*
X16552791Y27481088D01*
X16541685Y27536931D01*
X16532367Y27559427D01*
X16490017Y27622808D01*
X16472808Y27640017D01*
X16409425Y27682368D01*
X16386934Y27691684D01*
X16331085Y27702793D01*
X16318830Y27704000D01*
X15945115Y27704000D01*
X15929876Y27699525D01*
X15928671Y27698135D01*
X15927000Y27690452D01*
X15927000Y27295115D01*
X15673000Y27295115D01*
X15673000Y27685884D01*
X15668525Y27701123D01*
X15667135Y27702328D01*
X15659452Y27703999D01*
X15281172Y27703999D01*
X15268912Y27702791D01*
X15213069Y27691685D01*
X15190573Y27682367D01*
X15127192Y27640017D01*
X15109983Y27622808D01*
X15067632Y27559425D01*
X15058316Y27536934D01*
X15047207Y27481085D01*
X15046000Y27468830D01*
X15046000Y27295115D01*
X5853999Y27295115D01*
X5853999Y28018828D01*
X5852791Y28031088D01*
X5841685Y28086931D01*
X5832367Y28109427D01*
X5790017Y28172808D01*
X5772808Y28190017D01*
X5709425Y28232368D01*
X5686934Y28241684D01*
X5631085Y28252793D01*
X5618830Y28254000D01*
X5145115Y28254000D01*
X5129876Y28249525D01*
X5128671Y28248135D01*
X5127000Y28240452D01*
X5127000Y26445115D01*
X4873000Y26445115D01*
X4873000Y28235884D01*
X4868525Y28251123D01*
X4867135Y28252328D01*
X4859452Y28253999D01*
X4381172Y28253999D01*
X4368912Y28252791D01*
X4313069Y28241685D01*
X4290573Y28232367D01*
X4227192Y28190017D01*
X4209983Y28172808D01*
X4167632Y28109425D01*
X4158316Y28086934D01*
X4147207Y28031085D01*
X4146000Y28018830D01*
X4146000Y26445115D01*
X254000Y26445115D01*
X254000Y30047981D01*
X1391801Y30047981D01*
X1401518Y29862576D01*
X1403328Y29856004D01*
X1403329Y29855999D01*
X1429079Y29762516D01*
X1450821Y29683583D01*
X1537410Y29519352D01*
X1657245Y29377546D01*
X1662668Y29373399D01*
X1662670Y29373398D01*
X1799315Y29268925D01*
X1799319Y29268923D01*
X1804736Y29264781D01*
X1810916Y29261899D01*
X1810918Y29261898D01*
X1966823Y29189198D01*
X1966826Y29189197D01*
X1973000Y29186318D01*
X1979648Y29184832D01*
X1979651Y29184831D01*
X2078711Y29162689D01*
X2154188Y29145818D01*
X2159876Y29145500D01*
X2296385Y29145500D01*
X2434573Y29160512D01*
X2555210Y29201111D01*
X2604064Y29217552D01*
X2604066Y29217553D01*
X2610535Y29219730D01*
X2769677Y29315351D01*
X2774634Y29320039D01*
X2774637Y29320041D01*
X2899614Y29438227D01*
X2899616Y29438229D01*
X2904572Y29442916D01*
X3008928Y29596471D01*
X3041355Y29677544D01*
X3075342Y29762516D01*
X3075343Y29762521D01*
X3077876Y29768853D01*
X3078990Y29775580D01*
X3078991Y29775585D01*
X3107084Y29945282D01*
X3107084Y29945285D01*
X3108199Y29952019D01*
X3103170Y30047981D01*
X18891801Y30047981D01*
X18901518Y29862576D01*
X18903328Y29856004D01*
X18903329Y29855999D01*
X18929079Y29762516D01*
X18950821Y29683583D01*
X19037410Y29519352D01*
X19157245Y29377546D01*
X19162668Y29373399D01*
X19162670Y29373398D01*
X19299315Y29268925D01*
X19299319Y29268923D01*
X19304736Y29264781D01*
X19310916Y29261899D01*
X19310918Y29261898D01*
X19466823Y29189198D01*
X19466826Y29189197D01*
X19473000Y29186318D01*
X19479648Y29184832D01*
X19479651Y29184831D01*
X19578711Y29162689D01*
X19654188Y29145818D01*
X19659876Y29145500D01*
X19796385Y29145500D01*
X19934573Y29160512D01*
X20055210Y29201111D01*
X20104064Y29217552D01*
X20104066Y29217553D01*
X20110535Y29219730D01*
X20269677Y29315351D01*
X20274634Y29320039D01*
X20274637Y29320041D01*
X20399614Y29438227D01*
X20399616Y29438229D01*
X20404572Y29442916D01*
X20508928Y29596471D01*
X20541355Y29677544D01*
X20575342Y29762516D01*
X20575343Y29762521D01*
X20577876Y29768853D01*
X20578990Y29775580D01*
X20578991Y29775585D01*
X20607084Y29945282D01*
X20607084Y29945285D01*
X20608199Y29952019D01*
X20598482Y30137424D01*
X20596672Y30143996D01*
X20596671Y30144001D01*
X20550992Y30309835D01*
X20549179Y30316417D01*
X20462590Y30480648D01*
X20342755Y30622454D01*
X20337330Y30626602D01*
X20200685Y30731075D01*
X20200681Y30731077D01*
X20195264Y30735219D01*
X20189084Y30738101D01*
X20189082Y30738102D01*
X20033177Y30810802D01*
X20033174Y30810803D01*
X20027000Y30813682D01*
X20020352Y30815168D01*
X20020349Y30815169D01*
X19850849Y30853056D01*
X19850850Y30853056D01*
X19845812Y30854182D01*
X19840124Y30854500D01*
X19703615Y30854500D01*
X19565427Y30839488D01*
X19480189Y30810802D01*
X19395936Y30782448D01*
X19395934Y30782447D01*
X19389465Y30780270D01*
X19230323Y30684649D01*
X19225366Y30679961D01*
X19225363Y30679959D01*
X19100386Y30561773D01*
X19095428Y30557084D01*
X18991072Y30403529D01*
X18988539Y30397195D01*
X18988537Y30397192D01*
X18924658Y30237484D01*
X18924657Y30237479D01*
X18922124Y30231147D01*
X18921010Y30224420D01*
X18921009Y30224415D01*
X18907697Y30144001D01*
X18891801Y30047981D01*
X3103170Y30047981D01*
X3098482Y30137424D01*
X3096672Y30143996D01*
X3096671Y30144001D01*
X3050992Y30309835D01*
X3049179Y30316417D01*
X2962590Y30480648D01*
X2842755Y30622454D01*
X2837330Y30626602D01*
X2700685Y30731075D01*
X2700681Y30731077D01*
X2695264Y30735219D01*
X2689084Y30738101D01*
X2689082Y30738102D01*
X2533177Y30810802D01*
X2533174Y30810803D01*
X2527000Y30813682D01*
X2520352Y30815168D01*
X2520349Y30815169D01*
X2350849Y30853056D01*
X2350850Y30853056D01*
X2345812Y30854182D01*
X2340124Y30854500D01*
X2203615Y30854500D01*
X2065427Y30839488D01*
X1980189Y30810802D01*
X1895936Y30782448D01*
X1895934Y30782447D01*
X1889465Y30780270D01*
X1730323Y30684649D01*
X1725366Y30679961D01*
X1725363Y30679959D01*
X1600386Y30561773D01*
X1595428Y30557084D01*
X1491072Y30403529D01*
X1488539Y30397195D01*
X1488537Y30397192D01*
X1424658Y30237484D01*
X1424657Y30237479D01*
X1422124Y30231147D01*
X1421010Y30224420D01*
X1421009Y30224415D01*
X1407697Y30144001D01*
X1391801Y30047981D01*
X254000Y30047981D01*
X254000Y34957814D01*
X1141018Y34957814D01*
X1166579Y34689900D01*
X1230547Y34428482D01*
X1331583Y34179037D01*
X1467569Y33946790D01*
X1635658Y33736605D01*
X1832327Y33552887D01*
X2053457Y33399484D01*
X2294416Y33279609D01*
X2298750Y33278188D01*
X2298753Y33278187D01*
X2545823Y33197193D01*
X2545829Y33197192D01*
X2550156Y33195773D01*
X2554647Y33194993D01*
X2554648Y33194993D01*
X2811538Y33150389D01*
X2811546Y33150388D01*
X2815319Y33149733D01*
X2819156Y33149542D01*
X2898777Y33145578D01*
X2898785Y33145578D01*
X2900348Y33145500D01*
X3068374Y33145500D01*
X3070642Y33145665D01*
X3070654Y33145665D01*
X3201457Y33155156D01*
X3268425Y33160015D01*
X3272880Y33160999D01*
X3272883Y33160999D01*
X3526770Y33217053D01*
X3526772Y33217054D01*
X3531226Y33218037D01*
X3782900Y33313387D01*
X4018172Y33444069D01*
X4164842Y33556004D01*
X4228491Y33604579D01*
X4228495Y33604583D01*
X4232116Y33607346D01*
X4420249Y33799797D01*
X4527242Y33946790D01*
X4575942Y34013696D01*
X4575947Y34013703D01*
X4578630Y34017390D01*
X4703941Y34255567D01*
X4793557Y34509338D01*
X4818688Y34636844D01*
X4844720Y34768917D01*
X4844721Y34768923D01*
X4845601Y34773389D01*
X4854782Y34957814D01*
X4858755Y35037617D01*
X4858755Y35037623D01*
X4858982Y35042186D01*
X4833421Y35310100D01*
X4769453Y35571518D01*
X4668417Y35820963D01*
X4532431Y36053210D01*
X4364342Y36263395D01*
X4167673Y36447113D01*
X3946543Y36600516D01*
X3705584Y36720391D01*
X3701250Y36721812D01*
X3701247Y36721813D01*
X3454177Y36802807D01*
X3454171Y36802808D01*
X3449844Y36804227D01*
X3445352Y36805007D01*
X3188462Y36849611D01*
X3188454Y36849612D01*
X3184681Y36850267D01*
X3174718Y36850763D01*
X3101223Y36854422D01*
X3101215Y36854422D01*
X3099652Y36854500D01*
X2931626Y36854500D01*
X2929358Y36854335D01*
X2929346Y36854335D01*
X2798543Y36844844D01*
X2731575Y36839985D01*
X2727120Y36839001D01*
X2727117Y36839001D01*
X2473230Y36782947D01*
X2473228Y36782946D01*
X2468774Y36781963D01*
X2217100Y36686613D01*
X1981828Y36555931D01*
X1978196Y36553159D01*
X1771509Y36395421D01*
X1771505Y36395417D01*
X1767884Y36392654D01*
X1579751Y36200203D01*
X1577066Y36196514D01*
X1424058Y35986304D01*
X1424053Y35986297D01*
X1421370Y35982610D01*
X1296059Y35744433D01*
X1206443Y35490662D01*
X1205560Y35486180D01*
X1170855Y35310100D01*
X1154399Y35226611D01*
X1154172Y35222058D01*
X1154172Y35222055D01*
X1144991Y35037617D01*
X1141018Y34957814D01*
X254000Y34957814D01*
X254000Y36962575D01*
X256421Y36987156D01*
X256555Y36987830D01*
X258976Y37000000D01*
X256555Y37012172D01*
X256555Y37019754D01*
X257162Y37032104D01*
X267118Y37133188D01*
X271935Y37157408D01*
X307187Y37273617D01*
X316631Y37296418D01*
X373876Y37403517D01*
X387594Y37424047D01*
X464626Y37517909D01*
X482091Y37535374D01*
X575953Y37612406D01*
X596483Y37626124D01*
X703582Y37683369D01*
X726383Y37692813D01*
X842592Y37728065D01*
X866812Y37732882D01*
X967896Y37742838D01*
X980246Y37743445D01*
X987828Y37743445D01*
X1000000Y37741024D01*
X1012847Y37743579D01*
X1037425Y37746000D01*
X20962575Y37746000D01*
X20987153Y37743579D01*
G37*
%TD.AperFunction*%
%TD*%
M02*
