%TF.GenerationSoftware,KiCad,Pcbnew,(6.0.2)*%
%TF.CreationDate,2022-05-16T11:26:32+02:00*%
%TF.ProjectId,Pir_movement_sensor,5069725f-6d6f-4766-956d-656e745f7365,rev?*%
%TF.SameCoordinates,PX55d4a80PY7bfa480*%
%TF.FileFunction,Legend,Bot*%
%TF.FilePolarity,Positive*%
%FSLAX46Y46*%
G04 Gerber Fmt 4.6, Leading zero omitted, Abs format (unit mm)*
G04 Created by KiCad (PCBNEW (6.0.2)) date 2022-05-16 11:26:32*
%MOMM*%
%LPD*%
G01*
G04 APERTURE LIST*
%ADD10C,0.150000*%
%ADD11C,0.010000*%
G04 APERTURE END LIST*
D10*
%TO.C,*%
%TO.C,REF\u002A\u002A*%
G36*
X8197024Y34522952D02*
G01*
X8186136Y34429951D01*
X8170420Y34362275D01*
X8133861Y34278324D01*
X8055570Y34165965D01*
X7953378Y34077449D01*
X7830109Y34015652D01*
X7792981Y34004694D01*
X7683490Y33992049D01*
X7569427Y34002511D01*
X7465590Y34035283D01*
X7437047Y34048391D01*
X7383921Y34069756D01*
X7347494Y34075797D01*
X7317675Y34066989D01*
X7284373Y34043806D01*
X7264686Y34030645D01*
X7196122Y34009813D01*
X7125378Y34019588D01*
X7121628Y34022007D01*
X7116301Y34030919D01*
X7111825Y34048307D01*
X7108127Y34076799D01*
X7105134Y34119025D01*
X7102775Y34177614D01*
X7100978Y34255197D01*
X7099669Y34354402D01*
X7098777Y34477859D01*
X7098229Y34628198D01*
X7097973Y34795642D01*
X7307619Y34795642D01*
X7307999Y34706212D01*
X7311988Y34615554D01*
X7319085Y34532657D01*
X7328789Y34466514D01*
X7340599Y34426113D01*
X7359034Y34394866D01*
X7416027Y34326594D01*
X7480585Y34278539D01*
X7497591Y34270609D01*
X7579114Y34248786D01*
X7667571Y34244519D01*
X7745324Y34259101D01*
X7786229Y34275383D01*
X7851734Y34310787D01*
X7899827Y34355070D01*
X7932943Y34413332D01*
X7953515Y34490672D01*
X7963977Y34592187D01*
X7966764Y34722977D01*
X7965995Y34786270D01*
X7958526Y34908083D01*
X7941267Y35002144D01*
X7911952Y35072899D01*
X7868316Y35124798D01*
X7808094Y35162289D01*
X7729020Y35189820D01*
X7661179Y35201496D01*
X7560112Y35193609D01*
X7470197Y35156435D01*
X7396109Y35093221D01*
X7342520Y35007210D01*
X7314101Y34901648D01*
X7311348Y34874852D01*
X7307619Y34795642D01*
X7097973Y34795642D01*
X7097954Y34808049D01*
X7097878Y35020040D01*
X7097878Y36009939D01*
X7215229Y36004799D01*
X7332580Y35999658D01*
X7341273Y35705964D01*
X7343871Y35623363D01*
X7348408Y35525738D01*
X7355409Y35456789D01*
X7366795Y35412861D01*
X7384488Y35390298D01*
X7410409Y35385446D01*
X7446480Y35394648D01*
X7494623Y35414250D01*
X7591209Y35443795D01*
X7710551Y35450526D01*
X7827183Y35427344D01*
X7936270Y35376621D01*
X8032977Y35300731D01*
X8112468Y35202046D01*
X8169908Y35082937D01*
X8179249Y35049031D01*
X8192411Y34966033D01*
X8200775Y34862818D01*
X8204336Y34748493D01*
X8204062Y34722977D01*
X8203088Y34632169D01*
X8197024Y34522952D01*
G37*
G36*
X9492513Y34764564D02*
G01*
X9490758Y34625167D01*
X9477542Y34494346D01*
X9453960Y34380508D01*
X9421106Y34292058D01*
X9348585Y34182578D01*
X9250609Y34091369D01*
X9134514Y34027104D01*
X9004960Y33993131D01*
X8886669Y33987343D01*
X8750568Y34004735D01*
X8626685Y34046650D01*
X8522892Y34111159D01*
X8522720Y34111301D01*
X8467423Y34169753D01*
X8417571Y34244692D01*
X8380392Y34323371D01*
X8363110Y34393042D01*
X8358316Y34452362D01*
X8473948Y34457463D01*
X8589580Y34462565D01*
X8630416Y34389377D01*
X8649149Y34359794D01*
X8715795Y34294862D01*
X8803921Y34256463D01*
X8914688Y34244005D01*
X8996081Y34252363D01*
X9087745Y34287992D01*
X9157597Y34349705D01*
X9203499Y34435428D01*
X9223314Y34543092D01*
X9227584Y34626215D01*
X8792950Y34634908D01*
X8358316Y34643600D01*
X8353338Y34823873D01*
X8353385Y34869610D01*
X8584325Y34869610D01*
X8903914Y34864863D01*
X9223503Y34860115D01*
X9214416Y34940736D01*
X9203235Y34996489D01*
X9162559Y35076963D01*
X9091217Y35146165D01*
X9053085Y35166521D01*
X8978287Y35185332D01*
X8892257Y35190616D01*
X8807542Y35181924D01*
X8736692Y35158810D01*
X8734723Y35157796D01*
X8660918Y35101366D01*
X8610203Y35024745D01*
X8588359Y34936593D01*
X8584325Y34869610D01*
X8353385Y34869610D01*
X8353455Y34937983D01*
X8363626Y35042920D01*
X8386565Y35128717D01*
X8424438Y35203108D01*
X8479412Y35273824D01*
X8481610Y35276253D01*
X8578955Y35358780D01*
X8692235Y35414749D01*
X8815569Y35444548D01*
X8943077Y35448566D01*
X9068879Y35427191D01*
X9187093Y35380810D01*
X9291840Y35309812D01*
X9377239Y35214584D01*
X9382788Y35206404D01*
X9426449Y35129519D01*
X9457119Y35045496D01*
X9477385Y34945255D01*
X9485829Y34860115D01*
X9489836Y34819717D01*
X9492513Y34764564D01*
G37*
G36*
X19844175Y33737824D02*
G01*
X19840602Y33733048D01*
X19802105Y33688059D01*
X19744049Y33626675D01*
X19672282Y33554502D01*
X19592654Y33477147D01*
X19511012Y33400218D01*
X19433206Y33329323D01*
X19365083Y33270068D01*
X19312492Y33228062D01*
X19296168Y33216217D01*
X19094851Y33093189D01*
X18877533Y33001015D01*
X18644374Y32939765D01*
X18637722Y32938534D01*
X18513511Y32924019D01*
X18370114Y32919945D01*
X18220554Y32925826D01*
X18077852Y32941175D01*
X17955030Y32965506D01*
X17743090Y33038797D01*
X17541427Y33143330D01*
X17355637Y33275605D01*
X17189341Y33432646D01*
X17046158Y33611471D01*
X16929709Y33809104D01*
X16888608Y33895578D01*
X16841261Y34011292D01*
X16808315Y34120764D01*
X16787519Y34234142D01*
X16776617Y34361575D01*
X16773357Y34513210D01*
X17035897Y34513210D01*
X17036802Y34438811D01*
X17042461Y34342116D01*
X17054615Y34258590D01*
X17074766Y34175180D01*
X17083821Y34144287D01*
X17163067Y33941989D01*
X17270595Y33758551D01*
X17404346Y33596154D01*
X17562260Y33456975D01*
X17742278Y33343196D01*
X17942342Y33256995D01*
X18000154Y33238144D01*
X18066003Y33220726D01*
X18132181Y33209565D01*
X18210164Y33202849D01*
X18311430Y33198767D01*
X18394152Y33197467D01*
X18520632Y33201966D01*
X18630976Y33216715D01*
X18736587Y33243530D01*
X18848872Y33284223D01*
X18852326Y33285623D01*
X18954273Y33331411D01*
X19047438Y33383838D01*
X19139318Y33448132D01*
X19237410Y33529523D01*
X19349210Y33633241D01*
X19350459Y33634443D01*
X19434432Y33716978D01*
X19493976Y33781203D01*
X19530846Y33831605D01*
X19546797Y33872669D01*
X19543583Y33908882D01*
X19522959Y33944729D01*
X19486680Y33984696D01*
X19448110Y34019722D01*
X19410869Y34041540D01*
X19372960Y34045928D01*
X19329788Y34031272D01*
X19276758Y33995960D01*
X19209275Y33938378D01*
X19122746Y33856913D01*
X19100321Y33835504D01*
X18987162Y33734484D01*
X18884918Y33657558D01*
X18786615Y33600571D01*
X18685279Y33559365D01*
X18573935Y33529783D01*
X18513916Y33518867D01*
X18333420Y33507518D01*
X18159112Y33527316D01*
X17994031Y33575811D01*
X17841220Y33650557D01*
X17703718Y33749105D01*
X17584567Y33869008D01*
X17486807Y34007818D01*
X17413479Y34163087D01*
X17367624Y34332367D01*
X17352283Y34513210D01*
X17355205Y34602698D01*
X17373551Y34742474D01*
X17411668Y34872602D01*
X17472982Y35007090D01*
X17495707Y35047151D01*
X17525818Y35092133D01*
X17564870Y35142582D01*
X17616081Y35202233D01*
X17682665Y35274821D01*
X17767840Y35364081D01*
X17874821Y35473749D01*
X17965739Y35565354D01*
X18054380Y35652826D01*
X18135152Y35730743D01*
X18203990Y35795235D01*
X18256826Y35842432D01*
X18289596Y35868466D01*
X18358690Y35906305D01*
X18463430Y35934327D01*
X18568360Y35927829D01*
X18672455Y35886933D01*
X18774692Y35811757D01*
X18803621Y35784186D01*
X18881189Y35691781D01*
X18926812Y35599938D01*
X18942393Y35505178D01*
X18942461Y35498286D01*
X18941336Y35450454D01*
X18935522Y35407541D01*
X18922504Y35365888D01*
X18899768Y35321833D01*
X18864798Y35271716D01*
X18815079Y35211879D01*
X18748097Y35138659D01*
X18661335Y35048398D01*
X18552280Y34937434D01*
X18491102Y34875430D01*
X18402811Y34785385D01*
X18334926Y34714885D01*
X18284786Y34660742D01*
X18249729Y34619766D01*
X18227095Y34588768D01*
X18214223Y34564557D01*
X18208451Y34543945D01*
X18207118Y34523742D01*
X18210670Y34487160D01*
X18238804Y34426537D01*
X18292080Y34387773D01*
X18367014Y34374128D01*
X18388084Y34374609D01*
X18408977Y34377903D01*
X18431074Y34386741D01*
X18457705Y34403853D01*
X18492199Y34431972D01*
X18537886Y34473829D01*
X18598096Y34532154D01*
X18676157Y34609679D01*
X18775399Y34709135D01*
X18820508Y34754489D01*
X18914757Y34850174D01*
X18988519Y34926978D01*
X19045016Y34988634D01*
X19087468Y35038880D01*
X19119095Y35081452D01*
X19143117Y35120085D01*
X19162755Y35158516D01*
X19203426Y35261103D01*
X19237897Y35418596D01*
X19238613Y35573391D01*
X19205944Y35722929D01*
X19140258Y35864654D01*
X19041925Y35996009D01*
X19019405Y36019500D01*
X18900569Y36114545D01*
X18764814Y36182945D01*
X18618288Y36222884D01*
X18467140Y36232545D01*
X18317518Y36210109D01*
X18304974Y36206700D01*
X18251574Y36190004D01*
X18201359Y36169306D01*
X18150949Y36141946D01*
X18096963Y36105262D01*
X18036017Y36056595D01*
X17964732Y35993283D01*
X17879725Y35912667D01*
X17777615Y35812086D01*
X17655020Y35688879D01*
X17597136Y35630338D01*
X17498561Y35530237D01*
X17419993Y35449388D01*
X17358410Y35384211D01*
X17310788Y35331124D01*
X17274104Y35286545D01*
X17245337Y35246895D01*
X17221464Y35208591D01*
X17199462Y35168052D01*
X17176309Y35121698D01*
X17147280Y35060373D01*
X17093952Y34927436D01*
X17059640Y34800720D01*
X17041302Y34667040D01*
X17035897Y34513210D01*
X16773357Y34513210D01*
X16774248Y34614633D01*
X16779840Y34734725D01*
X16792170Y34837598D01*
X16813081Y34933401D01*
X16844417Y35032285D01*
X16888024Y35144400D01*
X16925144Y35223839D01*
X16987504Y35334537D01*
X17059994Y35445689D01*
X17135299Y35546243D01*
X17206107Y35625146D01*
X17243791Y35663890D01*
X17274079Y35699542D01*
X17285694Y35719685D01*
X17285453Y35720879D01*
X17270811Y35742091D01*
X17236807Y35781876D01*
X17188069Y35835010D01*
X17129226Y35896270D01*
X17097928Y35928339D01*
X17042244Y35987194D01*
X17005869Y36030083D01*
X16984818Y36062698D01*
X16975109Y36090732D01*
X16972758Y36119877D01*
X16972772Y36122016D01*
X16977067Y36155176D01*
X17309473Y36155176D01*
X17316616Y36106486D01*
X17346212Y36053639D01*
X17390701Y36005239D01*
X17442520Y35969890D01*
X17494106Y35956195D01*
X17519468Y35966231D01*
X17568552Y36001372D01*
X17637889Y36060716D01*
X17726124Y36143171D01*
X17743077Y36159386D01*
X17873734Y36275211D01*
X17995017Y36363542D01*
X18113173Y36427208D01*
X18234450Y36469036D01*
X18365097Y36491853D01*
X18511362Y36498486D01*
X18678618Y36484151D01*
X18850610Y36438756D01*
X19008745Y36365050D01*
X19150239Y36265852D01*
X19272313Y36143979D01*
X19372184Y36002249D01*
X19447070Y35843480D01*
X19494190Y35670490D01*
X19510763Y35486096D01*
X19503168Y35359745D01*
X19463798Y35180988D01*
X19391409Y35012153D01*
X19286622Y34854987D01*
X19259509Y34822332D01*
X19196975Y34752017D01*
X19120811Y34670895D01*
X19035177Y34582981D01*
X18944233Y34492292D01*
X18852139Y34402845D01*
X18763054Y34318656D01*
X18681139Y34243740D01*
X18610554Y34182116D01*
X18555458Y34137799D01*
X18520011Y34114806D01*
X18456873Y34091706D01*
X18347170Y34078219D01*
X18239982Y34099057D01*
X18136351Y34153946D01*
X18037321Y34242609D01*
X17969240Y34330858D01*
X17925282Y34428504D01*
X17913353Y34530476D01*
X17932186Y34641583D01*
X17933138Y34644730D01*
X17944667Y34671469D01*
X17965314Y34704108D01*
X17997723Y34745694D01*
X18044541Y34799270D01*
X18108415Y34867881D01*
X18191991Y34954574D01*
X18297917Y35062393D01*
X18355659Y35120960D01*
X18447503Y35215026D01*
X18518504Y35289471D01*
X18571301Y35347354D01*
X18608533Y35391738D01*
X18632839Y35425681D01*
X18646857Y35452244D01*
X18653227Y35474488D01*
X18656348Y35516012D01*
X18644395Y35550975D01*
X18610462Y35590296D01*
X18594958Y35604938D01*
X18547252Y35634960D01*
X18491095Y35643258D01*
X18479501Y35642987D01*
X18459153Y35639976D01*
X18437354Y35631381D01*
X18410832Y35614451D01*
X18376317Y35586440D01*
X18330540Y35544596D01*
X18270229Y35486173D01*
X18192115Y35408420D01*
X18092927Y35308590D01*
X18009333Y35223189D01*
X17923831Y35133535D01*
X17847775Y35051422D01*
X17784996Y34981064D01*
X17739326Y34926676D01*
X17714597Y34892473D01*
X17689661Y34844164D01*
X17641171Y34702489D01*
X17620479Y34551137D01*
X17628288Y34399172D01*
X17665298Y34255661D01*
X17702847Y34174924D01*
X17786085Y34053959D01*
X17891938Y33948318D01*
X18013482Y33864465D01*
X18143791Y33808869D01*
X18191939Y33797643D01*
X18294517Y33786260D01*
X18406054Y33785864D01*
X18512486Y33796204D01*
X18599750Y33817027D01*
X18618619Y33823946D01*
X18669692Y33845429D01*
X18719330Y33871726D01*
X18771148Y33905763D01*
X18828759Y33950465D01*
X18895776Y34008758D01*
X18975812Y34083568D01*
X19072481Y34177819D01*
X19189395Y34294437D01*
X19199996Y34305089D01*
X19330673Y34438175D01*
X19438507Y34552494D01*
X19526328Y34652191D01*
X19596969Y34741407D01*
X19653264Y34824288D01*
X19698044Y34904975D01*
X19734144Y34987613D01*
X19764394Y35076344D01*
X19791628Y35175312D01*
X19804281Y35235911D01*
X19819067Y35364695D01*
X19822915Y35505471D01*
X19816138Y35646891D01*
X19799049Y35777609D01*
X19771964Y35886278D01*
X19760312Y35919310D01*
X19668809Y36123131D01*
X19552297Y36303638D01*
X19412350Y36459537D01*
X19250540Y36589530D01*
X19068440Y36692323D01*
X18867622Y36766619D01*
X18649659Y36811123D01*
X18542559Y36819285D01*
X18355412Y36810306D01*
X18165296Y36774900D01*
X17981689Y36715087D01*
X17814065Y36632890D01*
X17769097Y36601833D01*
X17709104Y36554099D01*
X17639528Y36494678D01*
X17565560Y36428414D01*
X17492391Y36360150D01*
X17425209Y36294729D01*
X17369206Y36236994D01*
X17329572Y36191787D01*
X17311497Y36163951D01*
X17309473Y36155176D01*
X16977067Y36155176D01*
X16980344Y36180477D01*
X16997650Y36232066D01*
X16998749Y36234025D01*
X17021342Y36263205D01*
X17064386Y36311188D01*
X17123562Y36373418D01*
X17194551Y36445342D01*
X17273034Y36522407D01*
X17376213Y36619330D01*
X17518753Y36741205D01*
X17653424Y36839212D01*
X17786398Y36916805D01*
X17923847Y36977437D01*
X18071942Y37024559D01*
X18236854Y37061626D01*
X18292288Y37070952D01*
X18509165Y37086073D01*
X18725916Y37069079D01*
X18938828Y37021843D01*
X19144189Y36946239D01*
X19338284Y36844140D01*
X19517402Y36717422D01*
X19677828Y36567956D01*
X19815850Y36397619D01*
X19927754Y36208282D01*
X19968777Y36118639D01*
X20045345Y35895371D01*
X20088459Y35668616D01*
X20095662Y35505471D01*
X20098506Y35441068D01*
X20075873Y35215426D01*
X20020946Y34994383D01*
X19934112Y34780637D01*
X19815758Y34576882D01*
X19666271Y34385815D01*
X19575371Y34284498D01*
X19705889Y34151113D01*
X19745782Y34109723D01*
X19799047Y34052461D01*
X19840986Y34005010D01*
X19864952Y33974742D01*
X19871582Y33963875D01*
X19892700Y33892618D01*
X19890302Y33872669D01*
X19883346Y33814786D01*
X19844175Y33737824D01*
G37*
G36*
X11612491Y34778173D02*
G01*
X11612391Y34635737D01*
X11600133Y34501831D01*
X11576603Y34384760D01*
X11542689Y34292831D01*
X11493281Y34216762D01*
X11424472Y34140165D01*
X11347713Y34074973D01*
X11273659Y34031535D01*
X11254517Y34024296D01*
X11189640Y34005784D01*
X11122587Y33992894D01*
X11004069Y33987322D01*
X10869708Y34005185D01*
X10746813Y34047165D01*
X10643905Y34111159D01*
X10643733Y34111301D01*
X10588436Y34169753D01*
X10538584Y34244692D01*
X10501405Y34323371D01*
X10484123Y34393042D01*
X10479329Y34452362D01*
X10594961Y34457463D01*
X10710593Y34462565D01*
X10751429Y34388810D01*
X10783465Y34340116D01*
X10845225Y34284495D01*
X10924889Y34253661D01*
X11028093Y34244675D01*
X11115706Y34253845D01*
X11207997Y34289456D01*
X11277400Y34350988D01*
X11322920Y34437482D01*
X11343559Y34547981D01*
X11348597Y34626215D01*
X10918759Y34630864D01*
X10817978Y34631797D01*
X10698656Y34633190D01*
X10607846Y34636341D01*
X10541860Y34643158D01*
X10497011Y34655549D01*
X10469614Y34675424D01*
X10455980Y34704690D01*
X10452423Y34745256D01*
X10455257Y34799031D01*
X10460794Y34867922D01*
X10460942Y34869610D01*
X10705338Y34869610D01*
X11022621Y34864872D01*
X11339904Y34860133D01*
X11339904Y34913240D01*
X11331478Y34977364D01*
X11292738Y35061937D01*
X11226316Y35132014D01*
X11214310Y35140508D01*
X11133969Y35176118D01*
X11039363Y35191648D01*
X10943080Y35186183D01*
X10857705Y35158810D01*
X10855736Y35157796D01*
X10781931Y35101366D01*
X10731216Y35024745D01*
X10709372Y34936593D01*
X10705338Y34869610D01*
X10460942Y34869610D01*
X10466108Y34928682D01*
X10482955Y35040658D01*
X10509277Y35130262D01*
X10547923Y35205728D01*
X10601740Y35275287D01*
X10613858Y35288454D01*
X10695085Y35359976D01*
X10784413Y35407404D01*
X10889645Y35433868D01*
X11018582Y35442499D01*
X11064659Y35442459D01*
X11130755Y35439688D01*
X11182011Y35431145D01*
X11231371Y35414154D01*
X11291782Y35386040D01*
X11394832Y35323729D01*
X11477386Y35244782D01*
X11538181Y35146815D01*
X11579857Y35025535D01*
X11598862Y34913240D01*
X11605054Y34876650D01*
X11612491Y34778173D01*
G37*
G36*
X14582058Y34609430D02*
G01*
X14580916Y34528116D01*
X14578088Y34468622D01*
X14572815Y34424546D01*
X14564337Y34389484D01*
X14551897Y34357034D01*
X14534734Y34320795D01*
X14490534Y34244162D01*
X14399775Y34138151D01*
X14288997Y34059154D01*
X14160947Y34009461D01*
X14125332Y34002789D01*
X14036085Y33997681D01*
X13937011Y34003093D01*
X13842737Y34017857D01*
X13767890Y34040807D01*
X13749008Y34049694D01*
X13643865Y34119615D01*
X13553212Y34214514D01*
X13485003Y34326362D01*
X13467310Y34365762D01*
X13453911Y34401387D01*
X13444819Y34438131D01*
X13439201Y34482723D01*
X13436221Y34541893D01*
X13435045Y34622373D01*
X13434850Y34725049D01*
X13687308Y34725049D01*
X13687429Y34697148D01*
X13690633Y34579852D01*
X13699562Y34490360D01*
X13716105Y34423028D01*
X13742148Y34372212D01*
X13779579Y34332272D01*
X13830286Y34297562D01*
X13840019Y34292090D01*
X13933164Y34258651D01*
X14032027Y34251684D01*
X14128183Y34269731D01*
X14213210Y34311338D01*
X14278685Y34375049D01*
X14300854Y34419161D01*
X14322581Y34500076D01*
X14336463Y34602501D01*
X14341616Y34719348D01*
X14337155Y34843532D01*
X14327185Y34931675D01*
X14304410Y35022417D01*
X14267246Y35090203D01*
X14211986Y35141236D01*
X14134920Y35181717D01*
X14103305Y35192937D01*
X14006738Y35206025D01*
X13911172Y35191501D01*
X13824106Y35152329D01*
X13753038Y35091476D01*
X13705470Y35011907D01*
X13704033Y35007397D01*
X13697376Y34966186D01*
X13692026Y34899968D01*
X13688499Y34816877D01*
X13687308Y34725049D01*
X13434850Y34725049D01*
X13434839Y34730893D01*
X13434839Y35026809D01*
X13492071Y35143065D01*
X13501552Y35161672D01*
X13577109Y35273844D01*
X13672085Y35358496D01*
X13789859Y35418759D01*
X13835589Y35434220D01*
X13891757Y35446124D01*
X13956725Y35450410D01*
X14043326Y35448586D01*
X14045972Y35448471D01*
X14128459Y35443109D01*
X14188813Y35433686D01*
X14239319Y35417380D01*
X14292264Y35391366D01*
X14388272Y35326286D01*
X14470257Y35237661D01*
X14537051Y35122491D01*
X14551742Y35089977D01*
X14564100Y35056506D01*
X14572580Y35020468D01*
X14577911Y34975423D01*
X14580818Y34914929D01*
X14582030Y34832546D01*
X14582272Y34721835D01*
X14582272Y34718966D01*
X14582058Y34609430D01*
G37*
G36*
X15443858Y36000758D02*
G01*
X15550665Y35974294D01*
X15619966Y35941930D01*
X15719794Y35872302D01*
X15802929Y35786101D01*
X15860332Y35691580D01*
X15892905Y35582523D01*
X15900950Y35457809D01*
X15881909Y35334423D01*
X15837122Y35220599D01*
X15767932Y35124564D01*
X15738945Y35096277D01*
X15674606Y35046661D01*
X15597377Y35005072D01*
X15499999Y34967945D01*
X15375211Y34931716D01*
X15329215Y34919385D01*
X15214266Y34884781D01*
X15127623Y34850600D01*
X15064684Y34813681D01*
X15020851Y34770867D01*
X14991522Y34718998D01*
X14972096Y34654915D01*
X14965456Y34609272D01*
X14974608Y34511280D01*
X15013248Y34421002D01*
X15077798Y34345204D01*
X15164681Y34290652D01*
X15241739Y34270348D01*
X15335095Y34265242D01*
X15427811Y34275505D01*
X15504395Y34300680D01*
X15555189Y34330657D01*
X15628904Y34398722D01*
X15672134Y34482221D01*
X15686242Y34583272D01*
X15686242Y34583626D01*
X15693104Y34634496D01*
X15717240Y34666197D01*
X15764176Y34682471D01*
X15839438Y34687064D01*
X15866513Y34686492D01*
X15920668Y34677426D01*
X15951051Y34652734D01*
X15962213Y34606535D01*
X15958704Y34532952D01*
X15956221Y34512458D01*
X15920675Y34375237D01*
X15855667Y34253345D01*
X15764171Y34150247D01*
X15649162Y34069411D01*
X15513617Y34014303D01*
X15468325Y34005212D01*
X15385091Y33998088D01*
X15291428Y33998429D01*
X15175901Y34013144D01*
X15038927Y34057399D01*
X14918538Y34127654D01*
X14819157Y34221181D01*
X14745213Y34335250D01*
X14737913Y34351408D01*
X14708169Y34454629D01*
X14696554Y34571998D01*
X14703524Y34690101D01*
X14729538Y34795525D01*
X14782604Y34899452D01*
X14860633Y34989418D01*
X14964922Y35064308D01*
X15097813Y35125793D01*
X15261646Y35175545D01*
X15362644Y35202934D01*
X15464082Y35239390D01*
X15537675Y35280125D01*
X15587307Y35328113D01*
X15616860Y35386325D01*
X15630215Y35457735D01*
X15630629Y35512829D01*
X15608851Y35600585D01*
X15558826Y35668842D01*
X15481758Y35716243D01*
X15378851Y35741429D01*
X15271419Y35741483D01*
X15175338Y35715553D01*
X15097915Y35665923D01*
X15043275Y35595262D01*
X15015539Y35506238D01*
X15005335Y35453378D01*
X14982183Y35409522D01*
X14940832Y35388122D01*
X14873596Y35382478D01*
X14873492Y35382478D01*
X14807061Y35388859D01*
X14767628Y35411470D01*
X14750761Y35455551D01*
X14752034Y35526344D01*
X14752222Y35528147D01*
X14782107Y35661680D01*
X14841429Y35776727D01*
X14930070Y35873120D01*
X15047911Y35950687D01*
X15091910Y35969832D01*
X15201732Y35997928D01*
X15323297Y36008437D01*
X15443858Y36000758D01*
G37*
G36*
X13166949Y36004906D02*
G01*
X13278371Y35999658D01*
X13282909Y35026078D01*
X13283768Y34830714D01*
X13284384Y34651148D01*
X13284610Y34501109D01*
X13284380Y34377877D01*
X13283623Y34278734D01*
X13282273Y34200960D01*
X13280259Y34141835D01*
X13277514Y34098640D01*
X13273970Y34068655D01*
X13269558Y34049161D01*
X13264209Y34037438D01*
X13257855Y34030767D01*
X13252504Y34027282D01*
X13206145Y34012777D01*
X13147405Y34009731D01*
X13091488Y34017729D01*
X13053603Y34036355D01*
X13052243Y34037839D01*
X13046470Y34048123D01*
X13041611Y34065930D01*
X13037589Y34093983D01*
X13034331Y34135008D01*
X13031760Y34191730D01*
X13029801Y34266874D01*
X13028379Y34363163D01*
X13027418Y34483324D01*
X13026843Y34630081D01*
X13026579Y34806158D01*
X13026549Y35014281D01*
X13026662Y35117192D01*
X13027245Y35290833D01*
X13028278Y35452443D01*
X13029710Y35598772D01*
X13031495Y35726573D01*
X13033582Y35832596D01*
X13035923Y35913594D01*
X13038469Y35966318D01*
X13041171Y35987520D01*
X13053294Y35997006D01*
X13094915Y36005092D01*
X13166949Y36004906D01*
G37*
G36*
X10232852Y35431751D02*
G01*
X10247943Y35421798D01*
X10259389Y35402137D01*
X10267691Y35369634D01*
X10273347Y35321158D01*
X10276855Y35253575D01*
X10278716Y35163754D01*
X10279427Y35048561D01*
X10279488Y34904864D01*
X10279397Y34729531D01*
X10279397Y34727330D01*
X10279304Y34554852D01*
X10278931Y34413847D01*
X10278139Y34301057D01*
X10276786Y34213224D01*
X10274731Y34147088D01*
X10271832Y34099391D01*
X10267948Y34066873D01*
X10262937Y34046277D01*
X10256660Y34034343D01*
X10248973Y34027813D01*
X10241984Y34024483D01*
X10199513Y34014037D01*
X10145903Y34009564D01*
X10109150Y34009893D01*
X10079313Y34014046D01*
X10056873Y34025902D01*
X10040771Y34049327D01*
X10029948Y34088189D01*
X10023342Y34146354D01*
X10019895Y34227688D01*
X10018546Y34336060D01*
X10018235Y34475335D01*
X10018025Y34560333D01*
X10016615Y34688944D01*
X10013044Y34790071D01*
X10006333Y34868393D01*
X9995505Y34928593D01*
X9979579Y34975351D01*
X9957577Y35013347D01*
X9928521Y35047264D01*
X9891431Y35081781D01*
X9816435Y35132606D01*
X9722353Y35163790D01*
X9606327Y35173757D01*
X9542940Y35179145D01*
X9503938Y35199580D01*
X9484775Y35241301D01*
X9479671Y35310552D01*
X9480269Y35332963D01*
X9491286Y35386581D01*
X9520006Y35417912D01*
X9571393Y35430349D01*
X9650411Y35427286D01*
X9750421Y35411274D01*
X9852527Y35376451D01*
X9942634Y35321091D01*
X9978575Y35296233D01*
X10019908Y35280446D01*
X10046653Y35293111D01*
X10062707Y35334668D01*
X10065707Y35347863D01*
X10085590Y35400762D01*
X10116937Y35427339D01*
X10167099Y35434634D01*
X10189744Y35435062D01*
X10213619Y35435128D01*
X10232852Y35431751D01*
G37*
G36*
X12864714Y34505508D02*
G01*
X12842407Y34388521D01*
X12809538Y34295506D01*
X12807506Y34291419D01*
X12753068Y34207813D01*
X12679797Y34128241D01*
X12597837Y34062284D01*
X12517334Y34019525D01*
X12499563Y34013686D01*
X12407831Y33997646D01*
X12305512Y33997118D01*
X12206841Y34011370D01*
X12126056Y34039669D01*
X12078414Y34062688D01*
X12031451Y34076005D01*
X11993393Y34069622D01*
X11953135Y34043806D01*
X11902702Y34017340D01*
X11840500Y34010792D01*
X11786361Y34030767D01*
X11780432Y34036819D01*
X11775012Y34048086D01*
X11770535Y34066927D01*
X11766930Y34096063D01*
X11764130Y34138212D01*
X11762066Y34196094D01*
X11760669Y34272429D01*
X11759872Y34369937D01*
X11759606Y34491336D01*
X11759802Y34639346D01*
X11760076Y34721835D01*
X11983926Y34721835D01*
X11984557Y34659794D01*
X11991682Y34537701D01*
X12008531Y34443379D01*
X12037339Y34372363D01*
X12080340Y34320188D01*
X12139770Y34282388D01*
X12217864Y34254500D01*
X12308992Y34240554D01*
X12411224Y34254484D01*
X12502673Y34300824D01*
X12580129Y34378475D01*
X12604539Y34426333D01*
X12625775Y34506996D01*
X12638734Y34605568D01*
X12643423Y34713456D01*
X12639848Y34822064D01*
X12628015Y34922798D01*
X12607932Y35007064D01*
X12579605Y35066268D01*
X12571263Y35077055D01*
X12498627Y35143330D01*
X12412719Y35184413D01*
X12320174Y35200757D01*
X12227624Y35192814D01*
X12141704Y35161038D01*
X12069047Y35105882D01*
X12016289Y35027798D01*
X12004267Y34996864D01*
X11994210Y34954692D01*
X11987982Y34899657D01*
X11984811Y34824469D01*
X11983926Y34721835D01*
X11760076Y34721835D01*
X11760391Y34816687D01*
X11761306Y35026078D01*
X11765845Y35999658D01*
X11877267Y36004906D01*
X11926102Y36005965D01*
X11978693Y36001030D01*
X12003044Y35987520D01*
X12006250Y35975345D01*
X12010715Y35931916D01*
X12014310Y35864255D01*
X12016729Y35778759D01*
X12017666Y35681830D01*
X12017869Y35618924D01*
X12019129Y35527164D01*
X12021886Y35462967D01*
X12026546Y35421665D01*
X12033516Y35398590D01*
X12043205Y35389074D01*
X12063569Y35388456D01*
X12109203Y35397657D01*
X12165554Y35415698D01*
X12289819Y35445636D01*
X12415389Y35443890D01*
X12534820Y35411373D01*
X12643412Y35350034D01*
X12736466Y35261822D01*
X12809282Y35148687D01*
X12817916Y35129567D01*
X12848378Y35030057D01*
X12868291Y34908740D01*
X12877653Y34774773D01*
X12877122Y34713456D01*
X12876462Y34637310D01*
X12864714Y34505508D01*
G37*
%TO.C,U1*%
X10787868Y23030509D02*
X10787868Y23313351D01*
X11070711Y23313351D02*
X11070711Y23030509D01*
X10929289Y23313351D02*
X10929289Y23030509D01*
X10787868Y23313351D02*
X11070711Y23313351D01*
X15049999Y19000000D02*
G75*
G03*
X15049999Y19000000I-4049999J0D01*
G01*
D11*
%TO.C,*%
X9410000Y4140000D02*
X9410000Y4230000D01*
X9410000Y4230000D02*
X9440000Y4300000D01*
X9440000Y4300000D02*
X9490000Y4340000D01*
X9490000Y4340000D02*
X9540000Y4350000D01*
X9540000Y4350000D02*
X9620000Y4360000D01*
X9620000Y4360000D02*
X9730000Y4360000D01*
X9730000Y4360000D02*
X9850000Y4360000D01*
X9850000Y4360000D02*
X9940000Y4350000D01*
X9940000Y4350000D02*
X10000000Y4340000D01*
X10000000Y4340000D02*
X10040000Y4320000D01*
X10040000Y4320000D02*
X10080000Y4250000D01*
X10080000Y4250000D02*
X10080000Y4160000D01*
X10080000Y4160000D02*
X10040000Y4090000D01*
X10040000Y4090000D02*
X10000000Y4070000D01*
X10000000Y4070000D02*
X9940000Y4060000D01*
X9940000Y4060000D02*
X9850000Y4050000D01*
X9850000Y4050000D02*
X9730000Y4050000D01*
X9730000Y4050000D02*
X9620000Y4050000D01*
X9620000Y4050000D02*
X9540000Y4060000D01*
X9540000Y4060000D02*
X9490000Y4070000D01*
X9490000Y4070000D02*
X9430000Y4100000D01*
X9430000Y4100000D02*
X9410000Y4140000D01*
X9410000Y4140000D02*
X9410000Y4140000D01*
G36*
X9940000Y4350000D02*
G01*
X10000000Y4340000D01*
X10040000Y4320000D01*
X10080000Y4250000D01*
X10080000Y4160000D01*
X10040000Y4090000D01*
X10000000Y4070000D01*
X9940000Y4060000D01*
X9850000Y4050000D01*
X9620000Y4050000D01*
X9540000Y4060000D01*
X9490000Y4070000D01*
X9430000Y4100000D01*
X9410000Y4140000D01*
X9410000Y4230000D01*
X9440000Y4300000D01*
X9490000Y4340000D01*
X9540000Y4350000D01*
X9620000Y4360000D01*
X9850000Y4360000D01*
X9940000Y4350000D01*
G37*
X9940000Y4350000D02*
X10000000Y4340000D01*
X10040000Y4320000D01*
X10080000Y4250000D01*
X10080000Y4160000D01*
X10040000Y4090000D01*
X10000000Y4070000D01*
X9940000Y4060000D01*
X9850000Y4050000D01*
X9620000Y4050000D01*
X9540000Y4060000D01*
X9490000Y4070000D01*
X9430000Y4100000D01*
X9410000Y4140000D01*
X9410000Y4230000D01*
X9440000Y4300000D01*
X9490000Y4340000D01*
X9540000Y4350000D01*
X9620000Y4360000D01*
X9850000Y4360000D01*
X9940000Y4350000D01*
X9410000Y3160000D02*
X9410000Y3240000D01*
X9410000Y3240000D02*
X9420000Y3320000D01*
X9420000Y3320000D02*
X9470000Y3380000D01*
X9470000Y3380000D02*
X9510000Y3390000D01*
X9510000Y3390000D02*
X9580000Y3400000D01*
X9580000Y3400000D02*
X9680000Y3400000D01*
X9680000Y3400000D02*
X9800000Y3400000D01*
X9800000Y3400000D02*
X9900000Y3400000D01*
X9900000Y3400000D02*
X9970000Y3400000D01*
X9970000Y3400000D02*
X10020000Y3380000D01*
X10020000Y3380000D02*
X10070000Y3330000D01*
X10070000Y3330000D02*
X10090000Y3250000D01*
X10090000Y3250000D02*
X10090000Y3170000D01*
X10090000Y3170000D02*
X10070000Y3100000D01*
X10070000Y3100000D02*
X9430000Y3100000D01*
X9430000Y3100000D02*
X9410000Y3160000D01*
X9410000Y3160000D02*
X9410000Y3160000D01*
G36*
X10020000Y3380000D02*
G01*
X10070000Y3330000D01*
X10090000Y3250000D01*
X10090000Y3170000D01*
X10070000Y3100000D01*
X9430000Y3100000D01*
X9410000Y3160000D01*
X9410000Y3240000D01*
X9420000Y3320000D01*
X9470000Y3380000D01*
X9510000Y3390000D01*
X9580000Y3400000D01*
X9970000Y3400000D01*
X10020000Y3380000D01*
G37*
X10020000Y3380000D02*
X10070000Y3330000D01*
X10090000Y3250000D01*
X10090000Y3170000D01*
X10070000Y3100000D01*
X9430000Y3100000D01*
X9410000Y3160000D01*
X9410000Y3240000D01*
X9420000Y3320000D01*
X9470000Y3380000D01*
X9510000Y3390000D01*
X9580000Y3400000D01*
X9970000Y3400000D01*
X10020000Y3380000D01*
X10530000Y350000D02*
X10530000Y30000D01*
X10530000Y30000D02*
X10480000Y0D01*
X10480000Y0D02*
X8970000Y0D01*
X8970000Y0D02*
X8930000Y40000D01*
X8930000Y40000D02*
X8930000Y6480000D01*
X8930000Y6480000D02*
X8940000Y6560000D01*
X8940000Y6560000D02*
X8950000Y6640000D01*
X8950000Y6640000D02*
X8970000Y6720000D01*
X8970000Y6720000D02*
X9000000Y6790000D01*
X9000000Y6790000D02*
X9030000Y6860000D01*
X9030000Y6860000D02*
X9070000Y6930000D01*
X9070000Y6930000D02*
X9120000Y7000000D01*
X9120000Y7000000D02*
X9170000Y7050000D01*
X9170000Y7050000D02*
X9230000Y7110000D01*
X9230000Y7110000D02*
X9300000Y7150000D01*
X9300000Y7150000D02*
X9370000Y7190000D01*
X9370000Y7190000D02*
X9440000Y7230000D01*
X9440000Y7230000D02*
X9520000Y7250000D01*
X9520000Y7250000D02*
X9590000Y7270000D01*
X9590000Y7270000D02*
X9670000Y7280000D01*
X9670000Y7280000D02*
X9750000Y7280000D01*
X9750000Y7280000D02*
X9830000Y7270000D01*
X9830000Y7270000D02*
X9910000Y7260000D01*
X9910000Y7260000D02*
X9990000Y7240000D01*
X9990000Y7240000D02*
X10060000Y7210000D01*
X10060000Y7210000D02*
X10130000Y7170000D01*
X10130000Y7170000D02*
X10200000Y7130000D01*
X10200000Y7130000D02*
X10260000Y7080000D01*
X10260000Y7080000D02*
X10320000Y7020000D01*
X10320000Y7020000D02*
X10370000Y6960000D01*
X10370000Y6960000D02*
X10410000Y6900000D01*
X10410000Y6900000D02*
X10450000Y6830000D01*
X10450000Y6830000D02*
X10480000Y6750000D01*
X10480000Y6750000D02*
X10500000Y6680000D01*
X10500000Y6680000D02*
X10520000Y6600000D01*
X10520000Y6600000D02*
X10530000Y6520000D01*
X10530000Y6520000D02*
X10530000Y6440000D01*
X10530000Y6440000D02*
X10530000Y400000D01*
X10530000Y400000D02*
X10230000Y2900000D01*
X10230000Y2900000D02*
X10280000Y2940000D01*
X10280000Y2940000D02*
X10280000Y3270000D01*
X10280000Y3270000D02*
X10270000Y3350000D01*
X10270000Y3350000D02*
X10240000Y3420000D01*
X10240000Y3420000D02*
X10200000Y3480000D01*
X10200000Y3480000D02*
X10140000Y3530000D01*
X10140000Y3530000D02*
X10070000Y3570000D01*
X10070000Y3570000D02*
X10020000Y3590000D01*
X10020000Y3590000D02*
X9950000Y3600000D01*
X9950000Y3600000D02*
X9860000Y3610000D01*
X9860000Y3610000D02*
X9760000Y3610000D01*
X9760000Y3610000D02*
X9720000Y3850000D01*
X9720000Y3850000D02*
X9830000Y3850000D01*
X9830000Y3850000D02*
X9920000Y3860000D01*
X9920000Y3860000D02*
X10000000Y3870000D01*
X10000000Y3870000D02*
X10060000Y3880000D01*
X10060000Y3880000D02*
X10120000Y3900000D01*
X10120000Y3900000D02*
X10180000Y3950000D01*
X10180000Y3950000D02*
X10230000Y4010000D01*
X10230000Y4010000D02*
X10260000Y4080000D01*
X10260000Y4080000D02*
X10280000Y4160000D01*
X10280000Y4160000D02*
X10280000Y4250000D01*
X10280000Y4250000D02*
X10260000Y4320000D01*
X10260000Y4320000D02*
X10230000Y4390000D01*
X10230000Y4390000D02*
X10180000Y4450000D01*
X10180000Y4450000D02*
X10120000Y4500000D01*
X10120000Y4500000D02*
X10060000Y4520000D01*
X10060000Y4520000D02*
X10000000Y4530000D01*
X10000000Y4530000D02*
X9920000Y4540000D01*
X9920000Y4540000D02*
X9830000Y4550000D01*
X9830000Y4550000D02*
X9720000Y4550000D01*
X9720000Y4550000D02*
X9620000Y4550000D01*
X9620000Y4550000D02*
X9580000Y4790000D01*
X9580000Y4790000D02*
X10210000Y4790000D01*
X10210000Y4790000D02*
X10280000Y4810000D01*
X10280000Y4810000D02*
X10280000Y4890000D01*
X10280000Y4890000D02*
X10280000Y4970000D01*
X10280000Y4970000D02*
X10210000Y4990000D01*
X10210000Y4990000D02*
X9570000Y4990000D01*
X9570000Y4990000D02*
X9490000Y5000000D01*
X9490000Y5000000D02*
X9440000Y5040000D01*
X9440000Y5040000D02*
X9410000Y5120000D01*
X9410000Y5120000D02*
X9420000Y5200000D01*
X9420000Y5200000D02*
X9460000Y5270000D01*
X9460000Y5270000D02*
X9530000Y5300000D01*
X9530000Y5300000D02*
X10250000Y5300000D01*
X10250000Y5300000D02*
X10280000Y5350000D01*
X10280000Y5350000D02*
X10280000Y5430000D01*
X10280000Y5430000D02*
X10250000Y5490000D01*
X10250000Y5490000D02*
X10210000Y5730000D01*
X10210000Y5730000D02*
X10280000Y5740000D01*
X10280000Y5740000D02*
X10280000Y5820000D01*
X10280000Y5820000D02*
X10280000Y6300000D01*
X10280000Y6300000D02*
X10260000Y6360000D01*
X10260000Y6360000D02*
X10180000Y6360000D01*
X10180000Y6360000D02*
X10100000Y6360000D01*
X10100000Y6360000D02*
X10090000Y6280000D01*
X10090000Y6280000D02*
X10090000Y6200000D01*
X10090000Y6200000D02*
X10070000Y6140000D01*
X10070000Y6140000D02*
X9270000Y6140000D01*
X9270000Y6140000D02*
X9210000Y6120000D01*
X9210000Y6120000D02*
X9210000Y6040000D01*
X9210000Y6040000D02*
X9220000Y5960000D01*
X9220000Y5960000D02*
X9290000Y5940000D01*
X9290000Y5940000D02*
X10010000Y5940000D01*
X10010000Y5940000D02*
X10090000Y5940000D01*
X10090000Y5940000D02*
X10090000Y5780000D01*
X10090000Y5780000D02*
X10120000Y5730000D01*
X10120000Y5730000D02*
X10200000Y5730000D01*
X10200000Y5730000D02*
X10240000Y5490000D01*
X10240000Y5490000D02*
X9530000Y5490000D01*
X9530000Y5490000D02*
X9450000Y5480000D01*
X9450000Y5480000D02*
X9380000Y5440000D01*
X9380000Y5440000D02*
X9320000Y5390000D01*
X9320000Y5390000D02*
X9270000Y5330000D01*
X9270000Y5330000D02*
X9230000Y5260000D01*
X9230000Y5260000D02*
X9220000Y5190000D01*
X9220000Y5190000D02*
X9210000Y5130000D01*
X9210000Y5130000D02*
X9220000Y5050000D01*
X9220000Y5050000D02*
X9250000Y4980000D01*
X9250000Y4980000D02*
X9290000Y4910000D01*
X9290000Y4910000D02*
X9350000Y4850000D01*
X9350000Y4850000D02*
X9420000Y4810000D01*
X9420000Y4810000D02*
X9500000Y4790000D01*
X9500000Y4790000D02*
X9580000Y4790000D01*
X9580000Y4790000D02*
X9610000Y4550000D01*
X9610000Y4550000D02*
X9530000Y4540000D01*
X9530000Y4540000D02*
X9460000Y4530000D01*
X9460000Y4530000D02*
X9410000Y4510000D01*
X9410000Y4510000D02*
X9340000Y4470000D01*
X9340000Y4470000D02*
X9280000Y4420000D01*
X9280000Y4420000D02*
X9240000Y4350000D01*
X9240000Y4350000D02*
X9210000Y4280000D01*
X9210000Y4280000D02*
X9210000Y4200000D01*
X9210000Y4200000D02*
X9220000Y4120000D01*
X9220000Y4120000D02*
X9240000Y4050000D01*
X9240000Y4050000D02*
X9280000Y3980000D01*
X9280000Y3980000D02*
X9340000Y3930000D01*
X9340000Y3930000D02*
X9410000Y3890000D01*
X9410000Y3890000D02*
X9460000Y3870000D01*
X9460000Y3870000D02*
X9530000Y3860000D01*
X9530000Y3860000D02*
X9620000Y3850000D01*
X9620000Y3850000D02*
X9720000Y3850000D01*
X9720000Y3850000D02*
X9760000Y3610000D01*
X9760000Y3610000D02*
X9650000Y3610000D01*
X9650000Y3610000D02*
X9570000Y3600000D01*
X9570000Y3600000D02*
X9490000Y3590000D01*
X9490000Y3590000D02*
X9430000Y3580000D01*
X9430000Y3580000D02*
X9370000Y3540000D01*
X9370000Y3540000D02*
X9310000Y3490000D01*
X9310000Y3490000D02*
X9260000Y3430000D01*
X9260000Y3430000D02*
X9230000Y3360000D01*
X9230000Y3360000D02*
X9210000Y3280000D01*
X9210000Y3280000D02*
X9210000Y3170000D01*
X9210000Y3170000D02*
X9210000Y2930000D01*
X9210000Y2930000D02*
X9280000Y2900000D01*
X9280000Y2900000D02*
X10230000Y2900000D01*
X10230000Y2900000D02*
X10530000Y390000D01*
X10530000Y390000D02*
X10530000Y350000D01*
X10530000Y350000D02*
X10530000Y350000D01*
G36*
X9490000Y3590000D02*
G01*
X9430000Y3580000D01*
X9370000Y3540000D01*
X9310000Y3490000D01*
X9260000Y3430000D01*
X9230000Y3360000D01*
X9210000Y3280000D01*
X9210000Y2930000D01*
X9280000Y2900000D01*
X10230000Y2900000D01*
X10530000Y390000D01*
X10530000Y30000D01*
X10480000Y0D01*
X8970000Y0D01*
X8930000Y40000D01*
X8930000Y4200000D01*
X9210000Y4200000D01*
X9220000Y4120000D01*
X9240000Y4050000D01*
X9280000Y3980000D01*
X9340000Y3930000D01*
X9410000Y3890000D01*
X9460000Y3870000D01*
X9530000Y3860000D01*
X9620000Y3850000D01*
X9830000Y3850000D01*
X9920000Y3860000D01*
X10000000Y3870000D01*
X10060000Y3880000D01*
X10120000Y3900000D01*
X10180000Y3950000D01*
X10230000Y4010000D01*
X10260000Y4080000D01*
X10280000Y4160000D01*
X10280000Y4250000D01*
X10260000Y4320000D01*
X10230000Y4390000D01*
X10180000Y4450000D01*
X10120000Y4500000D01*
X10060000Y4520000D01*
X10000000Y4530000D01*
X9920000Y4540000D01*
X9830000Y4550000D01*
X9620000Y4550000D01*
X9580000Y4790000D01*
X10210000Y4790000D01*
X10280000Y4810000D01*
X10280000Y4970000D01*
X10210000Y4990000D01*
X9570000Y4990000D01*
X9490000Y5000000D01*
X9440000Y5040000D01*
X9410000Y5120000D01*
X9420000Y5200000D01*
X9460000Y5270000D01*
X9530000Y5300000D01*
X10250000Y5300000D01*
X10280000Y5350000D01*
X10280000Y5430000D01*
X10250000Y5490000D01*
X10210000Y5730000D01*
X10280000Y5740000D01*
X10280000Y6300000D01*
X10260000Y6360000D01*
X10100000Y6360000D01*
X10090000Y6280000D01*
X10090000Y6200000D01*
X10070000Y6140000D01*
X9270000Y6140000D01*
X9210000Y6120000D01*
X9210000Y6040000D01*
X9220000Y5960000D01*
X9290000Y5940000D01*
X10090000Y5940000D01*
X10090000Y5780000D01*
X10120000Y5730000D01*
X10200000Y5730000D01*
X10240000Y5490000D01*
X9530000Y5490000D01*
X9450000Y5480000D01*
X9380000Y5440000D01*
X9320000Y5390000D01*
X9270000Y5330000D01*
X9230000Y5260000D01*
X9220000Y5190000D01*
X9210000Y5130000D01*
X9220000Y5050000D01*
X9250000Y4980000D01*
X9290000Y4910000D01*
X9350000Y4850000D01*
X9420000Y4810000D01*
X9500000Y4790000D01*
X9580000Y4790000D01*
X9610000Y4550000D01*
X9530000Y4540000D01*
X9460000Y4530000D01*
X9410000Y4510000D01*
X9340000Y4470000D01*
X9280000Y4420000D01*
X9240000Y4350000D01*
X9210000Y4280000D01*
X9210000Y4200000D01*
X8930000Y4200000D01*
X8930000Y6480000D01*
X8950000Y6640000D01*
X8970000Y6720000D01*
X9030000Y6860000D01*
X9070000Y6930000D01*
X9120000Y7000000D01*
X9230000Y7110000D01*
X9440000Y7230000D01*
X9520000Y7250000D01*
X9590000Y7270000D01*
X9670000Y7280000D01*
X9750000Y7280000D01*
X9910000Y7260000D01*
X9990000Y7240000D01*
X10060000Y7210000D01*
X10200000Y7130000D01*
X10260000Y7080000D01*
X10320000Y7020000D01*
X10370000Y6960000D01*
X10410000Y6900000D01*
X10450000Y6830000D01*
X10480000Y6750000D01*
X10500000Y6680000D01*
X10520000Y6600000D01*
X10530000Y6520000D01*
X10530000Y400000D01*
X10230000Y2900000D01*
X10280000Y2940000D01*
X10280000Y3270000D01*
X10270000Y3350000D01*
X10240000Y3420000D01*
X10200000Y3480000D01*
X10140000Y3530000D01*
X10070000Y3570000D01*
X10020000Y3590000D01*
X9950000Y3600000D01*
X9860000Y3610000D01*
X9650000Y3610000D01*
X9490000Y3590000D01*
G37*
X9490000Y3590000D02*
X9430000Y3580000D01*
X9370000Y3540000D01*
X9310000Y3490000D01*
X9260000Y3430000D01*
X9230000Y3360000D01*
X9210000Y3280000D01*
X9210000Y2930000D01*
X9280000Y2900000D01*
X10230000Y2900000D01*
X10530000Y390000D01*
X10530000Y30000D01*
X10480000Y0D01*
X8970000Y0D01*
X8930000Y40000D01*
X8930000Y4200000D01*
X9210000Y4200000D01*
X9220000Y4120000D01*
X9240000Y4050000D01*
X9280000Y3980000D01*
X9340000Y3930000D01*
X9410000Y3890000D01*
X9460000Y3870000D01*
X9530000Y3860000D01*
X9620000Y3850000D01*
X9830000Y3850000D01*
X9920000Y3860000D01*
X10000000Y3870000D01*
X10060000Y3880000D01*
X10120000Y3900000D01*
X10180000Y3950000D01*
X10230000Y4010000D01*
X10260000Y4080000D01*
X10280000Y4160000D01*
X10280000Y4250000D01*
X10260000Y4320000D01*
X10230000Y4390000D01*
X10180000Y4450000D01*
X10120000Y4500000D01*
X10060000Y4520000D01*
X10000000Y4530000D01*
X9920000Y4540000D01*
X9830000Y4550000D01*
X9620000Y4550000D01*
X9580000Y4790000D01*
X10210000Y4790000D01*
X10280000Y4810000D01*
X10280000Y4970000D01*
X10210000Y4990000D01*
X9570000Y4990000D01*
X9490000Y5000000D01*
X9440000Y5040000D01*
X9410000Y5120000D01*
X9420000Y5200000D01*
X9460000Y5270000D01*
X9530000Y5300000D01*
X10250000Y5300000D01*
X10280000Y5350000D01*
X10280000Y5430000D01*
X10250000Y5490000D01*
X10210000Y5730000D01*
X10280000Y5740000D01*
X10280000Y6300000D01*
X10260000Y6360000D01*
X10100000Y6360000D01*
X10090000Y6280000D01*
X10090000Y6200000D01*
X10070000Y6140000D01*
X9270000Y6140000D01*
X9210000Y6120000D01*
X9210000Y6040000D01*
X9220000Y5960000D01*
X9290000Y5940000D01*
X10090000Y5940000D01*
X10090000Y5780000D01*
X10120000Y5730000D01*
X10200000Y5730000D01*
X10240000Y5490000D01*
X9530000Y5490000D01*
X9450000Y5480000D01*
X9380000Y5440000D01*
X9320000Y5390000D01*
X9270000Y5330000D01*
X9230000Y5260000D01*
X9220000Y5190000D01*
X9210000Y5130000D01*
X9220000Y5050000D01*
X9250000Y4980000D01*
X9290000Y4910000D01*
X9350000Y4850000D01*
X9420000Y4810000D01*
X9500000Y4790000D01*
X9580000Y4790000D01*
X9610000Y4550000D01*
X9530000Y4540000D01*
X9460000Y4530000D01*
X9410000Y4510000D01*
X9340000Y4470000D01*
X9280000Y4420000D01*
X9240000Y4350000D01*
X9210000Y4280000D01*
X9210000Y4200000D01*
X8930000Y4200000D01*
X8930000Y6480000D01*
X8950000Y6640000D01*
X8970000Y6720000D01*
X9030000Y6860000D01*
X9070000Y6930000D01*
X9120000Y7000000D01*
X9230000Y7110000D01*
X9440000Y7230000D01*
X9520000Y7250000D01*
X9590000Y7270000D01*
X9670000Y7280000D01*
X9750000Y7280000D01*
X9910000Y7260000D01*
X9990000Y7240000D01*
X10060000Y7210000D01*
X10200000Y7130000D01*
X10260000Y7080000D01*
X10320000Y7020000D01*
X10370000Y6960000D01*
X10410000Y6900000D01*
X10450000Y6830000D01*
X10480000Y6750000D01*
X10500000Y6680000D01*
X10520000Y6600000D01*
X10530000Y6520000D01*
X10530000Y400000D01*
X10230000Y2900000D01*
X10280000Y2940000D01*
X10280000Y3270000D01*
X10270000Y3350000D01*
X10240000Y3420000D01*
X10200000Y3480000D01*
X10140000Y3530000D01*
X10070000Y3570000D01*
X10020000Y3590000D01*
X9950000Y3600000D01*
X9860000Y3610000D01*
X9650000Y3610000D01*
X9490000Y3590000D01*
X7990000Y340000D02*
X7990000Y20000D01*
X7990000Y20000D02*
X7930000Y0D01*
X7930000Y0D02*
X6420000Y0D01*
X6420000Y0D02*
X6390000Y50000D01*
X6390000Y50000D02*
X6390000Y4900000D01*
X6390000Y4900000D02*
X6430000Y4960000D01*
X6430000Y4960000D02*
X7140000Y5310000D01*
X7140000Y5310000D02*
X7210000Y5330000D01*
X7210000Y5330000D02*
X7930000Y4970000D01*
X7930000Y4970000D02*
X7980000Y4930000D01*
X7980000Y4930000D02*
X7690000Y3410000D01*
X7690000Y3410000D02*
X7720000Y3680000D01*
X7720000Y3680000D02*
X7740000Y3730000D01*
X7740000Y3730000D02*
X7740000Y3810000D01*
X7740000Y3810000D02*
X7730000Y3870000D01*
X7730000Y3870000D02*
X6950000Y4040000D01*
X6950000Y4040000D02*
X7000000Y4070000D01*
X7000000Y4070000D02*
X7700000Y4210000D01*
X7700000Y4210000D02*
X7740000Y4260000D01*
X7740000Y4260000D02*
X7740000Y4340000D01*
X7740000Y4340000D02*
X7730000Y4420000D01*
X7730000Y4420000D02*
X7660000Y4410000D01*
X7660000Y4410000D02*
X6730000Y4180000D01*
X6730000Y4180000D02*
X6670000Y4140000D01*
X6670000Y4140000D02*
X6670000Y3980000D01*
X6670000Y3980000D02*
X6710000Y3930000D01*
X6710000Y3930000D02*
X7640000Y3690000D01*
X7640000Y3690000D02*
X7720000Y3680000D01*
X7720000Y3680000D02*
X7690000Y3410000D01*
X7690000Y3410000D02*
X7610000Y3410000D01*
X7610000Y3410000D02*
X7550000Y3380000D01*
X7550000Y3380000D02*
X7550000Y3060000D01*
X7550000Y3060000D02*
X7500000Y3030000D01*
X7500000Y3030000D02*
X7340000Y3030000D01*
X7340000Y3030000D02*
X7270000Y3040000D01*
X7270000Y3040000D02*
X7290000Y3110000D01*
X7290000Y3110000D02*
X7290000Y3200000D01*
X7290000Y3200000D02*
X7270000Y3280000D01*
X7270000Y3280000D02*
X7230000Y3340000D01*
X7230000Y3340000D02*
X7180000Y3390000D01*
X7180000Y3390000D02*
X7110000Y3430000D01*
X7110000Y3430000D02*
X7030000Y3440000D01*
X7030000Y3440000D02*
X6940000Y3440000D01*
X6940000Y3440000D02*
X6860000Y3430000D01*
X6860000Y3430000D02*
X6790000Y3400000D01*
X6790000Y3400000D02*
X6730000Y3350000D01*
X6730000Y3350000D02*
X6690000Y3280000D01*
X6690000Y3280000D02*
X6670000Y3210000D01*
X6670000Y3210000D02*
X6670000Y3170000D01*
X6670000Y3170000D02*
X6690000Y3090000D01*
X6690000Y3090000D02*
X6720000Y3020000D01*
X6720000Y3020000D02*
X6770000Y2970000D01*
X6770000Y2970000D02*
X6840000Y2930000D01*
X6840000Y2930000D02*
X6920000Y2910000D01*
X6920000Y2910000D02*
X6980000Y2940000D01*
X6980000Y2940000D02*
X6980000Y3020000D01*
X6980000Y3020000D02*
X6940000Y3080000D01*
X6940000Y3080000D02*
X6880000Y3130000D01*
X6880000Y3130000D02*
X6870000Y3200000D01*
X6870000Y3200000D02*
X6910000Y3260000D01*
X6910000Y3260000D02*
X6990000Y3280000D01*
X6990000Y3280000D02*
X7070000Y3270000D01*
X7070000Y3270000D02*
X7120000Y3210000D01*
X7120000Y3210000D02*
X7140000Y3140000D01*
X7140000Y3140000D02*
X7180000Y3080000D01*
X7180000Y3080000D02*
X7190000Y3000000D01*
X7190000Y3000000D02*
X7210000Y2930000D01*
X7210000Y2930000D02*
X7690000Y2930000D01*
X7690000Y2930000D02*
X7740000Y2980000D01*
X7740000Y2980000D02*
X7740000Y3370000D01*
X7740000Y3370000D02*
X7690000Y3410000D01*
X7690000Y3410000D02*
X7990000Y4930000D01*
X7990000Y4930000D02*
X7990000Y400000D01*
X7990000Y400000D02*
X7990000Y340000D01*
X7990000Y340000D02*
X7990000Y340000D01*
G36*
X7930000Y4970000D02*
G01*
X7980000Y4930000D01*
X7690000Y3410000D01*
X7990000Y4930000D01*
X7990000Y20000D01*
X7930000Y0D01*
X6420000Y0D01*
X6390000Y50000D01*
X6390000Y3170000D01*
X6670000Y3170000D01*
X6690000Y3090000D01*
X6720000Y3020000D01*
X6770000Y2970000D01*
X6840000Y2930000D01*
X6920000Y2910000D01*
X6980000Y2940000D01*
X6980000Y3020000D01*
X6940000Y3080000D01*
X6880000Y3130000D01*
X6870000Y3200000D01*
X6910000Y3260000D01*
X6990000Y3280000D01*
X7070000Y3270000D01*
X7120000Y3210000D01*
X7140000Y3140000D01*
X7180000Y3080000D01*
X7190000Y3000000D01*
X7210000Y2930000D01*
X7690000Y2930000D01*
X7740000Y2980000D01*
X7740000Y3370000D01*
X7690000Y3410000D01*
X7610000Y3410000D01*
X7550000Y3380000D01*
X7550000Y3060000D01*
X7500000Y3030000D01*
X7340000Y3030000D01*
X7270000Y3040000D01*
X7290000Y3110000D01*
X7290000Y3200000D01*
X7270000Y3280000D01*
X7230000Y3340000D01*
X7180000Y3390000D01*
X7110000Y3430000D01*
X7030000Y3440000D01*
X6940000Y3440000D01*
X6860000Y3430000D01*
X6790000Y3400000D01*
X6730000Y3350000D01*
X6690000Y3280000D01*
X6670000Y3210000D01*
X6670000Y3170000D01*
X6390000Y3170000D01*
X6390000Y3980000D01*
X6670000Y3980000D01*
X6710000Y3930000D01*
X7640000Y3690000D01*
X7720000Y3680000D01*
X7740000Y3730000D01*
X7740000Y3810000D01*
X7730000Y3870000D01*
X6950000Y4040000D01*
X7000000Y4070000D01*
X7700000Y4210000D01*
X7740000Y4260000D01*
X7740000Y4340000D01*
X7730000Y4420000D01*
X7660000Y4410000D01*
X6730000Y4180000D01*
X6670000Y4140000D01*
X6670000Y3980000D01*
X6390000Y3980000D01*
X6390000Y4900000D01*
X6430000Y4960000D01*
X7140000Y5310000D01*
X7210000Y5330000D01*
X7930000Y4970000D01*
G37*
X7930000Y4970000D02*
X7980000Y4930000D01*
X7690000Y3410000D01*
X7990000Y4930000D01*
X7990000Y20000D01*
X7930000Y0D01*
X6420000Y0D01*
X6390000Y50000D01*
X6390000Y3170000D01*
X6670000Y3170000D01*
X6690000Y3090000D01*
X6720000Y3020000D01*
X6770000Y2970000D01*
X6840000Y2930000D01*
X6920000Y2910000D01*
X6980000Y2940000D01*
X6980000Y3020000D01*
X6940000Y3080000D01*
X6880000Y3130000D01*
X6870000Y3200000D01*
X6910000Y3260000D01*
X6990000Y3280000D01*
X7070000Y3270000D01*
X7120000Y3210000D01*
X7140000Y3140000D01*
X7180000Y3080000D01*
X7190000Y3000000D01*
X7210000Y2930000D01*
X7690000Y2930000D01*
X7740000Y2980000D01*
X7740000Y3370000D01*
X7690000Y3410000D01*
X7610000Y3410000D01*
X7550000Y3380000D01*
X7550000Y3060000D01*
X7500000Y3030000D01*
X7340000Y3030000D01*
X7270000Y3040000D01*
X7290000Y3110000D01*
X7290000Y3200000D01*
X7270000Y3280000D01*
X7230000Y3340000D01*
X7180000Y3390000D01*
X7110000Y3430000D01*
X7030000Y3440000D01*
X6940000Y3440000D01*
X6860000Y3430000D01*
X6790000Y3400000D01*
X6730000Y3350000D01*
X6690000Y3280000D01*
X6670000Y3210000D01*
X6670000Y3170000D01*
X6390000Y3170000D01*
X6390000Y3980000D01*
X6670000Y3980000D01*
X6710000Y3930000D01*
X7640000Y3690000D01*
X7720000Y3680000D01*
X7740000Y3730000D01*
X7740000Y3810000D01*
X7730000Y3870000D01*
X6950000Y4040000D01*
X7000000Y4070000D01*
X7700000Y4210000D01*
X7740000Y4260000D01*
X7740000Y4340000D01*
X7730000Y4420000D01*
X7660000Y4410000D01*
X6730000Y4180000D01*
X6670000Y4140000D01*
X6670000Y3980000D01*
X6390000Y3980000D01*
X6390000Y4900000D01*
X6430000Y4960000D01*
X7140000Y5310000D01*
X7210000Y5330000D01*
X7930000Y4970000D01*
X13070000Y380000D02*
X13070000Y60000D01*
X13070000Y60000D02*
X13050000Y0D01*
X13050000Y0D02*
X11540000Y0D01*
X11540000Y0D02*
X11470000Y10000D01*
X11470000Y10000D02*
X11470000Y6550000D01*
X11470000Y6550000D02*
X11480000Y6630000D01*
X11480000Y6630000D02*
X11490000Y6710000D01*
X11490000Y6710000D02*
X11510000Y6780000D01*
X11510000Y6780000D02*
X11530000Y6860000D01*
X11530000Y6860000D02*
X11560000Y6930000D01*
X11560000Y6930000D02*
X11600000Y7000000D01*
X11600000Y7000000D02*
X11650000Y7060000D01*
X11650000Y7060000D02*
X11700000Y7120000D01*
X11700000Y7120000D02*
X11760000Y7180000D01*
X11760000Y7180000D02*
X11830000Y7230000D01*
X11830000Y7230000D02*
X11900000Y7270000D01*
X11900000Y7270000D02*
X11970000Y7300000D01*
X11970000Y7300000D02*
X12040000Y7330000D01*
X12040000Y7330000D02*
X12120000Y7350000D01*
X12120000Y7350000D02*
X12200000Y7360000D01*
X12200000Y7360000D02*
X12280000Y7360000D01*
X12280000Y7360000D02*
X12360000Y7350000D01*
X12360000Y7350000D02*
X12440000Y7340000D01*
X12440000Y7340000D02*
X12510000Y7320000D01*
X12510000Y7320000D02*
X12590000Y7290000D01*
X12590000Y7290000D02*
X12660000Y7260000D01*
X12660000Y7260000D02*
X12730000Y7220000D01*
X12730000Y7220000D02*
X12790000Y7170000D01*
X12790000Y7170000D02*
X12850000Y7110000D01*
X12850000Y7110000D02*
X12900000Y7050000D01*
X12900000Y7050000D02*
X12940000Y6990000D01*
X12940000Y6990000D02*
X12980000Y6920000D01*
X12980000Y6920000D02*
X13020000Y6840000D01*
X13020000Y6840000D02*
X13040000Y6770000D01*
X13040000Y6770000D02*
X13060000Y6690000D01*
X13060000Y6690000D02*
X13060000Y6610000D01*
X13060000Y6610000D02*
X13070000Y6530000D01*
X13070000Y6530000D02*
X13070000Y400000D01*
X13070000Y400000D02*
X12570000Y2940000D01*
X12570000Y2940000D02*
X12640000Y2960000D01*
X12640000Y2960000D02*
X12710000Y3000000D01*
X12710000Y3000000D02*
X12760000Y3060000D01*
X12760000Y3060000D02*
X12790000Y3130000D01*
X12790000Y3130000D02*
X12810000Y3210000D01*
X12810000Y3210000D02*
X12820000Y3290000D01*
X12820000Y3290000D02*
X12820000Y3380000D01*
X12820000Y3380000D02*
X12800000Y3460000D01*
X12800000Y3460000D02*
X12770000Y3530000D01*
X12770000Y3530000D02*
X12720000Y3580000D01*
X12720000Y3580000D02*
X12650000Y3620000D01*
X12650000Y3620000D02*
X12580000Y3640000D01*
X12580000Y3640000D02*
X12490000Y3640000D01*
X12490000Y3640000D02*
X12480000Y3560000D01*
X12480000Y3560000D02*
X12480000Y3480000D01*
X12480000Y3480000D02*
X12540000Y3440000D01*
X12540000Y3440000D02*
X12610000Y3410000D01*
X12610000Y3410000D02*
X12630000Y3330000D01*
X12630000Y3330000D02*
X12620000Y3250000D01*
X12620000Y3250000D02*
X12560000Y3210000D01*
X12560000Y3210000D02*
X12480000Y3220000D01*
X12480000Y3220000D02*
X12440000Y3270000D01*
X12440000Y3270000D02*
X12410000Y3350000D01*
X12410000Y3350000D02*
X12390000Y3440000D01*
X12390000Y3440000D02*
X12360000Y3520000D01*
X12360000Y3520000D02*
X12320000Y3590000D01*
X12320000Y3590000D02*
X12270000Y3640000D01*
X12270000Y3640000D02*
X12200000Y3680000D01*
X12200000Y3680000D02*
X12130000Y3700000D01*
X12130000Y3700000D02*
X12170000Y3930000D01*
X12170000Y3930000D02*
X12280000Y3930000D01*
X12280000Y3930000D02*
X12390000Y3930000D01*
X12390000Y3930000D02*
X12480000Y3940000D01*
X12480000Y3940000D02*
X12550000Y3950000D01*
X12550000Y3950000D02*
X12610000Y3960000D01*
X12610000Y3960000D02*
X12670000Y3990000D01*
X12670000Y3990000D02*
X12730000Y4040000D01*
X12730000Y4040000D02*
X12780000Y4100000D01*
X12780000Y4100000D02*
X12810000Y4170000D01*
X12810000Y4170000D02*
X12820000Y4250000D01*
X12820000Y4250000D02*
X12820000Y4340000D01*
X12820000Y4340000D02*
X12800000Y4420000D01*
X12800000Y4420000D02*
X12760000Y4480000D01*
X12760000Y4480000D02*
X12710000Y4540000D01*
X12710000Y4540000D02*
X12640000Y4580000D01*
X12640000Y4580000D02*
X12590000Y4600000D01*
X12590000Y4600000D02*
X12520000Y4620000D01*
X12520000Y4620000D02*
X12440000Y4630000D01*
X12440000Y4630000D02*
X12340000Y4630000D01*
X12340000Y4630000D02*
X12230000Y4630000D01*
X12230000Y4630000D02*
X12140000Y4620000D01*
X12140000Y4620000D02*
X12120000Y4870000D01*
X12120000Y4870000D02*
X12760000Y4870000D01*
X12760000Y4870000D02*
X12820000Y4900000D01*
X12820000Y4900000D02*
X12820000Y4980000D01*
X12820000Y4980000D02*
X12820000Y5060000D01*
X12820000Y5060000D02*
X12740000Y5070000D01*
X12740000Y5070000D02*
X12100000Y5070000D01*
X12100000Y5070000D02*
X12020000Y5080000D01*
X12020000Y5080000D02*
X11970000Y5130000D01*
X11970000Y5130000D02*
X11950000Y5210000D01*
X11950000Y5210000D02*
X11960000Y5290000D01*
X11960000Y5290000D02*
X12010000Y5360000D01*
X12010000Y5360000D02*
X12080000Y5380000D01*
X12080000Y5380000D02*
X12800000Y5380000D01*
X12800000Y5380000D02*
X12820000Y5450000D01*
X12820000Y5450000D02*
X12820000Y5530000D01*
X12820000Y5530000D02*
X12780000Y5570000D01*
X12780000Y5570000D02*
X12750000Y5810000D01*
X12750000Y5810000D02*
X12820000Y5820000D01*
X12820000Y5820000D02*
X12820000Y5900000D01*
X12820000Y5900000D02*
X12820000Y6380000D01*
X12820000Y6380000D02*
X12790000Y6440000D01*
X12790000Y6440000D02*
X12710000Y6440000D01*
X12710000Y6440000D02*
X12640000Y6440000D01*
X12640000Y6440000D02*
X12630000Y6360000D01*
X12630000Y6360000D02*
X12630000Y6280000D01*
X12630000Y6280000D02*
X12600000Y6220000D01*
X12600000Y6220000D02*
X11800000Y6220000D01*
X11800000Y6220000D02*
X11750000Y6200000D01*
X11750000Y6200000D02*
X11750000Y6120000D01*
X11750000Y6120000D02*
X11760000Y6040000D01*
X11760000Y6040000D02*
X11830000Y6020000D01*
X11830000Y6020000D02*
X12550000Y6020000D01*
X12550000Y6020000D02*
X12630000Y6020000D01*
X12630000Y6020000D02*
X12630000Y5860000D01*
X12630000Y5860000D02*
X12670000Y5810000D01*
X12670000Y5810000D02*
X12750000Y5810000D01*
X12750000Y5810000D02*
X12770000Y5570000D01*
X12770000Y5570000D02*
X12140000Y5570000D01*
X12140000Y5570000D02*
X12060000Y5570000D01*
X12060000Y5570000D02*
X11980000Y5550000D01*
X11980000Y5550000D02*
X11910000Y5520000D01*
X11910000Y5520000D02*
X11850000Y5460000D01*
X11850000Y5460000D02*
X11800000Y5400000D01*
X11800000Y5400000D02*
X11770000Y5330000D01*
X11770000Y5330000D02*
X11750000Y5250000D01*
X11750000Y5250000D02*
X11750000Y5200000D01*
X11750000Y5200000D02*
X11760000Y5120000D01*
X11760000Y5120000D02*
X11790000Y5050000D01*
X11790000Y5050000D02*
X11840000Y4980000D01*
X11840000Y4980000D02*
X11900000Y4930000D01*
X11900000Y4930000D02*
X11970000Y4890000D01*
X11970000Y4890000D02*
X12040000Y4870000D01*
X12040000Y4870000D02*
X12120000Y4870000D01*
X12120000Y4870000D02*
X12130000Y4620000D01*
X12130000Y4620000D02*
X12050000Y4620000D01*
X12050000Y4620000D02*
X11990000Y4600000D01*
X11990000Y4600000D02*
X11930000Y4580000D01*
X11930000Y4580000D02*
X11870000Y4540000D01*
X11870000Y4540000D02*
X11810000Y4480000D01*
X11810000Y4480000D02*
X11770000Y4420000D01*
X11770000Y4420000D02*
X11750000Y4350000D01*
X11750000Y4350000D02*
X11750000Y4270000D01*
X11750000Y4270000D02*
X11760000Y4190000D01*
X11760000Y4190000D02*
X11790000Y4110000D01*
X11790000Y4110000D02*
X11830000Y4050000D01*
X11830000Y4050000D02*
X11890000Y4000000D01*
X11890000Y4000000D02*
X11960000Y3970000D01*
X11960000Y3970000D02*
X12010000Y3950000D01*
X12010000Y3950000D02*
X12090000Y3940000D01*
X12090000Y3940000D02*
X12170000Y3930000D01*
X12170000Y3930000D02*
X12120000Y3700000D01*
X12120000Y3700000D02*
X12040000Y3700000D01*
X12040000Y3700000D02*
X11960000Y3680000D01*
X11960000Y3680000D02*
X11890000Y3640000D01*
X11890000Y3640000D02*
X11840000Y3590000D01*
X11840000Y3590000D02*
X11800000Y3530000D01*
X11800000Y3530000D02*
X11770000Y3450000D01*
X11770000Y3450000D02*
X11760000Y3370000D01*
X11760000Y3370000D02*
X11750000Y3290000D01*
X11750000Y3290000D02*
X11760000Y3210000D01*
X11760000Y3210000D02*
X11780000Y3130000D01*
X11780000Y3130000D02*
X11810000Y3060000D01*
X11810000Y3060000D02*
X11860000Y3000000D01*
X11860000Y3000000D02*
X11920000Y2950000D01*
X11920000Y2950000D02*
X11990000Y2920000D01*
X11990000Y2920000D02*
X12070000Y2910000D01*
X12070000Y2910000D02*
X12130000Y2940000D01*
X12130000Y2940000D02*
X12130000Y3100000D01*
X12130000Y3100000D02*
X12080000Y3140000D01*
X12080000Y3140000D02*
X12000000Y3160000D01*
X12000000Y3160000D02*
X11960000Y3220000D01*
X11960000Y3220000D02*
X11950000Y3300000D01*
X11950000Y3300000D02*
X11980000Y3380000D01*
X11980000Y3380000D02*
X12040000Y3420000D01*
X12040000Y3420000D02*
X12120000Y3400000D01*
X12120000Y3400000D02*
X12160000Y3360000D01*
X12160000Y3360000D02*
X12190000Y3280000D01*
X12190000Y3280000D02*
X12220000Y3190000D01*
X12220000Y3190000D02*
X12250000Y3100000D01*
X12250000Y3100000D02*
X12290000Y3040000D01*
X12290000Y3040000D02*
X12340000Y2990000D01*
X12340000Y2990000D02*
X12410000Y2950000D01*
X12410000Y2950000D02*
X12480000Y2940000D01*
X12480000Y2940000D02*
X12570000Y2940000D01*
X12570000Y2940000D02*
X13070000Y390000D01*
X13070000Y390000D02*
X13070000Y380000D01*
X13070000Y380000D02*
X13070000Y380000D01*
G36*
X12440000Y7340000D02*
G01*
X12510000Y7320000D01*
X12590000Y7290000D01*
X12660000Y7260000D01*
X12730000Y7220000D01*
X12790000Y7170000D01*
X12850000Y7110000D01*
X12900000Y7050000D01*
X12940000Y6990000D01*
X12980000Y6920000D01*
X13020000Y6840000D01*
X13040000Y6770000D01*
X13060000Y6690000D01*
X13060000Y6610000D01*
X13070000Y6530000D01*
X13070000Y400000D01*
X12570000Y2940000D01*
X12640000Y2960000D01*
X12710000Y3000000D01*
X12760000Y3060000D01*
X12790000Y3130000D01*
X12810000Y3210000D01*
X12820000Y3290000D01*
X12820000Y3380000D01*
X12800000Y3460000D01*
X12770000Y3530000D01*
X12720000Y3580000D01*
X12650000Y3620000D01*
X12580000Y3640000D01*
X12490000Y3640000D01*
X12480000Y3560000D01*
X12480000Y3480000D01*
X12540000Y3440000D01*
X12610000Y3410000D01*
X12630000Y3330000D01*
X12620000Y3250000D01*
X12560000Y3210000D01*
X12480000Y3220000D01*
X12440000Y3270000D01*
X12410000Y3350000D01*
X12390000Y3440000D01*
X12360000Y3520000D01*
X12320000Y3590000D01*
X12270000Y3640000D01*
X12200000Y3680000D01*
X12130000Y3700000D01*
X12170000Y3930000D01*
X12390000Y3930000D01*
X12480000Y3940000D01*
X12550000Y3950000D01*
X12610000Y3960000D01*
X12670000Y3990000D01*
X12730000Y4040000D01*
X12780000Y4100000D01*
X12810000Y4170000D01*
X12820000Y4250000D01*
X12820000Y4340000D01*
X12800000Y4420000D01*
X12760000Y4480000D01*
X12710000Y4540000D01*
X12640000Y4580000D01*
X12590000Y4600000D01*
X12520000Y4620000D01*
X12440000Y4630000D01*
X12230000Y4630000D01*
X12140000Y4620000D01*
X12120000Y4870000D01*
X12760000Y4870000D01*
X12820000Y4900000D01*
X12820000Y5060000D01*
X12740000Y5070000D01*
X12100000Y5070000D01*
X12020000Y5080000D01*
X11970000Y5130000D01*
X11950000Y5210000D01*
X11960000Y5290000D01*
X12010000Y5360000D01*
X12080000Y5380000D01*
X12800000Y5380000D01*
X12820000Y5450000D01*
X12820000Y5530000D01*
X12780000Y5570000D01*
X12750000Y5810000D01*
X12820000Y5820000D01*
X12820000Y6380000D01*
X12790000Y6440000D01*
X12640000Y6440000D01*
X12630000Y6360000D01*
X12630000Y6280000D01*
X12600000Y6220000D01*
X11800000Y6220000D01*
X11750000Y6200000D01*
X11750000Y6120000D01*
X11760000Y6040000D01*
X11830000Y6020000D01*
X12630000Y6020000D01*
X12630000Y5860000D01*
X12670000Y5810000D01*
X12750000Y5810000D01*
X12770000Y5570000D01*
X12060000Y5570000D01*
X11980000Y5550000D01*
X11910000Y5520000D01*
X11850000Y5460000D01*
X11800000Y5400000D01*
X11770000Y5330000D01*
X11750000Y5250000D01*
X11750000Y5200000D01*
X11760000Y5120000D01*
X11790000Y5050000D01*
X11840000Y4980000D01*
X11900000Y4930000D01*
X11970000Y4890000D01*
X12040000Y4870000D01*
X12120000Y4870000D01*
X12130000Y4620000D01*
X12050000Y4620000D01*
X11930000Y4580000D01*
X11870000Y4540000D01*
X11810000Y4480000D01*
X11770000Y4420000D01*
X11750000Y4350000D01*
X11750000Y4270000D01*
X11760000Y4190000D01*
X11790000Y4110000D01*
X11830000Y4050000D01*
X11890000Y4000000D01*
X11960000Y3970000D01*
X12010000Y3950000D01*
X12170000Y3930000D01*
X12120000Y3700000D01*
X12040000Y3700000D01*
X11960000Y3680000D01*
X11890000Y3640000D01*
X11840000Y3590000D01*
X11800000Y3530000D01*
X11770000Y3450000D01*
X11750000Y3290000D01*
X11760000Y3210000D01*
X11780000Y3130000D01*
X11810000Y3060000D01*
X11860000Y3000000D01*
X11920000Y2950000D01*
X11990000Y2920000D01*
X12070000Y2910000D01*
X12130000Y2940000D01*
X12130000Y3100000D01*
X12080000Y3140000D01*
X12000000Y3160000D01*
X11960000Y3220000D01*
X11950000Y3300000D01*
X11980000Y3380000D01*
X12040000Y3420000D01*
X12120000Y3400000D01*
X12160000Y3360000D01*
X12190000Y3280000D01*
X12250000Y3100000D01*
X12290000Y3040000D01*
X12340000Y2990000D01*
X12410000Y2950000D01*
X12480000Y2940000D01*
X12570000Y2940000D01*
X13070000Y390000D01*
X13070000Y60000D01*
X13050000Y0D01*
X11540000Y0D01*
X11470000Y10000D01*
X11470000Y6550000D01*
X11490000Y6710000D01*
X11510000Y6780000D01*
X11530000Y6860000D01*
X11560000Y6930000D01*
X11600000Y7000000D01*
X11700000Y7120000D01*
X11760000Y7180000D01*
X11830000Y7230000D01*
X11900000Y7270000D01*
X12040000Y7330000D01*
X12120000Y7350000D01*
X12200000Y7360000D01*
X12280000Y7360000D01*
X12440000Y7340000D01*
G37*
X12440000Y7340000D02*
X12510000Y7320000D01*
X12590000Y7290000D01*
X12660000Y7260000D01*
X12730000Y7220000D01*
X12790000Y7170000D01*
X12850000Y7110000D01*
X12900000Y7050000D01*
X12940000Y6990000D01*
X12980000Y6920000D01*
X13020000Y6840000D01*
X13040000Y6770000D01*
X13060000Y6690000D01*
X13060000Y6610000D01*
X13070000Y6530000D01*
X13070000Y400000D01*
X12570000Y2940000D01*
X12640000Y2960000D01*
X12710000Y3000000D01*
X12760000Y3060000D01*
X12790000Y3130000D01*
X12810000Y3210000D01*
X12820000Y3290000D01*
X12820000Y3380000D01*
X12800000Y3460000D01*
X12770000Y3530000D01*
X12720000Y3580000D01*
X12650000Y3620000D01*
X12580000Y3640000D01*
X12490000Y3640000D01*
X12480000Y3560000D01*
X12480000Y3480000D01*
X12540000Y3440000D01*
X12610000Y3410000D01*
X12630000Y3330000D01*
X12620000Y3250000D01*
X12560000Y3210000D01*
X12480000Y3220000D01*
X12440000Y3270000D01*
X12410000Y3350000D01*
X12390000Y3440000D01*
X12360000Y3520000D01*
X12320000Y3590000D01*
X12270000Y3640000D01*
X12200000Y3680000D01*
X12130000Y3700000D01*
X12170000Y3930000D01*
X12390000Y3930000D01*
X12480000Y3940000D01*
X12550000Y3950000D01*
X12610000Y3960000D01*
X12670000Y3990000D01*
X12730000Y4040000D01*
X12780000Y4100000D01*
X12810000Y4170000D01*
X12820000Y4250000D01*
X12820000Y4340000D01*
X12800000Y4420000D01*
X12760000Y4480000D01*
X12710000Y4540000D01*
X12640000Y4580000D01*
X12590000Y4600000D01*
X12520000Y4620000D01*
X12440000Y4630000D01*
X12230000Y4630000D01*
X12140000Y4620000D01*
X12120000Y4870000D01*
X12760000Y4870000D01*
X12820000Y4900000D01*
X12820000Y5060000D01*
X12740000Y5070000D01*
X12100000Y5070000D01*
X12020000Y5080000D01*
X11970000Y5130000D01*
X11950000Y5210000D01*
X11960000Y5290000D01*
X12010000Y5360000D01*
X12080000Y5380000D01*
X12800000Y5380000D01*
X12820000Y5450000D01*
X12820000Y5530000D01*
X12780000Y5570000D01*
X12750000Y5810000D01*
X12820000Y5820000D01*
X12820000Y6380000D01*
X12790000Y6440000D01*
X12640000Y6440000D01*
X12630000Y6360000D01*
X12630000Y6280000D01*
X12600000Y6220000D01*
X11800000Y6220000D01*
X11750000Y6200000D01*
X11750000Y6120000D01*
X11760000Y6040000D01*
X11830000Y6020000D01*
X12630000Y6020000D01*
X12630000Y5860000D01*
X12670000Y5810000D01*
X12750000Y5810000D01*
X12770000Y5570000D01*
X12060000Y5570000D01*
X11980000Y5550000D01*
X11910000Y5520000D01*
X11850000Y5460000D01*
X11800000Y5400000D01*
X11770000Y5330000D01*
X11750000Y5250000D01*
X11750000Y5200000D01*
X11760000Y5120000D01*
X11790000Y5050000D01*
X11840000Y4980000D01*
X11900000Y4930000D01*
X11970000Y4890000D01*
X12040000Y4870000D01*
X12120000Y4870000D01*
X12130000Y4620000D01*
X12050000Y4620000D01*
X11930000Y4580000D01*
X11870000Y4540000D01*
X11810000Y4480000D01*
X11770000Y4420000D01*
X11750000Y4350000D01*
X11750000Y4270000D01*
X11760000Y4190000D01*
X11790000Y4110000D01*
X11830000Y4050000D01*
X11890000Y4000000D01*
X11960000Y3970000D01*
X12010000Y3950000D01*
X12170000Y3930000D01*
X12120000Y3700000D01*
X12040000Y3700000D01*
X11960000Y3680000D01*
X11890000Y3640000D01*
X11840000Y3590000D01*
X11800000Y3530000D01*
X11770000Y3450000D01*
X11750000Y3290000D01*
X11760000Y3210000D01*
X11780000Y3130000D01*
X11810000Y3060000D01*
X11860000Y3000000D01*
X11920000Y2950000D01*
X11990000Y2920000D01*
X12070000Y2910000D01*
X12130000Y2940000D01*
X12130000Y3100000D01*
X12080000Y3140000D01*
X12000000Y3160000D01*
X11960000Y3220000D01*
X11950000Y3300000D01*
X11980000Y3380000D01*
X12040000Y3420000D01*
X12120000Y3400000D01*
X12160000Y3360000D01*
X12190000Y3280000D01*
X12250000Y3100000D01*
X12290000Y3040000D01*
X12340000Y2990000D01*
X12410000Y2950000D01*
X12480000Y2940000D01*
X12570000Y2940000D01*
X13070000Y390000D01*
X13070000Y60000D01*
X13050000Y0D01*
X11540000Y0D01*
X11470000Y10000D01*
X11470000Y6550000D01*
X11490000Y6710000D01*
X11510000Y6780000D01*
X11530000Y6860000D01*
X11560000Y6930000D01*
X11600000Y7000000D01*
X11700000Y7120000D01*
X11760000Y7180000D01*
X11830000Y7230000D01*
X11900000Y7270000D01*
X12040000Y7330000D01*
X12120000Y7350000D01*
X12200000Y7360000D01*
X12280000Y7360000D01*
X12440000Y7340000D01*
X11950000Y4240000D02*
X11960000Y4330000D01*
X11960000Y4330000D02*
X11990000Y4390000D01*
X11990000Y4390000D02*
X12040000Y4420000D01*
X12040000Y4420000D02*
X12100000Y4430000D01*
X12100000Y4430000D02*
X12180000Y4440000D01*
X12180000Y4440000D02*
X12300000Y4440000D01*
X12300000Y4440000D02*
X12410000Y4440000D01*
X12410000Y4440000D02*
X12490000Y4430000D01*
X12490000Y4430000D02*
X12550000Y4420000D01*
X12550000Y4420000D02*
X12600000Y4390000D01*
X12600000Y4390000D02*
X12620000Y4310000D01*
X12620000Y4310000D02*
X12610000Y4220000D01*
X12610000Y4220000D02*
X12570000Y4160000D01*
X12570000Y4160000D02*
X12520000Y4140000D01*
X12520000Y4140000D02*
X12460000Y4130000D01*
X12460000Y4130000D02*
X12360000Y4130000D01*
X12360000Y4130000D02*
X12240000Y4130000D01*
X12240000Y4130000D02*
X12130000Y4130000D01*
X12130000Y4130000D02*
X12060000Y4140000D01*
X12060000Y4140000D02*
X12020000Y4150000D01*
X12020000Y4150000D02*
X11950000Y4240000D01*
X11950000Y4240000D02*
X11950000Y4240000D01*
G36*
X12490000Y4430000D02*
G01*
X12550000Y4420000D01*
X12600000Y4390000D01*
X12620000Y4310000D01*
X12610000Y4220000D01*
X12570000Y4160000D01*
X12520000Y4140000D01*
X12460000Y4130000D01*
X12130000Y4130000D01*
X12060000Y4140000D01*
X12020000Y4150000D01*
X11950000Y4240000D01*
X11960000Y4330000D01*
X11990000Y4390000D01*
X12040000Y4420000D01*
X12100000Y4430000D01*
X12180000Y4440000D01*
X12410000Y4440000D01*
X12490000Y4430000D01*
G37*
X12490000Y4430000D02*
X12550000Y4420000D01*
X12600000Y4390000D01*
X12620000Y4310000D01*
X12610000Y4220000D01*
X12570000Y4160000D01*
X12520000Y4140000D01*
X12460000Y4130000D01*
X12130000Y4130000D01*
X12060000Y4140000D01*
X12020000Y4150000D01*
X11950000Y4240000D01*
X11960000Y4330000D01*
X11990000Y4390000D01*
X12040000Y4420000D01*
X12100000Y4430000D01*
X12180000Y4440000D01*
X12410000Y4440000D01*
X12490000Y4430000D01*
X17280000Y31040000D02*
X17180000Y31040000D01*
X17180000Y31040000D02*
X17150000Y31130000D01*
X17150000Y31130000D02*
X17150000Y31640000D01*
X17150000Y31640000D02*
X17130000Y31700000D01*
X17130000Y31700000D02*
X16900000Y31130000D01*
X16900000Y31130000D02*
X16870000Y31040000D01*
X16870000Y31040000D02*
X16770000Y31040000D01*
X16770000Y31040000D02*
X16710000Y31100000D01*
X16710000Y31100000D02*
X16480000Y31990000D01*
X16480000Y31990000D02*
X16450000Y32040000D01*
X16450000Y32040000D02*
X16450000Y31120000D01*
X16450000Y31120000D02*
X16410000Y31040000D01*
X16410000Y31040000D02*
X16310000Y31040000D01*
X16310000Y31040000D02*
X16280000Y31130000D01*
X16280000Y31130000D02*
X16280000Y32350000D01*
X16280000Y32350000D02*
X16350000Y32410000D01*
X16350000Y32410000D02*
X16450000Y32410000D01*
X16450000Y32410000D02*
X16540000Y32390000D01*
X16540000Y32390000D02*
X16570000Y32290000D01*
X16570000Y32290000D02*
X16760000Y31820000D01*
X16760000Y31820000D02*
X16800000Y31740000D01*
X16800000Y31740000D02*
X16850000Y31830000D01*
X16850000Y31830000D02*
X17030000Y32310000D01*
X17030000Y32310000D02*
X17060000Y32400000D01*
X17060000Y32400000D02*
X17270000Y32410000D01*
X17270000Y32410000D02*
X17320000Y32340000D01*
X17320000Y32340000D02*
X17320000Y31120000D01*
X17320000Y31120000D02*
X17280000Y31040000D01*
X17280000Y31040000D02*
X17280000Y31040000D01*
G36*
X16540000Y32390000D02*
G01*
X16570000Y32290000D01*
X16760000Y31820000D01*
X16800000Y31740000D01*
X16850000Y31830000D01*
X17030000Y32310000D01*
X17060000Y32400000D01*
X17270000Y32410000D01*
X17320000Y32340000D01*
X17320000Y31120000D01*
X17280000Y31040000D01*
X17180000Y31040000D01*
X17150000Y31130000D01*
X17150000Y31640000D01*
X17130000Y31700000D01*
X16900000Y31130000D01*
X16870000Y31040000D01*
X16770000Y31040000D01*
X16710000Y31100000D01*
X16480000Y31990000D01*
X16450000Y32040000D01*
X16450000Y31120000D01*
X16410000Y31040000D01*
X16310000Y31040000D01*
X16280000Y31130000D01*
X16280000Y32350000D01*
X16350000Y32410000D01*
X16450000Y32410000D01*
X16540000Y32390000D01*
G37*
X16540000Y32390000D02*
X16570000Y32290000D01*
X16760000Y31820000D01*
X16800000Y31740000D01*
X16850000Y31830000D01*
X17030000Y32310000D01*
X17060000Y32400000D01*
X17270000Y32410000D01*
X17320000Y32340000D01*
X17320000Y31120000D01*
X17280000Y31040000D01*
X17180000Y31040000D01*
X17150000Y31130000D01*
X17150000Y31640000D01*
X17130000Y31700000D01*
X16900000Y31130000D01*
X16870000Y31040000D01*
X16770000Y31040000D01*
X16710000Y31100000D01*
X16480000Y31990000D01*
X16450000Y32040000D01*
X16450000Y31120000D01*
X16410000Y31040000D01*
X16310000Y31040000D01*
X16280000Y31130000D01*
X16280000Y32350000D01*
X16350000Y32410000D01*
X16450000Y32410000D01*
X16540000Y32390000D01*
X9800000Y31390000D02*
X10150000Y32340000D01*
X10150000Y32340000D02*
X10200000Y32410000D01*
X10200000Y32410000D02*
X10310000Y32410000D01*
X10310000Y32410000D02*
X10380000Y32360000D01*
X10380000Y32360000D02*
X10380000Y31150000D01*
X10380000Y31150000D02*
X10370000Y31050000D01*
X10370000Y31050000D02*
X10270000Y31040000D01*
X10270000Y31040000D02*
X10210000Y31100000D01*
X10210000Y31100000D02*
X10210000Y32010000D01*
X10210000Y32010000D02*
X10190000Y32060000D01*
X10190000Y32060000D02*
X9850000Y31100000D01*
X9850000Y31100000D02*
X9790000Y31040000D01*
X9790000Y31040000D02*
X9690000Y31040000D01*
X9690000Y31040000D02*
X9620000Y31090000D01*
X9620000Y31090000D02*
X9620000Y32300000D01*
X9620000Y32300000D02*
X9630000Y32400000D01*
X9630000Y32400000D02*
X9730000Y32410000D01*
X9730000Y32410000D02*
X9780000Y32340000D01*
X9780000Y32340000D02*
X9780000Y31430000D01*
X9780000Y31430000D02*
X9800000Y31390000D01*
X9800000Y31390000D02*
X9800000Y31390000D01*
G36*
X10380000Y32360000D02*
G01*
X10380000Y31150000D01*
X10370000Y31050000D01*
X10270000Y31040000D01*
X10210000Y31100000D01*
X10210000Y32010000D01*
X10190000Y32060000D01*
X9850000Y31100000D01*
X9790000Y31040000D01*
X9690000Y31040000D01*
X9620000Y31090000D01*
X9620000Y32300000D01*
X9630000Y32400000D01*
X9730000Y32410000D01*
X9780000Y32340000D01*
X9780000Y31430000D01*
X9800000Y31390000D01*
X10150000Y32340000D01*
X10200000Y32410000D01*
X10310000Y32410000D01*
X10380000Y32360000D01*
G37*
X10380000Y32360000D02*
X10380000Y31150000D01*
X10370000Y31050000D01*
X10270000Y31040000D01*
X10210000Y31100000D01*
X10210000Y32010000D01*
X10190000Y32060000D01*
X9850000Y31100000D01*
X9790000Y31040000D01*
X9690000Y31040000D01*
X9620000Y31090000D01*
X9620000Y32300000D01*
X9630000Y32400000D01*
X9730000Y32410000D01*
X9780000Y32340000D01*
X9780000Y31430000D01*
X9800000Y31390000D01*
X10150000Y32340000D01*
X10200000Y32410000D01*
X10310000Y32410000D01*
X10380000Y32360000D01*
X18880000Y31040000D02*
X18790000Y31070000D01*
X18790000Y31070000D02*
X18790000Y31580000D01*
X18790000Y31580000D02*
X18750000Y31640000D01*
X18750000Y31640000D02*
X18650000Y31640000D01*
X18650000Y31640000D02*
X18610000Y31550000D01*
X18610000Y31550000D02*
X18410000Y31080000D01*
X18410000Y31080000D02*
X18340000Y31040000D01*
X18340000Y31040000D02*
X18240000Y31040000D01*
X18240000Y31040000D02*
X18230000Y31140000D01*
X18230000Y31140000D02*
X18440000Y31600000D01*
X18440000Y31600000D02*
X18410000Y31690000D01*
X18410000Y31690000D02*
X18330000Y31750000D01*
X18330000Y31750000D02*
X18270000Y31830000D01*
X18270000Y31830000D02*
X18230000Y31920000D01*
X18230000Y31920000D02*
X18220000Y32030000D01*
X18220000Y32030000D02*
X18240000Y32130000D01*
X18240000Y32130000D02*
X18270000Y32220000D01*
X18270000Y32220000D02*
X18320000Y32280000D01*
X18320000Y32280000D02*
X18400000Y32350000D01*
X18400000Y32350000D02*
X18500000Y32210000D01*
X18500000Y32210000D02*
X18430000Y32130000D01*
X18430000Y32130000D02*
X18400000Y32040000D01*
X18400000Y32040000D02*
X18410000Y31960000D01*
X18410000Y31960000D02*
X18460000Y31880000D01*
X18460000Y31880000D02*
X18540000Y31810000D01*
X18540000Y31810000D02*
X18600000Y31810000D01*
X18600000Y31810000D02*
X18700000Y31810000D01*
X18700000Y31810000D02*
X18790000Y31820000D01*
X18790000Y31820000D02*
X18790000Y32230000D01*
X18790000Y32230000D02*
X18700000Y32230000D01*
X18700000Y32230000D02*
X18600000Y32230000D01*
X18600000Y32230000D02*
X18500000Y32220000D01*
X18500000Y32220000D02*
X18410000Y32350000D01*
X18410000Y32350000D02*
X18510000Y32410000D01*
X18510000Y32410000D02*
X18920000Y32410000D01*
X18920000Y32410000D02*
X18970000Y32340000D01*
X18970000Y32340000D02*
X18970000Y31120000D01*
X18970000Y31120000D02*
X18920000Y31040000D01*
X18920000Y31040000D02*
X18880000Y31040000D01*
X18880000Y31040000D02*
X18880000Y31040000D01*
G36*
X18970000Y32340000D02*
G01*
X18970000Y31120000D01*
X18920000Y31040000D01*
X18880000Y31040000D01*
X18790000Y31070000D01*
X18790000Y31580000D01*
X18750000Y31640000D01*
X18650000Y31640000D01*
X18610000Y31550000D01*
X18410000Y31080000D01*
X18340000Y31040000D01*
X18240000Y31040000D01*
X18230000Y31140000D01*
X18440000Y31600000D01*
X18410000Y31690000D01*
X18330000Y31750000D01*
X18270000Y31830000D01*
X18230000Y31920000D01*
X18220000Y32030000D01*
X18240000Y32130000D01*
X18270000Y32220000D01*
X18320000Y32280000D01*
X18400000Y32350000D01*
X18500000Y32210000D01*
X18430000Y32130000D01*
X18400000Y32040000D01*
X18410000Y31960000D01*
X18460000Y31880000D01*
X18540000Y31810000D01*
X18700000Y31810000D01*
X18790000Y31820000D01*
X18790000Y32230000D01*
X18600000Y32230000D01*
X18500000Y32220000D01*
X18410000Y32350000D01*
X18510000Y32410000D01*
X18920000Y32410000D01*
X18970000Y32340000D01*
G37*
X18970000Y32340000D02*
X18970000Y31120000D01*
X18920000Y31040000D01*
X18880000Y31040000D01*
X18790000Y31070000D01*
X18790000Y31580000D01*
X18750000Y31640000D01*
X18650000Y31640000D01*
X18610000Y31550000D01*
X18410000Y31080000D01*
X18340000Y31040000D01*
X18240000Y31040000D01*
X18230000Y31140000D01*
X18440000Y31600000D01*
X18410000Y31690000D01*
X18330000Y31750000D01*
X18270000Y31830000D01*
X18230000Y31920000D01*
X18220000Y32030000D01*
X18240000Y32130000D01*
X18270000Y32220000D01*
X18320000Y32280000D01*
X18400000Y32350000D01*
X18500000Y32210000D01*
X18430000Y32130000D01*
X18400000Y32040000D01*
X18410000Y31960000D01*
X18460000Y31880000D01*
X18540000Y31810000D01*
X18700000Y31810000D01*
X18790000Y31820000D01*
X18790000Y32230000D01*
X18600000Y32230000D01*
X18500000Y32220000D01*
X18410000Y32350000D01*
X18510000Y32410000D01*
X18920000Y32410000D01*
X18970000Y32340000D01*
X4990000Y31390000D02*
X5330000Y32340000D01*
X5330000Y32340000D02*
X5390000Y32410000D01*
X5390000Y32410000D02*
X5490000Y32410000D01*
X5490000Y32410000D02*
X5560000Y32360000D01*
X5560000Y32360000D02*
X5560000Y31150000D01*
X5560000Y31150000D02*
X5550000Y31050000D01*
X5550000Y31050000D02*
X5450000Y31040000D01*
X5450000Y31040000D02*
X5390000Y31100000D01*
X5390000Y31100000D02*
X5390000Y32010000D01*
X5390000Y32010000D02*
X5370000Y32060000D01*
X5370000Y32060000D02*
X5040000Y31100000D01*
X5040000Y31100000D02*
X4970000Y31040000D01*
X4970000Y31040000D02*
X4870000Y31040000D01*
X4870000Y31040000D02*
X4800000Y31090000D01*
X4800000Y31090000D02*
X4800000Y32300000D01*
X4800000Y32300000D02*
X4820000Y32400000D01*
X4820000Y32400000D02*
X4920000Y32410000D01*
X4920000Y32410000D02*
X4960000Y32340000D01*
X4960000Y32340000D02*
X4960000Y31430000D01*
X4960000Y31430000D02*
X4990000Y31390000D01*
X4990000Y31390000D02*
X4990000Y31390000D01*
G36*
X5560000Y32360000D02*
G01*
X5560000Y31150000D01*
X5550000Y31050000D01*
X5450000Y31040000D01*
X5390000Y31100000D01*
X5390000Y32010000D01*
X5370000Y32060000D01*
X5040000Y31100000D01*
X4970000Y31040000D01*
X4870000Y31040000D01*
X4800000Y31090000D01*
X4800000Y32300000D01*
X4820000Y32400000D01*
X4920000Y32410000D01*
X4960000Y32340000D01*
X4960000Y31430000D01*
X4990000Y31390000D01*
X5330000Y32340000D01*
X5390000Y32410000D01*
X5490000Y32410000D01*
X5560000Y32360000D01*
G37*
X5560000Y32360000D02*
X5560000Y31150000D01*
X5550000Y31050000D01*
X5450000Y31040000D01*
X5390000Y31100000D01*
X5390000Y32010000D01*
X5370000Y32060000D01*
X5040000Y31100000D01*
X4970000Y31040000D01*
X4870000Y31040000D01*
X4800000Y31090000D01*
X4800000Y32300000D01*
X4820000Y32400000D01*
X4920000Y32410000D01*
X4960000Y32340000D01*
X4960000Y31430000D01*
X4990000Y31390000D01*
X5330000Y32340000D01*
X5390000Y32410000D01*
X5490000Y32410000D01*
X5560000Y32360000D01*
X11290000Y31040000D02*
X10790000Y31040000D01*
X10790000Y31040000D02*
X10690000Y31040000D01*
X10690000Y31040000D02*
X10670000Y31140000D01*
X10670000Y31140000D02*
X10730000Y31200000D01*
X10730000Y31200000D02*
X11130000Y31200000D01*
X11130000Y31200000D02*
X11160000Y31270000D01*
X11160000Y31270000D02*
X11160000Y31570000D01*
X11160000Y31570000D02*
X11130000Y31640000D01*
X11130000Y31640000D02*
X10730000Y31640000D01*
X10730000Y31640000D02*
X10700000Y31720000D01*
X10700000Y31720000D02*
X10730000Y31810000D01*
X10730000Y31810000D02*
X11130000Y31810000D01*
X11130000Y31810000D02*
X11160000Y31880000D01*
X11160000Y31880000D02*
X11160000Y32180000D01*
X11160000Y32180000D02*
X11120000Y32240000D01*
X11120000Y32240000D02*
X10720000Y32240000D01*
X10720000Y32240000D02*
X10670000Y32310000D01*
X10670000Y32310000D02*
X10700000Y32400000D01*
X10700000Y32400000D02*
X10800000Y32410000D01*
X10800000Y32410000D02*
X11300000Y32410000D01*
X11300000Y32410000D02*
X11340000Y32320000D01*
X11340000Y32320000D02*
X11340000Y31120000D01*
X11340000Y31120000D02*
X11290000Y31040000D01*
X11290000Y31040000D02*
X11290000Y31040000D01*
G36*
X11340000Y32320000D02*
G01*
X11340000Y31120000D01*
X11290000Y31040000D01*
X10690000Y31040000D01*
X10670000Y31140000D01*
X10730000Y31200000D01*
X11130000Y31200000D01*
X11160000Y31270000D01*
X11160000Y31570000D01*
X11130000Y31640000D01*
X10730000Y31640000D01*
X10700000Y31720000D01*
X10730000Y31810000D01*
X11130000Y31810000D01*
X11160000Y31880000D01*
X11160000Y32180000D01*
X11120000Y32240000D01*
X10720000Y32240000D01*
X10670000Y32310000D01*
X10700000Y32400000D01*
X10800000Y32410000D01*
X11300000Y32410000D01*
X11340000Y32320000D01*
G37*
X11340000Y32320000D02*
X11340000Y31120000D01*
X11290000Y31040000D01*
X10690000Y31040000D01*
X10670000Y31140000D01*
X10730000Y31200000D01*
X11130000Y31200000D01*
X11160000Y31270000D01*
X11160000Y31570000D01*
X11130000Y31640000D01*
X10730000Y31640000D01*
X10700000Y31720000D01*
X10730000Y31810000D01*
X11130000Y31810000D01*
X11160000Y31880000D01*
X11160000Y32180000D01*
X11120000Y32240000D01*
X10720000Y32240000D01*
X10670000Y32310000D01*
X10700000Y32400000D01*
X10800000Y32410000D01*
X11300000Y32410000D01*
X11340000Y32320000D01*
X2150000Y31040000D02*
X2060000Y31070000D01*
X2060000Y31070000D02*
X2060000Y31580000D01*
X2060000Y31580000D02*
X2020000Y31640000D01*
X2020000Y31640000D02*
X1910000Y31640000D01*
X1910000Y31640000D02*
X1870000Y31550000D01*
X1870000Y31550000D02*
X1680000Y31080000D01*
X1680000Y31080000D02*
X1600000Y31040000D01*
X1600000Y31040000D02*
X1500000Y31040000D01*
X1500000Y31040000D02*
X1500000Y31140000D01*
X1500000Y31140000D02*
X1700000Y31600000D01*
X1700000Y31600000D02*
X1680000Y31690000D01*
X1680000Y31690000D02*
X1590000Y31750000D01*
X1590000Y31750000D02*
X1540000Y31830000D01*
X1540000Y31830000D02*
X1500000Y31920000D01*
X1500000Y31920000D02*
X1490000Y32030000D01*
X1490000Y32030000D02*
X1500000Y32130000D01*
X1500000Y32130000D02*
X1540000Y32220000D01*
X1540000Y32220000D02*
X1590000Y32280000D01*
X1590000Y32280000D02*
X1670000Y32350000D01*
X1670000Y32350000D02*
X1760000Y32210000D01*
X1760000Y32210000D02*
X1690000Y32130000D01*
X1690000Y32130000D02*
X1660000Y32040000D01*
X1660000Y32040000D02*
X1670000Y31960000D01*
X1670000Y31960000D02*
X1720000Y31880000D01*
X1720000Y31880000D02*
X1810000Y31810000D01*
X1810000Y31810000D02*
X1870000Y31810000D01*
X1870000Y31810000D02*
X1970000Y31810000D01*
X1970000Y31810000D02*
X2060000Y31820000D01*
X2060000Y31820000D02*
X2060000Y32230000D01*
X2060000Y32230000D02*
X1970000Y32230000D01*
X1970000Y32230000D02*
X1870000Y32230000D01*
X1870000Y32230000D02*
X1770000Y32220000D01*
X1770000Y32220000D02*
X1670000Y32350000D01*
X1670000Y32350000D02*
X1780000Y32410000D01*
X1780000Y32410000D02*
X2180000Y32410000D01*
X2180000Y32410000D02*
X2230000Y32340000D01*
X2230000Y32340000D02*
X2230000Y31120000D01*
X2230000Y31120000D02*
X2190000Y31040000D01*
X2190000Y31040000D02*
X2150000Y31040000D01*
X2150000Y31040000D02*
X2150000Y31040000D01*
G36*
X2230000Y32340000D02*
G01*
X2230000Y31120000D01*
X2190000Y31040000D01*
X2150000Y31040000D01*
X2060000Y31070000D01*
X2060000Y31580000D01*
X2020000Y31640000D01*
X1910000Y31640000D01*
X1870000Y31550000D01*
X1680000Y31080000D01*
X1600000Y31040000D01*
X1500000Y31040000D01*
X1500000Y31140000D01*
X1700000Y31600000D01*
X1680000Y31690000D01*
X1590000Y31750000D01*
X1540000Y31830000D01*
X1500000Y31920000D01*
X1490000Y32030000D01*
X1500000Y32130000D01*
X1540000Y32220000D01*
X1590000Y32280000D01*
X1670000Y32350000D01*
X1760000Y32210000D01*
X1690000Y32130000D01*
X1660000Y32040000D01*
X1670000Y31960000D01*
X1720000Y31880000D01*
X1810000Y31810000D01*
X1970000Y31810000D01*
X2060000Y31820000D01*
X2060000Y32230000D01*
X1870000Y32230000D01*
X1770000Y32220000D01*
X1670000Y32350000D01*
X1780000Y32410000D01*
X2180000Y32410000D01*
X2230000Y32340000D01*
G37*
X2230000Y32340000D02*
X2230000Y31120000D01*
X2190000Y31040000D01*
X2150000Y31040000D01*
X2060000Y31070000D01*
X2060000Y31580000D01*
X2020000Y31640000D01*
X1910000Y31640000D01*
X1870000Y31550000D01*
X1680000Y31080000D01*
X1600000Y31040000D01*
X1500000Y31040000D01*
X1500000Y31140000D01*
X1700000Y31600000D01*
X1680000Y31690000D01*
X1590000Y31750000D01*
X1540000Y31830000D01*
X1500000Y31920000D01*
X1490000Y32030000D01*
X1500000Y32130000D01*
X1540000Y32220000D01*
X1590000Y32280000D01*
X1670000Y32350000D01*
X1760000Y32210000D01*
X1690000Y32130000D01*
X1660000Y32040000D01*
X1670000Y31960000D01*
X1720000Y31880000D01*
X1810000Y31810000D01*
X1970000Y31810000D01*
X2060000Y31820000D01*
X2060000Y32230000D01*
X1870000Y32230000D01*
X1770000Y32220000D01*
X1670000Y32350000D01*
X1780000Y32410000D01*
X2180000Y32410000D01*
X2230000Y32340000D01*
X19410000Y31040000D02*
X19310000Y31040000D01*
X19310000Y31040000D02*
X19280000Y31120000D01*
X19280000Y31120000D02*
X19280000Y32330000D01*
X19280000Y32330000D02*
X19320000Y32410000D01*
X19320000Y32410000D02*
X19420000Y32410000D01*
X19420000Y32410000D02*
X19450000Y32320000D01*
X19450000Y32320000D02*
X19450000Y31110000D01*
X19450000Y31110000D02*
X19410000Y31040000D01*
X19410000Y31040000D02*
X19410000Y31040000D01*
G36*
X19450000Y32320000D02*
G01*
X19450000Y31110000D01*
X19410000Y31040000D01*
X19310000Y31040000D01*
X19280000Y31120000D01*
X19280000Y32330000D01*
X19320000Y32410000D01*
X19420000Y32410000D01*
X19450000Y32320000D01*
G37*
X19450000Y32320000D02*
X19450000Y31110000D01*
X19410000Y31040000D01*
X19310000Y31040000D01*
X19280000Y31120000D01*
X19280000Y32330000D01*
X19320000Y32410000D01*
X19420000Y32410000D01*
X19450000Y32320000D01*
X3070000Y31040000D02*
X2870000Y31040000D01*
X2870000Y31040000D02*
X2760000Y31080000D01*
X2760000Y31080000D02*
X2680000Y31160000D01*
X2680000Y31160000D02*
X2610000Y31220000D01*
X2610000Y31220000D02*
X2580000Y31290000D01*
X2580000Y31290000D02*
X2550000Y31390000D01*
X2550000Y31390000D02*
X2540000Y31490000D01*
X2540000Y31490000D02*
X2540000Y31590000D01*
X2540000Y31590000D02*
X2540000Y31700000D01*
X2540000Y31700000D02*
X2540000Y31820000D01*
X2540000Y31820000D02*
X2540000Y31920000D01*
X2540000Y31920000D02*
X2550000Y32010000D01*
X2550000Y32010000D02*
X2570000Y32110000D01*
X2570000Y32110000D02*
X2600000Y32190000D01*
X2600000Y32190000D02*
X2650000Y32260000D01*
X2650000Y32260000D02*
X2720000Y32330000D01*
X2720000Y32330000D02*
X2830000Y32410000D01*
X2830000Y32410000D02*
X3030000Y32410000D01*
X3030000Y32410000D02*
X3010000Y32250000D01*
X3010000Y32250000D02*
X2910000Y32250000D01*
X2910000Y32250000D02*
X2820000Y32200000D01*
X2820000Y32200000D02*
X2760000Y32130000D01*
X2760000Y32130000D02*
X2720000Y32050000D01*
X2720000Y32050000D02*
X2710000Y31940000D01*
X2710000Y31940000D02*
X2710000Y31730000D01*
X2710000Y31730000D02*
X2710000Y31520000D01*
X2710000Y31520000D02*
X2720000Y31420000D01*
X2720000Y31420000D02*
X2750000Y31330000D01*
X2750000Y31330000D02*
X2800000Y31260000D01*
X2800000Y31260000D02*
X2880000Y31200000D01*
X2880000Y31200000D02*
X2980000Y31200000D01*
X2980000Y31200000D02*
X3080000Y31240000D01*
X3080000Y31240000D02*
X3150000Y31310000D01*
X3150000Y31310000D02*
X3170000Y31390000D01*
X3170000Y31390000D02*
X3190000Y31500000D01*
X3190000Y31500000D02*
X3190000Y31590000D01*
X3190000Y31590000D02*
X3200000Y31700000D01*
X3200000Y31700000D02*
X3200000Y31820000D01*
X3200000Y31820000D02*
X3190000Y31920000D01*
X3190000Y31920000D02*
X3180000Y32020000D01*
X3180000Y32020000D02*
X3160000Y32110000D01*
X3160000Y32110000D02*
X3110000Y32180000D01*
X3110000Y32180000D02*
X3020000Y32250000D01*
X3020000Y32250000D02*
X3030000Y32400000D01*
X3030000Y32400000D02*
X3130000Y32370000D01*
X3130000Y32370000D02*
X3220000Y32290000D01*
X3220000Y32290000D02*
X3280000Y32220000D01*
X3280000Y32220000D02*
X3320000Y32150000D01*
X3320000Y32150000D02*
X3350000Y32060000D01*
X3350000Y32060000D02*
X3360000Y31960000D01*
X3360000Y31960000D02*
X3370000Y31870000D01*
X3370000Y31870000D02*
X3370000Y31760000D01*
X3370000Y31760000D02*
X3370000Y31640000D01*
X3370000Y31640000D02*
X3370000Y31530000D01*
X3370000Y31530000D02*
X3360000Y31440000D01*
X3360000Y31440000D02*
X3340000Y31340000D01*
X3340000Y31340000D02*
X3300000Y31260000D01*
X3300000Y31260000D02*
X3260000Y31190000D01*
X3260000Y31190000D02*
X3190000Y31120000D01*
X3190000Y31120000D02*
X3090000Y31040000D01*
X3090000Y31040000D02*
X3070000Y31040000D01*
X3070000Y31040000D02*
X3070000Y31040000D01*
G36*
X3010000Y32250000D02*
G01*
X2910000Y32250000D01*
X2820000Y32200000D01*
X2760000Y32130000D01*
X2720000Y32050000D01*
X2710000Y31940000D01*
X2710000Y31520000D01*
X2720000Y31420000D01*
X2750000Y31330000D01*
X2800000Y31260000D01*
X2880000Y31200000D01*
X2980000Y31200000D01*
X3080000Y31240000D01*
X3150000Y31310000D01*
X3170000Y31390000D01*
X3190000Y31500000D01*
X3190000Y31590000D01*
X3200000Y31700000D01*
X3200000Y31820000D01*
X3180000Y32020000D01*
X3160000Y32110000D01*
X3110000Y32180000D01*
X3020000Y32250000D01*
X3030000Y32400000D01*
X3130000Y32370000D01*
X3220000Y32290000D01*
X3280000Y32220000D01*
X3320000Y32150000D01*
X3350000Y32060000D01*
X3360000Y31960000D01*
X3370000Y31870000D01*
X3370000Y31530000D01*
X3360000Y31440000D01*
X3340000Y31340000D01*
X3300000Y31260000D01*
X3260000Y31190000D01*
X3190000Y31120000D01*
X3090000Y31040000D01*
X2870000Y31040000D01*
X2760000Y31080000D01*
X2680000Y31160000D01*
X2610000Y31220000D01*
X2580000Y31290000D01*
X2550000Y31390000D01*
X2540000Y31490000D01*
X2540000Y31920000D01*
X2550000Y32010000D01*
X2570000Y32110000D01*
X2600000Y32190000D01*
X2650000Y32260000D01*
X2720000Y32330000D01*
X2830000Y32410000D01*
X3030000Y32410000D01*
X3010000Y32250000D01*
G37*
X3010000Y32250000D02*
X2910000Y32250000D01*
X2820000Y32200000D01*
X2760000Y32130000D01*
X2720000Y32050000D01*
X2710000Y31940000D01*
X2710000Y31520000D01*
X2720000Y31420000D01*
X2750000Y31330000D01*
X2800000Y31260000D01*
X2880000Y31200000D01*
X2980000Y31200000D01*
X3080000Y31240000D01*
X3150000Y31310000D01*
X3170000Y31390000D01*
X3190000Y31500000D01*
X3190000Y31590000D01*
X3200000Y31700000D01*
X3200000Y31820000D01*
X3180000Y32020000D01*
X3160000Y32110000D01*
X3110000Y32180000D01*
X3020000Y32250000D01*
X3030000Y32400000D01*
X3130000Y32370000D01*
X3220000Y32290000D01*
X3280000Y32220000D01*
X3320000Y32150000D01*
X3350000Y32060000D01*
X3360000Y31960000D01*
X3370000Y31870000D01*
X3370000Y31530000D01*
X3360000Y31440000D01*
X3340000Y31340000D01*
X3300000Y31260000D01*
X3260000Y31190000D01*
X3190000Y31120000D01*
X3090000Y31040000D01*
X2870000Y31040000D01*
X2760000Y31080000D01*
X2680000Y31160000D01*
X2610000Y31220000D01*
X2580000Y31290000D01*
X2550000Y31390000D01*
X2540000Y31490000D01*
X2540000Y31920000D01*
X2550000Y32010000D01*
X2570000Y32110000D01*
X2600000Y32190000D01*
X2650000Y32260000D01*
X2720000Y32330000D01*
X2830000Y32410000D01*
X3030000Y32410000D01*
X3010000Y32250000D01*
X6480000Y31040000D02*
X5970000Y31040000D01*
X5970000Y31040000D02*
X5870000Y31040000D01*
X5870000Y31040000D02*
X5860000Y31140000D01*
X5860000Y31140000D02*
X5910000Y31200000D01*
X5910000Y31200000D02*
X6310000Y31200000D01*
X6310000Y31200000D02*
X6350000Y31270000D01*
X6350000Y31270000D02*
X6350000Y31570000D01*
X6350000Y31570000D02*
X6320000Y31640000D01*
X6320000Y31640000D02*
X5910000Y31640000D01*
X5910000Y31640000D02*
X5880000Y31720000D01*
X5880000Y31720000D02*
X5910000Y31810000D01*
X5910000Y31810000D02*
X6320000Y31810000D01*
X6320000Y31810000D02*
X6350000Y31880000D01*
X6350000Y31880000D02*
X6350000Y32180000D01*
X6350000Y32180000D02*
X6310000Y32240000D01*
X6310000Y32240000D02*
X5900000Y32240000D01*
X5900000Y32240000D02*
X5860000Y32310000D01*
X5860000Y32310000D02*
X5880000Y32400000D01*
X5880000Y32400000D02*
X5980000Y32410000D01*
X5980000Y32410000D02*
X6490000Y32410000D01*
X6490000Y32410000D02*
X6520000Y32320000D01*
X6520000Y32320000D02*
X6520000Y31120000D01*
X6520000Y31120000D02*
X6480000Y31040000D01*
X6480000Y31040000D02*
X6480000Y31040000D01*
G36*
X6520000Y32320000D02*
G01*
X6520000Y31120000D01*
X6480000Y31040000D01*
X5870000Y31040000D01*
X5860000Y31140000D01*
X5910000Y31200000D01*
X6310000Y31200000D01*
X6350000Y31270000D01*
X6350000Y31570000D01*
X6320000Y31640000D01*
X5910000Y31640000D01*
X5880000Y31720000D01*
X5910000Y31810000D01*
X6320000Y31810000D01*
X6350000Y31880000D01*
X6350000Y32180000D01*
X6310000Y32240000D01*
X5900000Y32240000D01*
X5860000Y32310000D01*
X5880000Y32400000D01*
X5980000Y32410000D01*
X6490000Y32410000D01*
X6520000Y32320000D01*
G37*
X6520000Y32320000D02*
X6520000Y31120000D01*
X6480000Y31040000D01*
X5870000Y31040000D01*
X5860000Y31140000D01*
X5910000Y31200000D01*
X6310000Y31200000D01*
X6350000Y31270000D01*
X6350000Y31570000D01*
X6320000Y31640000D01*
X5910000Y31640000D01*
X5880000Y31720000D01*
X5910000Y31810000D01*
X6320000Y31810000D01*
X6350000Y31880000D01*
X6350000Y32180000D01*
X6310000Y32240000D01*
X5900000Y32240000D01*
X5860000Y32310000D01*
X5880000Y32400000D01*
X5980000Y32410000D01*
X6490000Y32410000D01*
X6520000Y32320000D01*
X20420000Y31040000D02*
X20330000Y31060000D01*
X20330000Y31060000D02*
X20320000Y31150000D01*
X20320000Y31150000D02*
X20320000Y31550000D01*
X20320000Y31550000D02*
X20300000Y31640000D01*
X20300000Y31640000D02*
X20100000Y31640000D01*
X20100000Y31640000D02*
X19990000Y31650000D01*
X19990000Y31650000D02*
X19890000Y31720000D01*
X19890000Y31720000D02*
X19820000Y31780000D01*
X19820000Y31780000D02*
X19780000Y31850000D01*
X19780000Y31850000D02*
X19750000Y31950000D01*
X19750000Y31950000D02*
X19750000Y32050000D01*
X19750000Y32050000D02*
X19770000Y32150000D01*
X19770000Y32150000D02*
X19800000Y32230000D01*
X19800000Y32230000D02*
X19860000Y32300000D01*
X19860000Y32300000D02*
X19940000Y32360000D01*
X19940000Y32360000D02*
X20030000Y32230000D01*
X20030000Y32230000D02*
X19960000Y32140000D01*
X19960000Y32140000D02*
X19920000Y32050000D01*
X19920000Y32050000D02*
X19930000Y31970000D01*
X19930000Y31970000D02*
X19970000Y31890000D01*
X19970000Y31890000D02*
X20050000Y31810000D01*
X20050000Y31810000D02*
X20120000Y31810000D01*
X20120000Y31810000D02*
X20220000Y31810000D01*
X20220000Y31810000D02*
X20320000Y31820000D01*
X20320000Y31820000D02*
X20320000Y32220000D01*
X20320000Y32220000D02*
X20230000Y32230000D01*
X20230000Y32230000D02*
X20130000Y32230000D01*
X20130000Y32230000D02*
X20030000Y32230000D01*
X20030000Y32230000D02*
X19940000Y32360000D01*
X19940000Y32360000D02*
X20050000Y32410000D01*
X20050000Y32410000D02*
X20450000Y32410000D01*
X20450000Y32410000D02*
X20490000Y32330000D01*
X20490000Y32330000D02*
X20490000Y31120000D01*
X20490000Y31120000D02*
X20450000Y31040000D01*
X20450000Y31040000D02*
X20420000Y31040000D01*
X20420000Y31040000D02*
X20420000Y31040000D01*
G36*
X20450000Y32410000D02*
G01*
X20490000Y32330000D01*
X20490000Y31120000D01*
X20450000Y31040000D01*
X20420000Y31040000D01*
X20330000Y31060000D01*
X20320000Y31150000D01*
X20320000Y31550000D01*
X20300000Y31640000D01*
X20100000Y31640000D01*
X19990000Y31650000D01*
X19890000Y31720000D01*
X19820000Y31780000D01*
X19780000Y31850000D01*
X19750000Y31950000D01*
X19750000Y32050000D01*
X19920000Y32050000D01*
X19930000Y31970000D01*
X19970000Y31890000D01*
X20050000Y31810000D01*
X20220000Y31810000D01*
X20320000Y31820000D01*
X20320000Y32220000D01*
X20230000Y32230000D01*
X20030000Y32230000D01*
X19960000Y32140000D01*
X19920000Y32050000D01*
X19750000Y32050000D01*
X19770000Y32150000D01*
X19800000Y32230000D01*
X19860000Y32300000D01*
X19940000Y32360000D01*
X20050000Y32410000D01*
X20450000Y32410000D01*
G37*
X20450000Y32410000D02*
X20490000Y32330000D01*
X20490000Y31120000D01*
X20450000Y31040000D01*
X20420000Y31040000D01*
X20330000Y31060000D01*
X20320000Y31150000D01*
X20320000Y31550000D01*
X20300000Y31640000D01*
X20100000Y31640000D01*
X19990000Y31650000D01*
X19890000Y31720000D01*
X19820000Y31780000D01*
X19780000Y31850000D01*
X19750000Y31950000D01*
X19750000Y32050000D01*
X19920000Y32050000D01*
X19930000Y31970000D01*
X19970000Y31890000D01*
X20050000Y31810000D01*
X20220000Y31810000D01*
X20320000Y31820000D01*
X20320000Y32220000D01*
X20230000Y32230000D01*
X20030000Y32230000D01*
X19960000Y32140000D01*
X19920000Y32050000D01*
X19750000Y32050000D01*
X19770000Y32150000D01*
X19800000Y32230000D01*
X19860000Y32300000D01*
X19940000Y32360000D01*
X20050000Y32410000D01*
X20450000Y32410000D01*
X7340000Y31040000D02*
X7140000Y31040000D01*
X7140000Y31040000D02*
X7030000Y31090000D01*
X7030000Y31090000D02*
X6940000Y31150000D01*
X6940000Y31150000D02*
X6890000Y31210000D01*
X6890000Y31210000D02*
X6850000Y31290000D01*
X6850000Y31290000D02*
X6830000Y31390000D01*
X6830000Y31390000D02*
X6830000Y31500000D01*
X6830000Y31500000D02*
X6850000Y31590000D01*
X6850000Y31590000D02*
X6900000Y31680000D01*
X6900000Y31680000D02*
X6960000Y31750000D01*
X6960000Y31750000D02*
X7050000Y31810000D01*
X7050000Y31810000D02*
X7260000Y31870000D01*
X7260000Y31870000D02*
X7340000Y31910000D01*
X7340000Y31910000D02*
X7400000Y31980000D01*
X7400000Y31980000D02*
X7420000Y32080000D01*
X7420000Y32080000D02*
X7390000Y32160000D01*
X7390000Y32160000D02*
X7310000Y32250000D01*
X7310000Y32250000D02*
X7210000Y32250000D01*
X7210000Y32250000D02*
X7110000Y32240000D01*
X7110000Y32240000D02*
X7040000Y32150000D01*
X7040000Y32150000D02*
X7010000Y32070000D01*
X7010000Y32070000D02*
X6970000Y32000000D01*
X6970000Y32000000D02*
X6860000Y32000000D01*
X6860000Y32000000D02*
X6840000Y32080000D01*
X6840000Y32080000D02*
X6860000Y32160000D01*
X6860000Y32160000D02*
X6900000Y32250000D01*
X6900000Y32250000D02*
X6970000Y32340000D01*
X6970000Y32340000D02*
X7060000Y32410000D01*
X7060000Y32410000D02*
X7260000Y32410000D01*
X7260000Y32410000D02*
X7370000Y32380000D01*
X7370000Y32380000D02*
X7470000Y32320000D01*
X7470000Y32320000D02*
X7530000Y32260000D01*
X7530000Y32260000D02*
X7570000Y32180000D01*
X7570000Y32180000D02*
X7590000Y32080000D01*
X7590000Y32080000D02*
X7590000Y31980000D01*
X7590000Y31980000D02*
X7570000Y31880000D01*
X7570000Y31880000D02*
X7520000Y31790000D01*
X7520000Y31790000D02*
X7450000Y31730000D01*
X7450000Y31730000D02*
X7360000Y31680000D01*
X7360000Y31680000D02*
X7250000Y31650000D01*
X7250000Y31650000D02*
X7150000Y31610000D01*
X7150000Y31610000D02*
X7070000Y31570000D01*
X7070000Y31570000D02*
X7010000Y31490000D01*
X7010000Y31490000D02*
X7000000Y31390000D01*
X7000000Y31390000D02*
X7020000Y31310000D01*
X7020000Y31310000D02*
X7090000Y31220000D01*
X7090000Y31220000D02*
X7190000Y31200000D01*
X7190000Y31200000D02*
X7290000Y31200000D01*
X7290000Y31200000D02*
X7390000Y31250000D01*
X7390000Y31250000D02*
X7440000Y31340000D01*
X7440000Y31340000D02*
X7460000Y31420000D01*
X7460000Y31420000D02*
X7500000Y31490000D01*
X7500000Y31490000D02*
X7610000Y31490000D01*
X7610000Y31490000D02*
X7640000Y31410000D01*
X7640000Y31410000D02*
X7620000Y31310000D01*
X7620000Y31310000D02*
X7590000Y31220000D01*
X7590000Y31220000D02*
X7540000Y31160000D01*
X7540000Y31160000D02*
X7450000Y31100000D01*
X7450000Y31100000D02*
X7340000Y31040000D01*
X7340000Y31040000D02*
X7340000Y31040000D01*
G36*
X7370000Y32380000D02*
G01*
X7470000Y32320000D01*
X7530000Y32260000D01*
X7570000Y32180000D01*
X7590000Y32080000D01*
X7590000Y31980000D01*
X7570000Y31880000D01*
X7520000Y31790000D01*
X7450000Y31730000D01*
X7360000Y31680000D01*
X7250000Y31650000D01*
X7150000Y31610000D01*
X7070000Y31570000D01*
X7010000Y31490000D01*
X7000000Y31390000D01*
X7020000Y31310000D01*
X7090000Y31220000D01*
X7190000Y31200000D01*
X7290000Y31200000D01*
X7390000Y31250000D01*
X7440000Y31340000D01*
X7460000Y31420000D01*
X7500000Y31490000D01*
X7610000Y31490000D01*
X7640000Y31410000D01*
X7620000Y31310000D01*
X7590000Y31220000D01*
X7540000Y31160000D01*
X7450000Y31100000D01*
X7340000Y31040000D01*
X7140000Y31040000D01*
X7030000Y31090000D01*
X6940000Y31150000D01*
X6890000Y31210000D01*
X6850000Y31290000D01*
X6830000Y31390000D01*
X6830000Y31500000D01*
X6850000Y31590000D01*
X6900000Y31680000D01*
X6960000Y31750000D01*
X7050000Y31810000D01*
X7260000Y31870000D01*
X7340000Y31910000D01*
X7400000Y31980000D01*
X7420000Y32080000D01*
X7390000Y32160000D01*
X7310000Y32250000D01*
X7210000Y32250000D01*
X7110000Y32240000D01*
X7040000Y32150000D01*
X7010000Y32070000D01*
X6970000Y32000000D01*
X6860000Y32000000D01*
X6840000Y32080000D01*
X6860000Y32160000D01*
X6900000Y32250000D01*
X6970000Y32340000D01*
X7060000Y32410000D01*
X7260000Y32410000D01*
X7370000Y32380000D01*
G37*
X7370000Y32380000D02*
X7470000Y32320000D01*
X7530000Y32260000D01*
X7570000Y32180000D01*
X7590000Y32080000D01*
X7590000Y31980000D01*
X7570000Y31880000D01*
X7520000Y31790000D01*
X7450000Y31730000D01*
X7360000Y31680000D01*
X7250000Y31650000D01*
X7150000Y31610000D01*
X7070000Y31570000D01*
X7010000Y31490000D01*
X7000000Y31390000D01*
X7020000Y31310000D01*
X7090000Y31220000D01*
X7190000Y31200000D01*
X7290000Y31200000D01*
X7390000Y31250000D01*
X7440000Y31340000D01*
X7460000Y31420000D01*
X7500000Y31490000D01*
X7610000Y31490000D01*
X7640000Y31410000D01*
X7620000Y31310000D01*
X7590000Y31220000D01*
X7540000Y31160000D01*
X7450000Y31100000D01*
X7340000Y31040000D01*
X7140000Y31040000D01*
X7030000Y31090000D01*
X6940000Y31150000D01*
X6890000Y31210000D01*
X6850000Y31290000D01*
X6830000Y31390000D01*
X6830000Y31500000D01*
X6850000Y31590000D01*
X6900000Y31680000D01*
X6960000Y31750000D01*
X7050000Y31810000D01*
X7260000Y31870000D01*
X7340000Y31910000D01*
X7400000Y31980000D01*
X7420000Y32080000D01*
X7390000Y32160000D01*
X7310000Y32250000D01*
X7210000Y32250000D01*
X7110000Y32240000D01*
X7040000Y32150000D01*
X7010000Y32070000D01*
X6970000Y32000000D01*
X6860000Y32000000D01*
X6840000Y32080000D01*
X6860000Y32160000D01*
X6900000Y32250000D01*
X6970000Y32340000D01*
X7060000Y32410000D01*
X7260000Y32410000D01*
X7370000Y32380000D01*
X4190000Y31040000D02*
X3990000Y31040000D01*
X3990000Y31040000D02*
X3880000Y31090000D01*
X3880000Y31090000D02*
X3790000Y31150000D01*
X3790000Y31150000D02*
X3740000Y31210000D01*
X3740000Y31210000D02*
X3700000Y31290000D01*
X3700000Y31290000D02*
X3680000Y31390000D01*
X3680000Y31390000D02*
X3680000Y31500000D01*
X3680000Y31500000D02*
X3700000Y31590000D01*
X3700000Y31590000D02*
X3750000Y31680000D01*
X3750000Y31680000D02*
X3810000Y31750000D01*
X3810000Y31750000D02*
X3900000Y31810000D01*
X3900000Y31810000D02*
X4110000Y31870000D01*
X4110000Y31870000D02*
X4190000Y31910000D01*
X4190000Y31910000D02*
X4260000Y31980000D01*
X4260000Y31980000D02*
X4270000Y32080000D01*
X4270000Y32080000D02*
X4240000Y32160000D01*
X4240000Y32160000D02*
X4160000Y32250000D01*
X4160000Y32250000D02*
X4060000Y32250000D01*
X4060000Y32250000D02*
X3960000Y32240000D01*
X3960000Y32240000D02*
X3890000Y32150000D01*
X3890000Y32150000D02*
X3860000Y32070000D01*
X3860000Y32070000D02*
X3820000Y32000000D01*
X3820000Y32000000D02*
X3710000Y32000000D01*
X3710000Y32000000D02*
X3690000Y32080000D01*
X3690000Y32080000D02*
X3710000Y32160000D01*
X3710000Y32160000D02*
X3750000Y32250000D01*
X3750000Y32250000D02*
X3820000Y32340000D01*
X3820000Y32340000D02*
X3910000Y32410000D01*
X3910000Y32410000D02*
X4110000Y32410000D01*
X4110000Y32410000D02*
X4220000Y32380000D01*
X4220000Y32380000D02*
X4320000Y32320000D01*
X4320000Y32320000D02*
X4380000Y32260000D01*
X4380000Y32260000D02*
X4420000Y32180000D01*
X4420000Y32180000D02*
X4440000Y32080000D01*
X4440000Y32080000D02*
X4440000Y31980000D01*
X4440000Y31980000D02*
X4420000Y31880000D01*
X4420000Y31880000D02*
X4370000Y31790000D01*
X4370000Y31790000D02*
X4300000Y31730000D01*
X4300000Y31730000D02*
X4210000Y31680000D01*
X4210000Y31680000D02*
X4110000Y31650000D01*
X4110000Y31650000D02*
X4000000Y31610000D01*
X4000000Y31610000D02*
X3920000Y31570000D01*
X3920000Y31570000D02*
X3860000Y31490000D01*
X3860000Y31490000D02*
X3850000Y31390000D01*
X3850000Y31390000D02*
X3870000Y31310000D01*
X3870000Y31310000D02*
X3940000Y31220000D01*
X3940000Y31220000D02*
X4040000Y31200000D01*
X4040000Y31200000D02*
X4140000Y31200000D01*
X4140000Y31200000D02*
X4240000Y31250000D01*
X4240000Y31250000D02*
X4290000Y31340000D01*
X4290000Y31340000D02*
X4310000Y31420000D01*
X4310000Y31420000D02*
X4350000Y31490000D01*
X4350000Y31490000D02*
X4460000Y31490000D01*
X4460000Y31490000D02*
X4490000Y31410000D01*
X4490000Y31410000D02*
X4470000Y31310000D01*
X4470000Y31310000D02*
X4440000Y31220000D01*
X4440000Y31220000D02*
X4390000Y31160000D01*
X4390000Y31160000D02*
X4310000Y31100000D01*
X4310000Y31100000D02*
X4190000Y31040000D01*
X4190000Y31040000D02*
X4190000Y31040000D01*
G36*
X4220000Y32380000D02*
G01*
X4320000Y32320000D01*
X4380000Y32260000D01*
X4420000Y32180000D01*
X4440000Y32080000D01*
X4440000Y31980000D01*
X4420000Y31880000D01*
X4370000Y31790000D01*
X4300000Y31730000D01*
X4210000Y31680000D01*
X4110000Y31650000D01*
X4000000Y31610000D01*
X3920000Y31570000D01*
X3860000Y31490000D01*
X3850000Y31390000D01*
X3870000Y31310000D01*
X3940000Y31220000D01*
X4040000Y31200000D01*
X4140000Y31200000D01*
X4240000Y31250000D01*
X4290000Y31340000D01*
X4310000Y31420000D01*
X4350000Y31490000D01*
X4460000Y31490000D01*
X4490000Y31410000D01*
X4470000Y31310000D01*
X4440000Y31220000D01*
X4390000Y31160000D01*
X4310000Y31100000D01*
X4190000Y31040000D01*
X3990000Y31040000D01*
X3880000Y31090000D01*
X3790000Y31150000D01*
X3740000Y31210000D01*
X3700000Y31290000D01*
X3680000Y31390000D01*
X3680000Y31500000D01*
X3700000Y31590000D01*
X3750000Y31680000D01*
X3810000Y31750000D01*
X3900000Y31810000D01*
X4110000Y31870000D01*
X4190000Y31910000D01*
X4260000Y31980000D01*
X4270000Y32080000D01*
X4240000Y32160000D01*
X4160000Y32250000D01*
X4060000Y32250000D01*
X3960000Y32240000D01*
X3890000Y32150000D01*
X3860000Y32070000D01*
X3820000Y32000000D01*
X3710000Y32000000D01*
X3690000Y32080000D01*
X3710000Y32160000D01*
X3750000Y32250000D01*
X3820000Y32340000D01*
X3910000Y32410000D01*
X4110000Y32410000D01*
X4220000Y32380000D01*
G37*
X4220000Y32380000D02*
X4320000Y32320000D01*
X4380000Y32260000D01*
X4420000Y32180000D01*
X4440000Y32080000D01*
X4440000Y31980000D01*
X4420000Y31880000D01*
X4370000Y31790000D01*
X4300000Y31730000D01*
X4210000Y31680000D01*
X4110000Y31650000D01*
X4000000Y31610000D01*
X3920000Y31570000D01*
X3860000Y31490000D01*
X3850000Y31390000D01*
X3870000Y31310000D01*
X3940000Y31220000D01*
X4040000Y31200000D01*
X4140000Y31200000D01*
X4240000Y31250000D01*
X4290000Y31340000D01*
X4310000Y31420000D01*
X4350000Y31490000D01*
X4460000Y31490000D01*
X4490000Y31410000D01*
X4470000Y31310000D01*
X4440000Y31220000D01*
X4390000Y31160000D01*
X4310000Y31100000D01*
X4190000Y31040000D01*
X3990000Y31040000D01*
X3880000Y31090000D01*
X3790000Y31150000D01*
X3740000Y31210000D01*
X3700000Y31290000D01*
X3680000Y31390000D01*
X3680000Y31500000D01*
X3700000Y31590000D01*
X3750000Y31680000D01*
X3810000Y31750000D01*
X3900000Y31810000D01*
X4110000Y31870000D01*
X4190000Y31910000D01*
X4260000Y31980000D01*
X4270000Y32080000D01*
X4240000Y32160000D01*
X4160000Y32250000D01*
X4060000Y32250000D01*
X3960000Y32240000D01*
X3890000Y32150000D01*
X3860000Y32070000D01*
X3820000Y32000000D01*
X3710000Y32000000D01*
X3690000Y32080000D01*
X3710000Y32160000D01*
X3750000Y32250000D01*
X3820000Y32340000D01*
X3910000Y32410000D01*
X4110000Y32410000D01*
X4220000Y32380000D01*
X12650000Y31040000D02*
X12540000Y31040000D01*
X12540000Y31040000D02*
X12510000Y31130000D01*
X12510000Y31130000D02*
X12510000Y31640000D01*
X12510000Y31640000D02*
X12500000Y31700000D01*
X12500000Y31700000D02*
X12270000Y31130000D01*
X12270000Y31130000D02*
X12240000Y31040000D01*
X12240000Y31040000D02*
X12140000Y31040000D01*
X12140000Y31040000D02*
X12080000Y31100000D01*
X12080000Y31100000D02*
X11850000Y31990000D01*
X11850000Y31990000D02*
X11810000Y32040000D01*
X11810000Y32040000D02*
X11810000Y31120000D01*
X11810000Y31120000D02*
X11780000Y31040000D01*
X11780000Y31040000D02*
X11670000Y31040000D01*
X11670000Y31040000D02*
X11650000Y31130000D01*
X11650000Y31130000D02*
X11650000Y32350000D01*
X11650000Y32350000D02*
X11720000Y32410000D01*
X11720000Y32410000D02*
X11820000Y32410000D01*
X11820000Y32410000D02*
X11900000Y32390000D01*
X11900000Y32390000D02*
X11940000Y32290000D01*
X11940000Y32290000D02*
X12130000Y31820000D01*
X12130000Y31820000D02*
X12170000Y31740000D01*
X12170000Y31740000D02*
X12210000Y31830000D01*
X12210000Y31830000D02*
X12390000Y32310000D01*
X12390000Y32310000D02*
X12430000Y32400000D01*
X12430000Y32400000D02*
X12630000Y32410000D01*
X12630000Y32410000D02*
X12690000Y32340000D01*
X12690000Y32340000D02*
X12690000Y31120000D01*
X12690000Y31120000D02*
X12650000Y31040000D01*
X12650000Y31040000D02*
X12650000Y31040000D01*
G36*
X11900000Y32390000D02*
G01*
X11940000Y32290000D01*
X12130000Y31820000D01*
X12170000Y31740000D01*
X12210000Y31830000D01*
X12390000Y32310000D01*
X12430000Y32400000D01*
X12630000Y32410000D01*
X12690000Y32340000D01*
X12690000Y31120000D01*
X12650000Y31040000D01*
X12540000Y31040000D01*
X12510000Y31130000D01*
X12510000Y31640000D01*
X12500000Y31700000D01*
X12270000Y31130000D01*
X12240000Y31040000D01*
X12140000Y31040000D01*
X12080000Y31100000D01*
X11850000Y31990000D01*
X11810000Y32040000D01*
X11810000Y31120000D01*
X11780000Y31040000D01*
X11670000Y31040000D01*
X11650000Y31130000D01*
X11650000Y32350000D01*
X11720000Y32410000D01*
X11820000Y32410000D01*
X11900000Y32390000D01*
G37*
X11900000Y32390000D02*
X11940000Y32290000D01*
X12130000Y31820000D01*
X12170000Y31740000D01*
X12210000Y31830000D01*
X12390000Y32310000D01*
X12430000Y32400000D01*
X12630000Y32410000D01*
X12690000Y32340000D01*
X12690000Y31120000D01*
X12650000Y31040000D01*
X12540000Y31040000D01*
X12510000Y31130000D01*
X12510000Y31640000D01*
X12500000Y31700000D01*
X12270000Y31130000D01*
X12240000Y31040000D01*
X12140000Y31040000D01*
X12080000Y31100000D01*
X11850000Y31990000D01*
X11810000Y32040000D01*
X11810000Y31120000D01*
X11780000Y31040000D01*
X11670000Y31040000D01*
X11650000Y31130000D01*
X11650000Y32350000D01*
X11720000Y32410000D01*
X11820000Y32410000D01*
X11900000Y32390000D01*
X15670000Y31040000D02*
X15470000Y31040000D01*
X15470000Y31040000D02*
X15360000Y31080000D01*
X15360000Y31080000D02*
X15270000Y31160000D01*
X15270000Y31160000D02*
X15210000Y31220000D01*
X15210000Y31220000D02*
X15180000Y31290000D01*
X15180000Y31290000D02*
X15150000Y31390000D01*
X15150000Y31390000D02*
X15140000Y31490000D01*
X15140000Y31490000D02*
X15140000Y31590000D01*
X15140000Y31590000D02*
X15140000Y31700000D01*
X15140000Y31700000D02*
X15140000Y31820000D01*
X15140000Y31820000D02*
X15140000Y31920000D01*
X15140000Y31920000D02*
X15150000Y32010000D01*
X15150000Y32010000D02*
X15170000Y32110000D01*
X15170000Y32110000D02*
X15200000Y32190000D01*
X15200000Y32190000D02*
X15250000Y32260000D01*
X15250000Y32260000D02*
X15320000Y32330000D01*
X15320000Y32330000D02*
X15420000Y32410000D01*
X15420000Y32410000D02*
X15630000Y32410000D01*
X15630000Y32410000D02*
X15610000Y32250000D01*
X15610000Y32250000D02*
X15510000Y32250000D01*
X15510000Y32250000D02*
X15420000Y32200000D01*
X15420000Y32200000D02*
X15360000Y32130000D01*
X15360000Y32130000D02*
X15320000Y32050000D01*
X15320000Y32050000D02*
X15310000Y31940000D01*
X15310000Y31940000D02*
X15310000Y31730000D01*
X15310000Y31730000D02*
X15310000Y31520000D01*
X15310000Y31520000D02*
X15320000Y31420000D01*
X15320000Y31420000D02*
X15350000Y31330000D01*
X15350000Y31330000D02*
X15400000Y31260000D01*
X15400000Y31260000D02*
X15480000Y31200000D01*
X15480000Y31200000D02*
X15580000Y31200000D01*
X15580000Y31200000D02*
X15680000Y31240000D01*
X15680000Y31240000D02*
X15740000Y31310000D01*
X15740000Y31310000D02*
X15770000Y31390000D01*
X15770000Y31390000D02*
X15790000Y31500000D01*
X15790000Y31500000D02*
X15790000Y31590000D01*
X15790000Y31590000D02*
X15800000Y31700000D01*
X15800000Y31700000D02*
X15790000Y31820000D01*
X15790000Y31820000D02*
X15790000Y31920000D01*
X15790000Y31920000D02*
X15780000Y32020000D01*
X15780000Y32020000D02*
X15760000Y32110000D01*
X15760000Y32110000D02*
X15700000Y32180000D01*
X15700000Y32180000D02*
X15610000Y32250000D01*
X15610000Y32250000D02*
X15630000Y32400000D01*
X15630000Y32400000D02*
X15730000Y32370000D01*
X15730000Y32370000D02*
X15820000Y32290000D01*
X15820000Y32290000D02*
X15880000Y32220000D01*
X15880000Y32220000D02*
X15920000Y32150000D01*
X15920000Y32150000D02*
X15950000Y32060000D01*
X15950000Y32060000D02*
X15960000Y31960000D01*
X15960000Y31960000D02*
X15970000Y31870000D01*
X15970000Y31870000D02*
X15970000Y31760000D01*
X15970000Y31760000D02*
X15970000Y31640000D01*
X15970000Y31640000D02*
X15960000Y31530000D01*
X15960000Y31530000D02*
X15960000Y31440000D01*
X15960000Y31440000D02*
X15940000Y31340000D01*
X15940000Y31340000D02*
X15900000Y31260000D01*
X15900000Y31260000D02*
X15860000Y31190000D01*
X15860000Y31190000D02*
X15780000Y31120000D01*
X15780000Y31120000D02*
X15680000Y31040000D01*
X15680000Y31040000D02*
X15670000Y31040000D01*
X15670000Y31040000D02*
X15670000Y31040000D01*
G36*
X15610000Y32250000D02*
G01*
X15630000Y32400000D01*
X15730000Y32370000D01*
X15820000Y32290000D01*
X15880000Y32220000D01*
X15920000Y32150000D01*
X15950000Y32060000D01*
X15960000Y31960000D01*
X15970000Y31870000D01*
X15970000Y31640000D01*
X15960000Y31530000D01*
X15960000Y31440000D01*
X15940000Y31340000D01*
X15900000Y31260000D01*
X15860000Y31190000D01*
X15780000Y31120000D01*
X15680000Y31040000D01*
X15470000Y31040000D01*
X15360000Y31080000D01*
X15270000Y31160000D01*
X15210000Y31220000D01*
X15180000Y31290000D01*
X15150000Y31390000D01*
X15140000Y31490000D01*
X15140000Y31520000D01*
X15310000Y31520000D01*
X15320000Y31420000D01*
X15350000Y31330000D01*
X15400000Y31260000D01*
X15480000Y31200000D01*
X15580000Y31200000D01*
X15680000Y31240000D01*
X15740000Y31310000D01*
X15770000Y31390000D01*
X15790000Y31500000D01*
X15790000Y31590000D01*
X15800000Y31700000D01*
X15790000Y31820000D01*
X15790000Y31920000D01*
X15780000Y32020000D01*
X15760000Y32110000D01*
X15700000Y32180000D01*
X15610000Y32250000D01*
X15510000Y32250000D01*
X15420000Y32200000D01*
X15360000Y32130000D01*
X15320000Y32050000D01*
X15310000Y31940000D01*
X15310000Y31520000D01*
X15140000Y31520000D01*
X15140000Y31920000D01*
X15150000Y32010000D01*
X15170000Y32110000D01*
X15200000Y32190000D01*
X15250000Y32260000D01*
X15320000Y32330000D01*
X15420000Y32410000D01*
X15630000Y32410000D01*
X15610000Y32250000D01*
G37*
X15610000Y32250000D02*
X15630000Y32400000D01*
X15730000Y32370000D01*
X15820000Y32290000D01*
X15880000Y32220000D01*
X15920000Y32150000D01*
X15950000Y32060000D01*
X15960000Y31960000D01*
X15970000Y31870000D01*
X15970000Y31640000D01*
X15960000Y31530000D01*
X15960000Y31440000D01*
X15940000Y31340000D01*
X15900000Y31260000D01*
X15860000Y31190000D01*
X15780000Y31120000D01*
X15680000Y31040000D01*
X15470000Y31040000D01*
X15360000Y31080000D01*
X15270000Y31160000D01*
X15210000Y31220000D01*
X15180000Y31290000D01*
X15150000Y31390000D01*
X15140000Y31490000D01*
X15140000Y31520000D01*
X15310000Y31520000D01*
X15320000Y31420000D01*
X15350000Y31330000D01*
X15400000Y31260000D01*
X15480000Y31200000D01*
X15580000Y31200000D01*
X15680000Y31240000D01*
X15740000Y31310000D01*
X15770000Y31390000D01*
X15790000Y31500000D01*
X15790000Y31590000D01*
X15800000Y31700000D01*
X15790000Y31820000D01*
X15790000Y31920000D01*
X15780000Y32020000D01*
X15760000Y32110000D01*
X15700000Y32180000D01*
X15610000Y32250000D01*
X15510000Y32250000D01*
X15420000Y32200000D01*
X15360000Y32130000D01*
X15320000Y32050000D01*
X15310000Y31940000D01*
X15310000Y31520000D01*
X15140000Y31520000D01*
X15140000Y31920000D01*
X15150000Y32010000D01*
X15170000Y32110000D01*
X15200000Y32190000D01*
X15250000Y32260000D01*
X15320000Y32330000D01*
X15420000Y32410000D01*
X15630000Y32410000D01*
X15610000Y32250000D01*
X14470000Y31040000D02*
X14370000Y31040000D01*
X14370000Y31040000D02*
X14290000Y31070000D01*
X14290000Y31070000D02*
X13960000Y32350000D01*
X13960000Y32350000D02*
X14010000Y32410000D01*
X14010000Y32410000D02*
X14110000Y32410000D01*
X14110000Y32410000D02*
X14150000Y32320000D01*
X14150000Y32320000D02*
X14380000Y31330000D01*
X14380000Y31330000D02*
X14430000Y31390000D01*
X14430000Y31390000D02*
X14670000Y32370000D01*
X14670000Y32370000D02*
X14740000Y32410000D01*
X14740000Y32410000D02*
X14840000Y32400000D01*
X14840000Y32400000D02*
X14830000Y32300000D01*
X14830000Y32300000D02*
X14520000Y31120000D01*
X14520000Y31120000D02*
X14470000Y31040000D01*
X14470000Y31040000D02*
X14470000Y31040000D01*
G36*
X14150000Y32320000D02*
G01*
X14380000Y31330000D01*
X14430000Y31390000D01*
X14670000Y32370000D01*
X14740000Y32410000D01*
X14840000Y32400000D01*
X14830000Y32300000D01*
X14520000Y31120000D01*
X14470000Y31040000D01*
X14370000Y31040000D01*
X14290000Y31070000D01*
X13960000Y32350000D01*
X14010000Y32410000D01*
X14110000Y32410000D01*
X14150000Y32320000D01*
G37*
X14150000Y32320000D02*
X14380000Y31330000D01*
X14430000Y31390000D01*
X14670000Y32370000D01*
X14740000Y32410000D01*
X14840000Y32400000D01*
X14830000Y32300000D01*
X14520000Y31120000D01*
X14470000Y31040000D01*
X14370000Y31040000D01*
X14290000Y31070000D01*
X13960000Y32350000D01*
X14010000Y32410000D01*
X14110000Y32410000D01*
X14150000Y32320000D01*
X8990000Y31040000D02*
X8890000Y31040000D01*
X8890000Y31040000D02*
X8850000Y31120000D01*
X8850000Y31120000D02*
X8850000Y32230000D01*
X8850000Y32230000D02*
X8750000Y32230000D01*
X8750000Y32230000D02*
X8650000Y32230000D01*
X8650000Y32230000D02*
X8560000Y32270000D01*
X8560000Y32270000D02*
X8560000Y32360000D01*
X8560000Y32360000D02*
X8640000Y32410000D01*
X8640000Y32410000D02*
X9240000Y32410000D01*
X9240000Y32410000D02*
X9310000Y32360000D01*
X9310000Y32360000D02*
X9310000Y32260000D01*
X9310000Y32260000D02*
X9220000Y32230000D01*
X9220000Y32230000D02*
X9020000Y32230000D01*
X9020000Y32230000D02*
X9020000Y32140000D01*
X9020000Y32140000D02*
X9020000Y31130000D01*
X9020000Y31130000D02*
X8990000Y31040000D01*
X8990000Y31040000D02*
X8990000Y31040000D01*
G36*
X9310000Y32360000D02*
G01*
X9310000Y32260000D01*
X9220000Y32230000D01*
X9020000Y32230000D01*
X9020000Y31130000D01*
X8990000Y31040000D01*
X8890000Y31040000D01*
X8850000Y31120000D01*
X8850000Y32230000D01*
X8650000Y32230000D01*
X8560000Y32270000D01*
X8560000Y32360000D01*
X8640000Y32410000D01*
X9240000Y32410000D01*
X9310000Y32360000D01*
G37*
X9310000Y32360000D02*
X9310000Y32260000D01*
X9220000Y32230000D01*
X9020000Y32230000D01*
X9020000Y31130000D01*
X8990000Y31040000D01*
X8890000Y31040000D01*
X8850000Y31120000D01*
X8850000Y32230000D01*
X8650000Y32230000D01*
X8560000Y32270000D01*
X8560000Y32360000D01*
X8640000Y32410000D01*
X9240000Y32410000D01*
X9310000Y32360000D01*
X13600000Y31040000D02*
X13100000Y31040000D01*
X13100000Y31040000D02*
X13000000Y31040000D01*
X13000000Y31040000D02*
X12980000Y31140000D01*
X12980000Y31140000D02*
X13030000Y31200000D01*
X13030000Y31200000D02*
X13440000Y31200000D01*
X13440000Y31200000D02*
X13470000Y31270000D01*
X13470000Y31270000D02*
X13470000Y31570000D01*
X13470000Y31570000D02*
X13440000Y31640000D01*
X13440000Y31640000D02*
X13040000Y31640000D01*
X13040000Y31640000D02*
X13000000Y31720000D01*
X13000000Y31720000D02*
X13030000Y31810000D01*
X13030000Y31810000D02*
X13440000Y31810000D01*
X13440000Y31810000D02*
X13470000Y31880000D01*
X13470000Y31880000D02*
X13470000Y32180000D01*
X13470000Y32180000D02*
X13430000Y32240000D01*
X13430000Y32240000D02*
X13030000Y32240000D01*
X13030000Y32240000D02*
X12980000Y32310000D01*
X12980000Y32310000D02*
X13000000Y32400000D01*
X13000000Y32400000D02*
X13100000Y32410000D01*
X13100000Y32410000D02*
X13610000Y32410000D01*
X13610000Y32410000D02*
X13640000Y32320000D01*
X13640000Y32320000D02*
X13640000Y31120000D01*
X13640000Y31120000D02*
X13600000Y31040000D01*
X13600000Y31040000D02*
X13600000Y31040000D01*
G36*
X13640000Y32320000D02*
G01*
X13640000Y31120000D01*
X13600000Y31040000D01*
X13000000Y31040000D01*
X12980000Y31140000D01*
X13030000Y31200000D01*
X13440000Y31200000D01*
X13470000Y31270000D01*
X13470000Y31570000D01*
X13440000Y31640000D01*
X13040000Y31640000D01*
X13000000Y31720000D01*
X13030000Y31810000D01*
X13440000Y31810000D01*
X13470000Y31880000D01*
X13470000Y32180000D01*
X13430000Y32240000D01*
X13030000Y32240000D01*
X12980000Y32310000D01*
X13000000Y32400000D01*
X13100000Y32410000D01*
X13610000Y32410000D01*
X13640000Y32320000D01*
G37*
X13640000Y32320000D02*
X13640000Y31120000D01*
X13600000Y31040000D01*
X13000000Y31040000D01*
X12980000Y31140000D01*
X13030000Y31200000D01*
X13440000Y31200000D01*
X13470000Y31270000D01*
X13470000Y31570000D01*
X13440000Y31640000D01*
X13040000Y31640000D01*
X13000000Y31720000D01*
X13030000Y31810000D01*
X13440000Y31810000D01*
X13470000Y31880000D01*
X13470000Y32180000D01*
X13430000Y32240000D01*
X13030000Y32240000D01*
X12980000Y32310000D01*
X13000000Y32400000D01*
X13100000Y32410000D01*
X13610000Y32410000D01*
X13640000Y32320000D01*
X15610000Y340000D02*
X15610000Y20000D01*
X15610000Y20000D02*
X15550000Y0D01*
X15550000Y0D02*
X14040000Y0D01*
X14040000Y0D02*
X14010000Y60000D01*
X14010000Y60000D02*
X14010000Y6020000D01*
X14010000Y6020000D02*
X14560000Y3660000D01*
X14560000Y3660000D02*
X14490000Y3630000D01*
X14490000Y3630000D02*
X14420000Y3600000D01*
X14420000Y3600000D02*
X14370000Y3540000D01*
X14370000Y3540000D02*
X14330000Y3480000D01*
X14330000Y3480000D02*
X14300000Y3410000D01*
X14300000Y3410000D02*
X14290000Y3320000D01*
X14290000Y3320000D02*
X14300000Y3220000D01*
X14300000Y3220000D02*
X14320000Y3140000D01*
X14320000Y3140000D02*
X14350000Y3080000D01*
X14350000Y3080000D02*
X14390000Y3020000D01*
X14390000Y3020000D02*
X14460000Y2970000D01*
X14460000Y2970000D02*
X14530000Y2930000D01*
X14530000Y2930000D02*
X14600000Y2910000D01*
X14600000Y2910000D02*
X14670000Y2910000D01*
X14670000Y2910000D02*
X14750000Y2900000D01*
X14750000Y2900000D02*
X14850000Y2900000D01*
X14850000Y2900000D02*
X14940000Y2900000D01*
X14940000Y2900000D02*
X15010000Y2910000D01*
X15010000Y2910000D02*
X15080000Y2920000D01*
X15080000Y2920000D02*
X15160000Y2950000D01*
X15160000Y2950000D02*
X15220000Y2980000D01*
X15220000Y2980000D02*
X15280000Y3040000D01*
X15280000Y3040000D02*
X15320000Y3100000D01*
X15320000Y3100000D02*
X15350000Y3170000D01*
X15350000Y3170000D02*
X15360000Y3250000D01*
X15360000Y3250000D02*
X15360000Y3340000D01*
X15360000Y3340000D02*
X15350000Y3420000D01*
X15350000Y3420000D02*
X15320000Y3500000D01*
X15320000Y3500000D02*
X15280000Y3560000D01*
X15280000Y3560000D02*
X15220000Y3620000D01*
X15220000Y3620000D02*
X15160000Y3650000D01*
X15160000Y3650000D02*
X15300000Y3910000D01*
X15300000Y3910000D02*
X15360000Y3940000D01*
X15360000Y3940000D02*
X15360000Y4100000D01*
X15360000Y4100000D02*
X15350000Y4170000D01*
X15350000Y4170000D02*
X14830000Y4380000D01*
X14830000Y4380000D02*
X14760000Y4410000D01*
X14760000Y4410000D02*
X14840000Y4410000D01*
X14840000Y4410000D02*
X15320000Y4410000D01*
X15320000Y4410000D02*
X15360000Y4460000D01*
X15360000Y4460000D02*
X15360000Y4540000D01*
X15360000Y4540000D02*
X15340000Y4610000D01*
X15340000Y4610000D02*
X14380000Y4610000D01*
X14380000Y4610000D02*
X14370000Y4840000D01*
X14370000Y4840000D02*
X15320000Y4840000D01*
X15320000Y4840000D02*
X15360000Y4900000D01*
X15360000Y4900000D02*
X15360000Y5140000D01*
X15360000Y5140000D02*
X15360000Y5220000D01*
X15360000Y5220000D02*
X15340000Y5300000D01*
X15340000Y5300000D02*
X15310000Y5370000D01*
X15310000Y5370000D02*
X15270000Y5430000D01*
X15270000Y5430000D02*
X15210000Y5490000D01*
X15210000Y5490000D02*
X15150000Y5520000D01*
X15150000Y5520000D02*
X15090000Y5530000D01*
X15090000Y5530000D02*
X15010000Y5540000D01*
X15010000Y5540000D02*
X14920000Y5550000D01*
X14920000Y5550000D02*
X14820000Y5550000D01*
X14820000Y5550000D02*
X14720000Y5550000D01*
X14720000Y5550000D02*
X14630000Y5540000D01*
X14630000Y5540000D02*
X14560000Y5530000D01*
X14560000Y5530000D02*
X14500000Y5520000D01*
X14500000Y5520000D02*
X14440000Y5480000D01*
X14440000Y5480000D02*
X14380000Y5420000D01*
X14380000Y5420000D02*
X14340000Y5360000D01*
X14340000Y5360000D02*
X14310000Y5290000D01*
X14310000Y5290000D02*
X14290000Y5210000D01*
X14290000Y5210000D02*
X14290000Y5180000D01*
X14290000Y5180000D02*
X14290000Y4940000D01*
X14290000Y4940000D02*
X14300000Y4860000D01*
X14300000Y4860000D02*
X14370000Y4850000D01*
X14370000Y4850000D02*
X14380000Y4610000D01*
X14380000Y4610000D02*
X14310000Y4600000D01*
X14310000Y4600000D02*
X14290000Y4520000D01*
X14290000Y4520000D02*
X14290000Y4440000D01*
X14290000Y4440000D02*
X14300000Y4360000D01*
X14300000Y4360000D02*
X14350000Y4320000D01*
X14350000Y4320000D02*
X14800000Y4140000D01*
X14800000Y4140000D02*
X14840000Y4100000D01*
X14840000Y4100000D02*
X14370000Y4100000D01*
X14370000Y4100000D02*
X14290000Y4090000D01*
X14290000Y4090000D02*
X14290000Y4020000D01*
X14290000Y4020000D02*
X14290000Y3940000D01*
X14290000Y3940000D02*
X14350000Y3910000D01*
X14350000Y3910000D02*
X15300000Y3910000D01*
X15300000Y3910000D02*
X15160000Y3650000D01*
X15160000Y3650000D02*
X15080000Y3670000D01*
X15080000Y3670000D02*
X15030000Y3620000D01*
X15030000Y3620000D02*
X15030000Y3460000D01*
X15030000Y3460000D02*
X15100000Y3420000D01*
X15100000Y3420000D02*
X15150000Y3370000D01*
X15150000Y3370000D02*
X15160000Y3280000D01*
X15160000Y3280000D02*
X15150000Y3190000D01*
X15150000Y3190000D02*
X15110000Y3140000D01*
X15110000Y3140000D02*
X15060000Y3120000D01*
X15060000Y3120000D02*
X15000000Y3110000D01*
X15000000Y3110000D02*
X14900000Y3100000D01*
X14900000Y3100000D02*
X14780000Y3100000D01*
X14780000Y3100000D02*
X14680000Y3110000D01*
X14680000Y3110000D02*
X14600000Y3110000D01*
X14600000Y3110000D02*
X14560000Y3130000D01*
X14560000Y3130000D02*
X14510000Y3180000D01*
X14510000Y3180000D02*
X14490000Y3260000D01*
X14490000Y3260000D02*
X14500000Y3340000D01*
X14500000Y3340000D02*
X14550000Y3390000D01*
X14550000Y3390000D02*
X14630000Y3410000D01*
X14630000Y3410000D02*
X14720000Y3410000D01*
X14720000Y3410000D02*
X14730000Y3340000D01*
X14730000Y3340000D02*
X14760000Y3280000D01*
X14760000Y3280000D02*
X14840000Y3280000D01*
X14840000Y3280000D02*
X14920000Y3290000D01*
X14920000Y3290000D02*
X14920000Y3370000D01*
X14920000Y3370000D02*
X14920000Y3610000D01*
X14920000Y3610000D02*
X14890000Y3670000D01*
X14890000Y3670000D02*
X14650000Y3670000D01*
X14650000Y3670000D02*
X14560000Y3660000D01*
X14560000Y3660000D02*
X14010000Y6020000D01*
X14010000Y6020000D02*
X14040000Y6070000D01*
X14040000Y6070000D02*
X15550000Y6070000D01*
X15550000Y6070000D02*
X15610000Y6040000D01*
X15610000Y6040000D02*
X15610000Y400000D01*
X15610000Y400000D02*
X15610000Y340000D01*
X15610000Y340000D02*
X15610000Y340000D01*
G36*
X15030000Y3620000D02*
G01*
X15030000Y3460000D01*
X15100000Y3420000D01*
X15150000Y3370000D01*
X15160000Y3280000D01*
X15150000Y3190000D01*
X15110000Y3140000D01*
X15060000Y3120000D01*
X15000000Y3110000D01*
X14900000Y3100000D01*
X14780000Y3100000D01*
X14680000Y3110000D01*
X14600000Y3110000D01*
X14560000Y3130000D01*
X14510000Y3180000D01*
X14490000Y3260000D01*
X14500000Y3340000D01*
X14550000Y3390000D01*
X14630000Y3410000D01*
X14720000Y3410000D01*
X14730000Y3340000D01*
X14760000Y3280000D01*
X14840000Y3280000D01*
X14920000Y3290000D01*
X14920000Y3610000D01*
X14890000Y3670000D01*
X14650000Y3670000D01*
X14560000Y3660000D01*
X14501737Y3910000D01*
X14457458Y4100000D01*
X14411963Y4295215D01*
X14339936Y4604277D01*
X14411963Y4295215D01*
X14800000Y4140000D01*
X14840000Y4100000D01*
X14457458Y4100000D01*
X14501737Y3910000D01*
X15300000Y3910000D01*
X15360000Y3940000D01*
X15360000Y4100000D01*
X15350000Y4170000D01*
X14830000Y4380000D01*
X14760000Y4410000D01*
X15320000Y4410000D01*
X15360000Y4460000D01*
X15360000Y4540000D01*
X15340000Y4610000D01*
X14380000Y4610000D01*
X14339936Y4604277D01*
X14261695Y4940000D01*
X14290000Y4940000D01*
X14300000Y4860000D01*
X14370000Y4850000D01*
X14370417Y4840000D01*
X15320000Y4840000D01*
X15360000Y4900000D01*
X15360000Y5220000D01*
X15340000Y5300000D01*
X15310000Y5370000D01*
X15270000Y5430000D01*
X15210000Y5490000D01*
X15150000Y5520000D01*
X15090000Y5530000D01*
X15010000Y5540000D01*
X14920000Y5550000D01*
X14720000Y5550000D01*
X14630000Y5540000D01*
X14560000Y5530000D01*
X14500000Y5520000D01*
X14440000Y5480000D01*
X14380000Y5420000D01*
X14340000Y5360000D01*
X14310000Y5290000D01*
X14290000Y5210000D01*
X14290000Y4940000D01*
X14261695Y4940000D01*
X14010000Y6020000D01*
X14040000Y6070000D01*
X15550000Y6070000D01*
X15610000Y6040000D01*
X15610000Y20000D01*
X15550000Y0D01*
X14040000Y0D01*
X14010000Y60000D01*
X14010000Y6020000D01*
X14339936Y4604277D01*
X14310000Y4600000D01*
X14290000Y4520000D01*
X14290000Y4440000D01*
X14300000Y4360000D01*
X14350000Y4320000D01*
X14411963Y4295215D01*
X14457458Y4100000D01*
X14370000Y4100000D01*
X14290000Y4090000D01*
X14290000Y3940000D01*
X14350000Y3910000D01*
X14501737Y3910000D01*
X14560000Y3660000D01*
X14420000Y3600000D01*
X14370000Y3540000D01*
X14330000Y3480000D01*
X14300000Y3410000D01*
X14290000Y3320000D01*
X14300000Y3220000D01*
X14320000Y3140000D01*
X14350000Y3080000D01*
X14390000Y3020000D01*
X14460000Y2970000D01*
X14530000Y2930000D01*
X14600000Y2910000D01*
X14670000Y2910000D01*
X14750000Y2900000D01*
X14940000Y2900000D01*
X15080000Y2920000D01*
X15160000Y2950000D01*
X15220000Y2980000D01*
X15280000Y3040000D01*
X15320000Y3100000D01*
X15350000Y3170000D01*
X15360000Y3250000D01*
X15360000Y3340000D01*
X15350000Y3420000D01*
X15320000Y3500000D01*
X15280000Y3560000D01*
X15220000Y3620000D01*
X15160000Y3650000D01*
X15080000Y3670000D01*
X15030000Y3620000D01*
G37*
X15030000Y3620000D02*
X15030000Y3460000D01*
X15100000Y3420000D01*
X15150000Y3370000D01*
X15160000Y3280000D01*
X15150000Y3190000D01*
X15110000Y3140000D01*
X15060000Y3120000D01*
X15000000Y3110000D01*
X14900000Y3100000D01*
X14780000Y3100000D01*
X14680000Y3110000D01*
X14600000Y3110000D01*
X14560000Y3130000D01*
X14510000Y3180000D01*
X14490000Y3260000D01*
X14500000Y3340000D01*
X14550000Y3390000D01*
X14630000Y3410000D01*
X14720000Y3410000D01*
X14730000Y3340000D01*
X14760000Y3280000D01*
X14840000Y3280000D01*
X14920000Y3290000D01*
X14920000Y3610000D01*
X14890000Y3670000D01*
X14650000Y3670000D01*
X14560000Y3660000D01*
X14501737Y3910000D01*
X14457458Y4100000D01*
X14411963Y4295215D01*
X14339936Y4604277D01*
X14411963Y4295215D01*
X14800000Y4140000D01*
X14840000Y4100000D01*
X14457458Y4100000D01*
X14501737Y3910000D01*
X15300000Y3910000D01*
X15360000Y3940000D01*
X15360000Y4100000D01*
X15350000Y4170000D01*
X14830000Y4380000D01*
X14760000Y4410000D01*
X15320000Y4410000D01*
X15360000Y4460000D01*
X15360000Y4540000D01*
X15340000Y4610000D01*
X14380000Y4610000D01*
X14339936Y4604277D01*
X14261695Y4940000D01*
X14290000Y4940000D01*
X14300000Y4860000D01*
X14370000Y4850000D01*
X14370417Y4840000D01*
X15320000Y4840000D01*
X15360000Y4900000D01*
X15360000Y5220000D01*
X15340000Y5300000D01*
X15310000Y5370000D01*
X15270000Y5430000D01*
X15210000Y5490000D01*
X15150000Y5520000D01*
X15090000Y5530000D01*
X15010000Y5540000D01*
X14920000Y5550000D01*
X14720000Y5550000D01*
X14630000Y5540000D01*
X14560000Y5530000D01*
X14500000Y5520000D01*
X14440000Y5480000D01*
X14380000Y5420000D01*
X14340000Y5360000D01*
X14310000Y5290000D01*
X14290000Y5210000D01*
X14290000Y4940000D01*
X14261695Y4940000D01*
X14010000Y6020000D01*
X14040000Y6070000D01*
X15550000Y6070000D01*
X15610000Y6040000D01*
X15610000Y20000D01*
X15550000Y0D01*
X14040000Y0D01*
X14010000Y60000D01*
X14010000Y6020000D01*
X14339936Y4604277D01*
X14310000Y4600000D01*
X14290000Y4520000D01*
X14290000Y4440000D01*
X14300000Y4360000D01*
X14350000Y4320000D01*
X14411963Y4295215D01*
X14457458Y4100000D01*
X14370000Y4100000D01*
X14290000Y4090000D01*
X14290000Y3940000D01*
X14350000Y3910000D01*
X14501737Y3910000D01*
X14560000Y3660000D01*
X14420000Y3600000D01*
X14370000Y3540000D01*
X14330000Y3480000D01*
X14300000Y3410000D01*
X14290000Y3320000D01*
X14300000Y3220000D01*
X14320000Y3140000D01*
X14350000Y3080000D01*
X14390000Y3020000D01*
X14460000Y2970000D01*
X14530000Y2930000D01*
X14600000Y2910000D01*
X14670000Y2910000D01*
X14750000Y2900000D01*
X14940000Y2900000D01*
X15080000Y2920000D01*
X15160000Y2950000D01*
X15220000Y2980000D01*
X15280000Y3040000D01*
X15320000Y3100000D01*
X15350000Y3170000D01*
X15360000Y3250000D01*
X15360000Y3340000D01*
X15350000Y3420000D01*
X15320000Y3500000D01*
X15280000Y3560000D01*
X15220000Y3620000D01*
X15160000Y3650000D01*
X15080000Y3670000D01*
X15030000Y3620000D01*
X14490000Y5110000D02*
X14490000Y5190000D01*
X14490000Y5190000D02*
X14510000Y5270000D01*
X14510000Y5270000D02*
X14560000Y5330000D01*
X14560000Y5330000D02*
X14600000Y5340000D01*
X14600000Y5340000D02*
X14680000Y5340000D01*
X14680000Y5340000D02*
X14780000Y5350000D01*
X14780000Y5350000D02*
X14900000Y5350000D01*
X14900000Y5350000D02*
X14990000Y5340000D01*
X14990000Y5340000D02*
X15060000Y5340000D01*
X15060000Y5340000D02*
X15110000Y5320000D01*
X15110000Y5320000D02*
X15150000Y5260000D01*
X15150000Y5260000D02*
X15170000Y5180000D01*
X15170000Y5180000D02*
X15170000Y5100000D01*
X15170000Y5100000D02*
X15140000Y5040000D01*
X15140000Y5040000D02*
X14500000Y5040000D01*
X14500000Y5040000D02*
X14490000Y5110000D01*
X14490000Y5110000D02*
X14490000Y5110000D01*
G36*
X14990000Y5340000D02*
G01*
X15060000Y5340000D01*
X15110000Y5320000D01*
X15150000Y5260000D01*
X15170000Y5180000D01*
X15170000Y5100000D01*
X15140000Y5040000D01*
X14500000Y5040000D01*
X14490000Y5110000D01*
X14490000Y5190000D01*
X14510000Y5270000D01*
X14560000Y5330000D01*
X14600000Y5340000D01*
X14680000Y5340000D01*
X14780000Y5350000D01*
X14900000Y5350000D01*
X14990000Y5340000D01*
G37*
X14990000Y5340000D02*
X15060000Y5340000D01*
X15110000Y5320000D01*
X15150000Y5260000D01*
X15170000Y5180000D01*
X15170000Y5100000D01*
X15140000Y5040000D01*
X14500000Y5040000D01*
X14490000Y5110000D01*
X14490000Y5190000D01*
X14510000Y5270000D01*
X14560000Y5330000D01*
X14600000Y5340000D01*
X14680000Y5340000D01*
X14780000Y5350000D01*
X14900000Y5350000D01*
X14990000Y5340000D01*
%TD*%
M02*
