%TF.GenerationSoftware,KiCad,Pcbnew,(6.0.2)*%
%TF.CreationDate,2022-05-16T11:26:32+02:00*%
%TF.ProjectId,Pir_movement_sensor,5069725f-6d6f-4766-956d-656e745f7365,rev?*%
%TF.SameCoordinates,PX55d4a80PY7bfa480*%
%TF.FileFunction,Soldermask,Top*%
%TF.FilePolarity,Negative*%
%FSLAX46Y46*%
G04 Gerber Fmt 4.6, Leading zero omitted, Abs format (unit mm)*
G04 Created by KiCad (PCBNEW (6.0.2)) date 2022-05-16 11:26:32*
%MOMM*%
%LPD*%
G01*
G04 APERTURE LIST*
G04 Aperture macros list*
%AMRoundRect*
0 Rectangle with rounded corners*
0 $1 Rounding radius*
0 $2 $3 $4 $5 $6 $7 $8 $9 X,Y pos of 4 corners*
0 Add a 4 corners polygon primitive as box body*
4,1,4,$2,$3,$4,$5,$6,$7,$8,$9,$2,$3,0*
0 Add four circle primitives for the rounded corners*
1,1,$1+$1,$2,$3*
1,1,$1+$1,$4,$5*
1,1,$1+$1,$6,$7*
1,1,$1+$1,$8,$9*
0 Add four rect primitives between the rounded corners*
20,1,$1+$1,$2,$3,$4,$5,0*
20,1,$1+$1,$4,$5,$6,$7,0*
20,1,$1+$1,$6,$7,$8,$9,0*
20,1,$1+$1,$8,$9,$2,$3,0*%
G04 Aperture macros list end*
%ADD10C,1.200000*%
%ADD11C,3.200000*%
%ADD12RoundRect,0.100000X0.500000X0.320000X-0.500000X0.320000X-0.500000X-0.320000X0.500000X-0.320000X0*%
%ADD13RoundRect,0.100000X0.330000X0.500000X-0.330000X0.500000X-0.330000X-0.500000X0.330000X-0.500000X0*%
%ADD14RoundRect,0.100000X-0.330000X-0.500000X0.330000X-0.500000X0.330000X0.500000X-0.330000X0.500000X0*%
%ADD15RoundRect,0.100000X-0.500000X0.300000X-0.500000X-0.300000X0.500000X-0.300000X0.500000X0.300000X0*%
%ADD16RoundRect,0.100000X0.600000X1.700000X-0.600000X1.700000X-0.600000X-1.700000X0.600000X-1.700000X0*%
%ADD17RoundRect,0.100000X0.775000X0.300000X-0.775000X0.300000X-0.775000X-0.300000X0.775000X-0.300000X0*%
%ADD18RoundRect,0.100000X-0.320000X0.500000X-0.320000X-0.500000X0.320000X-0.500000X0.320000X0.500000X0*%
%ADD19RoundRect,0.100000X-0.500000X-0.320000X0.500000X-0.320000X0.500000X0.320000X-0.500000X0.320000X0*%
%ADD20C,1.900000*%
%ADD21RoundRect,0.100000X0.300000X-0.550000X0.300000X0.550000X-0.300000X0.550000X-0.300000X-0.550000X0*%
%ADD22RoundRect,0.100000X0.500000X-0.250000X0.500000X0.250000X-0.500000X0.250000X-0.500000X-0.250000X0*%
%ADD23RoundRect,0.100000X0.500000X-0.330000X0.500000X0.330000X-0.500000X0.330000X-0.500000X-0.330000X0*%
%ADD24R,1.200000X1.200000*%
%ADD25R,1.600000X1.500000*%
%ADD26RoundRect,0.100000X-0.300000X-0.500000X0.300000X-0.500000X0.300000X0.500000X-0.300000X0.500000X0*%
%ADD27C,1.950000*%
G04 APERTURE END LIST*
D10*
%TO.C,HOLE_L2*%
X2250000Y30000000D03*
%TD*%
D11*
%TO.C,FD1*%
X18500000Y26800000D03*
%TD*%
D12*
%TO.C,R2*%
X16200000Y11825000D03*
X16200000Y13375000D03*
%TD*%
D13*
%TO.C,C2*%
X19730000Y23200000D03*
X18270000Y23200000D03*
%TD*%
D10*
%TO.C,HOLE_L1*%
X2250000Y8000000D03*
%TD*%
D14*
%TO.C,C3*%
X10270000Y8000000D03*
X11730000Y8000000D03*
%TD*%
D15*
%TO.C,Q2*%
X15800000Y25250000D03*
X15800000Y27150000D03*
X13400000Y26200000D03*
%TD*%
D16*
%TO.C,C5*%
X5000000Y19700000D03*
X5000000Y26300000D03*
%TD*%
D10*
%TO.C,HOLE_L3*%
X19750000Y30000000D03*
%TD*%
D11*
%TO.C,H2*%
X3000000Y35000000D03*
%TD*%
D13*
%TO.C,C1*%
X19730000Y16800000D03*
X18270000Y16800000D03*
%TD*%
D17*
%TO.C,U3*%
X13600000Y10095000D03*
X13600000Y11365000D03*
X13600000Y12635000D03*
X13600000Y13905000D03*
X8400000Y13905000D03*
X8400000Y12635000D03*
X8400000Y11365000D03*
X8400000Y10095000D03*
%TD*%
D18*
%TO.C,R4*%
X11875000Y24900000D03*
X10325000Y24900000D03*
%TD*%
D19*
%TO.C,R3*%
X6400000Y12575000D03*
X6400000Y11025000D03*
%TD*%
D20*
%TO.C,K1*%
X14810000Y1200000D03*
X12270000Y1200000D03*
X9730000Y1200000D03*
X7190000Y1200000D03*
%TD*%
D21*
%TO.C,U2*%
X18050000Y18700000D03*
X19000000Y18700000D03*
X19950000Y18700000D03*
X19950000Y21300000D03*
X18050000Y21300000D03*
%TD*%
D22*
%TO.C,JP2*%
X16500000Y22850000D03*
X16500000Y23550000D03*
%TD*%
D11*
%TO.C,H1*%
X3000000Y3000000D03*
%TD*%
D23*
%TO.C,C4*%
X6400000Y14270000D03*
X6400000Y15730000D03*
%TD*%
D24*
%TO.C,R1*%
X4500000Y14300000D03*
D25*
X3500000Y11050000D03*
D24*
X2500000Y14300000D03*
%TD*%
D10*
%TO.C,HOLE_L4*%
X19750000Y8000000D03*
%TD*%
D26*
%TO.C,Q1*%
X19750000Y13400000D03*
X17850000Y13400000D03*
X18800000Y11000000D03*
%TD*%
D22*
%TO.C,JP1*%
X16500000Y16450000D03*
X16500000Y17150000D03*
%TD*%
D27*
%TO.C,U1*%
X12796051Y20796051D03*
X12796051Y17203949D03*
X9203949Y17203949D03*
%TD*%
M02*
