%TF.GenerationSoftware,KiCad,Pcbnew,(6.0.2)*%
%TF.CreationDate,2022-05-16T11:26:32+02:00*%
%TF.ProjectId,Pir_movement_sensor,5069725f-6d6f-4766-956d-656e745f7365,rev?*%
%TF.SameCoordinates,PX55d4a80PY7bfa480*%
%TF.FileFunction,Copper,L2,Bot*%
%TF.FilePolarity,Positive*%
%FSLAX46Y46*%
G04 Gerber Fmt 4.6, Leading zero omitted, Abs format (unit mm)*
G04 Created by KiCad (PCBNEW (6.0.2)) date 2022-05-16 11:26:32*
%MOMM*%
%LPD*%
G01*
G04 APERTURE LIST*
%TA.AperFunction,ComponentPad*%
%ADD10C,1.700000*%
%TD*%
%TA.AperFunction,ComponentPad*%
%ADD11C,1.750000*%
%TD*%
%TA.AperFunction,ViaPad*%
%ADD12C,0.500000*%
%TD*%
%TA.AperFunction,Conductor*%
%ADD13C,0.300000*%
%TD*%
G04 APERTURE END LIST*
D10*
%TO.P,K1,1*%
%TO.N,GND*%
X14810000Y1200000D03*
%TO.P,K1,2*%
%TO.N,REL*%
X12270000Y1200000D03*
%TO.P,K1,3*%
%TO.N,OUT*%
X9730000Y1200000D03*
%TO.P,K1,4*%
%TO.N,5V*%
X7190000Y1200000D03*
%TD*%
D11*
%TO.P,U1,1,VDD*%
%TO.N,3V3*%
X12796051Y20796051D03*
%TO.P,U1,2,REL*%
%TO.N,REL*%
X12796051Y17203949D03*
%TO.P,U1,3,VSS*%
%TO.N,GND*%
X9203949Y17203949D03*
%TD*%
D12*
%TO.N,GND*%
X4500000Y7000000D03*
X10200000Y21800000D03*
X6600000Y17300000D03*
X20800000Y23100000D03*
X4700000Y9200000D03*
X18000000Y7100000D03*
X20900000Y17800000D03*
X2500000Y22800000D03*
X14300000Y6700000D03*
X11000000Y3300000D03*
X11000000Y6700000D03*
X21100000Y19900000D03*
X12900000Y8700000D03*
X21100000Y16800000D03*
X5100000Y23700000D03*
X20200000Y15400000D03*
X8800000Y9000000D03*
X17300000Y10100000D03*
X1000000Y9600000D03*
X16400000Y5400000D03*
X15300000Y21500000D03*
X15300000Y10100000D03*
X4500000Y16000000D03*
X19000000Y19800000D03*
X16800000Y14400000D03*
X21000000Y9900000D03*
X3510000Y12790000D03*
X17800000Y24500000D03*
X1900000Y20300000D03*
X2400000Y26000000D03*
X5800000Y9600000D03*
X8600000Y4200000D03*
X6900000Y25900000D03*
X10300000Y15200000D03*
X11100000Y10100000D03*
X14300000Y22600000D03*
X19800000Y24500000D03*
X15400000Y19100000D03*
X5500000Y5700000D03*
X6700000Y9900000D03*
X8400000Y15300000D03*
X7700000Y29800000D03*
X20900000Y14300000D03*
X12100000Y23400000D03*
X11700000Y15200000D03*
X8600000Y7200000D03*
X8100000Y20400000D03*
X1000000Y15200000D03*
X4500000Y29700000D03*
X1800000Y17800000D03*
X16000000Y8100000D03*
X18900000Y12300000D03*
X12000000Y11100000D03*
X18000000Y12200000D03*
X14100000Y8400000D03*
X13500000Y24600000D03*
%TO.N,Net-(C5-Pad1)*%
X5000000Y17300000D03*
X7265000Y12635000D03*
%TO.N,5V*%
X7200000Y8000000D03*
X16500000Y18200000D03*
%TO.N,TRIG*%
X15065000Y11365000D03*
X14900000Y25200000D03*
%TO.N,OUT*%
X12200000Y12600000D03*
%TD*%
D13*
%TO.N,Net-(C5-Pad1)*%
X7265000Y12635000D02*
X7265000Y15035000D01*
X7265000Y15035000D02*
X5000000Y17300000D01*
%TO.N,5V*%
X7200000Y8000000D02*
X7200000Y8900000D01*
X7200000Y8900000D02*
X16500000Y18200000D01*
X7200000Y8000000D02*
X7190000Y7990000D01*
X7190000Y7990000D02*
X7190000Y1200000D01*
%TO.N,TRIG*%
X17800000Y13700000D02*
X17900000Y13800000D01*
X15465000Y11365000D02*
X17800000Y13700000D01*
X17900000Y13800000D02*
X17900000Y18600000D01*
X17900000Y18600000D02*
X17900000Y22200000D01*
X17900000Y22200000D02*
X14900000Y25200000D01*
X15065000Y11365000D02*
X15465000Y11365000D01*
%TO.N,OUT*%
X9730000Y10130000D02*
X9730000Y1200000D01*
X12200000Y12600000D02*
X9730000Y10130000D01*
%TD*%
%TA.AperFunction,Conductor*%
%TO.N,GND*%
G36*
X9243532Y10267316D02*
G01*
X9300368Y10224769D01*
X9325179Y10158249D01*
X9325500Y10149260D01*
X9325500Y2314927D01*
X9305498Y2246806D01*
X9254616Y2201970D01*
X9252463Y2201176D01*
X9078010Y2097388D01*
X9073670Y2093582D01*
X9073666Y2093579D01*
X8986790Y2017390D01*
X8925392Y1963545D01*
X8799720Y1804131D01*
X8797031Y1799020D01*
X8797029Y1799017D01*
X8762553Y1733488D01*
X8705203Y1624485D01*
X8645007Y1430622D01*
X8621148Y1229036D01*
X8621526Y1223270D01*
X8633707Y1037425D01*
X8634424Y1026478D01*
X8635845Y1020882D01*
X8635846Y1020877D01*
X8678111Y854462D01*
X8684392Y829731D01*
X8686809Y824488D01*
X8723912Y744006D01*
X8769377Y645384D01*
X8772710Y640668D01*
X8853130Y526876D01*
X8886533Y479611D01*
X8896141Y470252D01*
X8930977Y408391D01*
X8926838Y337515D01*
X8885039Y280128D01*
X8818849Y254449D01*
X8808217Y254000D01*
X8108575Y254000D01*
X8040454Y274002D01*
X7993961Y327658D01*
X7983857Y397932D01*
X8011701Y460569D01*
X8100449Y567276D01*
X8100456Y567286D01*
X8104147Y571724D01*
X8203334Y748835D01*
X8205190Y754302D01*
X8205192Y754307D01*
X8266728Y935586D01*
X8266729Y935591D01*
X8268584Y941055D01*
X8269412Y946764D01*
X8269413Y946769D01*
X8297179Y1138273D01*
X8297712Y1141947D01*
X8299232Y1200000D01*
X8282239Y1384934D01*
X8281187Y1396387D01*
X8281186Y1396390D01*
X8280658Y1402141D01*
X8274273Y1424779D01*
X8227125Y1591954D01*
X8227124Y1591956D01*
X8225557Y1597513D01*
X8222073Y1604579D01*
X8138331Y1774391D01*
X8135776Y1779572D01*
X8014320Y1942221D01*
X7881499Y2065000D01*
X7869503Y2076089D01*
X7865258Y2080013D01*
X7860375Y2083094D01*
X7860371Y2083097D01*
X7701610Y2183267D01*
X7693581Y2188333D01*
X7688221Y2190472D01*
X7688214Y2190475D01*
X7673811Y2196221D01*
X7617951Y2240041D01*
X7594500Y2313251D01*
X7594500Y7637152D01*
X7616040Y7707609D01*
X7616526Y7708330D01*
X7622551Y7714986D01*
X7685560Y7845038D01*
X7709536Y7987547D01*
X7709688Y8000000D01*
X7689201Y8143052D01*
X7629388Y8274605D01*
X7624205Y8280620D01*
X7604500Y8348004D01*
X7604500Y8680260D01*
X7624502Y8748381D01*
X7641405Y8769355D01*
X9110405Y10238355D01*
X9172717Y10272381D01*
X9243532Y10267316D01*
G37*
%TD.AperFunction*%
%TA.AperFunction,Conductor*%
G36*
X20987153Y37743579D02*
G01*
X21000000Y37741024D01*
X21012172Y37743445D01*
X21019754Y37743445D01*
X21032104Y37742838D01*
X21133188Y37732882D01*
X21157408Y37728065D01*
X21273617Y37692813D01*
X21296418Y37683369D01*
X21403517Y37626124D01*
X21424047Y37612406D01*
X21517909Y37535374D01*
X21535374Y37517909D01*
X21612406Y37424047D01*
X21626124Y37403517D01*
X21683369Y37296418D01*
X21692813Y37273617D01*
X21728065Y37157408D01*
X21732882Y37133188D01*
X21742838Y37032104D01*
X21743445Y37019754D01*
X21743445Y37012172D01*
X21741024Y37000000D01*
X21743445Y36987830D01*
X21743579Y36987156D01*
X21746000Y36962575D01*
X21746000Y1037425D01*
X21743579Y1012847D01*
X21741024Y1000000D01*
X21743445Y987828D01*
X21743445Y980246D01*
X21742838Y967896D01*
X21732882Y866812D01*
X21728065Y842592D01*
X21692813Y726383D01*
X21683369Y703582D01*
X21626124Y596483D01*
X21612406Y575953D01*
X21535374Y482091D01*
X21517909Y464626D01*
X21424047Y387594D01*
X21403517Y373876D01*
X21296418Y316631D01*
X21273617Y307187D01*
X21157408Y271935D01*
X21133188Y267118D01*
X21032104Y257162D01*
X21019754Y256555D01*
X21012172Y256555D01*
X21000000Y258976D01*
X20987153Y256421D01*
X20962575Y254000D01*
X15610281Y254000D01*
X15542160Y274002D01*
X15501275Y316805D01*
X15484287Y346108D01*
X14822812Y1007583D01*
X14808868Y1015197D01*
X14807035Y1015066D01*
X14800420Y1010815D01*
X14134480Y344875D01*
X14120686Y319614D01*
X14070483Y269412D01*
X14010099Y254000D01*
X13188575Y254000D01*
X13120454Y274002D01*
X13073961Y327658D01*
X13063857Y397932D01*
X13091701Y460569D01*
X13180449Y567276D01*
X13180456Y567286D01*
X13184147Y571724D01*
X13283334Y748835D01*
X13285190Y754302D01*
X13285192Y754307D01*
X13346728Y935586D01*
X13346729Y935591D01*
X13348584Y941055D01*
X13349412Y946764D01*
X13349413Y946769D01*
X13377179Y1138273D01*
X13377712Y1141947D01*
X13379232Y1200000D01*
X13377095Y1223257D01*
X13702028Y1223257D01*
X13714542Y1032324D01*
X13716343Y1020954D01*
X13763443Y835498D01*
X13767284Y824652D01*
X13847394Y650880D01*
X13853145Y640919D01*
X13933029Y527884D01*
X13943618Y519496D01*
X13956920Y526525D01*
X14617583Y1187188D01*
X14623961Y1198868D01*
X14994803Y1198868D01*
X14994934Y1197035D01*
X14999185Y1190420D01*
X15662729Y526876D01*
X15676038Y519608D01*
X15686073Y526728D01*
X15720042Y567570D01*
X15726554Y577045D01*
X15820056Y744006D01*
X15824730Y754503D01*
X15886238Y935698D01*
X15888926Y946894D01*
X15916678Y1138301D01*
X15917308Y1145682D01*
X15918633Y1196296D01*
X15918390Y1203695D01*
X15900693Y1396293D01*
X15898595Y1407614D01*
X15846658Y1591769D01*
X15842533Y1602516D01*
X15757903Y1774129D01*
X15751893Y1783937D01*
X15686486Y1871527D01*
X15675228Y1879976D01*
X15662809Y1873204D01*
X15002417Y1212812D01*
X14994803Y1198868D01*
X14623961Y1198868D01*
X14625197Y1201132D01*
X14625066Y1202965D01*
X14620815Y1209580D01*
X13957488Y1872907D01*
X13944647Y1879919D01*
X13933958Y1872124D01*
X13883717Y1808394D01*
X13877452Y1798746D01*
X13788360Y1629411D01*
X13783951Y1618768D01*
X13727213Y1436041D01*
X13724819Y1424779D01*
X13702329Y1234759D01*
X13702028Y1223257D01*
X13377095Y1223257D01*
X13362239Y1384934D01*
X13361187Y1396387D01*
X13361186Y1396390D01*
X13360658Y1402141D01*
X13354273Y1424779D01*
X13307125Y1591954D01*
X13307124Y1591956D01*
X13305557Y1597513D01*
X13302073Y1604579D01*
X13218331Y1774391D01*
X13215776Y1779572D01*
X13094320Y1942221D01*
X12961499Y2065000D01*
X14128536Y2065000D01*
X14134370Y2055235D01*
X14797188Y1392417D01*
X14811132Y1384803D01*
X14812965Y1384934D01*
X14819580Y1389185D01*
X15485161Y2054766D01*
X15492775Y2068710D01*
X15492738Y2069227D01*
X15487561Y2076946D01*
X15480062Y2082700D01*
X15318236Y2184805D01*
X15307989Y2190026D01*
X15130260Y2260932D01*
X15119232Y2264199D01*
X14931561Y2301529D01*
X14920115Y2302732D01*
X14728792Y2305236D01*
X14717312Y2304333D01*
X14528737Y2271930D01*
X14517617Y2268950D01*
X14338095Y2202721D01*
X14327717Y2197771D01*
X14163273Y2099937D01*
X14153961Y2093171D01*
X14136932Y2078237D01*
X14128536Y2065000D01*
X12961499Y2065000D01*
X12949503Y2076089D01*
X12945258Y2080013D01*
X12940375Y2083094D01*
X12940371Y2083097D01*
X12781610Y2183267D01*
X12773581Y2188333D01*
X12585039Y2263554D01*
X12579379Y2264680D01*
X12579375Y2264681D01*
X12391613Y2302029D01*
X12391610Y2302029D01*
X12385946Y2303156D01*
X12380171Y2303232D01*
X12380167Y2303232D01*
X12278793Y2304559D01*
X12182971Y2305813D01*
X12177274Y2304834D01*
X12177273Y2304834D01*
X11988607Y2272415D01*
X11982910Y2271436D01*
X11792463Y2201176D01*
X11618010Y2097388D01*
X11613670Y2093582D01*
X11613666Y2093579D01*
X11526790Y2017390D01*
X11465392Y1963545D01*
X11339720Y1804131D01*
X11337031Y1799020D01*
X11337029Y1799017D01*
X11302553Y1733488D01*
X11245203Y1624485D01*
X11185007Y1430622D01*
X11161148Y1229036D01*
X11161526Y1223270D01*
X11173707Y1037425D01*
X11174424Y1026478D01*
X11175845Y1020882D01*
X11175846Y1020877D01*
X11218111Y854462D01*
X11224392Y829731D01*
X11226809Y824488D01*
X11263912Y744006D01*
X11309377Y645384D01*
X11312710Y640668D01*
X11393130Y526876D01*
X11426533Y479611D01*
X11436141Y470252D01*
X11470977Y408391D01*
X11466838Y337515D01*
X11425039Y280128D01*
X11358849Y254449D01*
X11348217Y254000D01*
X10648575Y254000D01*
X10580454Y274002D01*
X10533961Y327658D01*
X10523857Y397932D01*
X10551701Y460569D01*
X10640449Y567276D01*
X10640456Y567286D01*
X10644147Y571724D01*
X10743334Y748835D01*
X10745190Y754302D01*
X10745192Y754307D01*
X10806728Y935586D01*
X10806729Y935591D01*
X10808584Y941055D01*
X10809412Y946764D01*
X10809413Y946769D01*
X10837179Y1138273D01*
X10837712Y1141947D01*
X10839232Y1200000D01*
X10822239Y1384934D01*
X10821187Y1396387D01*
X10821186Y1396390D01*
X10820658Y1402141D01*
X10814273Y1424779D01*
X10767125Y1591954D01*
X10767124Y1591956D01*
X10765557Y1597513D01*
X10762073Y1604579D01*
X10678331Y1774391D01*
X10675776Y1779572D01*
X10554320Y1942221D01*
X10421499Y2065000D01*
X10409503Y2076089D01*
X10405258Y2080013D01*
X10400375Y2083094D01*
X10400371Y2083097D01*
X10241610Y2183267D01*
X10233581Y2188333D01*
X10228221Y2190472D01*
X10228214Y2190475D01*
X10213811Y2196221D01*
X10157951Y2240041D01*
X10134500Y2313251D01*
X10134500Y8047981D01*
X18891801Y8047981D01*
X18892158Y8041164D01*
X18892158Y8041160D01*
X18896473Y7958840D01*
X18901518Y7862576D01*
X18903328Y7856004D01*
X18903329Y7855999D01*
X18939945Y7723067D01*
X18950821Y7683583D01*
X19037410Y7519352D01*
X19157245Y7377546D01*
X19162668Y7373399D01*
X19162670Y7373398D01*
X19299315Y7268925D01*
X19299319Y7268923D01*
X19304736Y7264781D01*
X19310916Y7261899D01*
X19310918Y7261898D01*
X19466823Y7189198D01*
X19466826Y7189197D01*
X19473000Y7186318D01*
X19479648Y7184832D01*
X19479651Y7184831D01*
X19578711Y7162689D01*
X19654188Y7145818D01*
X19659876Y7145500D01*
X19796385Y7145500D01*
X19934573Y7160512D01*
X20055210Y7201111D01*
X20104064Y7217552D01*
X20104066Y7217553D01*
X20110535Y7219730D01*
X20269677Y7315351D01*
X20274634Y7320039D01*
X20274637Y7320041D01*
X20399614Y7438227D01*
X20399616Y7438229D01*
X20404572Y7442916D01*
X20508928Y7596471D01*
X20511463Y7602808D01*
X20575342Y7762516D01*
X20575343Y7762521D01*
X20577876Y7768853D01*
X20578990Y7775580D01*
X20578991Y7775585D01*
X20607084Y7945282D01*
X20607084Y7945285D01*
X20608199Y7952019D01*
X20606589Y7982753D01*
X20598839Y8130611D01*
X20598482Y8137424D01*
X20596672Y8143996D01*
X20596671Y8144001D01*
X20550992Y8309835D01*
X20549179Y8316417D01*
X20462590Y8480648D01*
X20342755Y8622454D01*
X20337330Y8626602D01*
X20200685Y8731075D01*
X20200681Y8731077D01*
X20195264Y8735219D01*
X20189084Y8738101D01*
X20189082Y8738102D01*
X20033177Y8810802D01*
X20033174Y8810803D01*
X20027000Y8813682D01*
X20020352Y8815168D01*
X20020349Y8815169D01*
X19850849Y8853056D01*
X19850850Y8853056D01*
X19845812Y8854182D01*
X19840124Y8854500D01*
X19703615Y8854500D01*
X19565427Y8839488D01*
X19480189Y8810802D01*
X19395936Y8782448D01*
X19395934Y8782447D01*
X19389465Y8780270D01*
X19230323Y8684649D01*
X19225366Y8679961D01*
X19225363Y8679959D01*
X19100386Y8561773D01*
X19095428Y8557084D01*
X18991072Y8403529D01*
X18988539Y8397195D01*
X18988537Y8397192D01*
X18924658Y8237484D01*
X18924657Y8237479D01*
X18922124Y8231147D01*
X18921010Y8224420D01*
X18921009Y8224415D01*
X18905480Y8130611D01*
X18891801Y8047981D01*
X10134500Y8047981D01*
X10134500Y9910260D01*
X10154502Y9978381D01*
X10171405Y9999355D01*
X12243830Y12071781D01*
X12299784Y12104249D01*
X12393762Y12129870D01*
X12402422Y12132231D01*
X12525572Y12207846D01*
X12622551Y12314986D01*
X12685560Y12445038D01*
X12709536Y12587547D01*
X12709688Y12600000D01*
X12689201Y12743052D01*
X12629388Y12874605D01*
X12623530Y12881404D01*
X12623527Y12881408D01*
X12540916Y12977282D01*
X12540913Y12977284D01*
X12535056Y12984082D01*
X12413790Y13062683D01*
X12405170Y13065261D01*
X12283938Y13101518D01*
X12283936Y13101518D01*
X12275337Y13104090D01*
X12266361Y13104145D01*
X12261154Y13104923D01*
X12196738Y13134775D01*
X12158687Y13194713D01*
X12159082Y13265709D01*
X12190684Y13318634D01*
X16543831Y17671781D01*
X16599783Y17704248D01*
X16647089Y17717146D01*
X16693763Y17729870D01*
X16693765Y17729871D01*
X16702422Y17732231D01*
X16825572Y17807846D01*
X16922551Y17914986D01*
X16985560Y18045038D01*
X17009536Y18187547D01*
X17009688Y18200000D01*
X16990773Y18332074D01*
X16990474Y18334165D01*
X16990473Y18334167D01*
X16989201Y18343052D01*
X16929388Y18474605D01*
X16923530Y18481404D01*
X16923527Y18481408D01*
X16840916Y18577282D01*
X16840913Y18577284D01*
X16835056Y18584082D01*
X16713790Y18662683D01*
X16696921Y18667728D01*
X16583938Y18701518D01*
X16583936Y18701518D01*
X16575337Y18704090D01*
X16566363Y18704145D01*
X16566361Y18704145D01*
X16503082Y18704531D01*
X16430827Y18704972D01*
X16422196Y18702505D01*
X16422194Y18702505D01*
X16300509Y18667728D01*
X16300505Y18667726D01*
X16291879Y18665261D01*
X16169661Y18588147D01*
X16073999Y18479830D01*
X16012583Y18349018D01*
X16011203Y18340153D01*
X16011202Y18340151D01*
X16007036Y18313392D01*
X15976792Y18249159D01*
X15971631Y18243681D01*
X6891465Y9163515D01*
X6891462Y9163511D01*
X6868674Y9140723D01*
X6864171Y9131885D01*
X6858546Y9120846D01*
X6848216Y9103989D01*
X6835095Y9085929D01*
X6832030Y9076496D01*
X6828199Y9064705D01*
X6820634Y9046439D01*
X6810502Y9026555D01*
X6808951Y9016762D01*
X6807011Y9004513D01*
X6802395Y8985287D01*
X6795500Y8964066D01*
X6795500Y8347926D01*
X6775715Y8281773D01*
X6773999Y8279830D01*
X6712583Y8149018D01*
X6711203Y8140154D01*
X6711202Y8140151D01*
X6710778Y8137424D01*
X6690350Y8006227D01*
X6691514Y7997325D01*
X6691514Y7997322D01*
X6707924Y7871836D01*
X6709088Y7862935D01*
X6767289Y7730661D01*
X6767663Y7730216D01*
X6785500Y7667800D01*
X6785500Y2314927D01*
X6765498Y2246806D01*
X6714616Y2201970D01*
X6712463Y2201176D01*
X6538010Y2097388D01*
X6533670Y2093582D01*
X6533666Y2093579D01*
X6446790Y2017390D01*
X6385392Y1963545D01*
X6259720Y1804131D01*
X6257031Y1799020D01*
X6257029Y1799017D01*
X6222553Y1733488D01*
X6165203Y1624485D01*
X6105007Y1430622D01*
X6081148Y1229036D01*
X6081526Y1223270D01*
X6093707Y1037425D01*
X6094424Y1026478D01*
X6095845Y1020882D01*
X6095846Y1020877D01*
X6138111Y854462D01*
X6144392Y829731D01*
X6146809Y824488D01*
X6183912Y744006D01*
X6229377Y645384D01*
X6232710Y640668D01*
X6313130Y526876D01*
X6346533Y479611D01*
X6356141Y470252D01*
X6390977Y408391D01*
X6386838Y337515D01*
X6345039Y280128D01*
X6278849Y254449D01*
X6268217Y254000D01*
X1037425Y254000D01*
X1012847Y256421D01*
X1000000Y258976D01*
X987828Y256555D01*
X980246Y256555D01*
X967896Y257162D01*
X866812Y267118D01*
X842592Y271935D01*
X726383Y307187D01*
X703582Y316631D01*
X596483Y373876D01*
X575953Y387594D01*
X482091Y464626D01*
X464626Y482091D01*
X387594Y575953D01*
X373876Y596483D01*
X316631Y703582D01*
X307187Y726383D01*
X271935Y842592D01*
X267118Y866812D01*
X257162Y967896D01*
X256555Y980246D01*
X256555Y987828D01*
X258976Y1000000D01*
X256421Y1012847D01*
X254000Y1037425D01*
X254000Y2957814D01*
X1141018Y2957814D01*
X1166579Y2689900D01*
X1230547Y2428482D01*
X1331583Y2179037D01*
X1395879Y2069227D01*
X1457759Y1963545D01*
X1467569Y1946790D01*
X1635658Y1736605D01*
X1832327Y1552887D01*
X2053457Y1399484D01*
X2294416Y1279609D01*
X2298750Y1278188D01*
X2298753Y1278187D01*
X2545823Y1197193D01*
X2545829Y1197192D01*
X2550156Y1195773D01*
X2554647Y1194993D01*
X2554648Y1194993D01*
X2811538Y1150389D01*
X2811546Y1150388D01*
X2815319Y1149733D01*
X2819156Y1149542D01*
X2898777Y1145578D01*
X2898785Y1145578D01*
X2900348Y1145500D01*
X3068374Y1145500D01*
X3070642Y1145665D01*
X3070654Y1145665D01*
X3201457Y1155156D01*
X3268425Y1160015D01*
X3272880Y1160999D01*
X3272883Y1160999D01*
X3526770Y1217053D01*
X3526772Y1217054D01*
X3531226Y1218037D01*
X3782900Y1313387D01*
X3942688Y1402141D01*
X4014179Y1441851D01*
X4014180Y1441852D01*
X4018172Y1444069D01*
X4164842Y1556004D01*
X4228491Y1604579D01*
X4228495Y1604583D01*
X4232116Y1607346D01*
X4248871Y1624485D01*
X4417063Y1796538D01*
X4420249Y1799797D01*
X4478568Y1879919D01*
X4575942Y2013696D01*
X4575947Y2013703D01*
X4578630Y2017390D01*
X4703941Y2255567D01*
X4793557Y2509338D01*
X4818688Y2636844D01*
X4844720Y2768917D01*
X4844721Y2768923D01*
X4845601Y2773389D01*
X4854782Y2957814D01*
X4858755Y3037617D01*
X4858755Y3037623D01*
X4858982Y3042186D01*
X4833421Y3310100D01*
X4769453Y3571518D01*
X4668417Y3820963D01*
X4532431Y4053210D01*
X4364342Y4263395D01*
X4167673Y4447113D01*
X3946543Y4600516D01*
X3705584Y4720391D01*
X3701250Y4721812D01*
X3701247Y4721813D01*
X3454177Y4802807D01*
X3454171Y4802808D01*
X3449844Y4804227D01*
X3445352Y4805007D01*
X3188462Y4849611D01*
X3188454Y4849612D01*
X3184681Y4850267D01*
X3174718Y4850763D01*
X3101223Y4854422D01*
X3101215Y4854422D01*
X3099652Y4854500D01*
X2931626Y4854500D01*
X2929358Y4854335D01*
X2929346Y4854335D01*
X2798543Y4844844D01*
X2731575Y4839985D01*
X2727120Y4839001D01*
X2727117Y4839001D01*
X2473230Y4782947D01*
X2473228Y4782946D01*
X2468774Y4781963D01*
X2217100Y4686613D01*
X1981828Y4555931D01*
X1978196Y4553159D01*
X1771509Y4395421D01*
X1771505Y4395417D01*
X1767884Y4392654D01*
X1579751Y4200203D01*
X1577066Y4196514D01*
X1424058Y3986304D01*
X1424053Y3986297D01*
X1421370Y3982610D01*
X1296059Y3744433D01*
X1206443Y3490662D01*
X1205560Y3486180D01*
X1170855Y3310100D01*
X1154399Y3226611D01*
X1154172Y3222058D01*
X1154172Y3222055D01*
X1144991Y3037617D01*
X1141018Y2957814D01*
X254000Y2957814D01*
X254000Y8047981D01*
X1391801Y8047981D01*
X1392158Y8041164D01*
X1392158Y8041160D01*
X1396473Y7958840D01*
X1401518Y7862576D01*
X1403328Y7856004D01*
X1403329Y7855999D01*
X1439945Y7723067D01*
X1450821Y7683583D01*
X1537410Y7519352D01*
X1657245Y7377546D01*
X1662668Y7373399D01*
X1662670Y7373398D01*
X1799315Y7268925D01*
X1799319Y7268923D01*
X1804736Y7264781D01*
X1810916Y7261899D01*
X1810918Y7261898D01*
X1966823Y7189198D01*
X1966826Y7189197D01*
X1973000Y7186318D01*
X1979648Y7184832D01*
X1979651Y7184831D01*
X2078711Y7162689D01*
X2154188Y7145818D01*
X2159876Y7145500D01*
X2296385Y7145500D01*
X2434573Y7160512D01*
X2555210Y7201111D01*
X2604064Y7217552D01*
X2604066Y7217553D01*
X2610535Y7219730D01*
X2769677Y7315351D01*
X2774634Y7320039D01*
X2774637Y7320041D01*
X2899614Y7438227D01*
X2899616Y7438229D01*
X2904572Y7442916D01*
X3008928Y7596471D01*
X3011463Y7602808D01*
X3075342Y7762516D01*
X3075343Y7762521D01*
X3077876Y7768853D01*
X3078990Y7775580D01*
X3078991Y7775585D01*
X3107084Y7945282D01*
X3107084Y7945285D01*
X3108199Y7952019D01*
X3106589Y7982753D01*
X3098839Y8130611D01*
X3098482Y8137424D01*
X3096672Y8143996D01*
X3096671Y8144001D01*
X3050992Y8309835D01*
X3049179Y8316417D01*
X2962590Y8480648D01*
X2842755Y8622454D01*
X2837330Y8626602D01*
X2700685Y8731075D01*
X2700681Y8731077D01*
X2695264Y8735219D01*
X2689084Y8738101D01*
X2689082Y8738102D01*
X2533177Y8810802D01*
X2533174Y8810803D01*
X2527000Y8813682D01*
X2520352Y8815168D01*
X2520349Y8815169D01*
X2350849Y8853056D01*
X2350850Y8853056D01*
X2345812Y8854182D01*
X2340124Y8854500D01*
X2203615Y8854500D01*
X2065427Y8839488D01*
X1980189Y8810802D01*
X1895936Y8782448D01*
X1895934Y8782447D01*
X1889465Y8780270D01*
X1730323Y8684649D01*
X1725366Y8679961D01*
X1725363Y8679959D01*
X1600386Y8561773D01*
X1595428Y8557084D01*
X1491072Y8403529D01*
X1488539Y8397195D01*
X1488537Y8397192D01*
X1424658Y8237484D01*
X1424657Y8237479D01*
X1422124Y8231147D01*
X1421010Y8224420D01*
X1421009Y8224415D01*
X1405480Y8130611D01*
X1391801Y8047981D01*
X254000Y8047981D01*
X254000Y17306227D01*
X4490350Y17306227D01*
X4491514Y17297325D01*
X4491514Y17297322D01*
X4503725Y17203949D01*
X4509088Y17162935D01*
X4567289Y17030661D01*
X4573063Y17023792D01*
X4648815Y16933675D01*
X4660276Y16920040D01*
X4667747Y16915067D01*
X4667748Y16915066D01*
X4773101Y16844937D01*
X4773103Y16844936D01*
X4780574Y16839963D01*
X4789141Y16837286D01*
X4789142Y16837286D01*
X4907201Y16800401D01*
X4958721Y16769229D01*
X6823595Y14904356D01*
X6857620Y14842044D01*
X6860500Y14815261D01*
X6860500Y12982926D01*
X6840715Y12916773D01*
X6838999Y12914830D01*
X6777583Y12784018D01*
X6776203Y12775154D01*
X6776202Y12775151D01*
X6769821Y12734165D01*
X6755350Y12641227D01*
X6756514Y12632325D01*
X6756514Y12632322D01*
X6772924Y12506836D01*
X6774088Y12497935D01*
X6832289Y12365661D01*
X6925276Y12255040D01*
X6932747Y12250067D01*
X6932748Y12250066D01*
X7038101Y12179937D01*
X7038103Y12179936D01*
X7045574Y12174963D01*
X7054138Y12172287D01*
X7054141Y12172286D01*
X7114542Y12153416D01*
X7183510Y12131868D01*
X7327998Y12129220D01*
X7337711Y12131868D01*
X7458763Y12164870D01*
X7458765Y12164871D01*
X7467422Y12167231D01*
X7590572Y12242846D01*
X7687551Y12349986D01*
X7750560Y12480038D01*
X7774536Y12622547D01*
X7774688Y12635000D01*
X7760486Y12734165D01*
X7755474Y12769165D01*
X7755473Y12769167D01*
X7754201Y12778052D01*
X7694388Y12909605D01*
X7689205Y12915620D01*
X7669500Y12983004D01*
X7669500Y15099066D01*
X7662605Y15120287D01*
X7657989Y15139513D01*
X7656049Y15151762D01*
X7654498Y15161555D01*
X7644366Y15181439D01*
X7636801Y15199705D01*
X7632969Y15211498D01*
X7629905Y15220929D01*
X7616784Y15238987D01*
X7606455Y15255843D01*
X7600826Y15266891D01*
X7596326Y15275723D01*
X7505723Y15366326D01*
X6552598Y16319452D01*
X8504208Y16319452D01*
X8514088Y16306965D01*
X8658128Y16210722D01*
X8668233Y16205235D01*
X8848267Y16127886D01*
X8859210Y16124331D01*
X9050317Y16081087D01*
X9061727Y16079585D01*
X9257521Y16071893D01*
X9269003Y16072495D01*
X9462924Y16100611D01*
X9474107Y16103296D01*
X9659650Y16166279D01*
X9670165Y16170961D01*
X9841122Y16266702D01*
X9850597Y16273213D01*
X9893710Y16309069D01*
X9902163Y16321655D01*
X9895989Y16332304D01*
X9216761Y17011532D01*
X9202817Y17019146D01*
X9200984Y17019015D01*
X9194369Y17014764D01*
X8510404Y16330799D01*
X8504208Y16319452D01*
X6552598Y16319452D01*
X5644187Y17227863D01*
X8070879Y17227863D01*
X8083693Y17032347D01*
X8085494Y17020975D01*
X8133725Y16831066D01*
X8137566Y16820219D01*
X8219599Y16642276D01*
X8225350Y16632315D01*
X8309040Y16513895D01*
X8319630Y16505507D01*
X8332930Y16512535D01*
X9011532Y17191137D01*
X9017910Y17202817D01*
X9388752Y17202817D01*
X9388883Y17200984D01*
X9393134Y17194369D01*
X10074432Y16513071D01*
X10087741Y16505804D01*
X10097776Y16512923D01*
X10134685Y16557301D01*
X10141196Y16566776D01*
X10236937Y16737733D01*
X10241619Y16748248D01*
X10304602Y16933791D01*
X10307287Y16944974D01*
X10335699Y17140935D01*
X10336329Y17148317D01*
X10337689Y17200245D01*
X10337446Y17207644D01*
X10335057Y17233643D01*
X11662101Y17233643D01*
X11675678Y17026499D01*
X11726776Y16825299D01*
X11813685Y16636780D01*
X11933493Y16467255D01*
X12082188Y16322402D01*
X12086984Y16319197D01*
X12086987Y16319195D01*
X12166162Y16266292D01*
X12254791Y16207072D01*
X12260094Y16204794D01*
X12260099Y16204791D01*
X12440218Y16127407D01*
X12440221Y16127406D01*
X12445521Y16125129D01*
X12451151Y16123855D01*
X12640155Y16081087D01*
X12647990Y16079314D01*
X12653759Y16079087D01*
X12653762Y16079087D01*
X12732504Y16075994D01*
X12855418Y16071165D01*
X12942283Y16083760D01*
X13055143Y16100123D01*
X13055148Y16100124D01*
X13060857Y16100952D01*
X13067763Y16103296D01*
X13251960Y16165823D01*
X13257428Y16167679D01*
X13438548Y16269111D01*
X13598150Y16401850D01*
X13730889Y16561452D01*
X13832321Y16742572D01*
X13890875Y16915066D01*
X13897192Y16933675D01*
X13897192Y16933676D01*
X13899048Y16939143D01*
X13899876Y16944852D01*
X13899877Y16944857D01*
X13928302Y17140908D01*
X13928835Y17144582D01*
X13930390Y17203949D01*
X13911395Y17410666D01*
X13903080Y17440151D01*
X13861789Y17586558D01*
X13855048Y17610460D01*
X13844262Y17632333D01*
X13765788Y17791460D01*
X13763234Y17796639D01*
X13639029Y17962970D01*
X13486593Y18103881D01*
X13311030Y18214652D01*
X13286645Y18224381D01*
X13238269Y18243681D01*
X13118221Y18291576D01*
X13112553Y18292703D01*
X13112551Y18292704D01*
X12920289Y18330947D01*
X12920287Y18330947D01*
X12914622Y18332074D01*
X12908847Y18332150D01*
X12908843Y18332150D01*
X12805108Y18333507D01*
X12707052Y18334791D01*
X12701355Y18333812D01*
X12701354Y18333812D01*
X12508152Y18300614D01*
X12508149Y18300613D01*
X12502462Y18299636D01*
X12307705Y18227787D01*
X12129303Y18121649D01*
X12109043Y18103881D01*
X11977576Y17988587D01*
X11977573Y17988584D01*
X11973231Y17984776D01*
X11844714Y17821754D01*
X11842025Y17816643D01*
X11842023Y17816640D01*
X11816289Y17767728D01*
X11748058Y17638042D01*
X11686500Y17439791D01*
X11662101Y17233643D01*
X10335057Y17233643D01*
X10319329Y17404820D01*
X10317232Y17416135D01*
X10264045Y17604721D01*
X10259923Y17615460D01*
X10173259Y17791196D01*
X10167249Y17801004D01*
X10098299Y17893340D01*
X10087041Y17901789D01*
X10074622Y17895017D01*
X9396366Y17216761D01*
X9388752Y17202817D01*
X9017910Y17202817D01*
X9019146Y17205081D01*
X9019015Y17206914D01*
X9014764Y17213529D01*
X8333634Y17894659D01*
X8320793Y17901671D01*
X8310104Y17893876D01*
X8256611Y17826020D01*
X8250340Y17816363D01*
X8159112Y17642967D01*
X8154707Y17632333D01*
X8096602Y17445202D01*
X8094210Y17433951D01*
X8071180Y17239364D01*
X8070879Y17227863D01*
X5644187Y17227863D01*
X5528945Y17343105D01*
X5494919Y17405417D01*
X5493317Y17414310D01*
X5489201Y17443052D01*
X5429388Y17574605D01*
X5423530Y17581404D01*
X5423527Y17581408D01*
X5340916Y17677282D01*
X5340913Y17677284D01*
X5335056Y17684082D01*
X5264414Y17729870D01*
X5221324Y17757800D01*
X5221322Y17757801D01*
X5213790Y17762683D01*
X5196921Y17767728D01*
X5083938Y17801518D01*
X5083936Y17801518D01*
X5075337Y17804090D01*
X5066363Y17804145D01*
X5066361Y17804145D01*
X5003082Y17804531D01*
X4930827Y17804972D01*
X4922196Y17802505D01*
X4922194Y17802505D01*
X4800509Y17767728D01*
X4800505Y17767726D01*
X4791879Y17765261D01*
X4784292Y17760474D01*
X4784290Y17760473D01*
X4695181Y17704249D01*
X4669661Y17688147D01*
X4663718Y17681418D01*
X4663717Y17681417D01*
X4620368Y17632333D01*
X4573999Y17579830D01*
X4512583Y17449018D01*
X4511203Y17440154D01*
X4511202Y17440151D01*
X4503220Y17388883D01*
X4490350Y17306227D01*
X254000Y17306227D01*
X254000Y18086666D01*
X8504768Y18086666D01*
X8510602Y18076901D01*
X9191137Y17396366D01*
X9205081Y17388752D01*
X9206914Y17388883D01*
X9213529Y17393134D01*
X9896802Y18076407D01*
X9904416Y18090351D01*
X9904379Y18090868D01*
X9898749Y18099263D01*
X9898430Y18099558D01*
X9889297Y18106566D01*
X9723580Y18211126D01*
X9713337Y18216345D01*
X9531345Y18288952D01*
X9520308Y18292221D01*
X9328133Y18330448D01*
X9316688Y18331651D01*
X9120771Y18334215D01*
X9109291Y18333312D01*
X8916180Y18300129D01*
X8905072Y18297152D01*
X8721239Y18229333D01*
X8710857Y18224381D01*
X8542464Y18124198D01*
X8533152Y18117432D01*
X8513164Y18099903D01*
X8504768Y18086666D01*
X254000Y18086666D01*
X254000Y20825745D01*
X11662101Y20825745D01*
X11675678Y20618601D01*
X11726776Y20417401D01*
X11813685Y20228882D01*
X11933493Y20059357D01*
X12082188Y19914504D01*
X12086984Y19911299D01*
X12086987Y19911297D01*
X12156419Y19864904D01*
X12254791Y19799174D01*
X12260094Y19796896D01*
X12260099Y19796893D01*
X12440218Y19719509D01*
X12440221Y19719508D01*
X12445521Y19717231D01*
X12451151Y19715957D01*
X12552366Y19693054D01*
X12647990Y19671416D01*
X12653759Y19671189D01*
X12653762Y19671189D01*
X12732504Y19668096D01*
X12855418Y19663267D01*
X12942283Y19675862D01*
X13055143Y19692225D01*
X13055148Y19692226D01*
X13060857Y19693054D01*
X13257428Y19759781D01*
X13438548Y19861213D01*
X13598150Y19993952D01*
X13730889Y20153554D01*
X13832321Y20334674D01*
X13899048Y20531245D01*
X13899876Y20536954D01*
X13899877Y20536959D01*
X13928302Y20733010D01*
X13928835Y20736684D01*
X13930390Y20796051D01*
X13911395Y21002768D01*
X13855048Y21202562D01*
X13844168Y21224626D01*
X13765788Y21383562D01*
X13763234Y21388741D01*
X13639029Y21555072D01*
X13486593Y21695983D01*
X13311030Y21806754D01*
X13118221Y21883678D01*
X13112553Y21884805D01*
X13112551Y21884806D01*
X12920289Y21923049D01*
X12920287Y21923049D01*
X12914622Y21924176D01*
X12908847Y21924252D01*
X12908843Y21924252D01*
X12805108Y21925609D01*
X12707052Y21926893D01*
X12701355Y21925914D01*
X12701354Y21925914D01*
X12508152Y21892716D01*
X12508149Y21892715D01*
X12502462Y21891738D01*
X12307705Y21819889D01*
X12129303Y21713751D01*
X12124960Y21709942D01*
X11977576Y21580689D01*
X11977573Y21580686D01*
X11973231Y21576878D01*
X11844714Y21413856D01*
X11748058Y21230144D01*
X11686500Y21031893D01*
X11662101Y20825745D01*
X254000Y20825745D01*
X254000Y25206227D01*
X14390350Y25206227D01*
X14409088Y25062935D01*
X14467289Y24930661D01*
X14560276Y24820040D01*
X14567747Y24815067D01*
X14567748Y24815066D01*
X14673101Y24744937D01*
X14673103Y24744936D01*
X14680574Y24739963D01*
X14689141Y24737286D01*
X14689142Y24737286D01*
X14807201Y24700401D01*
X14858721Y24669229D01*
X17458595Y22069356D01*
X17492620Y22007044D01*
X17495500Y21980261D01*
X17495500Y14019739D01*
X17475498Y13951618D01*
X17458595Y13930644D01*
X15391107Y11863157D01*
X15328795Y11829131D01*
X15265910Y11831535D01*
X15205931Y11849473D01*
X15148938Y11866518D01*
X15148936Y11866518D01*
X15140337Y11869090D01*
X15131363Y11869145D01*
X15131361Y11869145D01*
X15068082Y11869531D01*
X14995827Y11869972D01*
X14987196Y11867505D01*
X14987194Y11867505D01*
X14865509Y11832728D01*
X14865505Y11832726D01*
X14856879Y11830261D01*
X14734661Y11753147D01*
X14638999Y11644830D01*
X14577583Y11514018D01*
X14555350Y11371227D01*
X14574088Y11227935D01*
X14632289Y11095661D01*
X14638063Y11088792D01*
X14718418Y10993199D01*
X14725276Y10985040D01*
X14732747Y10980067D01*
X14732748Y10980066D01*
X14838101Y10909937D01*
X14838103Y10909936D01*
X14845574Y10904963D01*
X14854138Y10902287D01*
X14854141Y10902286D01*
X14914542Y10883415D01*
X14983510Y10861868D01*
X15127998Y10859220D01*
X15147530Y10864545D01*
X15258763Y10894870D01*
X15258765Y10894871D01*
X15267422Y10897231D01*
X15340132Y10941875D01*
X15406060Y10960500D01*
X15529066Y10960500D01*
X15538498Y10963565D01*
X15538500Y10963565D01*
X15550287Y10967395D01*
X15569513Y10972011D01*
X15581762Y10973951D01*
X15591555Y10975502D01*
X15611439Y10985634D01*
X15629705Y10993199D01*
X15641496Y10997030D01*
X15650929Y11000095D01*
X15668989Y11013216D01*
X15685846Y11023546D01*
X15705723Y11033674D01*
X15728511Y11056462D01*
X15728515Y11056465D01*
X18063501Y13391452D01*
X18063516Y13391466D01*
X18208534Y13536485D01*
X18231326Y13559277D01*
X18241459Y13579164D01*
X18251791Y13596023D01*
X18259073Y13606045D01*
X18259074Y13606047D01*
X18264904Y13614071D01*
X18267970Y13623507D01*
X18271801Y13635296D01*
X18279367Y13653563D01*
X18284996Y13664610D01*
X18289498Y13673445D01*
X18292990Y13695493D01*
X18297606Y13714718D01*
X18301433Y13726498D01*
X18304499Y13735934D01*
X18304499Y13768160D01*
X18304500Y13768166D01*
X18304500Y22264066D01*
X18297605Y22285287D01*
X18292989Y22304513D01*
X18291049Y22316762D01*
X18289498Y22326555D01*
X18279366Y22346439D01*
X18271801Y22364705D01*
X18267969Y22376498D01*
X18264905Y22385929D01*
X18251784Y22403987D01*
X18241455Y22420843D01*
X18235826Y22431891D01*
X18231326Y22440723D01*
X18140723Y22531326D01*
X15428945Y25243105D01*
X15394919Y25305417D01*
X15393317Y25314310D01*
X15389201Y25343052D01*
X15329388Y25474605D01*
X15323530Y25481404D01*
X15323527Y25481408D01*
X15240916Y25577282D01*
X15240913Y25577284D01*
X15235056Y25584082D01*
X15113790Y25662683D01*
X15096921Y25667728D01*
X14983938Y25701518D01*
X14983936Y25701518D01*
X14975337Y25704090D01*
X14966363Y25704145D01*
X14966361Y25704145D01*
X14903082Y25704531D01*
X14830827Y25704972D01*
X14822196Y25702505D01*
X14822194Y25702505D01*
X14700509Y25667728D01*
X14700505Y25667726D01*
X14691879Y25665261D01*
X14569661Y25588147D01*
X14473999Y25479830D01*
X14412583Y25349018D01*
X14390350Y25206227D01*
X254000Y25206227D01*
X254000Y30047981D01*
X1391801Y30047981D01*
X1401518Y29862576D01*
X1403328Y29856004D01*
X1403329Y29855999D01*
X1429079Y29762516D01*
X1450821Y29683583D01*
X1537410Y29519352D01*
X1657245Y29377546D01*
X1662668Y29373399D01*
X1662670Y29373398D01*
X1799315Y29268925D01*
X1799319Y29268923D01*
X1804736Y29264781D01*
X1810916Y29261899D01*
X1810918Y29261898D01*
X1966823Y29189198D01*
X1966826Y29189197D01*
X1973000Y29186318D01*
X1979648Y29184832D01*
X1979651Y29184831D01*
X2078711Y29162689D01*
X2154188Y29145818D01*
X2159876Y29145500D01*
X2296385Y29145500D01*
X2434573Y29160512D01*
X2555210Y29201111D01*
X2604064Y29217552D01*
X2604066Y29217553D01*
X2610535Y29219730D01*
X2769677Y29315351D01*
X2774634Y29320039D01*
X2774637Y29320041D01*
X2899614Y29438227D01*
X2899616Y29438229D01*
X2904572Y29442916D01*
X3008928Y29596471D01*
X3041355Y29677544D01*
X3075342Y29762516D01*
X3075343Y29762521D01*
X3077876Y29768853D01*
X3078990Y29775580D01*
X3078991Y29775585D01*
X3107084Y29945282D01*
X3107084Y29945285D01*
X3108199Y29952019D01*
X3103170Y30047981D01*
X18891801Y30047981D01*
X18901518Y29862576D01*
X18903328Y29856004D01*
X18903329Y29855999D01*
X18929079Y29762516D01*
X18950821Y29683583D01*
X19037410Y29519352D01*
X19157245Y29377546D01*
X19162668Y29373399D01*
X19162670Y29373398D01*
X19299315Y29268925D01*
X19299319Y29268923D01*
X19304736Y29264781D01*
X19310916Y29261899D01*
X19310918Y29261898D01*
X19466823Y29189198D01*
X19466826Y29189197D01*
X19473000Y29186318D01*
X19479648Y29184832D01*
X19479651Y29184831D01*
X19578711Y29162689D01*
X19654188Y29145818D01*
X19659876Y29145500D01*
X19796385Y29145500D01*
X19934573Y29160512D01*
X20055210Y29201111D01*
X20104064Y29217552D01*
X20104066Y29217553D01*
X20110535Y29219730D01*
X20269677Y29315351D01*
X20274634Y29320039D01*
X20274637Y29320041D01*
X20399614Y29438227D01*
X20399616Y29438229D01*
X20404572Y29442916D01*
X20508928Y29596471D01*
X20541355Y29677544D01*
X20575342Y29762516D01*
X20575343Y29762521D01*
X20577876Y29768853D01*
X20578990Y29775580D01*
X20578991Y29775585D01*
X20607084Y29945282D01*
X20607084Y29945285D01*
X20608199Y29952019D01*
X20598482Y30137424D01*
X20596672Y30143996D01*
X20596671Y30144001D01*
X20550992Y30309835D01*
X20549179Y30316417D01*
X20462590Y30480648D01*
X20342755Y30622454D01*
X20337330Y30626602D01*
X20200685Y30731075D01*
X20200681Y30731077D01*
X20195264Y30735219D01*
X20189084Y30738101D01*
X20189082Y30738102D01*
X20033177Y30810802D01*
X20033174Y30810803D01*
X20027000Y30813682D01*
X20020352Y30815168D01*
X20020349Y30815169D01*
X19850849Y30853056D01*
X19850850Y30853056D01*
X19845812Y30854182D01*
X19840124Y30854500D01*
X19703615Y30854500D01*
X19565427Y30839488D01*
X19480189Y30810802D01*
X19395936Y30782448D01*
X19395934Y30782447D01*
X19389465Y30780270D01*
X19230323Y30684649D01*
X19225366Y30679961D01*
X19225363Y30679959D01*
X19100386Y30561773D01*
X19095428Y30557084D01*
X18991072Y30403529D01*
X18988539Y30397195D01*
X18988537Y30397192D01*
X18924658Y30237484D01*
X18924657Y30237479D01*
X18922124Y30231147D01*
X18921010Y30224420D01*
X18921009Y30224415D01*
X18907697Y30144001D01*
X18891801Y30047981D01*
X3103170Y30047981D01*
X3098482Y30137424D01*
X3096672Y30143996D01*
X3096671Y30144001D01*
X3050992Y30309835D01*
X3049179Y30316417D01*
X2962590Y30480648D01*
X2842755Y30622454D01*
X2837330Y30626602D01*
X2700685Y30731075D01*
X2700681Y30731077D01*
X2695264Y30735219D01*
X2689084Y30738101D01*
X2689082Y30738102D01*
X2533177Y30810802D01*
X2533174Y30810803D01*
X2527000Y30813682D01*
X2520352Y30815168D01*
X2520349Y30815169D01*
X2350849Y30853056D01*
X2350850Y30853056D01*
X2345812Y30854182D01*
X2340124Y30854500D01*
X2203615Y30854500D01*
X2065427Y30839488D01*
X1980189Y30810802D01*
X1895936Y30782448D01*
X1895934Y30782447D01*
X1889465Y30780270D01*
X1730323Y30684649D01*
X1725366Y30679961D01*
X1725363Y30679959D01*
X1600386Y30561773D01*
X1595428Y30557084D01*
X1491072Y30403529D01*
X1488539Y30397195D01*
X1488537Y30397192D01*
X1424658Y30237484D01*
X1424657Y30237479D01*
X1422124Y30231147D01*
X1421010Y30224420D01*
X1421009Y30224415D01*
X1407697Y30144001D01*
X1391801Y30047981D01*
X254000Y30047981D01*
X254000Y34957814D01*
X1141018Y34957814D01*
X1166579Y34689900D01*
X1230547Y34428482D01*
X1331583Y34179037D01*
X1467569Y33946790D01*
X1635658Y33736605D01*
X1832327Y33552887D01*
X2053457Y33399484D01*
X2294416Y33279609D01*
X2298750Y33278188D01*
X2298753Y33278187D01*
X2545823Y33197193D01*
X2545829Y33197192D01*
X2550156Y33195773D01*
X2554647Y33194993D01*
X2554648Y33194993D01*
X2811538Y33150389D01*
X2811546Y33150388D01*
X2815319Y33149733D01*
X2819156Y33149542D01*
X2898777Y33145578D01*
X2898785Y33145578D01*
X2900348Y33145500D01*
X3068374Y33145500D01*
X3070642Y33145665D01*
X3070654Y33145665D01*
X3201457Y33155156D01*
X3268425Y33160015D01*
X3272880Y33160999D01*
X3272883Y33160999D01*
X3526770Y33217053D01*
X3526772Y33217054D01*
X3531226Y33218037D01*
X3782900Y33313387D01*
X4018172Y33444069D01*
X4164842Y33556004D01*
X4228491Y33604579D01*
X4228495Y33604583D01*
X4232116Y33607346D01*
X4420249Y33799797D01*
X4527242Y33946790D01*
X4575942Y34013696D01*
X4575947Y34013703D01*
X4578630Y34017390D01*
X4703941Y34255567D01*
X4793557Y34509338D01*
X4818688Y34636844D01*
X4844720Y34768917D01*
X4844721Y34768923D01*
X4845601Y34773389D01*
X4854782Y34957814D01*
X4858755Y35037617D01*
X4858755Y35037623D01*
X4858982Y35042186D01*
X4833421Y35310100D01*
X4769453Y35571518D01*
X4668417Y35820963D01*
X4532431Y36053210D01*
X4364342Y36263395D01*
X4167673Y36447113D01*
X3946543Y36600516D01*
X3705584Y36720391D01*
X3701250Y36721812D01*
X3701247Y36721813D01*
X3454177Y36802807D01*
X3454171Y36802808D01*
X3449844Y36804227D01*
X3445352Y36805007D01*
X3188462Y36849611D01*
X3188454Y36849612D01*
X3184681Y36850267D01*
X3174718Y36850763D01*
X3101223Y36854422D01*
X3101215Y36854422D01*
X3099652Y36854500D01*
X2931626Y36854500D01*
X2929358Y36854335D01*
X2929346Y36854335D01*
X2798543Y36844844D01*
X2731575Y36839985D01*
X2727120Y36839001D01*
X2727117Y36839001D01*
X2473230Y36782947D01*
X2473228Y36782946D01*
X2468774Y36781963D01*
X2217100Y36686613D01*
X1981828Y36555931D01*
X1978196Y36553159D01*
X1771509Y36395421D01*
X1771505Y36395417D01*
X1767884Y36392654D01*
X1579751Y36200203D01*
X1577066Y36196514D01*
X1424058Y35986304D01*
X1424053Y35986297D01*
X1421370Y35982610D01*
X1296059Y35744433D01*
X1206443Y35490662D01*
X1205560Y35486180D01*
X1170855Y35310100D01*
X1154399Y35226611D01*
X1154172Y35222058D01*
X1154172Y35222055D01*
X1144991Y35037617D01*
X1141018Y34957814D01*
X254000Y34957814D01*
X254000Y36962575D01*
X256421Y36987156D01*
X256555Y36987830D01*
X258976Y37000000D01*
X256555Y37012172D01*
X256555Y37019754D01*
X257162Y37032104D01*
X267118Y37133188D01*
X271935Y37157408D01*
X307187Y37273617D01*
X316631Y37296418D01*
X373876Y37403517D01*
X387594Y37424047D01*
X464626Y37517909D01*
X482091Y37535374D01*
X575953Y37612406D01*
X596483Y37626124D01*
X703582Y37683369D01*
X726383Y37692813D01*
X842592Y37728065D01*
X866812Y37732882D01*
X967896Y37742838D01*
X980246Y37743445D01*
X987828Y37743445D01*
X1000000Y37741024D01*
X1012847Y37743579D01*
X1037425Y37746000D01*
X20962575Y37746000D01*
X20987153Y37743579D01*
G37*
%TD.AperFunction*%
%TD*%
M02*
